<?xml version="1.0" encoding="UTF-8" standalone="no"?>
<!-- Created with Inkscape (http://www.inkscape.org/) -->

<svg
   xmlns:dc="http://purl.org/dc/elements/1.1/"
   xmlns:cc="http://creativecommons.org/ns#"
   xmlns:rdf="http://www.w3.org/1999/02/22-rdf-syntax-ns#"
   xmlns:svg="http://www.w3.org/2000/svg"
   xmlns="http://www.w3.org/2000/svg"
   xmlns:sodipodi="http://sodipodi.sourceforge.net/DTD/sodipodi-0.dtd"
   xmlns:inkscape="http://www.inkscape.org/namespaces/inkscape"
   width="402.6"
   height="327.8"
   id="svg2"
   sodipodi:version="0.32"
   inkscape:version="0.48.2 r9819"
   sodipodi:docname="lion-passant-guardant.svg"
   inkscape:output_extension="org.inkscape.output.svg.inkscape"
   version="1.0">
  <defs
     id="defs4">
    <inkscape:perspective
       sodipodi:type="inkscape:persp3d"
       inkscape:vp_x="0 : 526.2 : 1"
       inkscape:vp_y="0 : 1000 : 0"
       inkscape:vp_z="744.1 : 526.2 : 1"
       inkscape:persp3d-origin="372 : 350.8 : 1"
       id="perspective10" />
    <inkscape:perspective
       id="perspective2498"
       inkscape:persp3d-origin="372 : 350.8 : 1"
       inkscape:vp_z="744.1 : 526.2 : 1"
       inkscape:vp_y="0 : 1000 : 0"
       inkscape:vp_x="0 : 526.2 : 1"
       sodipodi:type="inkscape:persp3d" />
  </defs>
  <sodipodi:namedview
     id="base"
     pagecolor="#ffffff"
     bordercolor="#666666"
     borderopacity="1.0"
     gridtolerance="10000"
     guidetolerance="10"
     objecttolerance="10"
     inkscape:pageopacity="0.0"
     inkscape:pageshadow="2"
     inkscape:zoom="2.012"
     inkscape:cx="-44.35"
     inkscape:cy="154.7"
     inkscape:document-units="px"
     inkscape:current-layer="svg2"
     showgrid="false"
     inkscape:window-width="1280"
     inkscape:window-height="713"
     inkscape:window-x="0"
     inkscape:window-y="0"
     showguides="true"
     inkscape:guide-bbox="true"
     fit-margin-top="0"
     fit-margin-left="0"
     fit-margin-right="0"
     fit-margin-bottom="0" />
  <metadata
     id="metadata7">
    <rdf:RDF>
      <cc:Work
         rdf:about="">
        <dc:format>image/svg+xml</dc:format>
        <dc:type
           rdf:resource="http://purl.org/dc/dcmitype/StillImage" />
        <cc:license
           rdf:resource="" />
        <dc:title></dc:title>
        <dc:creator>
          <cc:Agent>
            <dc:title>http://commons.wikimedia.org/wiki/User:Sodacan</dc:title>
          </cc:Agent>
        </dc:creator>
      </cc:Work>
    </rdf:RDF>
  </metadata>
  <g
     inkscape:groupmode="layer"
     id="body"
     inkscape:label="Main"
     transform="translate(-8.664,-11.1)">
    <path
       style="fill:#ffff00;fill-opacity:1;fill-rule:evenodd;stroke:#000000;stroke-width:3;stroke-linecap:butt;stroke-linejoin:miter;stroke-miterlimit:4;stroke-opacity:1;stroke-dasharray:none"
       d="m 51.98,109.8 c 0,0 3.67,-11.73 7.83,-14.33 1.27,-0.8 2.99,0.5 4.97,-0.2 2.12,-0.7 6.86,-1.8 7.44,-4 0.61,-2.2 -2.29,-7.2 -2.29,-7.2 0,0 -6.6,-5.7 -10.12,-6.2 -3.83,-0.5 -12.41,3.5 -12.41,3.5 l -2.48,10.3 7.06,18.13 z"
       id="path8115"
       sodipodi:nodetypes="cssscsccc"
       inkscape:connector-curvature="0" />
    <path
       style="fill:#ffff00;fill-opacity:1;fill-rule:evenodd;stroke:#000000;stroke-width:3;stroke-linecap:butt;stroke-linejoin:miter;stroke-miterlimit:4;stroke-opacity:1;stroke-dasharray:none"
       d="m 229.4,283.8 c 0,0 -14.1,2.1 -17.4,-1.2 -1,-1.1 -0.3,-2.7 -0.9,-4 -0.7,-1.6 -1.7,-3 -3.5,-3.2 -2.7,-0.3 -5.3,3.2 -6.7,5.6 -1.9,3.1 -2.1,11.3 -2.1,11.3 l 5.5,7.3 17.1,-1.2 8,-14.6 z"
       id="path8117"
       sodipodi:nodetypes="csssscccc"
       inkscape:connector-curvature="0" />
    <path
       style="fill:#ffff00;fill-opacity:1;fill-rule:evenodd;stroke:#000000;stroke-width:3;stroke-linecap:butt;stroke-linejoin:miter;stroke-miterlimit:4;stroke-opacity:1;stroke-dasharray:none"
       d="m 338.3,206.4 c 0,0 -30.6,22.8 -41.7,34.7 -2.6,2.9 -6.4,6.9 -7.4,10.6 -0.9,3.3 -0.1,8.1 1,11.3 1.3,3.6 3.6,9.2 7.1,10.4 3.3,1.1 11,-3.6 11,-3.6 0,0 -3.9,7.8 -7,9.5 -2.2,1.4 -6,1.5 -8.6,1.1 -1.9,-0.4 -5.7,-3.1 -5.7,-3.1 0,0 0,4.6 -1.1,6.4 -1.4,2.3 -6.3,5.8 -6.3,5.8 0,0 0.2,-3.5 0.1,-4.9 -0.1,-2.3 -0.7,-5.1 -1.9,-7.1 -0.8,-1.2 -4.2,-2.3 -4.2,-2.3 0,0 1.5,2.5 1.8,3.7 0.8,2.5 1.3,6.1 1,8.8 -0.2,1.5 -2,3.1 -1.9,4.6 0.2,2 0.1,3.2 1.8,4.2 1.3,0.8 3.1,1.8 4.5,1.1 0.9,-0.4 3,-1.3 3.3,-2.2 0.3,-0.8 1.1,-2.6 1.1,-2.6 0,0 1.3,2.8 1.2,5.4 -0.1,1.4 -1.3,2.8 -1.8,3.7 -0.3,0.4 -1.2,2.3 -3.4,2.9 -2.2,0.6 -4.8,0.3 -5.3,0.2 0,0 -4.3,-0.2 -5.9,-1.1 -2.5,-1.3 -5.1,-4.3 -6.5,-6.6 -0.8,-1.4 -0.7,-3.7 -1.5,-5 -0.7,-1 -2.6,-1.7 -3.3,-2.8 -0.7,-1.2 -0.7,-1.1 -0.7,-1.1 0,0 1.3,0.2 1.9,2.5 0.6,2.6 2.1,9.3 2.1,9.3 l -6.2,-1 -4.1,-3.3 c 0,0 -1.4,-1.1 -1.3,-1.7 0.1,-0.7 1.6,-0.8 1.8,-1.4 0.6,-1.6 -1.8,-3.7 -1.8,-3.7 0,0 2.2,2.2 1.7,3.8 -0.3,0.6 -1.7,0.7 -1.7,1.3 -0.1,2.3 2.6,3.2 5.6,5.3 2.2,1.4 5,2.3 5.5,4 0.5,1.5 -1.4,5.1 -1.4,5.1 l -11.1,5.5 c 0,0 -4.9,0.2 -6.5,-0.9 -2.6,-1.8 -7.2,-8.8 -7.2,-8.8 l -0.7,0.4 0,7 c 0,0 5.4,4.9 4.7,7.4 -0.6,1.8 -5.6,2.8 -5.6,2.8 l -14.4,0.9 c 0,0 -3.2,-2.2 -3.7,-3.7 -0.8,-2.2 0.9,-7.9 0.9,-7.9 l -5.5,1.9 c 0,0 -2.1,7 -4.7,8.4 -1.2,0.6 -3.3,0 -4.6,-0.5 -2.6,-0.9 -7.4,-5.1 -7.4,-5.1 l -4.2,-17.6 c 0,0 2.2,-3 3.7,-3.3 3.1,-0.5 9.7,3.7 9.7,3.7 0,0 10.5,-3.1 13.9,-6 3.7,-3.1 5.8,-9.8 8.9,-13.5 2.1,-2.5 5.1,-5.7 7.9,-7.4 1,-0.6 2.5,-1.2 3.7,-1.4 2.5,-0.3 5.9,0.3 8.3,0.9 2.4,0.7 5,2.9 7.4,3.3 1.3,0.2 4.2,-0.5 4.2,-0.5 0,0 -8.5,-1.7 -12.1,-2.8 -4.3,-1.2 -9.8,-4.5 -14.3,-5.1 -1.4,-0.1 -3.4,1 -4.7,0.5 -2.5,-0.9 -5,-4 -6,-6.5 -0.2,-0.4 0.3,-1.1 0,-1.4 -1.1,-1.1 -3.6,0.4 -5.1,0 -3.3,-0.9 -7.4,-3.5 -9.8,-6 -2,-2.2 -4.6,-5.8 -4.6,-8.8 0,-2.4 2.1,-5.3 3.7,-7 2.4,-2.4 9.8,-5.6 9.8,-5.6 0,0 -3.4,4.7 -3.7,7 -0.3,1.7 -0.1,4.2 0.9,5.6 0.5,0.7 1.9,1.1 2.8,1.4 3.9,1 13.4,0.4 13.4,0.4 0,0 4.2,-7.7 6.5,-10.6 2.9,-3.8 7.4,-8.3 11.1,-11.2 2.1,-1.5 5.1,-3.1 7.5,-4.2 2.8,-1.2 7.4,-1.2 9.7,-3.2 1.4,-1.2 2.1,-3.8 2.8,-5.6 0.7,-1.9 1.9,-4.4 1.9,-6.5 -0.1,-4.1 -4.2,-13 -4.2,-13 0,0 -105.6,47.2 -153.7,45.7 -8.8,-0.3 -20.36,-5 -27.56,-10.1 -3.7,-2.6 -9.47,-11.5 -9.47,-11.5 0,0 -7.43,3.7 -8.77,6.7 -0.99,2.3 -0.1,5.8 0.67,8.1 0.85,2.5 4.73,7.5 4.73,7.5 0,0 -7.78,-2.4 -10.12,-4.8 -2.47,-2.5 -4,-7.3 -4.73,-10.8 -0.66,-3.1 -0.24,-6.1 1.35,-9 1.17,-2 4.68,-6.2 4.68,-6.2 0,0 -4.84,-7.5 -6.66,-11.2 -1.59,-3.3 -4.09,-11.3 -4.09,-11.3 0,0 -2.96,0.6 -4.05,1.3 -0.97,0.6 -2.19,1.7 -2.7,2.7 -0.71,1.5 -1.52,4 -0.67,5.4 0.89,1.5 5.4,2 5.4,2 0,0 -2.09,2.6 -3.38,2.7 -2.7,0.3 -6.55,-1.8 -8.09,-4 -2.31,-3.4 -2.38,-9.6 -1.35,-13.5 0.62,-2.4 2.88,-5.1 4.72,-6.8 1.89,-1.7 7.42,-4 7.42,-4 0,0 -3.98,-4.4 -4.72,-6.8 -0.55,-1.7 0.49,-4.3 0,-6 -0.63,-2.3 -3.94,-4.4 -4.05,-6.8 C 37.95,144 48.38,130 48.38,130 c 0,0 -6.36,12.2 -11.47,14.2 -2.3,0.8 -8.09,-1.4 -8.09,-1.4 L 24.09,130 c 0,0 0.56,-4.5 2.03,-5.4 3.45,-2.1 13.49,1.4 13.49,1.4 l -8.77,-2.7 0,-10.2 7.42,-3.3 c 0,0 -8.52,4.4 -12.14,3.3 -2.07,-0.6 -4.73,-5.4 -4.73,-5.4 l 2.03,-10.13 c 0,0 2.18,-4.6 4.05,-4.7 5,-0.3 12.14,11.53 12.14,11.53 l -7.42,-8.83 2.7,-4.1 7.42,7.5 -7.42,-8.1 0.67,-7.4 2.7,0 c 0,0 -5.07,-1.3 -6.07,-3 -1.17,-1.9 -1.64,-4.6 -0.45,-6.5 1.84,-2.9 10.57,-4.5 10.57,-4.5 0,0 8.07,-0.3 10.12,1.8 1.74,1.8 2.35,4.3 2.02,6.8 -0.27,2 -3.82,5.8 -3.82,5.8 0,0 2.41,12.2 4.5,17.13 2.43,5.7 6.9,12.7 10.79,17.5 3.7,4.6 10.52,9 14.22,13.5 5.6,7 11.4,17.7 15.5,25.7 5.16,10.1 14.76,35.1 14.76,35.1 l 126.2,-28.4 54.6,2 37.1,15.6 10,24.4 z"
       id="path8042"
       sodipodi:nodetypes="csssscsscscsscsssssscsssssssscscccsscssssccscccsccsccssccscsssssscssssssssscssscsssssscsscsscssscscssscsssscssscsccsccccsccscccccccsscsscssssccccc"
       inkscape:connector-curvature="0" />
    <path
       style="fill:none;stroke:#000000;stroke-width:2.5;stroke-linecap:butt;stroke-linejoin:miter;stroke-miterlimit:4;stroke-opacity:1;stroke-dasharray:none"
       d="m 220.4,258.2 c 0,0 3.5,-1.1 4.9,-1.9 1.2,-0.7 3.7,-3 3.7,-3"
       id="path8120"
       sodipodi:nodetypes="css"
       inkscape:connector-curvature="0" />
    <path
       style="fill:none;stroke:#000000;stroke-width:2.5;stroke-linecap:butt;stroke-linejoin:miter;stroke-miterlimit:4;stroke-opacity:1;stroke-dasharray:none"
       d="m 237.1,254 c 0,0 -3.3,0.7 -4.4,1.6 -1.2,1 -2.4,3.1 -2.5,4.6 -0.2,1.7 1.8,5.4 1.8,5.4"
       id="path8122"
       sodipodi:nodetypes="csss"
       inkscape:connector-curvature="0" />
    <path
       style="fill:none;stroke:#000000;stroke-width:2.5;stroke-linecap:butt;stroke-linejoin:miter;stroke-miterlimit:4;stroke-opacity:1;stroke-dasharray:none"
       d="m 240.6,256.1 c 0,0 -3,1.7 -3.5,3 -0.7,1.9 0.4,4.8 1.2,6.7 0.4,1 2.1,3 2.1,3"
       id="path8124"
       sodipodi:nodetypes="csss"
       inkscape:connector-curvature="0" />
    <path
       style="fill:none;stroke:#000000;stroke-width:2.5;stroke-linecap:butt;stroke-linejoin:miter;stroke-miterlimit:4;stroke-opacity:1;stroke-dasharray:none"
       d="m 247.1,257.2 c 0,0 -2.8,2.7 -3.3,4.2 -0.4,1.4 0,3.5 0.5,4.9 0.7,1.8 3.9,5.1 3.9,5.1"
       id="path8126"
       sodipodi:nodetypes="csss"
       inkscape:connector-curvature="0" />
    <path
       style="fill:none;stroke:#000000;stroke-width:2.5;stroke-linecap:butt;stroke-linejoin:miter;stroke-miterlimit:4;stroke-opacity:1;stroke-dasharray:none"
       d="m 234.3,304.8 c 0,0 0.4,-4 0.7,-5.4 0.4,-1.8 4.4,-4.6 4.4,-4.6"
       id="path8128"
       sodipodi:nodetypes="css"
       inkscape:connector-curvature="0" />
    <path
       style="fill:none;stroke:#000000;stroke-width:2.5;stroke-linecap:butt;stroke-linejoin:miter;stroke-miterlimit:4;stroke-opacity:1;stroke-dasharray:none"
       d="m 217.4,309.9 c 0,0 -0.1,-2.8 0.5,-3.7 0.7,-1.4 4.1,-3.1 4.1,-3.1"
       id="path8130"
       sodipodi:nodetypes="csc"
       inkscape:connector-curvature="0" />
    <path
       style="fill:none;stroke:#000000;stroke-width:2.5;stroke-linecap:butt;stroke-linejoin:miter;stroke-miterlimit:4;stroke-opacity:1;stroke-dasharray:none"
       d="m 60.32,208.1 c 0,0 3.96,-3.8 5.41,-5.4 1.18,-1.3 2.86,-3 4.33,-3.9 0.89,-0.6 3.25,-1.5 3.25,-1.5"
       id="path8132"
       sodipodi:nodetypes="csss"
       inkscape:connector-curvature="0" />
    <path
       style="fill:none;stroke:#000000;stroke-width:2.5;stroke-linecap:butt;stroke-linejoin:miter;stroke-miterlimit:4;stroke-opacity:1;stroke-dasharray:none"
       d="m 49.5,184.7 c 0,0 3.23,-1.2 4.69,-1.4 2.14,-0.4 5.19,0.7 7.21,0 2.44,-1 4.85,-3.8 6.5,-5.8 1.1,-1.4 2.88,-5.1 2.88,-5.1"
       id="path8134"
       sodipodi:nodetypes="cssss"
       inkscape:connector-curvature="0" />
    <path
       style="fill:none;stroke:#000000;stroke-width:2.5;stroke-linecap:butt;stroke-linejoin:miter;stroke-miterlimit:4;stroke-opacity:1;stroke-dasharray:none"
       d="m 46.26,170.6 c 0,0 5.29,0.1 7.54,-1.8"
       id="path8136"
       sodipodi:nodetypes="cs"
       inkscape:connector-curvature="0" />
    <path
       style="fill:none;stroke:#000000;stroke-width:2.5;stroke-linecap:butt;stroke-linejoin:miter;stroke-miterlimit:4;stroke-opacity:1;stroke-dasharray:none"
       d="m 48.9,141.5 c 0,0 2.83,16 8.24,20.7 3.82,3.4 12.39,5 12.39,5"
       id="path8152"
       sodipodi:nodetypes="css"
       inkscape:connector-curvature="0" />
    <path
       style="fill:#ffff00;fill-opacity:1;fill-rule:evenodd;stroke:#000000;stroke-width:3;stroke-linecap:butt;stroke-linejoin:miter;stroke-miterlimit:4;stroke-opacity:1;stroke-dasharray:none"
       d="m 268,197.5 c -4.1,1.6 -8.6,6.2 -11.5,9.6 -1.6,1.8 -4.3,6.9 -4.3,6.9 0,0 6.5,-0.7 9.2,-1.3 5.5,-1.1 12.3,-4.7 17.9,-5 4.9,-0.2 11.5,1.3 16.2,2.7 5.4,1.5 17.2,7.3 17.2,7.3 0,0 -11.1,-18.5 -19.2,-21.9 -7,-2.9 -18.3,-1.2 -25.5,1.7 z"
       id="path3303"
       sodipodi:nodetypes="cscssscss"
       inkscape:connector-curvature="0" />
    <path
       inkscape:connector-curvature="0"
       style="fill:#ffff00;fill-opacity:1;fill-rule:evenodd;stroke:#000000;stroke-width:3;stroke-linecap:butt;stroke-linejoin:miter;stroke-miterlimit:4;stroke-opacity:1;stroke-dasharray:none"
       d="m 59.51,284.3 c 0.79,-1.1 2.23,-2.3 3.47,-2.7 0.99,-0.3 2.47,-0.3 3.47,0 2.67,0.8 5.16,4.1 7.75,5.1 4.24,1.7 14.94,2.5 14.94,2.5 l -11.4,13.2 -17.92,1.7 -3.26,-5.6 c 0,0 -0.45,-4.6 -0.11,-6.5 0.45,-2.4 1.56,-5.7 3.06,-7.7 z"
       id="path7806"
       sodipodi:nodetypes="csssccccss" />
    <path
       inkscape:connector-curvature="0"
       style="fill:#f8c300;fill-opacity:1;fill-rule:evenodd;stroke:#000000;stroke-width:1px;stroke-linecap:butt;stroke-linejoin:miter;stroke-opacity:1"
       d="m 59.62,284.4 0,0 z"
       id="path7808" />
    <path
       inkscape:connector-curvature="0"
       style="fill:#f8de00;fill-opacity:1;fill-rule:evenodd;stroke:#000000;stroke-width:3;stroke-linecap:butt;stroke-linejoin:miter;stroke-miterlimit:4;stroke-opacity:1;stroke-dasharray:none"
       d="m 356.2,291.5 c 0,0 -9,1 -12.2,-0.7 -2.3,-1.2 -2.9,-5.6 -5.1,-6.7 -2.2,-1.1 -5.9,-1.2 -8.1,-0.2 -1.7,0.7 -3.9,4.6 -3.9,4.6 l 4.1,11.7 5.8,1 9.8,-0.2 9.6,-9.5 z"
       id="path7851"
       sodipodi:nodetypes="csssccccc" />
    <path
       inkscape:connector-curvature="0"
       style="fill:#ffff00;fill-opacity:1;fill-rule:evenodd;stroke:#000000;stroke-width:3;stroke-linecap:butt;stroke-linejoin:miter;stroke-miterlimit:4;stroke-opacity:1;stroke-dasharray:none"
       d="m 153.2,154.4 -69.46,124.3 -8,19.7 -6.15,1.2 c 0,0 -7.79,-2.6 -11.07,-1.9 -2.2,0.5 -6.15,4.4 -6.15,4.4 l 6.76,15.3 c 0,0 3.28,2.4 4.93,2.5 1.74,0.1 5.53,-1.8 5.53,-1.8 l 2.46,-5.6 c 0,-1 12.19,-10.8 15.19,-11.7 0.7,-0.2 0.7,-2.2 0,-2.4 -0.8,-0.3 -1.8,2.2 -3.3,3.6 -2,1.9 -2.4,3.5 -3.4,4.3 -3.7,3 -3.4,3.5 -4.2,7.4 -0.3,1.8 1.9,5.6 1.9,5.6 l 19.7,2.4 c 0,0 6.16,-3.4 6.66,-6.1 0.7,-3.2 -3.6,-6.7 -4.3,-9.9 -0.46,-2.3 -2.26,-7.6 0,-8 2.3,-0.3 -1.06,4.5 -0.3,8.1 1,4.5 5.9,7.9 5.9,7.9 l 8,0.7 c 0,0 8.7,-7.3 10.4,-11.7 0.3,-0.7 0.5,-1.9 0,-2.5 -2.1,-2.7 -11.1,-3.1 -11.1,-3.1 0,0 -0.3,-1.4 0.2,-2.2 1.3,-1.9 6,-0.8 6,-0.8 l 1.8,-13 3.1,8 c 0,0 4.3,-5.8 5.3,-9.4 0.8,-2.7 0.9,-6.6 0,-9.2 -0.5,-1.8 -0.8,-3.7 -0.8,-3.7 0,0 4.3,3.7 5.8,6.7 0.8,1.9 0.2,7.8 0.2,7.8 0,0 2.6,-3.1 3.2,-4.7 1.5,-3.4 2.8,-8.4 2.3,-12.1 -0.4,-2.8 -2.5,-6.3 -4.3,-8.6 -2.1,-2.7 -2.9,-3.5 -2.9,-3.5 0,0 1.3,0.2 3.2,1.5 2.1,1.5 4.9,4.3 6.5,6.9 1.5,2.6 1.8,9.9 1.8,9.9 l 3.2,-6.3 1.1,-7.3 -2.4,-16 c 0,0 9,-11.4 14.7,-12.9 6.6,-1.7 15.4,5.2 22.2,4.9 6.5,-0.2 14.8,-3.7 20.9,-6.1 9.8,-3.8 21.8,-11.2 31.4,-15.4 7.2,-3.1 16.9,-7.5 24.6,-9.2 8.5,-1.9 20.6,-5 28.9,-2.5 5.2,1.6 11.6,6.4 14.2,11.1 3.9,7.2 1.1,18.4 1.2,26.6 0,1.4 -2.4,3.2 -2.1,7.5 0.2,4.4 3.2,11.4 2,12.6 -2.2,2.2 -8.4,3.4 -8.4,3.4 0,0 3,2.6 6.7,3.2 2.9,0.4 6.5,-1.1 7.3,-1.8 1.8,-1.8 3.3,-5.2 3.7,-6 2,-3.8 0,-14.1 0,-14.1 0,0 0.2,15.6 4.3,20.3 1.8,2 5.1,2.1 6.6,4.3 1.6,2.5 3.1,5.4 1.2,7.6 -2.9,3.2 -8.2,5.8 -8.2,5.8 0,0 4.8,1.6 9.3,0.4 2.8,-0.7 5.2,-2.6 6.5,-5.2 2.9,-5.7 4.1,-14.7 3.1,-20.9 -0.6,-3.7 -5.6,-11.1 -5.6,-11.1 0,0 4.4,14 9.3,17.2 3.4,2.3 10.7,1.8 10.7,1.8 0,0 -3.6,6.7 -4.6,10.5 -1.5,6.1 1.9,21 1.9,21 0,0 -8.1,3.2 -11.7,3.6 -2.4,0.3 -5.9,-1.7 -8,-0.6 -1.6,0.8 -3.1,5 -3.1,5 l 8.6,15.3 c 0,0 4.9,2.1 6.8,1.3 3.2,-1.5 3.6,-7.2 6,-9.9 2.4,-2.7 8.8,-6.7 8.8,-6.7 l -4.3,14.7 3,4.3 14.2,0 c 0,0 4.4,-5.2 4.3,-8 -0.2,-3.7 -6.8,-10.4 -6.8,-10.4 0,0 3.7,0.3 5.5,1.3 2.2,1.3 4.4,5.4 4.4,5.4 l 6.7,0 8,-6.1 c 0,0 1.2,-5.1 0,-6.8 -2.1,-2.9 -11.3,-3.7 -11.3,-3.7 l 7,-8.6 -4.3,-7.4 c 0,0 9.7,5.8 14.2,4.9 2.8,-0.5 6,-3.5 7.4,-6.1 1.1,-2.1 0.6,-8 0.6,-8 0,0 -2.1,4.1 -3.7,4.9 -1.5,0.8 -4.4,1.2 -5.6,0 -2.1,-2.3 0.7,-10.4 0.7,-10.4 0,0 7.3,-1.8 9.8,-3.7 1.8,-1.4 4.3,-3.9 4.3,-6.2 0.1,-2.4 -4.3,-6.8 -4.3,-6.8 0,0 0.6,3.6 -0.6,5 -1.3,1.4 -4.4,3.1 -6.2,2.4 -3.3,-1.3 -6.7,-9.8 -6.7,-9.8 0,0 6.5,-3.3 7.7,-6.5 0.5,-1.3 0.5,-4.5 -0.8,-6.3 -1.9,-2.7 -3.4,-3.4 -3.4,-3.4 0,0 1.3,4.2 -0.5,5.7 -1.8,1.5 -5,2.7 -7.3,2.5 -4,-0.3 -9.1,-3.2 -11.7,-6.2 -3.3,-3.5 -4.5,-8.6 -6.4,-13 -0.6,-1.3 -1.3,-3.7 -1.3,-3.7 0,0 6.6,-0.5 9.3,-1.8 1.9,-0.9 4.7,-4.6 5.1,-6.7 0.7,-3 -1.1,-8 -3.7,-9.7 -2.2,-1.4 -6.4,-0.3 -6.4,-0.3 0,0 3,2.8 4,4.3 0.7,1 -1.2,3.8 -1.8,4.9 -0.6,0.9 -2.4,0.9 -3.5,0.6 -5,-1.1 -9.5,-6.1 -12.6,-10.3 -2.1,-2.9 -3.7,-11.6 -3.7,-11.6 0,0 9.8,-0.8 13.6,-2.5 6,-2.8 13.3,-8.7 17.2,-14.2 3.1,-4.3 5.3,-11.3 6.2,-16.6 0.9,-6 0.5,-14.3 -0.7,-20.3 -1,-5.4 -3.3,-12.5 -6.1,-17.2 -2.6,-4.3 -11.1,-12.33 -11.1,-12.33 0,0 -4.6,-2.9 -5.5,-4.9 -0.9,-1.9 -1.2,-5.2 0,-6.8 0.8,-1.1 3.2,-2 4.3,-1.2 1,0.8 3.1,7.4 3.1,7.4 0,0 2.8,-1.7 4.3,-4.4 1.1,-2.1 -0.3,-5.7 -1.3,-7.9 -0.7,-1.8 -2,-4.1 -3.7,-5 -2.9,-1.5 -8.1,-2 -11.4,-1.3 -4.2,0.8 -8.6,3.6 -11.4,6.9 -2.1,2.3 -3.9,6.7 -4.2,9.8 -0.2,1.7 0.2,5.9 0.2,5.9 0,0 -21,-2 -31,-1.6 -10,0.4 -24.5,3.9 -35.1,4.3 -4.4,0.2 -10.4,0.3 -14.7,-0.6 -6.6,-1.3 -15.6,-3.9 -20.9,-8 -2.6,-1.9 -5,-5.7 -6.2,-8.6 -1.5,-3.8 -1.9,-9.3 -0.1,-13 1.4,-2.9 4.4,-5.3 7.5,-6.1 3.2,-0.8 8.3,-1.2 11.1,0.6 1.3,0.9 2.7,3.3 2.4,5 -0.3,1.6 -2.6,3.2 -4.3,3.7 -1.8,0.4 -6.1,-1.3 -6.1,-1.3 0,0 -0.9,3.4 0.6,5.3 1.9,2.6 6.7,4.1 9.8,3.7 2.9,-0.3 7.1,-3 9,-5.2 2.8,-3.3 5.2,-10.6 5.2,-10.6 0,0 15.1,1.6 21.5,0.6 8.3,-1.2 16.9,-2.6 24.3,-6.4 4.1,-2.2 10.6,-5.7 13.1,-9.5 2.9,-4.3 4.1,-11.1 3,-16.1 -1,-4.47 -4.8,-7.89 -9.2,-9.13 -3.4,-0.95 -9.6,1.93 -9.6,1.93 0,0 5.6,0.52 7.4,1.85 2,1.41 4.2,3.38 4.8,5.69 0.4,1.06 -0.5,4.36 -1,5.26 -1.2,2 -3.6,3.3 -5.7,4.3 -3.1,1.4 -7.9,1.6 -11.3,1.6 -4.5,0 -11.6,-3.9 -16,-5 -3.3,-0.8 -12.2,0.1 -12.2,0.1 0,0 5.8,-7.85 5.9,-10.83 0,-3.74 -0.3,-8.87 -2.7,-11.69 -1.8,-2.06 -5.3,-3.85 -8,-4.31 -2.4,-0.41 -4.1,-0.49 -5.7,1.35 -1,1.13 -2.6,3.35 -2.3,4.8 0.4,2.13 1.3,3.35 1.3,3.35 0,0 1.3,-2.07 3,-3.35 0.9,-0.67 2.8,-0.64 3.7,0 0.9,0.69 2.7,3.81 2.5,4.95 -0.7,3.75 -6.9,7.97 -10.2,9.85 -5.1,2.88 -12.7,0 -18.2,1.58 -6,1.6 -14.3,4.1 -19.1,8 -4.7,3.7 -9.8,10.3 -11.7,16 -2.1,6 -2,15 -0.5,21.2 1.4,6.1 5.6,13.8 9.8,18.4 4.9,5.43 13.6,10.53 20.3,13.53 5.2,2.4 12.8,3.9 18.5,4.4 5.3,0.4 12.5,-0.8 17.8,-1.3 7.9,-0.8 26.5,-2.4 26.5,-2.4 0,0 -13.4,4.2 -17.9,8 -3,2.5 -6.8,7.1 -7.4,11 -0.3,2.9 1,7.2 3.1,9.3 2,1.8 8.6,2.4 8.6,2.4 0,0 -4.5,-4.4 -4.3,-6.7 0.1,-0.8 1.1,-1.7 1.9,-1.9 1.8,-0.5 4.2,1.4 6.1,1.2 5.2,-0.5 12.4,-3 16,-6.7 2.2,-2.3 3.7,-9.9 3.7,-9.9 0,0 -2.6,11.6 0,15.4 1.8,2.6 7,5.4 10.1,6 3.5,0.7 8.2,-0.4 11.4,-1.7 2.2,-0.8 5.4,-3.2 5.6,-5.5 0.2,-2.3 -4.3,-6.2 -4.3,-6.2 0,0 0.9,3.4 0,4.3 -1.2,1.2 -4,0.6 -5.6,0 -1.8,-0.7 -4.1,-2.5 -4.9,-4.3 -0.7,-1.5 -0.7,-4 0,-5.5 1,-2.3 3.9,-4.6 6.2,-5.5 4.2,-1.9 11,-2.7 15.4,-1.3 5.3,1.8 11.4,7.4 14.1,12.3 3,5.6 4.5,14.8 3.1,20.9 -1.1,4.8 -5.4,10.5 -9.2,13.6 -3.8,2.9 -14.8,5.5 -14.8,5.5 0,0 -20.3,-0.1 -25.5,-1.2 -14,-2.9 -23.3,-9 -37.6,-10.7 -5.5,-0.7 -14.5,-1.4 -20.1,-1.5 -9.4,-0.3 -24.1,0.7 -33.4,-0.2 -15.9,-1.5 -51.8,-5.2 -51.8,-5.2 l -20.5,-5.2 -10.5,10.5 z"
       id="path3268"
       sodipodi:nodetypes="ccccsccsccsssssccssssccsscscccsscscssscssccccsssssssssscssscssscssscscscssccssccccscscccscccsscsscsscsscsscsssscssscsssscssssscssscsssssscsssssssssscssscssssscsssssscssssscsssssssssssscssscsssscsssscssssssssscssssccc" />
    <path
       inkscape:connector-curvature="0"
       style="fill:none;stroke:#000000;stroke-width:2.5;stroke-linecap:butt;stroke-linejoin:miter;stroke-miterlimit:4;stroke-opacity:1;stroke-dasharray:none"
       d="m 246.6,53.67 c 0,0 7.5,-1 10.7,-0.9 3.6,0.1 7.5,0.9 10.7,2.5 2.4,1.3 6.4,4.7 7.2,7.4 0.3,1 -0.6,3.4 -0.6,3.4"
       id="path7898"
       sodipodi:nodetypes="csssc" />
    <path
       inkscape:connector-curvature="0"
       style="fill:none;stroke:#000000;stroke-width:2.5;stroke-linecap:butt;stroke-linejoin:miter;stroke-miterlimit:4;stroke-opacity:1;stroke-dasharray:none"
       d="m 279.3,53.67 c 0,0 8.8,5 12.7,6.6 3.4,1.4 15,3.2 15,3.2"
       id="path7900"
       sodipodi:nodetypes="csc" />
    <path
       inkscape:connector-curvature="0"
       style="fill:none;stroke:#000000;stroke-width:2.5;stroke-linecap:butt;stroke-linejoin:miter;stroke-miterlimit:4;stroke-opacity:1;stroke-dasharray:none"
       d="m 301.4,52.77 c 0,0 6.2,3.6 9.1,4.4 3.6,0.9 12.3,0.6 12.3,0.6"
       id="path7902"
       sodipodi:nodetypes="csc" />
    <path
       inkscape:connector-curvature="0"
       style="fill:none;stroke:#000000;stroke-width:2.5;stroke-linecap:butt;stroke-linejoin:miter;stroke-miterlimit:4;stroke-opacity:1;stroke-dasharray:none"
       d="m 285.9,39.57 c 0,0 -5.5,3.4 -8.1,4.4 -1.9,0.6 -4.7,1.7 -6.7,1.2 -1.2,-0.2 -3.4,-2.5 -3.4,-2.5"
       id="path7904"
       sodipodi:nodetypes="cssc" />
    <path
       inkscape:connector-curvature="0"
       style="fill:none;stroke:#000000;stroke-width:2.5;stroke-linecap:butt;stroke-linejoin:miter;stroke-miterlimit:4;stroke-opacity:1;stroke-dasharray:none"
       d="m 339.9,96.37 c 0,0 3.7,-0.3 5.2,0 5,1.2 15.5,7.43 15.5,7.43 0,0 -2.4,-7.73 -2.2,-11.13 0.2,-3.1 1.2,-7.6 3.3,-9.9 1.6,-1.9 5,-3.2 7.4,-3.7 0.6,-0.2 2.2,0 2.2,0"
       id="path7906"
       sodipodi:nodetypes="cscssss" />
    <path
       inkscape:connector-curvature="0"
       style="fill:none;stroke:#000000;stroke-width:2.5;stroke-linecap:butt;stroke-linejoin:miter;stroke-miterlimit:4;stroke-opacity:1;stroke-dasharray:none"
       d="m 297.9,136.2 c 0,0 2,-4.6 3.6,-6 1.9,-1.7 7,-3.2 9.2,-4.2 1.6,-0.7 3.7,-1.9 4.5,-3.4 0.5,-0.8 0.3,-3.3 0.3,-3.3"
       id="path7908"
       sodipodi:nodetypes="cssss" />
    <path
       inkscape:connector-curvature="0"
       style="fill:none;stroke:#000000;stroke-width:2.5;stroke-linecap:butt;stroke-linejoin:miter;stroke-miterlimit:4;stroke-opacity:1;stroke-dasharray:none"
       d="m 327.7,113.2 -3,9.1"
       id="path7910"
       sodipodi:nodetypes="cc" />
    <path
       inkscape:connector-curvature="0"
       style="fill:none;stroke:#000000;stroke-width:2.5;stroke-linecap:butt;stroke-linejoin:miter;stroke-miterlimit:4;stroke-opacity:1;stroke-dasharray:none"
       d="m 355.8,181.8 c 0,0 -6.7,-3.1 -10.2,-3.9 -3,-0.8 -7.4,0.7 -10.4,0 -2.6,-0.6 -7.9,-4 -7.9,-4"
       id="path7912"
       sodipodi:nodetypes="cssc" />
    <path
       inkscape:connector-curvature="0"
       style="fill:none;stroke:#000000;stroke-width:2.5;stroke-linecap:butt;stroke-linejoin:miter;stroke-miterlimit:4;stroke-opacity:1;stroke-dasharray:none"
       d="m 327.7,187.7 c 0,0 6.8,1.2 9.1,2.9 3.5,2.6 4.7,8.6 7.6,11.8 1.9,2.1 4.7,3.8 5.9,5.8 1,1.7 2.5,6.1 2.5,6.1 0,0 1.8,-4.8 1.7,-7.2 0,-1 0,-7 0,-7 0,0 6,8.6 9.8,10.8 1.1,0.6 4.2,0.9 4.2,0.9"
       id="path7914"
       sodipodi:nodetypes="cssscscss" />
    <path
       inkscape:connector-curvature="0"
       style="fill:none;stroke:#000000;stroke-width:2.5;stroke-linecap:butt;stroke-linejoin:miter;stroke-miterlimit:4;stroke-opacity:1;stroke-dasharray:none"
       d="m 378.5,239.9 c 0,0 4.5,2.7 6.6,3.3 1.8,0.5 6.3,0.6 6.3,0.6"
       id="path7916"
       sodipodi:nodetypes="css" />
    <path
       inkscape:connector-curvature="0"
       style="fill:none;stroke:#000000;stroke-width:2.5;stroke-linecap:butt;stroke-linejoin:miter;stroke-miterlimit:4;stroke-opacity:1;stroke-dasharray:none"
       d="m 394.9,265.6 c 0,0 -1.7,-5.7 -3.1,-7.8 -1.6,-2.3 -4.3,-5.1 -6.7,-6.4 -0.9,-0.6 -3.3,-1 -3.3,-1"
       id="path7918"
       sodipodi:nodetypes="cssc" />
    <path
       inkscape:connector-curvature="0"
       style="fill:none;stroke:#000000;stroke-width:2.5;stroke-linecap:butt;stroke-linejoin:miter;stroke-miterlimit:4;stroke-opacity:1;stroke-dasharray:none"
       d="m 377,258.4 c 0,0 5.6,2.1 7.2,4 2.3,3 3.2,8.2 5,11.5 0.9,1.7 1.9,4 3.3,5.3 1.1,1.1 4.3,2.4 4.3,2.4"
       id="path7920"
       sodipodi:nodetypes="csssc" />
    <path
       inkscape:connector-curvature="0"
       style="fill:none;stroke:#000000;stroke-width:2.5;stroke-linecap:butt;stroke-linejoin:miter;stroke-miterlimit:4;stroke-opacity:1;stroke-dasharray:none"
       d="m 382.7,278.1 c 0,0 -5,-7.9 -6.3,-9.6 -1,-1.4 -4,-3.3 -4,-3.3"
       id="path7922"
       sodipodi:nodetypes="csc" />
    <path
       inkscape:connector-curvature="0"
       style="fill:none;stroke:#000000;stroke-width:2.5;stroke-linecap:butt;stroke-linejoin:miter;stroke-miterlimit:4;stroke-opacity:1;stroke-dasharray:none"
       d="m 202,160.4 5.2,10.9"
       id="path7926"
       sodipodi:nodetypes="cc" />
    <path
       inkscape:connector-curvature="0"
       style="fill:none;stroke:#000000;stroke-width:2.5;stroke-linecap:butt;stroke-linejoin:miter;stroke-miterlimit:4;stroke-opacity:1;stroke-dasharray:none"
       d="m 208.5,158.8 3.4,8.8"
       id="path7928"
       sodipodi:nodetypes="cc" />
    <path
       inkscape:connector-curvature="0"
       style="fill:none;stroke:#000000;stroke-width:2.5;stroke-linecap:butt;stroke-linejoin:miter;stroke-miterlimit:4;stroke-opacity:1;stroke-dasharray:none"
       d="m 214.8,158.3 3.3,5.6"
       id="path7930"
       sodipodi:nodetypes="cc" />
    <path
       inkscape:connector-curvature="0"
       style="fill:none;stroke:#000000;stroke-width:2.5;stroke-linecap:butt;stroke-linejoin:miter;stroke-miterlimit:4;stroke-opacity:1;stroke-dasharray:none"
       d="m 220.2,157.1 3,5.6"
       id="path7932"
       sodipodi:nodetypes="cc" />
    <path
       inkscape:connector-curvature="0"
       style="fill:none;stroke:#000000;stroke-width:2.5;stroke-linecap:butt;stroke-linejoin:miter;stroke-miterlimit:4;stroke-opacity:1;stroke-dasharray:none"
       d="m 363,252.1 -3.4,4.9 -7.6,5 c 0,0 1.1,1.9 2.3,2.6 0.8,0.5 2.6,0.8 3.4,0.5 1.6,-0.5 3.8,-1.5 4.8,-2.9 0.6,-0.6 0.9,-2.6 0.9,-2.6"
       id="path7934"
       sodipodi:nodetypes="cccsssc" />
    <path
       inkscape:connector-curvature="0"
       style="fill:none;stroke:#000000;stroke-width:2.5;stroke-linecap:butt;stroke-linejoin:miter;stroke-miterlimit:4;stroke-opacity:1;stroke-dasharray:none"
       d="m 336.5,232.9 c 0,0 1,6.4 2.7,8.5 1.6,1.9 4.8,3.3 7.2,4.1 2,0.7 4,1.1 6,0.4 1.7,-0.7 5.3,-4.3 5.3,-4.3 0,0 -1.3,5 -2.7,6.6 -1.9,2.1 -5.4,4.1 -8.2,4.6 -1.8,0.4 -4.4,-0.1 -6.1,-0.7 -2.4,-0.8 -7.1,-4.2 -7.1,-4.2"
       id="path7936"
       sodipodi:nodetypes="cssscsssc" />
    <path
       inkscape:connector-curvature="0"
       style="fill:none;stroke:#000000;stroke-width:2.5;stroke-linecap:butt;stroke-linejoin:miter;stroke-miterlimit:4;stroke-opacity:1;stroke-dasharray:none"
       d="m 322.7,246.9 c 0,0 0.2,6.4 1.7,8.7 1.2,1.8 3.8,3.1 5.1,4.8 1.2,1.6 2.2,3.5 2.9,5.4 0.6,2 1.8,8.6 1.8,8.6"
       id="path7938"
       sodipodi:nodetypes="csssc" />
    <path
       inkscape:connector-curvature="0"
       style="fill:none;stroke:#000000;stroke-width:2.5;stroke-linecap:butt;stroke-linejoin:miter;stroke-miterlimit:4;stroke-opacity:1;stroke-dasharray:none"
       d="m 344.3,184.4 c 0,0 5.1,4.7 6.7,7.1 1.6,2.7 3.8,9.8 3.8,9.8"
       id="path7940"
       sodipodi:nodetypes="csc" />
    <path
       inkscape:connector-curvature="0"
       style="fill:none;stroke:#000000;stroke-width:2.5;stroke-linecap:butt;stroke-linejoin:miter;stroke-miterlimit:4;stroke-opacity:1;stroke-dasharray:none"
       d="m 198.1,230.6 c 0,0 -8.6,-1.5 -11.9,-3.2 -2.6,-1.3 -5.9,-3.8 -7.5,-6.2 -1.9,-2.7 -3.5,-10.4 -3.5,-10.4"
       id="path7942"
       sodipodi:nodetypes="csss" />
    <path
       inkscape:connector-curvature="0"
       style="fill:none;stroke:#000000;stroke-width:2.5;stroke-linecap:butt;stroke-linejoin:miter;stroke-miterlimit:4;stroke-opacity:1;stroke-dasharray:none"
       d="m 207.8,225.2 c 0,0 -10.1,-0.7 -13.7,-2.6 -2.1,-1.2 -4.7,-3.2 -6.3,-5.1 -1.7,-2 -4.3,-7.8 -4.3,-7.8"
       id="path7944"
       sodipodi:nodetypes="csss" />
    <path
       inkscape:connector-curvature="0"
       style="fill:none;stroke:#000000;stroke-width:2.5;stroke-linecap:butt;stroke-linejoin:miter;stroke-miterlimit:4;stroke-opacity:1;stroke-dasharray:none"
       d="m 218.1,220.9 c 0,0 -13.4,-3.1 -18.8,-5.7 -2.5,-1.2 -8.2,-7 -8.2,-7"
       id="path7946"
       sodipodi:nodetypes="css" />
    <path
       inkscape:connector-curvature="0"
       style="fill:none;stroke:#000000;stroke-width:2.5;stroke-linecap:butt;stroke-linejoin:miter;stroke-miterlimit:4;stroke-opacity:1;stroke-dasharray:none"
       d="m 197.4,204.9 c 0,0 3.6,4 5.7,4.7 1.9,0.6 4.4,1.4 6.3,1.7 1.8,0.3 5.3,0.4 5.3,0.4"
       id="path7948"
       sodipodi:nodetypes="csss" />
    <path
       inkscape:connector-curvature="0"
       style="fill:none;stroke:#000000;stroke-width:2.5;stroke-linecap:butt;stroke-linejoin:miter;stroke-miterlimit:4;stroke-opacity:1;stroke-dasharray:none"
       d="m 205.9,203 c 0,0 2,2.3 3.1,2.8 1.5,0.7 3.9,0.6 5.4,1 1.4,0.3 5,0 5,0"
       id="path7950"
       sodipodi:nodetypes="csss" />
    <path
       inkscape:connector-curvature="0"
       style="fill:none;stroke:#000000;stroke-width:2.5;stroke-linecap:butt;stroke-linejoin:miter;stroke-miterlimit:4;stroke-opacity:1;stroke-dasharray:none"
       d="m 214.7,201.1 c 0,0 5.2,0.9 7.5,1.3 1.3,0.2 4.4,0.6 4.4,0.6"
       id="path7952"
       sodipodi:nodetypes="css" />
    <path
       inkscape:connector-curvature="0"
       style="fill:none;stroke:#000000;stroke-width:2.5;stroke-linecap:butt;stroke-linejoin:miter;stroke-miterlimit:4;stroke-opacity:1;stroke-dasharray:none"
       d="m 225.6,198 c 0,0 7.3,0.4 10.4,0.9 1.6,0.3 5.3,1.3 5.3,1.3"
       id="path7954"
       sodipodi:nodetypes="css" />
    <path
       inkscape:connector-curvature="0"
       style="fill:none;stroke:#000000;stroke-width:2.5;stroke-linecap:butt;stroke-linejoin:miter;stroke-miterlimit:4;stroke-opacity:1;stroke-dasharray:none"
       d="m 234.7,193.9 c 0,0 7.1,1.1 10,1.9 2.2,0.6 6.9,2.5 6.9,2.5 0,0 0,0 0,0"
       id="path7956"
       sodipodi:nodetypes="csss" />
    <path
       inkscape:connector-curvature="0"
       style="fill:none;stroke:#000000;stroke-width:2.5;stroke-linecap:butt;stroke-linejoin:miter;stroke-miterlimit:4;stroke-opacity:1;stroke-dasharray:none"
       d="m 247.9,191.1 c 0,0 4.9,0.7 6.9,1.3 1.9,0.5 4.4,1.4 6,2.5 1.6,1.1 4.3,4.7 4.3,4.7"
       id="path7958"
       sodipodi:nodetypes="csss" />
    <path
       style="fill:#ffff00;fill-opacity:1;fill-rule:evenodd;stroke:#000000;stroke-width:3;stroke-linecap:butt;stroke-linejoin:miter;stroke-miterlimit:4;stroke-opacity:1;stroke-dasharray:none"
       d="m 81.94,80.97 c 0,0 -1.4,-4.9 -1,-7 0.7,-4 5.9,-7.8 6.9,-11.8 0.8,-2.6 0,-9.1 0,-9.1 0,0 7.8,0.7 10.7,2.2 2.46,1.2 5.46,3.7 5.46,3.7 0,0 0.2,-3.2 1,-5.3 0.8,-2.5 3.6,-4.6 4.3,-7.1 0.7,-2.2 0.5,-6.9 0.5,-6.9 0,0 6.7,2.5 8.6,4.9 0.7,0.9 1,3.7 1,3.7 0,0 5.1,-5.9 5.4,-9.1 0.2,-1.9 -2.1,-5.89 -2.1,-5.89 0,0 7.7,1.79 9.6,4.29 1.8,2.3 1.6,9.6 1.6,9.6 0,0 1.8,-5.2 3.2,-6.9 2.3,-2.8 9.7,-6.99 9.7,-6.99 l -1.1,10.69 c 0,0 4.5,-2.1 6.4,-1.6 4.5,1.3 8.6,7.1 10.7,11.3 0.8,1.4 1.1,5.3 1.1,5.3 0,0 4.2,-5.8 7,-6.9 1.9,-0.8 6.9,0 6.9,0 0,0 -1.4,5.6 -1,8 0.7,4.6 6.4,9.3 6.9,13.9 0.2,2 -1.6,6.4 -1.6,6.4 0,0 7.5,11.6 9.1,17.2 1.9,6.33 -0.7,14.63 2.5,20.43 0.8,1.4 2.7,3.2 4.3,3.2 1.9,0.1 4.5,-1.6 4.5,-1.6 0,0 -0.4,4.9 -1.6,6.4 -1.3,1.5 -5.9,2.7 -5.9,2.7 0,0 0.9,3.9 1,6.4 0.2,2.5 -0.8,8 0.8,10.6 1.5,2.4 4.3,4.1 7.1,3.5 0.6,-0.1 2.5,0.1 3.2,-0.7 1.6,-1.6 1.8,-4.8 1.8,-4.8 0,0 1.2,4.6 0.5,6.4 -0.9,2.4 -2.5,4 -4.6,5.4 -2.3,1.5 -8.6,1.9 -9.8,4.2 -2.2,4 2.9,10.6 2.1,15 -0.6,3.3 -4.9,6.4 -5.3,9.7 -0.4,2.8 0.1,5.9 1.7,8.2 1.2,1.8 2.8,4.1 5,4.5 1.4,0.3 4.2,0 5.2,-1.1 1.4,-1.2 2.2,-3.4 2.5,-5.2 0.3,-1.4 0.6,-4.8 0.6,-4.8 0,0 2.5,4.6 2.5,6.9 0,2 -0.8,4.4 -2,5.9 -1.8,2.2 -4.9,4.4 -7.5,5.4 -2.9,1.1 -7.2,1.7 -10.2,1.1 -2.7,-0.6 -8,-4.3 -8,-4.3 0,0 -0.2,4.1 -0.6,5.9 -0.5,2.5 -0.7,6.3 -2.6,8 -1.7,1.5 -7.5,1.6 -7.5,1.6 0,0 2.3,9.2 4.8,12.3 1.1,1.4 3.2,2.7 4.8,3.3 1.8,0.6 4.6,1.1 6.4,0.5 2.3,-0.8 4.7,-3.3 5.9,-5.4 0.7,-1.1 1.1,-4.3 1.1,-4.3 0,0 1.3,7.4 0,10.2 -1.5,3.3 -5.7,6.9 -9.1,8.1 -2.3,0.7 -5.7,0.1 -8,-0.6 -1.6,-0.4 -3.3,-2.2 -4.9,-2.7 -2.4,-0.7 -8.5,-0.5 -8.5,-0.5 0,0 0.7,5.3 0.5,7.5 -0.2,2.5 -1.4,5.7 -2.1,8 -0.5,1.4 -1.2,3 -0.8,4.3 0.9,2.6 4,4.8 6.7,4.9 1.8,0 4.4,-1.6 5.3,-3.3 1.1,-2 -0.5,-7.5 -0.5,-7.5 0,0 3.9,5.8 3.7,8.6 -0.1,1.9 -1.7,4.3 -3.2,5.4 -2.1,1.5 -5.9,2 -8.6,2.1 -2.1,0.1 -5,-0.2 -6.9,-1.1 -2.2,-0.9 -4.8,-3.1 -6.5,-4.8 -2.7,-2.8 -5.6,-7.2 -7.5,-10.7 -0.8,-1.7 -3.3,-4.5 -3.3,-4.5 0,0 -3.3,-0.2 -5.2,-0.3 -2.2,-0.2 -5.3,-0.8 -7,-2.2 -1.7,-1.3 -2.8,-4.4 -3.7,-6.4 -1,-2.2 -2.7,-7.5 -2.7,-7.5 0,0 -8.2,5.4 -9.7,9.1 -0.7,2 -0.1,5 0.6,7 0.7,2 2.8,4.3 4.3,5.9 1.1,1.2 4.2,3.7 4.2,3.7 0,0 -7.2,0.8 -10.1,0 -3.9,-1 -10.2,-5 -13.06,-7.9 -2.6,-2.6 -4.7,-6.5 -6.1,-9.9 -1.4,-3.6 -1.7,-11.6 -1.7,-11.6 l 0.9,-7.5 c 0,0 -3.6,3.6 -4.1,5.9 -0.5,2 0,6.9 0,6.9 0,0 -4,-8.4 -4.9,-12.3 -0.6,-2.8 -1.1,-6.8 -0.5,-9.6 0.4,-2.2 3.2,-6.5 3.2,-6.5 0,0 -5.1,-8.7 -6.4,-12.8 -1.7,-5.3 -3.57,-12.7 -3.2,-18.2 0.2,-4.4 4.3,-14 4.3,-14 l -5.93,1.6 c 0,0 -6.8,-6.8 -7.5,-10.7 -0.92,-5 2.35,-11.8 4.29,-16.6 0.97,-2.4 3.26,-5.1 4.28,-7.5 1.36,-3.1 3.26,-10.7 3.26,-10.7 0,0 -5.69,-2.2 -7.01,-4.3 -1.48,-2.3 -1.07,-9.1 -1.07,-9.1 0,0 3.88,3.2 5.88,3.8 1.6,0.4 4.1,-1.8 4.1,-1.8 0,0 -3.1,-6.23 -3.6,-10.03 -0.2,-2.1 0.2,-5.1 1.1,-7 0.9,-1.8 4.8,-4.8 4.8,-4.8 z"
       id="path2504"
       sodipodi:nodetypes="csscscsscscscscsccsscscsscssscsczssscssssssssscsssscsscsssscsssscssssscsssssscssscssscsssccscsscssccssscscscssc"
       inkscape:connector-curvature="0" />
    <path
       style="fill:#ffffff;fill-rule:evenodd;stroke:#000000;stroke-width:2.5;stroke-linecap:butt;stroke-linejoin:miter;stroke-miterlimit:4;stroke-opacity:1;stroke-dasharray:none"
       d="m 118.3,110.4 c 0,0 -0.3,9.8 0.1,12.7 0.3,2.2 2.6,5.3 2.6,5.3 0,0 2.6,-2.6 2.9,-4.9 0.4,-3 0.3,-12.9 0.3,-12.9 l -5.9,-0.2 z"
       id="path4593"
       sodipodi:nodetypes="cscscc"
       inkscape:connector-curvature="0" />
    <path
       style="fill:#ffffff;fill-rule:evenodd;stroke:#000000;stroke-width:2.5;stroke-linecap:butt;stroke-linejoin:miter;stroke-miterlimit:4;stroke-opacity:1;stroke-dasharray:none"
       d="m 149.7,110.3 c 0,0 -0.4,9.8 0,12.7 0.3,2.3 2.6,5.3 2.6,5.3 0,0 2.6,-2.6 2.9,-4.9 0.4,-2.9 0.3,-12.8 0.3,-12.8 l -5.8,-0.3 z"
       id="path4595"
       sodipodi:nodetypes="cscscc"
       inkscape:connector-curvature="0" />
    <path
       style="fill:#ffffff;fill-opacity:1;fill-rule:evenodd;stroke:#000000;stroke-width:2.5;stroke-linecap:butt;stroke-linejoin:miter;stroke-miterlimit:4;stroke-opacity:1;stroke-dashoffset:0;marker:none;visibility:visible;display:inline;overflow:visible;enable-background:accumulate"
       d="m 125.3,76.9 c 0,4.1 -5.6,7.4 -12.5,7.4 -6.9,0 -12.5,-3.3 -12.5,-7.4 0,-4.1 5.6,-7.4 12.5,-7.4 6.9,0 12.5,3.3 12.5,7.4 z"
       id="path3161"
       inkscape:connector-curvature="0"
       sodipodi:nodetypes="sssss" />
    <path
       style="fill:#ffffff;fill-opacity:1;fill-rule:evenodd;stroke:#000000;stroke-width:2.5;stroke-linecap:butt;stroke-linejoin:miter;stroke-miterlimit:4;stroke-opacity:1;stroke-dashoffset:0;marker:none;visibility:visible;display:inline;overflow:visible;enable-background:accumulate"
       d="m 167.3,74.9 c 0,4.1 -5.6,7.4 -12.5,7.4 -6.9,0 -12.5,-3.3 -12.5,-7.4 0,-4.1 5.6,-7.4 12.5,-7.4 6.9,0 12.5,3.3 12.5,7.4 z"
       id="path3163"
       inkscape:connector-curvature="0"
       sodipodi:nodetypes="sssss" />
    <path
       style="fill:none;stroke:#000000;stroke-width:2.5;stroke-linecap:butt;stroke-linejoin:miter;stroke-miterlimit:4;stroke-opacity:1;stroke-dasharray:none"
       d="m 136.3,70.87 c 0,0 3.9,1.2 4.8,2.2 1.8,1.8 2,5.6 4,7.2 0.9,0.8 2.8,1.9 3.8,2.6 0.6,0.3 1.4,1.6 3.1,2.2 2.1,0.7 5.2,0.1 6.3,0.5 3.6,1.5 9.2,7.5 10.4,11.2 0.3,1.2 -0.5,2.9 -0.9,4.13 -1.1,3 -3.9,6.3 -5.2,9.2 -0.5,1.3 -1.1,3 -1.2,4.3 -0.1,0.9 0,2.2 0.2,3.2 0.1,0.6 0.1,1.6 0.5,2.1 0.7,1 2.6,1 3.2,2.1"
       id="path3157"
       sodipodi:nodetypes="cssssssssssss"
       inkscape:connector-curvature="0" />
    <path
       style="fill:none;stroke:#000000;stroke-width:2.5;stroke-linecap:butt;stroke-linejoin:miter;stroke-miterlimit:4;stroke-opacity:1;stroke-dasharray:none"
       d="m 125.2,73.77 c 0,0 1,1.6 0,4.1 -0.8,2 -3.5,4.9 -4.5,5.5 -3.1,1.7 -7.5,3 -10,4 -2.4,1 -5,2.5 -5.4,2.7 -0.9,0.6 -2.7,0.5 -3.5,1.3 -1.8,1.8 -3.16,5.7 -2.86,8.3 0.7,4.83 8.16,8.63 8.96,13.43 0.9,5.6 -5.2,12.6 -5.1,18.3 0,2.9 3.3,3.8 2.9,6.7 -0.3,1.7 -3.6,7.3 -3.6,7.3 0,0 6.7,-3.8 8.7,-6.4 1.2,-1.5 2.5,-6 2.5,-6 0,0 -2.1,9.4 -1.2,13.4 0.9,4.3 4.8,9.7 4.8,9.7 0,0 0.3,-4 1.2,-6.1 0.6,-1.5 4.8,-2.3 4.8,-2.3 0,0 -1.4,4.2 -1.6,6 -0.1,1.3 -0.1,3 0.4,4.2 0.7,2 2.8,4.3 4.4,5.8 0.7,0.6 2.6,1.6 2.6,1.6 0,0 -1.6,-4.3 -1.3,-6.1 0.2,-1.4 2.2,-4.2 2.2,-4.2 0,0 1,6.2 2,8.7 0.5,1.2 1.5,2.8 1.9,4.1 0.9,3 0.2,4.5 -0.3,7.6 -0.1,1.4 -1.6,5.2 -1.6,5.2 0,0 6,-3 7.5,-5.5 0.9,-1.7 1.2,-4.8 1.3,-6.7 0,-1.3 0,-1.3 0,-1.3 0,0 2.2,2.5 2.6,3.8 0.5,1.8 0.2,2.2 -0.2,4 -0.6,2.4 -1.9,4 -2,6.5 0,1.9 1.1,4.4 2.3,5.8 2.4,2.8 9.6,5.5 9.6,5.5 0,0 -2.8,-5.5 -3.2,-8 -0.3,-2 1.2,-3.9 1.9,-5.7 1,-2.6 4.4,-5 5.4,-7.7 0.8,-1.8 1.1,-4.6 1,-6.7 -0.1,-2.1 -0.8,-5 -1.6,-7 -0.9,-2.2 -4.2,-6.7 -4.2,-6.7 0,0 -0.6,-0.5 1.1,1 1.4,1.1 5.1,4 5.7,5 0.9,1.8 2,6.1 2,6.1 0,0 2,-5 2.1,-7.7 0.1,-2.4 -2.6,-7 -2.6,-7 l -1.2,-3.2 c 0,0 4.3,2.9 5.4,4.8 1.3,2.2 2.5,7.5 2.5,7.5 0,0 3.5,-6.5 3.2,-9.4 -0.1,-1.6 -0.8,-3.5 -1.4,-5 -0.7,-1.4 -3.3,-4.6 -3.3,-4.6 0,0 4.3,0.9 5.2,2.1 1.2,1.4 3.5,6 3.5,6 0,0 2.3,-4.1 2.6,-8.4 0.3,-3.4 -2.1,-9.6 -3.4,-10.5 l -8.8,-6.5"
       id="path4598"
       sodipodi:nodetypes="csssscscscscssscscssscsscsssscssssscsscsccscsscscscsssssc"
       inkscape:connector-curvature="0" />
    <path
       style="fill:#ffff00;fill-opacity:1;fill-rule:evenodd;stroke:#000000;stroke-width:2.5;stroke-linecap:butt;stroke-linejoin:miter;stroke-miterlimit:4;stroke-opacity:1;stroke-dasharray:none"
       d="m 111.3,99.67 c 0,0 -2,1.43 -0.7,4.13 0.9,1.8 5.3,4.3 5.8,5.6 0.5,1.3 1.2,5.1 1.2,5.1 0,0 4.6,1.3 6.2,0.8 2.1,-0.5 4.2,-2.8 6.2,-3.7 1.8,-0.8 6.3,-1.9 6.3,-1.9 l -0.7,-13.13 c -0.1,0.2 -6.5,-6.5 -8.6,-9.1 -0.7,-1 -2.9,0.9 -2.6,2.1 1.1,4 11.5,6.9 11.2,7.1 0,0 10.3,-3.6 10.4,-7.6 0,-0.8 -1.2,-2.3 -1.9,-1.9 -2.6,1.8 -8.1,9.9 -8.5,9.4 l 0.6,13.13 c 0,0 4.7,1.2 6.3,1.8 1.5,0.7 3.3,3.1 5,3.6 2.4,0.6 8.3,-1.8 8.3,-1.8 0,0 -0.4,-3.2 0,-4.3 0.5,-1.8 4.2,-4.2 5.4,-6.5 1.2,-2.1 -0.7,-3.53 -0.7,-3.53"
       id="path2382"
       sodipodi:nodetypes="csscssccsscssccsscsss"
       inkscape:connector-curvature="0" />
    <path
       style="fill:#000000;fill-opacity:1;fill-rule:evenodd;stroke:#000000;stroke-width:2.5;stroke-linecap:butt;stroke-linejoin:miter;stroke-miterlimit:4;stroke-opacity:1;stroke-dasharray:none"
       d="m 92.14,59.57 c 0,0 2.9,2.4 3,3.9 0.2,1.7 -2.8,3.3 -2.5,5 0.3,1.3 3.6,1.4 3.6,2.7 0.2,3.1 -7.4,6.9 -7.4,6.9 0,0 3.8,-8.7 4.1,-12.7 0.2,-1.7 -0.8,-5.8 -0.8,-5.8 z"
       id="path3173"
       sodipodi:nodetypes="cssscsc"
       inkscape:connector-curvature="0" />
    <path
       style="fill:#000000;fill-opacity:1;fill-rule:evenodd;stroke:#000000;stroke-width:2.5;stroke-linecap:butt;stroke-linejoin:miter;stroke-miterlimit:4;stroke-opacity:1;stroke-dasharray:none"
       d="m 172.6,57.57 c 0,0 -1.4,7.9 0.7,10.8 1.4,2.1 3.6,5.7 3.6,5.7 0,0 -1.9,0.1 -2.6,-0.4 -1.7,-1 -1.8,-2.4 -2.7,-4.6 -0.7,-1.5 -2.3,-4.1 -2.6,-6.3 -0.2,-1.9 3.6,-5.2 3.6,-5.2 z"
       id="path3175"
       sodipodi:nodetypes="cscsssc"
       inkscape:connector-curvature="0" />
    <path
       style="fill:#ffffff;fill-opacity:1;fill-rule:evenodd;stroke:#000000;stroke-width:2.5;stroke-linecap:butt;stroke-linejoin:miter;stroke-miterlimit:4;stroke-opacity:1;stroke-dashoffset:0;marker:none;visibility:visible;display:inline;overflow:visible;enable-background:accumulate"
       d="m 125.9,75.4 c 0,4.4 -3.6,8 -8,8 -4.4,0 -8,-3.6 -8,-8 0,-4.4 3.6,-8 8,-8 4.4,0 8,3.6 8,8 z"
       id="path3177"
       inkscape:connector-curvature="0" />
    <path
       style="fill:#ffffff;fill-opacity:1;fill-rule:evenodd;stroke:#000000;stroke-width:2.5;stroke-linecap:butt;stroke-linejoin:miter;stroke-miterlimit:4;stroke-opacity:1;stroke-dashoffset:0;marker:none;visibility:visible;display:inline;overflow:visible;enable-background:accumulate"
       d="m 159.9,73.4 c 0,4.4 -3.6,8 -8,8 -4.4,0 -8,-3.6 -8,-8 0,-4.4 3.6,-8 8,-8 4.4,0 8,3.6 8,8 z"
       id="path3179"
       inkscape:connector-curvature="0"
       sodipodi:nodetypes="sssss" />
    <path
       style="fill:#000000;fill-opacity:1;fill-rule:evenodd;stroke:none"
       d="m 151.4,67.47 c -0.6,0 -1.2,0.1 -1.7,0.1 -1.1,0.2 -2,0.4 -2,0.4 l 0.8,3.4 c 0,0 0.7,-0.2 1.6,-0.3 0.9,-0.1 2,0.1 1.8,0 -0.1,-0.1 0.6,0.7 0.7,0.9 0.2,0.6 0.1,2.7 -0.2,3.3 -0.1,0.2 -0.9,0.9 -1,0.9 0.3,0 -0.6,0 -1.2,-0.1 -0.7,-0.1 -1.2,-0.2 -1.2,-0.2 0,0 -1.8,-0.2 -2,0.3 -0.4,0.8 1,2.6 1,2.6 0,0 0.7,0.2 1.5,0.3 0.8,0.2 1.7,0.4 2.9,0 1.5,-0.4 2.4,-1.4 3.1,-2.6 0.8,-1.7 1,-3.7 0.4,-5.5 -0.4,-1.3 -1.1,-2.4 -2.6,-3.1 -0.7,-0.3 -1.3,-0.4 -1.9,-0.4 z"
       id="path3183"
       sodipodi:nodetypes="csccsssssscscsssssc"
       inkscape:connector-curvature="0" />
    <path
       style="fill:#ffff00;fill-opacity:1;fill-rule:evenodd;stroke:#000000;stroke-width:2.5;stroke-linecap:butt;stroke-linejoin:miter;stroke-miterlimit:4;stroke-opacity:1;stroke-dasharray:none"
       d="m 149.9,62.07 c 0,0 -2.7,0.4 -3.9,0.9 -2.2,0.9 -4.5,2.9 -4.8,5.3 -0.1,1.3 0.4,2.3 1.3,3.2 1,1 2.5,0.8 3.9,0.9 2,0.1 4.4,-1.5 6.4,-1.2 2.8,0.3 6.4,2 8.5,3.9 1,0.8 1.2,3 2.3,3.7 1,0.6 2.8,1.1 3.9,0.5 1.1,-0.5 1.6,-2.4 1.9,-3.5 0.2,-0.6 0.2,-1.4 0,-2 -0.2,-0.8 -0.9,-1.8 -1.6,-2.5 -0.7,-0.8 -3,-2.1 -3,-2.1"
       id="path3167"
       sodipodi:nodetypes="csssssssssssc"
       inkscape:connector-curvature="0" />
    <path
       style="fill:#000000;fill-opacity:1;fill-rule:evenodd;stroke:none"
       d="m 117.3,68.57 c -0.6,0 -1.1,0.1 -1.6,0.2 -1.1,0.1 -2,0.3 -2,0.3 l 0.7,3.4 c 0,0 0.8,-0.2 1.7,-0.3 0.8,-0.1 1.9,0.1 1.8,0 -0.1,0 0.6,0.8 0.7,0.9 0.1,0.6 0,2.7 -0.2,3.3 -0.2,0.2 -1,0.9 -1,1 0.2,-0.1 -0.6,0 -1.3,-0.2 -0.6,-0.1 -1.2,-0.2 -1.2,-0.2 0,0 -1.7,-0.2 -2,0.4 -0.3,0.7 1,2.6 1,2.6 0,0 0.7,0.1 1.6,0.3 0.8,0.1 1.7,0.4 2.9,0 1.5,-0.5 2.4,-1.5 3,-2.7 0.9,-1.7 1.1,-3.7 0.5,-5.5 -0.4,-1.3 -1.1,-2.4 -2.6,-3.1 -0.7,-0.3 -1.4,-0.4 -2,-0.4 z"
       id="path3195"
       sodipodi:nodetypes="csccsssssscscsssssc"
       inkscape:connector-curvature="0" />
    <path
       style="fill:#ffff00;fill-opacity:1;fill-rule:evenodd;stroke:#000000;stroke-width:2.5;stroke-linecap:butt;stroke-linejoin:miter;stroke-miterlimit:4;stroke-opacity:1;stroke-dasharray:none"
       d="m 101.4,70.37 c 0,0 -2.26,4.9 -2.76,7.1 -0.3,1.4 -0.9,3.4 -0.4,4.8 0.6,1.4 2.26,3.5 3.76,3.3 0.9,-0.1 1.2,-1.6 1.6,-2.4 0.8,-1.8 1,-4.6 2.3,-6.1 1.5,-1.8 4.4,-3.5 6.7,-4 2.5,-0.6 6,0.8 8.5,0.7 1.4,-0.1 3.4,-0.1 4.6,-0.7 1.3,-0.7 3.2,-3.2 3.2,-3.2 0,0 -1.1,-2.9 -2.1,-3.8 -1.3,-1 -3.5,-1.5 -5.1,-1.7 -2,-0.3 -4.8,0.2 -6.8,0.5 -0.9,0.1 -3.2,0.5 -3.2,0.5"
       id="path3165"
       sodipodi:nodetypes="csssssssscsssc"
       inkscape:connector-curvature="0" />
    <path
       style="fill:none;stroke:#000000;stroke-width:2.5;stroke-linecap:butt;stroke-linejoin:miter;stroke-miterlimit:4;stroke-opacity:1;stroke-dasharray:none"
       d="m 77.54,113.7 c 0,0 4,0.8 5.6,0.3 3.3,-1 7.3,-4 9.4,-6.8 0.4,-0.6 0.7,-2.4 0.7,-2.4"
       id="path3198"
       sodipodi:nodetypes="cssc"
       inkscape:connector-curvature="0" />
    <path
       style="fill:none;stroke:#000000;stroke-width:2.5;stroke-linecap:butt;stroke-linejoin:miter;stroke-miterlimit:4;stroke-opacity:1;stroke-dasharray:none"
       d="m 73.74,159.7 c 0,0 -1.12,-7.2 -0.45,-10.2 0.59,-2.6 2.45,-6 4.25,-8 3.6,-4.1 15.1,-10.4 15.1,-10.4"
       id="path3200"
       sodipodi:nodetypes="cssc"
       inkscape:connector-curvature="0" />
    <path
       style="fill:none;stroke:#000000;stroke-width:2.5;stroke-linecap:butt;stroke-linejoin:miter;stroke-miterlimit:4;stroke-opacity:1;stroke-dasharray:none"
       d="m 93.24,141.4 c 0,0 -8.1,6.7 -10.7,10.4 -1.3,1.8 -3.2,6.6 -3.2,6.6"
       id="path3202"
       sodipodi:nodetypes="csc"
       inkscape:connector-curvature="0" />
    <path
       style="fill:none;stroke:#000000;stroke-width:2.5;stroke-linecap:butt;stroke-linejoin:miter;stroke-miterlimit:4;stroke-opacity:1;stroke-dasharray:none"
       d="m 94.04,159.2 c 0,0 -4.3,5.6 -5.6,8.3 -1.7,3.3 -3.4,7.9 -4.3,11.5 -0.7,3.3 -1.3,7.7 -1.2,11.1 0.1,3.6 1.8,13.1 1.8,13.1"
       id="path3204"
       sodipodi:nodetypes="csssc"
       inkscape:connector-curvature="0" />
    <path
       style="fill:none;stroke:#000000;stroke-width:2.5;stroke-linecap:butt;stroke-linejoin:miter;stroke-miterlimit:4;stroke-opacity:1;stroke-dasharray:none"
       d="m 90.94,218.5 c 0,0 5.3,-5.3 5.4,-9.9 0,-3.5 -4.2,-8 -4.8,-11.4 -0.7,-3.3 0.5,-9.2 2,-12.2 0.6,-1.1 3.1,-2.9 3.1,-2.9"
       id="path3206"
       sodipodi:nodetypes="csssc"
       inkscape:connector-curvature="0" />
    <path
       style="fill:none;stroke:#000000;stroke-width:2.5;stroke-linecap:butt;stroke-linejoin:miter;stroke-miterlimit:4;stroke-opacity:1;stroke-dasharray:none"
       d="m 120.7,230.9 c 0,0 4.7,-5.8 4.6,-8.8 -0.1,-6.4 -7,-12.3 -6,-18.7 0.2,-1.3 2.3,-3.5 2.8,-5.9 0.3,-1.8 -0.3,-4.9 -0.6,-5.6 -0.7,-2 -5.8,-3.6 -5.8,-3.6"
       id="path3208"
       sodipodi:nodetypes="cssssc"
       inkscape:connector-curvature="0" />
    <path
       style="fill:none;stroke:#000000;stroke-width:2.5;stroke-linecap:butt;stroke-linejoin:miter;stroke-miterlimit:4;stroke-opacity:1;stroke-dasharray:none"
       d="m 113.7,255.7 c 0,0 -6.1,-5.2 -8.5,-8.5 -2.3,-2.9 -3.7,-6.2 -3.8,-8 -0.3,-3.1 -0.3,-5.6 0.4,-8.7 1.2,-6.2 7.5,-13 8.5,-19.3 0.2,-1.9 -1.2,-4.6 -0.4,-6.3 0.6,-1.5 3.4,-2.1 4.3,-3.5 0.8,-1.3 1.3,-3.5 1.1,-5.1 -0.1,-1 -1.5,-3.1 -1.5,-3.1"
       id="path3210"
       sodipodi:nodetypes="cssssssss"
       inkscape:connector-curvature="0" />
    <path
       style="fill:none;stroke:#000000;stroke-width:2.5;stroke-linecap:butt;stroke-linejoin:miter;stroke-miterlimit:4;stroke-opacity:1;stroke-dasharray:none"
       d="m 105.2,175.2 c 0,0 -2.3,4.3 -2.7,6.3 -0.5,1.9 -0.9,4.9 0,6.6 0.9,2 4.8,2.4 5.8,4.3 1,1.9 1,5.2 0,7.1 -0.8,1.5 -4.7,3.5 -4.7,3.5 0,0 -2.1,-7.6 -1.9,-11 0,-1.2 1.1,-3.9 1.1,-3.9"
       id="path3212"
       sodipodi:nodetypes="csssscss"
       inkscape:connector-curvature="0" />
    <path
       style="fill:none;stroke:#000000;stroke-width:2.5;stroke-linecap:butt;stroke-linejoin:miter;stroke-miterlimit:4;stroke-opacity:1;stroke-dasharray:none"
       d="m 152,198.7 c 0,0 3.5,7.5 2.9,10.9 -0.5,2.4 -4,4.9 -3.9,7.4 0,1.1 1.9,3.1 1.9,3.1 0,0 -2.8,1.2 -3.9,0.8 -1.5,-0.6 -2.6,-2.8 -3.1,-4.3 -1,-2.8 0.3,-5.9 -1.3,-8.4 -0.7,-1.2 -4.7,-3.3 -4.7,-3.3 0,0 4.2,14 2.7,18.9 -1,3.1 -6.7,2.2 -7.7,6.1 -0.6,2.3 -0.4,6 1.1,7.8 1.3,1.5 4.2,2.2 5.9,1.3 1.7,-0.9 3.2,-3.4 3.2,-3.4 0,0 1.2,4.8 0.1,6.5 -0.8,1.4 -3.7,4 -3.7,4"
       id="path3214"
       sodipodi:nodetypes="csscssscsssscsc"
       inkscape:connector-curvature="0" />
    <path
       style="fill:none;stroke:#000000;stroke-width:2.5;stroke-linecap:butt;stroke-linejoin:miter;stroke-miterlimit:4;stroke-opacity:1;stroke-dasharray:none"
       d="m 159.6,224.2 c 0,0 -1.5,3.7 -1.2,5.3 0.5,3.6 6.1,10.3 6.1,10.3"
       id="path3216"
       sodipodi:nodetypes="csc"
       inkscape:connector-curvature="0" />
    <path
       style="fill:none;stroke:#000000;stroke-width:2.5;stroke-linecap:butt;stroke-linejoin:miter;stroke-miterlimit:4;stroke-opacity:1;stroke-dasharray:none"
       d="m 171.1,217.6 -1.6,-7.8 -0.8,-12.8"
       id="path3218"
       inkscape:connector-curvature="0" />
    <path
       style="fill:none;stroke:#000000;stroke-width:2.5;stroke-linecap:butt;stroke-linejoin:miter;stroke-miterlimit:4;stroke-opacity:1;stroke-dasharray:none"
       d="m 173.6,179.7 c 0,0 -2,6.7 -1.2,9.5 1.3,4.9 10.3,13.6 10.3,13.6"
       id="path3220"
       sodipodi:nodetypes="csc"
       inkscape:connector-curvature="0" />
    <path
       style="fill:none;stroke:#000000;stroke-width:2.5;stroke-linecap:butt;stroke-linejoin:miter;stroke-miterlimit:4;stroke-opacity:1;stroke-dasharray:none"
       d="m 183.1,143.9 c 0,0 0.2,6.1 1.6,8.2 2,3 11.1,5.8 11.1,5.8"
       id="path3222"
       sodipodi:nodetypes="csc"
       inkscape:connector-curvature="0" />
    <path
       style="fill:none;stroke:#000000;stroke-width:2.5;stroke-linecap:butt;stroke-linejoin:miter;stroke-miterlimit:4;stroke-opacity:1;stroke-dasharray:none"
       d="m 175.3,155 c 0,0 9.4,10 11.9,15.2 2.4,5.2 4.1,18.6 4.1,18.6"
       id="path3224"
       sodipodi:nodetypes="csc"
       inkscape:connector-curvature="0" />
  </g>
  <g
     id="armed"
     transform="translate(-8.664,-11.1)">
    <path
       inkscape:connector-curvature="0"
       sodipodi:nodetypes="csssssscssss"
       id="path8154"
       d="m 59.81,83.07 c 0.13,1.6 1.02,3.7 2.17,4.7 0.88,0.8 2.58,1.5 3.73,1.2 1.54,-0.3 3,-0.9 3.62,-2.3 1.69,-4 2.33,-9 0.94,-13.1 -1.06,-3 -3.95,-6.9 -6.84,-8.4 -1.33,-0.7 -2.59,-1.2 -4.04,-0.9 -1.47,0.3 -4.98,1.9 -4.98,1.9 0,0 3.28,1.1 4.36,2.1 1.19,1.1 2.32,3.1 2.79,4.7 0.6,2 -0.29,3.4 -0.51,5.5 -0.16,1.4 -1.37,3.2 -1.24,4.6 z"
       style="fill:#00ff00;fill-rule:evenodd;stroke:#000000;stroke-width:2.5;stroke-linecap:butt;stroke-linejoin:miter;stroke-miterlimit:4;stroke-opacity:1;stroke-dasharray:none" />
    <path
       inkscape:connector-curvature="0"
       sodipodi:nodetypes="cssssssssssc"
       id="path8156"
       d="m 23.02,67.97 c 0,0 0.83,-5.3 3.11,-7.1 2.29,-1.9 6.38,-3.2 9.32,-3.1 2.01,0 4.71,1.1 6.22,2.5 2.88,2.5 5.27,6.1 5.91,9.9 0.26,1.6 0.48,3.6 -0.32,5 -0.91,1.6 -2.81,2.4 -4.66,2.5 -1.32,0 -3.14,-1.9 -4.04,-2.8 -2.32,-2.5 -1.87,-7.4 -4.66,-9.4 -0.87,-0.6 -2.36,-0.9 -3.42,-0.9 -0.95,0 -2.18,0.4 -3.11,0.6 -1.4,0.3 -4.35,2.8 -4.35,2.8 z"
       style="fill:#00ff00;fill-opacity:1;fill-rule:evenodd;stroke:#000000;stroke-width:2.5;stroke-linecap:butt;stroke-linejoin:miter;stroke-miterlimit:4;stroke-opacity:1;stroke-dasharray:none" />
    <path
       inkscape:connector-curvature="0"
       sodipodi:nodetypes="cssssssscsss"
       id="path8158"
       d="m 23.64,105.6 c 0.96,-0.1 2.5,-0.1 3.11,-0.9 0.87,-1.1 0.85,-3.4 0.31,-4.73 -0.76,-1.8 -1.56,-3.3 -3.42,-4 -1.05,-0.4 -5.78,0.6 -6.84,0.9 -2.61,1 -4.27,2.3 -5.59,4.73 -1.21,2.2 -1.69,6 -0.93,8.4 0.59,1.9 2.74,3.8 4.35,5 0.98,0.7 3.73,1.5 3.73,1.5 0,0 -1.74,-5 -1.25,-7.1 0.29,-1.3 1.38,-2.8 2.49,-3.4 1.06,-0.6 2.85,-0.1 4.04,-0.4 z"
       style="fill:#00ff00;fill-opacity:1;fill-rule:evenodd;stroke:#000000;stroke-width:2.5;stroke-linecap:butt;stroke-linejoin:miter;stroke-miterlimit:4;stroke-opacity:1;stroke-dasharray:none" />
    <path
       inkscape:connector-curvature="0"
       sodipodi:nodetypes="csssssscsss"
       id="path8160"
       d="m 26.13,130.5 c 1.26,-0.9 3.88,0.4 4.97,1.6 1.16,1.1 1.91,3.6 1.56,5.2 -0.4,1.9 -2.47,3.7 -4.05,4.7 -2.21,1.4 -5.82,2.6 -8.39,2.2 -2.73,-0.5 -6.14,-2.7 -7.77,-5 -1.75,-2.4 -2.66,-6.6 -2.49,-9.6 0.1,-1.3 1.56,-4.1 1.56,-4.1 0,0 1.18,4.3 2.49,5.6 1.8,1.8 5.23,3.2 7.77,3.4 1.32,0.2 3.6,-3.4 4.35,-4 z"
       style="fill:#00ff00;fill-opacity:1;fill-rule:evenodd;stroke:#000000;stroke-width:2.5;stroke-linecap:butt;stroke-linejoin:miter;stroke-miterlimit:4;stroke-opacity:1;stroke-dasharray:none" />
    <path
       inkscape:connector-curvature="0"
       sodipodi:nodetypes="cscsssss"
       id="path8162"
       d="m 200.9,290.4 c -2,0.2 -4.4,-1.4 -6.4,-1.4 -2.9,0 -9.6,1.9 -9.6,1.9 0,0 3.1,-4.2 4.8,-5.5 2.1,-1.6 5.4,-3.5 8.1,-3.6 2,-0.1 5,0.9 6.3,2.4 0.9,1 1.6,3.1 1.1,4.3 -0.7,1.2 -2.9,1.7 -4.3,1.9 z"
       style="fill:#00ff00;fill-rule:evenodd;stroke:#000000;stroke-width:2.5;stroke-linecap:butt;stroke-linejoin:miter;stroke-miterlimit:4;stroke-opacity:1;stroke-dasharray:none" />
    <path
       inkscape:connector-curvature="0"
       sodipodi:nodetypes="cssssssscsssss"
       id="path8164"
       d="m 193.1,304.1 c 1.5,-0.1 3.5,0.5 4.9,1.2 1.3,0.7 3.4,2 3.8,3.5 0.2,1 -0.5,2.4 -1.1,3.2 -0.4,0.6 -1.2,1.1 -1.9,1.4 -1.3,0.6 -3.5,0 -4.8,0.8 -1.1,0.6 -2.1,2.2 -2.6,3.5 -0.7,1.7 -1.2,2.5 -1,4.4 0.1,1.4 1.9,5.8 1.9,5.8 0,0 -4.9,-2.3 -6.3,-3.8 -2,-2.3 -3.2,-5.2 -3.1,-8.3 0.1,-1.9 1.4,-4.3 2.5,-5.9 1.4,-1.9 3.8,-4 5.9,-5.2 0.5,-0.3 1.3,-0.6 1.8,-0.6 z"
       style="fill:#00ff00;fill-opacity:1;fill-rule:evenodd;stroke:#000000;stroke-width:2.5;stroke-linecap:butt;stroke-linejoin:miter;stroke-miterlimit:4;stroke-opacity:1;stroke-dasharray:none" />
    <path
       inkscape:connector-curvature="0"
       sodipodi:nodetypes="csssscsss"
       id="path8166"
       d="m 222.5,318.5 c 0.5,-0.7 1.7,-1.2 2.6,-1.2 2.1,-0.1 5.4,0.8 6.6,2.6 0.9,1.3 0.3,3.8 0,5.4 -0.5,2.3 -1.9,5.4 -3.3,7.3 -1.4,1.8 -5.8,4.7 -5.8,4.7 0,0 1.1,-5.1 0.9,-7.3 -0.2,-2 -2.2,-4.4 -2.3,-6.5 0,-1.5 0.3,-3.8 1.3,-5 z"
       style="fill:#00ff00;fill-opacity:1;fill-rule:evenodd;stroke:#000000;stroke-width:2.5;stroke-linecap:butt;stroke-linejoin:miter;stroke-miterlimit:4;stroke-opacity:1;stroke-dasharray:none" />
    <path
       inkscape:connector-curvature="0"
       sodipodi:nodetypes="cssssscssss"
       id="path8168"
       d="m 251.6,307.3 c 1.1,-1.6 4.3,-1.7 6.2,-1.5 1.7,0.1 2.8,0.8 3.9,2.1 1.4,1.6 2.3,4.8 2.1,6.9 -0.2,1.4 -1.2,3 -2.1,4 -1.1,1.2 -1.8,2.5 -3.3,3 -1.8,0.6 -6.1,0.7 -6.1,0.7 0,0 2.7,-2.9 3.1,-4.5 0.4,-1.8 0.1,-4.4 -0.9,-6 -0.5,-0.8 -2.1,-1 -2.6,-1.9 -0.4,-0.7 -0.8,-2.1 -0.3,-2.8 z"
       style="fill:#00ff00;fill-opacity:1;fill-rule:evenodd;stroke:#000000;stroke-width:2.5;stroke-linecap:butt;stroke-linejoin:miter;stroke-miterlimit:4;stroke-opacity:1;stroke-dasharray:none" />
    <path
       inkscape:connector-curvature="0"
       sodipodi:nodetypes="csssscssssss"
       id="path8205"
       d="m 65.1,286.4 c -1.89,-2.1 -4.86,-3.4 -7.73,-3.3 -2.47,0.1 -5.45,2.1 -7.37,3.7 -1.99,1.6 -4.65,4.2 -5.35,6.6 -0.36,1.3 -0.29,2.4 0.37,3.5 0.63,1.1 2.4,3.1 2.4,3.1 0,0 0.38,-2.6 1.1,-3.5 1.09,-1.2 3.38,-1.9 4.98,-2.3 1.65,-0.5 4.02,-0.3 5.71,-0.6 1.18,-0.2 2.85,-0.4 3.87,-1.1 1.08,-0.7 2.48,-2.1 2.76,-3.3 0.18,-0.9 -0.17,-2.1 -0.74,-2.8 z"
       style="fill:#00ff00;fill-rule:evenodd;stroke:#000000;stroke-width:2.5;stroke-linecap:butt;stroke-linejoin:miter;stroke-miterlimit:4;stroke-opacity:1;stroke-dasharray:none" />
    <path
       inkscape:connector-curvature="0"
       sodipodi:nodetypes="cssssscssssss"
       id="path8207"
       d="m 63.08,303.5 c 0.77,1.4 0.81,3.8 0.18,5.2 -0.56,1.3 -2.22,2.5 -3.5,3 -1.65,0.6 -4.27,-0.6 -5.89,0.1 -1.94,0.9 -3.9,3.2 -4.98,5 -0.7,1.2 -1.29,3.1 -1.29,4.4 0,1.8 1.66,5.7 1.66,5.7 0,0 -6.09,-4.6 -7.18,-7.5 -0.88,-2.3 -0.39,-5.9 0.36,-8.3 0.69,-2.1 2.46,-4.7 4.06,-6.3 1.48,-1.4 3.89,-3 5.89,-3.6 1.91,-0.6 4.71,-0.8 6.63,-0.2 1.39,0.4 3.34,1.3 4.06,2.5 z"
       style="fill:#00ff00;fill-rule:evenodd;stroke:#000000;stroke-width:2.5;stroke-linecap:butt;stroke-linejoin:miter;stroke-miterlimit:4;stroke-opacity:1;stroke-dasharray:none" />
    <path
       inkscape:connector-curvature="0"
       sodipodi:nodetypes="csssssscssss"
       id="path8209"
       d="m 91.81,317.5 c -0.21,-2 -1.87,-3.5 -3.86,-4 -2.2,-0.6 -5.82,-0.5 -7.56,0.9 -1.25,1.1 -0.8,3.8 -1.1,5.4 -0.37,1.9 -1.08,4.6 -1.11,6.6 0,2.1 0.22,4.9 0.92,6.8 0.43,1.2 1.18,2.8 2.21,3.5 1.5,1 5.9,0.9 5.9,0.9 0,0 -3.36,-2.4 -3.87,-4 -0.46,-1.5 0.15,-3.6 0.74,-5 0.95,-2.2 3.32,-4.6 4.97,-6.4 1.32,-1.5 2.97,-2.7 2.76,-4.7 z"
       style="fill:#00ff00;fill-rule:evenodd;stroke:#000000;stroke-width:2.5;stroke-linecap:butt;stroke-linejoin:miter;stroke-miterlimit:4;stroke-opacity:1;stroke-dasharray:none" />
    <path
       inkscape:connector-curvature="0"
       sodipodi:nodetypes="cssscssssss"
       id="path8211"
       d="m 119.4,305.6 c 2.1,1.1 4.3,2.3 5.4,4.4 1.2,2.3 1,6.3 0,8.7 -0.7,1.5 -1.6,2.9 -3,3.8 -1.4,1 -5.1,2.6 -5.1,2.6 0,0 0.9,-3.1 1.1,-4.4 0.1,-1.6 0.5,-3.9 -0.2,-5.4 -0.9,-1.8 -4.5,-2.6 -5.2,-4.6 -0.4,-1.2 -0.2,-3.2 0.6,-4.2 0.8,-1.1 2.9,-1.6 4.2,-1.7 0.7,0 1.6,0.5 2.2,0.8 z"
       style="fill:#00ff00;fill-rule:evenodd;stroke:#000000;stroke-width:2.5;stroke-linecap:butt;stroke-linejoin:miter;stroke-miterlimit:4;stroke-opacity:1;stroke-dasharray:none" />
    <path
       inkscape:connector-curvature="0"
       sodipodi:nodetypes="cssscssss"
       id="path8213"
       d="m 332.1,288.9 c -1.4,-1.4 -4.6,-1.4 -6.6,-1.1 -2.4,0.3 -3.4,0.7 -5.4,2 -1.7,1.2 -4.1,2.9 -4.9,4.8 -0.9,2.1 0,7.4 0,7.4 0,0 4,-5.3 6.4,-6.6 2.6,-1.5 5.1,0 7.9,-1.2 1,-0.4 2.7,-0.8 3.1,-1.8 0.5,-1 0.2,-2.7 -0.5,-3.5 z"
       style="fill:#00ff00;fill-rule:evenodd;stroke:#000000;stroke-width:2.5;stroke-linecap:butt;stroke-linejoin:miter;stroke-miterlimit:4;stroke-opacity:1;stroke-dasharray:none" />
    <path
       inkscape:connector-curvature="0"
       sodipodi:nodetypes="csssssscssssss"
       id="path8215"
       d="m 329.4,303.7 c 2.1,0.1 3,-0.3 4.4,1.1 1.3,1.3 2.3,4.1 1.7,5.7 -0.4,1 -2,1.5 -2.9,2.1 -1.6,0.8 -4.2,1.2 -5.6,2.4 -1.1,0.9 -2.3,2.7 -2.7,4.2 -0.4,1.1 -0.3,2.8 0,4 0.3,1.3 1.4,2 2,3.2 0.2,0.3 -3.2,0 -4.6,-0.8 -1.5,-0.7 -3.3,-2.4 -4.1,-3.8 -1.1,-2.2 -0.5,-4.3 -0.3,-6.7 0.2,-2.2 2,-3.8 3.3,-5.7 1.3,-1.9 3.8,-3.9 5.9,-4.9 0.8,-0.5 2,-0.8 2.9,-0.8 z"
       style="fill:#00ff00;fill-rule:evenodd;stroke:#000000;stroke-width:2.5;stroke-linecap:butt;stroke-linejoin:miter;stroke-miterlimit:4;stroke-opacity:1;stroke-dasharray:none" />
    <path
       inkscape:connector-curvature="0"
       sodipodi:nodetypes="csssscss"
       id="path8217"
       d="m 356.5,318.4 c 0,0 3.3,-1.8 4.9,-2 0.9,-0.1 1.5,-0.1 2.3,0.4 1.5,1 3.2,3.4 3.3,5.3 0.1,2.6 -2.6,5.4 -3.9,7.6 -0.9,1.5 -2.6,4.8 -2.6,4.8 0,0 -4.3,-9.7 -4.5,-11.7 -0.3,-2.4 0.4,-4.2 0.5,-4.4 z"
       style="fill:#00ff00;fill-rule:evenodd;stroke:#000000;stroke-width:2.5;stroke-linecap:butt;stroke-linejoin:miter;stroke-miterlimit:4;stroke-opacity:1;stroke-dasharray:none" />
    <path
       inkscape:connector-curvature="0"
       sodipodi:nodetypes="cssscsssss"
       id="path8219"
       d="m 387,300.6 c 1.3,-0.4 3.2,-0.4 4.4,0.2 1.5,0.6 3.4,2.3 3.9,3.8 0.8,2.2 0,5.5 -0.7,7.6 -1.1,2.8 -5.7,8.3 -5.7,8.3 0,0 0.1,-4.8 -0.2,-6.8 -0.2,-1.3 -0.4,-3.1 -1.1,-4.1 -1,-1.2 -3.7,-1.2 -4.4,-2.6 -0.5,-0.8 -0.5,-2.4 0,-3.3 0.6,-1.3 2.4,-2.6 3.8,-3.1 z"
       style="fill:#00ff00;fill-rule:evenodd;stroke:#000000;stroke-width:2.5;stroke-linecap:butt;stroke-linejoin:miter;stroke-miterlimit:4;stroke-opacity:1;stroke-dasharray:none" />
  </g>
  <g
     id="langued"
     transform="translate(-8.664,-11.1)">
    <path
       inkscape:connector-curvature="0"
       sodipodi:nodetypes="cscscccc"
       id="path4590"
       d="m 124,114.2 c 0,0 0.5,13.9 3.7,19.7 1.9,3.3 8.8,10.2 8.8,10.2 0,0 8,-7.9 10,-11.2 3.4,-5.6 2.8,-20.1 2.8,-20.1 l -8.5,-1.3 -9.6,-0.6 z"
       style="fill:#ff0000;fill-rule:evenodd;stroke:#000000;stroke-width:2.5;stroke-linecap:butt;stroke-linejoin:miter;stroke-miterlimit:4;stroke-opacity:1;stroke-dasharray:none" />
    <path
       style="fill:#000000;fill-opacity:1;fill-rule:evenodd;stroke:none"
       d="m 135.1,110.5 c -0.4,16.6 0.2,22.8 0.2,22.8 l 1,3.4 1.3,-3.6 c 0,0 -0.6,-6 -0.1,-22.5 l -2.4,-0.1 z"
       id="path3226"
       sodipodi:nodetypes="cccccc"
       inkscape:connector-curvature="0" />
  </g>
</svg>
