<?xml version="1.0" encoding="UTF-8" standalone="no"?>
<!-- Created with Inkscape (http://www.inkscape.org/) -->
<svg xmlns:i="http://ns.adobe.com/AdobeIllustrator/10.0/" xmlns:dc="http://purl.org/dc/elements/1.1/" xmlns:cc="http://creativecommons.org/ns#" xmlns:rdf="http://www.w3.org/1999/02/22-rdf-syntax-ns#" xmlns:svg="http://www.w3.org/2000/svg" xmlns="http://www.w3.org/2000/svg" xmlns:sodipodi="http://sodipodi.sourceforge.net/DTD/sodipodi-0.dtd" xmlns:inkscape="http://www.inkscape.org/namespaces/inkscape" width="472.51788" height="529.74207" id="svg2" version="1.1" inkscape:version="0.48.4 r9939" sodipodi:docname="centaur.svg">
  <defs id="defs4"/>
  <sodipodi:namedview id="base" pagecolor="#ffffff" bordercolor="#666666" borderopacity="1.0" inkscape:pageopacity="0.0" inkscape:pageshadow="2" inkscape:zoom="1.0535398" inkscape:cx="236.04607" inkscape:cy="264.86762" inkscape:document-units="px" inkscape:current-layer="g7955" showgrid="false" fit-margin-top="0" fit-margin-left="0" fit-margin-right="0" fit-margin-bottom="0"/>
  <metadata id="metadata7">
    <rdf:RDF>
      <cc:Work rdf:about="">
        <dc:format>image/svg+xml</dc:format>
        <dc:type rdf:resource="http://purl.org/dc/dcmitype/StillImage"/>
        <dc:title/>
        <dc:creator>
          <cc:Agent>
            <dc:title>http://commons.wikimedia.org/wiki/User:Chatsamhttp://commons.wikimedia.org/wiki/User:Chatsam</dc:title>
          </cc:Agent>
        </dc:creator>
      </cc:Work>
    </rdf:RDF>
  </metadata>
  <g inkscape:label="Layer 1" inkscape:groupmode="layer" id="layer1">
    <g style="display:inline" id="g5479">
      <g id="g5481" inkscape:label="Calque 1"/>
      <g inkscape:label="dessin" id="g5483">
        <g style="fill:#ffff00;stroke:#000000;stroke-width:2.93752313000000020;stroke-miterlimit:4;stroke-opacity:1;stroke-dasharray:none" id="g3655">
          <g style="fill:#ffff00;stroke:#000000;stroke-width:2.93752313000000020;stroke-miterlimit:4;stroke-opacity:1;stroke-dasharray:none" id="g3565">
            <g style="fill:#ffff00;stroke:#000000;stroke-width:2.93752313000000020;stroke-miterlimit:4;stroke-opacity:1;stroke-dasharray:none" inkscape:label="Fond écu" id="g3567"/>
            <g style="fill:#ffff00;stroke:#000000;stroke-width:2.93752313000000020;stroke-miterlimit:4;stroke-opacity:1;stroke-dasharray:none" inkscape:label="Meubles" id="g3569">
              <path inkscape:connector-curvature="0" id="path2095" d="m239.4,211.9   c8.568,2.245 3.365,15.79 16.09,14.4 12.81,-1.402 38.17,2.436 63.94,2.436 25.78,0 32.62,-5.57 49.58,-5.57 26.47,0 50.24,24.02 50.24,24.02 0,0 21.53,6.268 39.47,42.48 17.94,36.21 11.74,65.8 11.74,65.8 -1.305,-14.28 -8.185,-23.25 -8.185,-23.25 14.23,34.78 0.517,57.43 0.517,57.43 0,0 -0.6638,-6.516 -2.214,-11.49 0,36.29 -22.94,68.54 -22.94,68.54 7.457,-21.42 6.311,-50.18 5.735,-63.65 -11.28,-26.77 -8.516,-45.38 -4.012,-77.72 4.578,-32.89 -17.51,-43.43 -17.51,-43.43 0,0 8.425,14.05 6.316,33.71 -3.54,33.06 -21.58,42.14 -21.58,60.12 0,10.11 5.266,24.16 12.1,34.28 6.846,10.11 0,18.55 -1.05,24.16 -6.014,32.09 -7.899,83.14 -7.899,83.14 -12.11,-2.247 -12.63,13.48 -12.63,13.48 1.579,0 5.789,5.618 0,11.24 -5.792,5.621 -26.86,6.742 -27.91,3.373 -2.195,-7.013 7.899,-16.29 7.899,-16.29 0,-5.619 5.267,-14.05 14.22,-30.35 8.952,-16.29 10.01,-59.55 10.01,-71.38 0,-17.98 -21.58,-26.97 -39.49,-59 -1.621,-2.898 -3,-5.836 -4.17,-8.77 -1.77,6.929 -7.255,12.73 -9.615,20.91 -2.362,8.186 5.31,17.95 5.903,23.62 0.5913,5.671 -5.019,12.6 -17.12,29.92 -20.93,29.98 -36.59,72.73 -36.59,72.73 -10.62,-10.08 -14.76,6.928 -14.76,6.928 2.95,0.6304 4.131,10.4 -0.8841,13.86 -5.017,3.465 -27.74,7.244 -28.62,2.205 -1.6,-9.106 9.44,-18.27 9.44,-18.27 1.77,-7.558 11.81,-11.34 14.76,-15.74 30.85,-46.08 37.78,-67.4 43.38,-78.08 5.605,-10.71 6.198,-20.47 4.722,-23.31 -9.108,-17.49 -13.22,-36.91 -13.22,-36.91 -1.013,0.2918 -2.089,0.558 -3.241,0.7886 -19.33,3.87 -41.59,-1.686 -53.71,2.811 -23.18,8.606 -49.17,7.815 -49.17,7.815 -0.6885,2.855 -1.641,5.795 -2.911,8.792 -7.535,17.78 -1.77,46.55 -4.128,69.83 -2.358,23.27 -1.768,71.09 -1.768,71.09 -16.51,-3.146 -20.04,12.59 -20.04,12.59 5.895,2.516 5.304,9.434 1.178,13.21 -4.126,3.773 -21.22,5.662 -24.17,3.143 -7.489,-6.397 6.484,-19.5 6.484,-19.5 0,-5.033 8.841,-11.32 19.45,-33.97 10.61,-22.65 1.179,-64.8 1.179,-64.8 -2.358,-1.887 -5.894,-11.95 -4.125,-18.87 1.768,-6.921 0.5891,-32.71 -4.126,-39.63 -8.211,-0.8599 -15.63,-7.408 -20.08,-15.01 -24.23,-1.797 -28.43,-5.992 -44.58,-8.15 -16.16,-2.156 -24.57,7.537 -13.46,30.17 19.2,39.12 30.96,48.12 30.96,48.12 0,0 -1.682,-1.078 -4.037,2.155 -3.519,4.828 6.729,10.05 6.729,10.05 0,0 2.02,-9.341 7.743,-6.822 5.721,2.511 10.77,24.07 7.405,27.65 -6.761,7.216 -16.16,-4.31 -16.16,-4.31 -10.43,-0.3594 -15.82,-7.544 -21.88,-19.75 -6.057,-12.21 -27.93,-55.31 -36.34,-66.44 -8.412,-11.14 -13.13,-27.3 4.712,-34.48 17.83,-7.18 66.7,-16.83 66.7,-16.83 -2.272,-14 -3.117,-28.4 -3.117,-40.17 2.082,-15.59 8.139,-32.04 14.08,-47.71 0.9687,-1.594 0.05259,-1.371 5.315,-1.932 20.42,9.997 55.8,8.749 79.44,4.542   z " i:knockout="Off" style="fill:#ffff00;stroke:#000000;stroke-width:2.93752313000000020;stroke-linecap:round;stroke-linejoin:round;stroke-miterlimit:4;stroke-opacity:1;stroke-dasharray:none" sodipodi:nodetypes="ccsscccccccccccsccccccccscccccccsccccscscccscccccccsccccccccsccccccccc"/>
              <path inkscape:connector-curvature="0" id="path2099" d="m445.7,357.9   c0,0 -2.868,11.63 -2.294,25.09   " i:knockout="Off" style="fill:#ffff00;stroke:#000000;stroke-width:2.93752313000000020;stroke-linecap:round;stroke-linejoin:round;stroke-miterlimit:4;stroke-opacity:1;stroke-dasharray:none"/>
              <path inkscape:connector-curvature="0" id="path2101" d="m460.6,378.1   c0,-11.02 -6.911,-19.85 -6.911,-28.69   " i:knockout="Off" style="fill:#ffff00;stroke:#000000;stroke-width:2.93752313000000020;stroke-linecap:round;stroke-linejoin:round;stroke-miterlimit:4;stroke-opacity:1;stroke-dasharray:none"/>
              <path inkscape:connector-curvature="0" id="path2105" d="m285.5,493.7   c0,0 -15.63,3.721 -20.07,-2.206   " i:knockout="Off" style="fill:#ffff00;stroke:#000000;stroke-width:2.93752313000000020;stroke-linecap:round;stroke-linejoin:round;stroke-miterlimit:4;stroke-opacity:1;stroke-dasharray:none"/>
              <path inkscape:connector-curvature="0" id="path2107" d="m180.1,511.2   c0,0 -8.549,0.4636 -16.51,-3.145   " i:knockout="Off" style="fill:#ffff00;stroke:#000000;stroke-width:2.93752313000000020;stroke-linecap:round;stroke-linejoin:round;stroke-miterlimit:4;stroke-opacity:1;stroke-dasharray:none"/>
              <path inkscape:connector-curvature="0" id="path2109" d="m353.5,287.1   c0,0 -6.196,26.25 4.255,52.48   " i:knockout="Off" style="fill:#ffff00;stroke:#000000;stroke-width:2.93752313000000020;stroke-linecap:round;stroke-linejoin:round;stroke-miterlimit:4;stroke-opacity:1;stroke-dasharray:none"/>
              <path inkscape:connector-curvature="0" id="path2111" d="m315.1,337.5   c13.79,-3.993 15.79,-13.26 38.35,-13.26   " i:knockout="Off" style="fill:#ffff00;stroke:#000000;stroke-width:2.93752313000000020;stroke-linecap:round;stroke-linejoin:round;stroke-miterlimit:4;stroke-opacity:1;stroke-dasharray:none"/>
              <path inkscape:connector-curvature="0" id="path2113" d="m208.9,348.9   c5.388,-22.34 -5.269,-39.65 -5.269,-39.65   " i:knockout="Off" style="fill:#ffff00;stroke:#000000;stroke-width:2.93752313000000020;stroke-linecap:round;stroke-linejoin:round;stroke-miterlimit:4;stroke-opacity:1;stroke-dasharray:none"/>
              <path inkscape:connector-curvature="0" id="path2115" d="m168.9,308.6   c0,0 -3.033,27.32 7.073,42.15   " i:knockout="Off" style="fill:#ffff00;stroke:#000000;stroke-width:2.93752313000000020;stroke-linecap:round;stroke-linejoin:round;stroke-miterlimit:4;stroke-opacity:1;stroke-dasharray:none"/>
              <path inkscape:connector-curvature="0" id="path2117" d="m155.9,335.7   c-5.999,-10.22 -9.849,-24.21 -12.19,-38.63   " i:knockout="Off" style="fill:#ffff00;stroke:#000000;stroke-width:2.93752313000000020;stroke-linecap:round;stroke-linejoin:round;stroke-miterlimit:4;stroke-opacity:1;stroke-dasharray:none"/>
              <path inkscape:connector-curvature="0" id="path2125" d="m131.5,418.1   c0,0 1.285,6.795 -1.009,16.52   " i:knockout="Off" style="fill:#ffff00;stroke:#000000;stroke-width:2.93752313000000020;stroke-linecap:round;stroke-linejoin:round;stroke-miterlimit:4;stroke-opacity:1;stroke-dasharray:none"/>
            </g>
            <g style="fill:#ffff00;stroke:#000000;stroke-width:2.93752313000000020;stroke-miterlimit:4;stroke-opacity:1;stroke-dasharray:none;display:inline" inkscape:label="Reflet final" id="g5500"/>
            <g style="fill:#ffff00;stroke:#000000;stroke-width:2.93752313000000020;stroke-miterlimit:4;stroke-opacity:1;stroke-dasharray:none;display:inline" inkscape:label="Contour final" id="g5502"/>
          </g>
          <path inkscape:connector-curvature="0" sodipodi:nodetypes="cscccccccccccccccccsccsc" d="m150.2,174.1   c-0.2507,0.3956 -0.5166,0.8179 -0.8022,1.272 0.1344,-0.2153 0.4308,-0.6836 0.8022,-1.272   z m-0.8035,1.272   c-0.05266,0.08528 -0.08724,0.1356 -0.08724,0.1356 0.03186,-0.04749 0.05682,-0.08671 0.08724,-0.1356   z m-2.111,-23.32 -25.12,-5.587   c0,0 -4.457,16.76 -0.8074,24.95   l-6.709,3.585   c3.174,17.84 10.71,7.43 0.03732,32.32 5.177,1.223 13.21,2.526 16.39,-0.1524 4.861,-4.097 9.323,-17.51 18.23,-31.66   l4.864,-18.25 -6.891,-5.213   z m5.801,17.47   c0.2244,-0.3537 0.266,-0.4222 0,0   l0,0   z m-0.7177,1.142   c-0.1441,0.2279 -0.3005,0.4725 -0.4599,0.728 0.1718,-0.2739 0.3213,-0.513 0.4599,-0.728   z m0,0   c0.1385,-0.2223 0.2673,-0.4292 0.3837,-0.6123 -0.108,0.1733 -0.2382,0.3788 -0.3837,0.6123   z " i:knockout="Off" id="_x3C_Tracé_x3E_" style="fill:#ffff00;stroke:#000000;stroke-width:2.93752313000000020;stroke-linecap:round;stroke-linejoin:round;stroke-miterlimit:4;stroke-opacity:1;stroke-dasharray:none"/>
          <path inkscape:connector-curvature="0" id="path2156" d="m121.4,171.4   c0,0 5.672,4.469 6.482,10.05   " i:knockout="Off" style="fill:#ffff00;stroke:#000000;stroke-width:2.93752313000000020;stroke-linecap:round;stroke-linejoin:round;stroke-miterlimit:4;stroke-opacity:1;stroke-dasharray:none"/>
          <path inkscape:connector-curvature="0" id="path2160" d="m149.9,156.6   c0,0 -17.47,3.492 -30.54,-7.879 0,0 2.442,-39.92 26.8,-47.37 10.31,-3.159 32.99,-1.894 32.99,-1.894   l13.05,17.06 38.49,-19.58   c0,0 19.17,-4.866 52.24,30.32 13.06,13.9 21.3,24.64 21.3,24.64 0,0 -28.18,-6.317 -37.11,17.06   l-5.502,0   c0,0 -15.59,50.79 -17.18,51.54 -25.45,12.04 -74.11,10.92 -94.27,3.865 0.8815,-24.86 -5.404,-48.43 -0.2779,-67.74   z " i:knockout="Off" style="fill:#ffff00;stroke:#000000;stroke-width:2.93752313000000020;stroke-linecap:round;stroke-linejoin:round;stroke-miterlimit:4;stroke-opacity:1;stroke-dasharray:none" sodipodi:nodetypes="ccccccccccscc"/>
          <path inkscape:connector-curvature="0" id="path2164" d="m179.7,99.37   c0.4885,-0.4847 13.14,-7.622 10.11,-6.114 0.3745,-0.9241 -0.9609,-0.4673 -2.943,-21 -0.7138,-7.387 11.91,-8.214 20.85,-8.214 8.939,0 18.3,3.129 18.3,10.17 0,7.04 -1.702,20.1 2.129,21.28 3.831,1.174 -1.277,5.319 -1.277,5.319   l-34.55,15.71   c-5.548,-5.716 -9.654,-11.43 -12.61,-17.15   z " i:knockout="Off" style="fill:#ffff00;stroke:#000000;stroke-width:2.93752313000000020;stroke-linecap:round;stroke-linejoin:round;stroke-miterlimit:4;stroke-opacity:1;stroke-dasharray:none" sodipodi:nodetypes="ccssscccc"/>
          <path inkscape:connector-curvature="0" id="path2172" d="m148.9,157.6   c0,0 6.09,-11.92 8.25,-27.79   " i:knockout="Off" style="fill:#ffff00;stroke:#000000;stroke-width:2.93752313000000020;stroke-linecap:round;stroke-linejoin:round;stroke-miterlimit:4;stroke-opacity:1;stroke-dasharray:none"/>
          <path inkscape:connector-curvature="0" id="path2174" d="m261.7,169   c0,0 -26.11,-17.06 -29.55,-34.75   " i:knockout="Off" style="fill:#ffff00;stroke:#000000;stroke-width:2.93752313000000020;stroke-linecap:round;stroke-linejoin:round;stroke-miterlimit:4;stroke-opacity:1;stroke-dasharray:none"/>
          <path inkscape:connector-curvature="0" id="path2178" d="m151.6,151.4   c1.921,-5.008 4.391,-12.71 5.605,-21.66   " i:knockout="Off" style="fill:#ffff00;stroke:#000000;stroke-width:2.93752313000000020;stroke-linecap:round;stroke-linejoin:round;stroke-miterlimit:4;stroke-opacity:1;stroke-dasharray:none"/>
          <path inkscape:connector-curvature="0" id="path2181" d="m323.7,176.7   c-3.754,-10.34 -11.84,-19.1 -19.02,-25.29   l-0.4806,0.4375   c0,0 -27.18,-6.074 -36.61,15.87 4.431,6.601 11.84,15.44 20.45,16.88 -7.827,1.154 -14.48,3.07 -20.38,4.982 -10.82,3.512 -28.02,2.342 -28.02,2.342 -7.008,4.682 -1.91,16.39 -1.91,16.39 45.85,2.927 82.11,-4.097 91.66,-11.12 9.55,-7.021 -3.816,-15.22 -5.726,-20.49   z " i:knockout="Off" style="fill:#ffff00;stroke:#000000;stroke-width:2.93752313000000020;stroke-linecap:round;stroke-linejoin:round;stroke-miterlimit:4;stroke-opacity:1;stroke-dasharray:none"/>
          <path inkscape:connector-curvature="0" id="path2183" d="m288.1,184.6   c6.534,-0.9662 13.88,-1.403 22.28,-0.8692   " i:knockout="Off" style="fill:#ffff00;stroke:#000000;stroke-width:2.93752313000000020;stroke-linecap:round;stroke-linejoin:round;stroke-miterlimit:4;stroke-opacity:1;stroke-dasharray:none"/>
          <path inkscape:connector-curvature="0" id="path2201" d="m164.4,22.47   c0,0 -2.375,11.75 0.5485,16.29 2.924,4.539 -4.258,18.61 -4.258,18.61 0,0 4.031,2.493 8.302,1.813 0,0 -0.4488,5.448 0.4516,7.943 0,0 -2.249,1.135 -0.2271,2.27 0,0 -0.8958,2.496 0.6761,2.496 0,0 2.248,1.363 1.573,4.312 -0.6729,2.951 -0.1828,12.34 8.1,9.533 13.87,-4.701 26.37,-4.914 29.29,-11.04 2.922,-6.129 -0.2304,-16.43 -0.2304,-16.43 1.153,-0.3564 1.161,-1.057 2.253,-3.919 1.296,8.143 0.9615,19.74 -1.658,28.56 0,0 21.34,0.2712 32.32,-13.66 0,0 1.241,-27.36 -13.99,-44.64 2.331,0.4292 3.467,0.7294 3.467,0.7294 -11.78,-21.3 -26.1,-22.41 -52.17,-24.14 -27.82,-1.844 -14.45,21.28 -14.45,21.28   z " i:knockout="Off" style="fill:#ffff00;stroke:#000000;stroke-width:2.93752313000000020;stroke-linecap:round;stroke-linejoin:round;stroke-miterlimit:4;stroke-opacity:1;stroke-dasharray:none" sodipodi:nodetypes="cscccccccccccccccc"/>
          <path inkscape:connector-curvature="0" id="path2203" d="m227.5,24.57   c-4.43,-0.8164 -16.23,-2.255 -29.66,-2.814 -10.3,-0.4278 -17.51,-0.2712 -33.49,0.6849   " i:knockout="Off" style="fill:#ffff00;stroke:#000000;stroke-width:2.93752313000000020;stroke-linecap:round;stroke-linejoin:round;stroke-miterlimit:4;stroke-opacity:1;stroke-dasharray:none"/>
          <path inkscape:connector-curvature="0" id="path2205" d="m201.8,42.87   c0,0 2.983,-3.871 6.438,-1.114   " i:knockout="Off" style="fill:#ffff00;stroke:#000000;stroke-width:2.93752313000000020;stroke-linecap:round;stroke-linejoin:round;stroke-miterlimit:4;stroke-opacity:1;stroke-dasharray:none"/>
          <path inkscape:connector-curvature="0" id="path2207" d="m202.9,56.37   c0,0 2.121,3.087 4.538,2.34   " i:knockout="Off" style="fill:#ffff00;stroke:#000000;stroke-width:2.93752313000000020;stroke-linecap:round;stroke-linejoin:round;stroke-miterlimit:4;stroke-opacity:1;stroke-dasharray:none"/>
          <path inkscape:connector-curvature="0" id="path2209" d="m197.9,21.77   c0,0 6.333,7.103 10.34,19.98 1.154,3.707 1.92,7.972 2.654,12.59   " i:knockout="Off" style="fill:#ffff00;stroke:#000000;stroke-width:2.93752313000000020;stroke-linecap:round;stroke-linejoin:round;stroke-miterlimit:4;stroke-opacity:1;stroke-dasharray:none"/>
          <path inkscape:connector-curvature="0" id="path2211" d="m164.9,38.77   c2.563,3.256 10.77,-3.633 16.62,2.685   " i:knockout="Off" style="fill:#ffff00;stroke:#000000;stroke-width:2.93752313000000020;stroke-linecap:round;stroke-linejoin:round;stroke-miterlimit:4;stroke-opacity:1;stroke-dasharray:none"/>
          <line id="line5519" y2="251.51413" x2="194.55341" y1="249.57718" x1="194.55341" i:knockout="Off" style="fill:#ffff00;stroke:#000000;stroke-width:2.93752313000000020;stroke-linecap:round;stroke-linejoin:round;stroke-miterlimit:4;stroke-opacity:1;stroke-dasharray:none"/>
          <line id="line5521" y2="283.16" x2="199.81801" y1="284.72052" x1="191.0955" i:knockout="Off" style="fill:#ffff00;stroke:#000000;stroke-width:2.93752313000000020;stroke-linecap:round;stroke-linejoin:round;stroke-miterlimit:4;stroke-opacity:1;stroke-dasharray:none"/>
        </g>
        <path inkscape:connector-curvature="0" sodipodi:nodetypes="ccccc" id="path3726" d="m244.2,219.3   c5.261,3.895 5.659,3.643 7.521,7.923 -36.38,16.68 -66.09,13.89 -105.1,9.286 2.363,2.508 -8.92,-3.077 3.237,-13.17 39.52,8.205 54.3,5.408 94.32,-4.041   z " style="fill:#ffff00;fill-rule:evenodd;stroke:#000000;stroke-width:2.93752313;stroke-linecap:butt;stroke-linejoin:miter;stroke-miterlimit:4;stroke-opacity:1;stroke-dasharray:none"/>
        <path inkscape:connector-curvature="0" sodipodi:nodetypes="ccccscccccccccccccc" id="bow" d="m71.53,344.6   c-10.76,15.7 -13.82,21.8 -25.33,36.95 -1.211,-15.7 8.009,-30.79 2.984,-46.58 -4.297,-37.71 -26.27,-72.94 -20.21,-111.8 2.743,-10.04 6.426,-18.62 8.146,-24.79 10.2,-36.55 16.53,-27.35 14.78,0.8965 -1.89,16.56 -13.29,31.47 -8.473,48.73 1.457,26.71 17.71,49.97 17.71,76.95 1.175,8.245 -4.264,34.36 7.822,16.87 49.66,-38.36 103.5,-86.81 143.6,-128.5 -34.62,43.35 -91.74,94.68 -141,131.2   z m29.14,-310.5   c-1.76,27.28 -14.45,51.99 -26.75,75.66 -8.818,14.09 -17.35,29.15 -18.07,46.29 1.03,8.585 -6.034,26.12 -11.44,9.321 -3.651,-55.24 42.64,-93.49 51.63,-146.3 3.36,-15.05 5.747,9.144 10.76,12.37   C138.7,90.57 179.1,134.1 208.7,190.8 174.6,142 141.2,91.67 100.6,34.07   z " style="fill:#00ff00;fill-opacity:1;fill-rule:evenodd;stroke:#000000;stroke-width:2.93752313000000020;stroke-linecap:round;stroke-linejoin:round;stroke-miterlimit:4;stroke-opacity:1;stroke-dasharray:none;stroke-dashoffset:10" inkscape:label="#path3693"/>
        <g style="fill:#ffff00;stroke:#000000;stroke-width:2.94747663;stroke-miterlimit:4;stroke-opacity:1;stroke-dasharray:none" id="g3883">
          <g id="g3885" inkscape:label="Fond écu" style="fill:#ffff00;stroke:#000000;stroke-width:2.94747663;stroke-miterlimit:4;stroke-opacity:1;stroke-dasharray:none;display:inline"/>
          <g style="fill:#ffff00;stroke:#000000;stroke-width:2.94747663;stroke-miterlimit:4;stroke-opacity:1;stroke-dasharray:none" id="g3887" inkscape:label="Meubles">
            <g id="g48405" style="fill:#ffff00;stroke:#000000;stroke-width:3.72566581;stroke-miterlimit:4;stroke-opacity:1;stroke-dasharray:none;display:inline">
              <g style="fill:#ffff00;stroke:#000000;stroke-width:1.11212921;stroke-miterlimit:4;stroke-opacity:1;stroke-dasharray:none" id="g12059">
                <path inkscape:connector-curvature="0" sodipodi:nodetypes="ccccccccccccc" id="path15830" d="m39.33,170.5   c-2.537,0.2544 -3.839,0.4345 -6.755,2.594 0.002286,1.704 -0.6222,3.409 1.431,5.11 -4.443,-0.4335 -4.345,3.873 -1.329,6.067 -2.606,-0.6202 -2.68,5.272 2.362,7.958 -1.485,-0.5393 -1.522,3.731 0.7957,4.866 1.622,0.5349 2.65,1.064 4.163,1.428 8.256,0.3963 3.477,-4.737 -0.8549,-5.096 8.744,3.032 8.997,-3.562 1.647,-5.421 8.464,1.914 6.722,-6.408 1.261,-6.658 6.483,1.114 3.756,-5.026 -0.8965,-5.865   l-2.533,-1.499 0.708,-3.485   z " style="fill:#ffff00;fill-opacity:1;fill-rule:evenodd;stroke:#000000;stroke-width:1.11212921;stroke-linecap:butt;stroke-linejoin:miter;stroke-miterlimit:4;stroke-opacity:1;stroke-dasharray:none;display:inline"/>
                <path inkscape:connector-curvature="0" sodipodi:nodetypes="cccccccccccc" id="path16951" d="m36.83,170.2   c-3.533,0.005779 -4.285,6.014 2.17,6.196 2.147,0.3873 4.144,0.4064 6.216,-0.5429 1.015,1.559 3.171,2.193 5.48,2.243 0.2453,6.887 -0.3656,15.41 -1.852,22.58 4.921,-0.2582 12.01,-5.557 16.03,-5.03 15.78,3.751 -1.597,1.216 15.58,-1.056   l10.04,-14.82   c-13.11,0.3306 -15.63,-1.559 -24.04,-2.983 -10.07,-6.415 -10.19,-7.986 -13.89,-8.15 -4.14,0.3346 -6.095,-0.6698 -8.796,-1.008 -1.5,0.3946 -4.001,2.638 -6.937,2.566   z " style="fill:#ffff00;fill-opacity:1;fill-rule:evenodd;stroke:#000000;stroke-width:1.11212921;stroke-linecap:butt;stroke-linejoin:miter;stroke-miterlimit:4;stroke-opacity:1;stroke-dasharray:none;display:inline"/>
                <path inkscape:connector-curvature="0" sodipodi:nodetypes="cc" id="path22348" d="m33.93,178.4   c2.489,2.444 5.214,2.552 8.614,3.002   " style="fill:#ffff00;fill-rule:evenodd;stroke:#000000;stroke-width:1.11212921;stroke-linecap:butt;stroke-linejoin:miter;stroke-miterlimit:4;stroke-opacity:1;stroke-dasharray:none"/>
                <path inkscape:connector-curvature="0" sodipodi:nodetypes="cc" id="path22350" d="m32.23,183.9   c2.46,2.486 6.677,3.958 9.921,4.22   " style="fill:#ffff00;fill-rule:evenodd;stroke:#000000;stroke-width:1.11212921;stroke-linecap:butt;stroke-linejoin:miter;stroke-miterlimit:4;stroke-opacity:1;stroke-dasharray:none"/>
                <path inkscape:connector-curvature="0" sodipodi:nodetypes="cc" id="path22352" d="m33.93,191.3   c2.316,1.83 3.726,1.654 6.8,2.578   " style="fill:#ffff00;fill-rule:evenodd;stroke:#000000;stroke-width:1.11212921;stroke-linecap:butt;stroke-linejoin:miter;stroke-miterlimit:4;stroke-opacity:1;stroke-dasharray:none"/>
              </g>
              <g id="g3682" style="fill:#ffff00;stroke:#000000;stroke-width:3.72566581;stroke-miterlimit:4;stroke-opacity:1;stroke-dasharray:none">
                <path inkscape:connector-curvature="0" sodipodi:nodetypes="ccccc" id="path2266" d="m71.83,177.1   c21.93,-0.12 35.88,-0.5545 42.98,-1.637 9.635,13.48 4.834,19.84 1.25,31.22 -17.69,-3.773 -24.01,-8.378 -46.39,-10.59   l2.16,-19   z " style="fill:#ffff00;fill-opacity:1;fill-rule:evenodd;stroke:#000000;stroke-width:3.72566581;stroke-linecap:butt;stroke-linejoin:miter;stroke-miterlimit:4;stroke-opacity:1;stroke-dasharray:none"/>
                <path inkscape:connector-curvature="0" sodipodi:nodetypes="cccccccc" id="path3155" d="m76.73,176.7   c0,0 -1.411,-1.585 -2.515,0.7993 -3.63,8.328 -4.044,14.42 -2.163,18.96 1.938,1.097 4.315,0.4344 4.315,0.4344 0,0 -0.02826,1.513 -2.015,2.476 -0.8848,0.4291 -7.834,3.799 -6.19,-11.47 0,0 2.525,-15.23 7.177,-15.36 4.037,-0.3359 3.893,4.058 3.893,4.058   " style="fill:#ffff00;fill-opacity:1;fill-rule:evenodd;stroke:#000000;stroke-width:3.72566581;stroke-linecap:butt;stroke-linejoin:miter;stroke-miterlimit:4;stroke-opacity:1;stroke-dasharray:none"/>
              </g>
            </g>
          </g>
          <g id="g3933" inkscape:label="Reflet final" style="fill:#ffff00;stroke:#000000;stroke-width:2.94747663;stroke-miterlimit:4;stroke-opacity:1;stroke-dasharray:none;display:inline"/>
          <g style="fill:#ffff00;stroke:#000000;stroke-width:2.94747663;stroke-miterlimit:4;stroke-opacity:1;stroke-dasharray:none" id="g3935" inkscape:label="Contour final"/>
        </g>
        <g style="fill:#ff0000" id="arrow" inkscape:label="#g5962">
          <g id="g5964" inkscape:label="Fond écu" style="fill:#ff0000;display:inline"/>
          <g id="g5966" inkscape:label="Meubles" style="fill:#ff0000;display:inline">
            <g style="fill:#ff0000" id="g7055">
              <g style="fill:#ff0000;display:inline" inkscape:label="Meubles" id="g7955">
                <g style="fill:#ff0000" id="g7957">
                  <path inkscape:connector-curvature="0" sodipodi:nodetypes="csccccccsc" style="fill:#ff0000;fill-rule:evenodd;stroke:#000000;stroke-width:3.99490047000000010;stroke-linecap:butt;stroke-linejoin:miter;stroke-miterlimit:4;stroke-opacity:1;stroke-dasharray:none" d="m0.1318,172.7   c0,0 7.788,2.864 16.5,6.872 8.718,4.008 18.35,9.155 18.35,9.155 -4.991,-3.088 -5.335,-6.395 -7.619,-10.47   l0.1892,-1.833 0.006586,-0.06395 0.1892,-1.833   c4.147,-2.848 4.427,-6.499 10.14,-8.271 0,0 -10.06,2.331 -19.5,3.944 -9.44,1.61 -18.25,2.501 -18.25,2.501   z " id="path7959"/>
                  <path inkscape:connector-curvature="0" style="fill:#ff0000;fill-rule:evenodd;stroke:#000000;stroke-width:2.66326594000000010;stroke-linecap:butt;stroke-linejoin:miter;stroke-miterlimit:4;stroke-opacity:1;stroke-dasharray:none" d="m3.332,173.2 24.29,3.309   " id="path7961" sodipodi:nodetypes="cc"/>
                  <path style="opacity:0.9;fill:#ff0000;fill-opacity:1;stroke:#000000;stroke-width:2.66327238;stroke-miterlimit:4;stroke-opacity:1" d="m27.43,178.5 0.4364,-4.227   c0.03182,-0.3082 0.2954,-0.5259 0.5908,-0.4878 0.2955,0.03804 0.508,0.3168 0.4763,0.6251   l-0.4364,4.227   c-0.03182,0.3082 -0.2954,0.5259 -0.5908,0.4878 -0.2955,-0.03804 -0.508,-0.3168 -0.4763,-0.6251   z " id="rect7963"/>
                  <path inkscape:connector-curvature="0" style="fill:#ff0000;fill-rule:evenodd;stroke:#000000;stroke-width:3.99490047000000010;stroke-linecap:butt;stroke-linejoin:miter;stroke-miterlimit:4;stroke-opacity:1;stroke-dasharray:none" d="m28.53,178.3 5.053,1.331 0.5105,-4.944 -5.141,0.007794 -0.4241,3.606   z " id="path7965" sodipodi:nodetypes="ccccc"/>
                </g>
                <path style="fill:#ff0000;fill-opacity:1;fill-rule:evenodd;stroke:#000000;stroke-width:3.78808618;stroke-miterlimit:4;stroke-dashoffset:0;stroke-opacity:1;display:inline" d="m209.2,202.8 -175.4,-24.2 0.3156,-2.851 175.4,24.2   z " id="rect7967"/>
                <g style="fill:#ff0000;fill-opacity:1" id="g7969">
                  <g id="g7971" style="fill:#ff0000;fill-opacity:1;stroke:#000000;stroke-width:3.78807735000000000">
                    <path inkscape:connector-curvature="0" id="path7973" d="m202.5,202.4 5.423,10.57 -25.98,-4.317 -6.105,-9.926 26.66,3.676   z " style="fill:#ff0000;fill-opacity:1;fill-rule:evenodd;stroke:#000000;stroke-width:3.78807735000000000;stroke-linecap:butt;stroke-linejoin:miter;stroke-opacity:1;display:inline"/>
                    <path inkscape:connector-curvature="0" id="path7975" d="m202.9,198.3 7.639,-8.763 -26.14,-2.875 -8.159,7.958 26.66,3.681   z " style="fill:#ff0000;fill-opacity:1;fill-rule:evenodd;stroke:#000000;stroke-width:3.78807735000000000;stroke-linecap:butt;stroke-linejoin:miter;stroke-opacity:1;display:inline"/>
                    <path inkscape:connector-curvature="0" id="path7977" d="m175.8,196.7 32.55,4.491   " style="fill:#ff0000;fill-opacity:1;fill-rule:evenodd;stroke:#000000;stroke-width:3.78807735000000000;stroke-linecap:butt;stroke-linejoin:miter;stroke-opacity:1"/>
                  </g>
                  <g style="fill:#ff0000;fill-opacity:1" id="g7979">
                    <path inkscape:connector-curvature="0" id="path7981" d="m180.6,201.5 3.065,5.763   " style="fill:#ff0000;fill-opacity:1;fill-rule:evenodd;stroke:#000000;stroke-width:1.26269257000000000px;stroke-linecap:butt;stroke-linejoin:miter;stroke-opacity:1"/>
                    <path inkscape:connector-curvature="0" id="path7983" d="M184.2,202.1 187.2,207.9   " style="fill:#ff0000;fill-opacity:1;fill-rule:evenodd;stroke:#000000;stroke-width:1.26269257000000000px;stroke-linecap:butt;stroke-linejoin:miter;stroke-opacity:1;display:inline"/>
                    <path inkscape:connector-curvature="0" id="path7985" d="m188.1,202.8 3.065,5.763   " style="fill:#ff0000;fill-opacity:1;fill-rule:evenodd;stroke:#000000;stroke-width:1.26269257000000000px;stroke-linecap:butt;stroke-linejoin:miter;stroke-opacity:1;display:inline"/>
                    <path inkscape:connector-curvature="0" id="path7987" d="M192,203.3 195.1,209.1   " style="fill:#ff0000;fill-opacity:1;fill-rule:evenodd;stroke:#000000;stroke-width:1.26269257000000000px;stroke-linecap:butt;stroke-linejoin:miter;stroke-opacity:1;display:inline"/>
                    <path inkscape:connector-curvature="0" id="path7989" d="m195.5,203.8 3.065,5.763   " style="fill:#ff0000;fill-opacity:1;fill-rule:evenodd;stroke:#000000;stroke-width:1.26269257000000000px;stroke-linecap:butt;stroke-linejoin:miter;stroke-opacity:1;display:inline"/>
                    <path inkscape:connector-curvature="0" id="path7991" d="m199.2,204.3 3.065,5.763   " style="fill:#ff0000;fill-opacity:1;fill-rule:evenodd;stroke:#000000;stroke-width:1.26269257000000000px;stroke-linecap:butt;stroke-linejoin:miter;stroke-opacity:1;display:inline"/>
                  </g>
                  <g style="fill:#ff0000;fill-opacity:1;display:inline" id="g7993">
                    <path inkscape:connector-curvature="0" id="path7995" d="m181.4,193.3 4.271,-4.753   " style="fill:#ff0000;fill-opacity:1;fill-rule:evenodd;stroke:#000000;stroke-width:1.26269257000000000px;stroke-linecap:butt;stroke-linejoin:miter;stroke-opacity:1"/>
                    <path inkscape:connector-curvature="0" id="path7997" d="M185.1,193.6 189.3,188.9   " style="fill:#ff0000;fill-opacity:1;fill-rule:evenodd;stroke:#000000;stroke-width:1.26269257000000000px;stroke-linecap:butt;stroke-linejoin:miter;stroke-opacity:1;display:inline"/>
                    <path inkscape:connector-curvature="0" id="path7999" d="m189,194.1 4.271,-4.753   " style="fill:#ff0000;fill-opacity:1;fill-rule:evenodd;stroke:#000000;stroke-width:1.26269257000000000px;stroke-linecap:butt;stroke-linejoin:miter;stroke-opacity:1;display:inline"/>
                    <path inkscape:connector-curvature="0" id="path8001" d="M192.9,194.6 197.2,189.9   " style="fill:#ff0000;fill-opacity:1;fill-rule:evenodd;stroke:#000000;stroke-width:1.26269257000000000px;stroke-linecap:butt;stroke-linejoin:miter;stroke-opacity:1;display:inline"/>
                    <path inkscape:connector-curvature="0" id="path8003" d="m196.4,195.1 4.271,-4.753   " style="fill:#ff0000;fill-opacity:1;fill-rule:evenodd;stroke:#000000;stroke-width:1.26269257000000000px;stroke-linecap:butt;stroke-linejoin:miter;stroke-opacity:1;display:inline"/>
                    <path inkscape:connector-curvature="0" id="path8005" d="m200.1,195.6 4.271,-4.753   " style="fill:#ff0000;fill-opacity:1;fill-rule:evenodd;stroke:#000000;stroke-width:1.26269257000000000px;stroke-linecap:butt;stroke-linejoin:miter;stroke-opacity:1;display:inline"/>
                  </g>
                </g>
              </g>
            </g>
          </g>
          <g style="fill:#ff0000" id="layer7" inkscape:label="Ecusson"/>
          <g id="g5996" inkscape:label="Reflet final" style="fill:#ff0000;display:inline"/>
          <g id="g5998" inkscape:label="Contour final" style="fill:#ff0000;display:inline"/>
        </g>
        <g id="g6003">
          <path inkscape:connector-curvature="0" style="fill:#ffff00;stroke:#000000;stroke-width:2.93752313;stroke-linecap:round;stroke-linejoin:round;stroke-miterlimit:4;stroke-opacity:1;stroke-dasharray:none" i:knockout="Off" d="m191.1,214.7   c0,0 11.53,10.2 16.66,3.14 5.125,-7.066 5.554,-10.6 13.24,-8.635 7.691,1.962 17.85,-0.3229 17.85,-0.3229 0,0 1.599,-6.011 1.91,-16.39 0,0 -17.63,-4.097 -28.73,-0.5634 -11.1,3.532 -20.93,22.77 -20.93,22.77   z " id="path2187"/>
          <path inkscape:connector-curvature="0" style="fill:#ffff00;stroke:#000000;stroke-width:2.93752313;stroke-linecap:round;stroke-linejoin:round;stroke-miterlimit:4;stroke-opacity:1;stroke-dasharray:none" i:knockout="Off" d="m207.5,201.2   c0,0 -7.333,8.243 -12.17,15.88   " id="path2189"/>
          <path inkscape:connector-curvature="0" style="fill:#ffff00;stroke:#000000;stroke-width:2.93752313;stroke-linecap:round;stroke-linejoin:round;stroke-miterlimit:4;stroke-opacity:1;stroke-dasharray:none" i:knockout="Off" d="m210.6,205.8   c0,0 -5.869,6.594 -10.7,14.23   " id="path2191"/>
        </g>
      </g>
    </g>
  </g>
</svg>
