<?xml version="1.0" encoding="UTF-8" standalone="no"?>
<!-- Created with Inkscape (http://www.inkscape.org/) -->

<svg
   xmlns:dc="http://purl.org/dc/elements/1.1/"
   xmlns:cc="http://creativecommons.org/ns#"
   xmlns:rdf="http://www.w3.org/1999/02/22-rdf-syntax-ns#"
   xmlns:svg="http://www.w3.org/2000/svg"
   xmlns="http://www.w3.org/2000/svg"
   xmlns:sodipodi="http://sodipodi.sourceforge.net/DTD/sodipodi-0.dtd"
   xmlns:inkscape="http://www.inkscape.org/namespaces/inkscape"
   width="112.01946"
   height="398.79132"
   id="svg2"
   version="1.1"
   inkscape:version="0.48.2 r9819"
   sodipodi:docname="seax.svg">
  <defs
     id="defs4">
    <inkscape:perspective
       sodipodi:type="inkscape:persp3d"
       inkscape:vp_x="0 : 530 : 1"
       inkscape:vp_y="0 : 1000 : 0"
       inkscape:vp_z="740 : 530 : 1"
       inkscape:persp3d-origin="370 : 350 : 1"
       id="perspective10" />
  </defs>
  <sodipodi:namedview
     id="base"
     pagecolor="#ffffff"
     bordercolor="#666666"
     borderopacity="1.0"
     inkscape:pageopacity="0.0"
     inkscape:pageshadow="2"
     inkscape:zoom="1.979899"
     inkscape:cx="-15.606152"
     inkscape:cy="173.57195"
     inkscape:document-units="px"
     inkscape:current-layer="svg2"
     showgrid="false"
     inkscape:window-width="827"
     inkscape:window-height="874"
     inkscape:window-x="2565"
     inkscape:window-y="99"
     inkscape:window-maximized="0"
     borderlayer="true"
     showguides="true"
     inkscape:guide-bbox="true"
     fit-margin-top="0"
     fit-margin-left="0"
     fit-margin-right="0"
     fit-margin-bottom="0">
    <sodipodi:guide
       orientation="1,0"
       position="114.94845,406.23013"
       id="guide3861" />
  </sodipodi:namedview>
  <metadata
     id="metadata7">
    <rdf:RDF>
      <cc:Work
         rdf:about="">
        <dc:format>image/svg+xml</dc:format>
        <dc:type
           rdf:resource="http://purl.org/dc/dcmitype/StillImage" />
        <dc:title />
      </cc:Work>
    </rdf:RDF>
  </metadata>
  <g
     style="display:inline"
     id="body"
     transform="translate(1.4107566,-4.2142842)">
    <path
       sodipodi:nodetypes="csssscsc"
       inkscape:connector-curvature="0"
       id="path3822"
       d="M 43.571429,5.7142842 C 60.714286,54.999999 99.84447,69.203533 96.428572,77.857142 L 85.714286,105 C 87.804563,99.704631 60,97.857142 59.285714,110.71429 58.571429,123.57143 65.714286,136.42857 77.857143,136.42857 90,136.42857 53.571429,170.71428 65.000001,315 l -22.142858,0.71429 C 33.82676,316.00559 6.4285718,103.57143 43.571429,5.7142842 z"
       style="fill:#ffff00;fill-opacity:1;stroke:#000000;stroke-width:3;stroke-miterlimit:4;stroke-opacity:1;stroke-dasharray:none;display:inline" />
    <path
       sodipodi:nodetypes="ccccccc"
       inkscape:connector-curvature="0"
       id="path2999"
       d="M 76.266517,57.053213 96.469567,77.256264 85.209956,101.32661 78.791898,99.959314 70.205601,99.47962 64.08341,102.54597 z"
       style="opacity:0.7;fill:#b3b3b3;fill-opacity:1;stroke:none" />
    <path
       inkscape:connector-curvature="0"
       id="path3001"
       d="m 61.071428,127.85714 6.785714,7.52538 5.862219,1.78572 5.984771,0.98477 -3.510152,12.9438 -7.413342,29.49493 -5.505077,31.55112 -2.586657,39.22443 1.30602,39.12727 L 65,311.42857 l -2.734591,1.76034 -4.79079,-0.41843 -3.102247,-0.98477 -2.979695,-27.41334 0.984771,-43.57142 3.780638,-35.87709 z"
       style="opacity:0.7;fill:#b3b3b3;fill-opacity:1;stroke:none"
       sodipodi:nodetypes="ccccccccccccccccc" />
    <path
       inkscape:connector-curvature="0"
       id="path3824"
       d="M 54.285715,212.14286 C 48.336279,242.59555 47.324312,288.13509 53.571429,310"
       style="opacity:0.75663715;fill:none;stroke:#000000;stroke-width:3;stroke-miterlimit:4;stroke-opacity:1;stroke-dasharray:none;display:inline" />
  </g>
  <g
     id="hilt"
     transform="translate(1.4107566,-4.2142842)">
    <path
       sodipodi:nodetypes="ssssssssscs"
       inkscape:connector-curvature="0"
       id="path3826"
       d="m 55.583025,314.07651 c -31.160108,4.0339 -73.852049,17.64885 -47.0115964,37.35206 11.3963984,8.36594 18.6991334,-3.43916 20.8876014,-5.62763 2.853918,-2.85391 -4.20685,-13.19598 -8.030458,-9.37237 -2.10953,2.10953 -4.285715,10.84047 -4.285715,7.85714 0,-8.94146 7.813802,-10 16.428572,-10 31.808426,0 84.307731,-3.99791 74.285711,-30.71428 -4.00531,-10.67721 -17.37777,-11.40286 -22.943797,-5.83683 -2.619048,2.61904 -0.865724,6.07492 -3.484771,8.69397 C 77.076554,310.78059 95,318.18678 95,304.28571 c 3.030458,16.66752 -32.604051,8.90881 -39.416975,9.7908 z"
       style="fill:#ffff00;fill-opacity:1;stroke:#000000;stroke-width:3;stroke-miterlimit:4;stroke-opacity:1;stroke-dasharray:none" />
    <path
       sodipodi:nodetypes="ccccccc"
       inkscape:connector-curvature="0"
       id="path3851"
       d="m 45.456865,334.34008 c -1.010153,6.06092 -1.010152,37.37564 8.586296,43.43657 2.417368,5.10334 -6.060915,15.65736 3.030458,21.21319 12.626907,1.01016 14.095568,3.1236 19.192898,-9.09136 -1.010152,-8.08122 -8.586296,-11.11168 -7.576144,-15.15229 9.091374,-13.13199 -1.515229,-41.41626 -7.071068,-40.91118 -5.555839,0.50507 -16.16244,0.50507 -16.16244,0.50507 z"
       style="fill:#ffff00;fill-opacity:1;stroke:#000000;stroke-width:3;stroke-miterlimit:4;stroke-opacity:1;stroke-dasharray:none" />
    <path
       sodipodi:nodetypes="cc"
       inkscape:connector-curvature="0"
       id="path3853"
       d="m 44.446712,335.35024 c 5.252041,10.82512 19.171387,18.18274 25.75889,18.18274"
       style="fill:#ffff00;fill-opacity:1;stroke:#000000;stroke-width:3;stroke-miterlimit:4;stroke-opacity:1;stroke-dasharray:none" />
    <path
       sodipodi:nodetypes="cc"
       inkscape:connector-curvature="0"
       id="path3855"
       d="m 45.961941,351.51268 c 3.851732,6.892 20.716322,14.14213 25.253814,14.14213"
       style="fill:#ffff00;fill-opacity:1;stroke:#000000;stroke-width:3;stroke-miterlimit:4;stroke-opacity:1;stroke-dasharray:none" />
    <path
       sodipodi:nodetypes="cc"
       inkscape:connector-curvature="0"
       id="path3857"
       d="m 47.982246,365.65481 c 1.306006,4.72657 18.803903,7.48741 21.71828,7.07107"
       style="fill:#ffff00;fill-opacity:1;stroke:#000000;stroke-width:3;stroke-miterlimit:4;stroke-opacity:1;stroke-dasharray:none" />
    <path
       inkscape:connector-curvature="0"
       id="path3003"
       d="M 43.928571,335 57.5,335 l -1.428572,13.21429 1.071429,11.42857 1.785714,11.07143 4.285714,7.5 -6.428571,1.07142 -0.357143,4.28572 -0.357143,7.14286 L 60,395.35714 63.214285,400 l -7.5,-0.71429 -4.285714,-5.35714 1.071429,-7.5 1.428571,-7.5 c 0,0 -2.142857,-1.78571 -2.857143,-4.28571 C 50.357143,372.14286 47.142857,365 47.142857,365 l -1.428572,-13.21429 0,-15"
       style="opacity:0.6;fill:#4d4d4d;fill-opacity:1;stroke:none" />
  </g>
  <g
     id="pomell"
     transform="translate(4.2748026,-3.2184342)">
    <path
       inkscape:connector-curvature="0"
       id="path3074"
       d="m 76.428571,387.49998 c 0,6.90356 -6.55583,12.5 -14.64286,12.5 -8.08702,0 -14.64285,-5.59644 -14.64285,-12.5 0,-6.90356 6.55583,-12.5 14.64285,-12.5 8.08703,0 14.64286,5.59644 14.64286,12.5 z"
       style="fill:#ffff00;fill-opacity:1;stroke:#000000;stroke-width:3;stroke-miterlimit:4;stroke-opacity:1" />
    <path
       sodipodi:nodetypes="ccsc"
       inkscape:connector-curvature="0"
       id="path3077"
       d="m 62.857142,376.42857 c -9.691608,2.27375 -7.921915,14.28571 -2.857143,21.07143 -7.509256,1.17484 -14.216907,-2.6463 -14.285714,-10 -0.09445,-10.09445 3.900189,-12.364 17.142857,-11.07143 z"
       style="opacity:0.6;fill:#4d4d4d;fill-opacity:1;stroke:none" />
  </g>
</svg>
