<?xml version="1.0" encoding="UTF-8" standalone="no"?>
<!-- Created with Inkscape (http://www.inkscape.org/) -->

<svg
   xmlns:dc="http://purl.org/dc/elements/1.1/"
   xmlns:cc="http://creativecommons.org/ns#"
   xmlns:rdf="http://www.w3.org/1999/02/22-rdf-syntax-ns#"
   xmlns:svg="http://www.w3.org/2000/svg"
   xmlns="http://www.w3.org/2000/svg"
   xmlns:sodipodi="http://sodipodi.sourceforge.net/DTD/sodipodi-0.dtd"
   xmlns:inkscape="http://www.inkscape.org/namespaces/inkscape"
   width="500"
   height="500"
   id="svg2"
   sodipodi:version="0.32"
   inkscape:version="0.48.2 r9819"
   version="1.0"
   sodipodi:docname="ducal.svg"
   inkscape:output_extension="org.inkscape.output.svg.inkscape">
  <defs
     id="defs4">
    <inkscape:path-effect
       effect="spiro"
       id="path-effect3140"
       is_visible="true" />
    <inkscape:path-effect
       effect="spiro"
       id="path-effect3136"
       is_visible="true" />
    <inkscape:path-effect
       effect="spiro"
       id="path-effect3132"
       is_visible="true" />
    <inkscape:path-effect
       effect="spiro"
       id="path-effect3128"
       is_visible="true" />
    <inkscape:path-effect
       effect="spiro"
       id="path-effect3124"
       is_visible="true" />
    <inkscape:path-effect
       effect="spiro"
       id="path-effect3120"
       is_visible="true" />
    <inkscape:path-effect
       effect="spiro"
       id="path-effect3116"
       is_visible="true" />
    <inkscape:path-effect
       effect="spiro"
       id="path-effect3112"
       is_visible="true" />
    <inkscape:path-effect
       effect="spiro"
       id="path-effect3108"
       is_visible="true" />
    <inkscape:path-effect
       effect="spiro"
       id="path-effect3104"
       is_visible="true" />
    <inkscape:path-effect
       effect="spiro"
       id="path-effect3100"
       is_visible="true" />
    <inkscape:path-effect
       effect="spiro"
       id="path-effect3096"
       is_visible="true" />
    <inkscape:path-effect
       effect="spiro"
       id="path-effect3092"
       is_visible="true" />
    <inkscape:path-effect
       effect="spiro"
       id="path-effect3088"
       is_visible="true" />
    <inkscape:path-effect
       effect="spiro"
       id="path-effect3084"
       is_visible="true" />
    <inkscape:path-effect
       effect="spiro"
       id="path-effect3080"
       is_visible="true" />
    <inkscape:path-effect
       effect="spiro"
       id="path-effect3076"
       is_visible="true" />
    <inkscape:path-effect
       effect="spiro"
       id="path-effect3072"
       is_visible="true" />
    <inkscape:path-effect
       effect="spiro"
       id="path-effect3067"
       is_visible="true" />
    <inkscape:perspective
       sodipodi:type="inkscape:persp3d"
       inkscape:vp_x="0 : 526.18109 : 1"
       inkscape:vp_y="0 : 1000 : 0"
       inkscape:vp_z="744.09448 : 526.18109 : 1"
       inkscape:persp3d-origin="372.04724 : 350.78739 : 1"
       id="perspective10" />
  </defs>
  <sodipodi:namedview
     id="base"
     pagecolor="#ffffff"
     bordercolor="#666666"
     borderopacity="1.0"
     gridtolerance="10000"
     guidetolerance="10"
     objecttolerance="10"
     inkscape:pageopacity="0.0"
     inkscape:pageshadow="2"
     inkscape:zoom="0.35355339"
     inkscape:cx="270.31599"
     inkscape:cy="365.291"
     inkscape:document-units="px"
     inkscape:current-layer="body"
     showgrid="false"
     inkscape:window-width="1308"
     inkscape:window-height="874"
     inkscape:window-x="324"
     inkscape:window-y="112"
     inkscape:window-maximized="0"
     inkscape:snap-global="false"
     showguides="true"
     inkscape:guide-bbox="true">
    <sodipodi:guide
       orientation="0,1"
       position="-9,228"
       id="guide3145" />
    <sodipodi:guide
       orientation="1,0"
       position="438,416"
       id="guide3143" />
  </sodipodi:namedview>
  <metadata
     id="metadata7">
    <rdf:RDF>
      <cc:Work
         rdf:about="">
        <dc:format>image/svg+xml</dc:format>
        <dc:type
           rdf:resource="http://purl.org/dc/dcmitype/StillImage" />
        <dc:title />
      </cc:Work>
    </rdf:RDF>
  </metadata>
  <g
     inkscape:label="Layer 1"
     inkscape:groupmode="layer"
     id="layer1">
    <g
       id="body">
      <path
         sodipodi:nodetypes="ccccccccc"
         inkscape:connector-curvature="0"
         d="M 43.1,219 C 5.7,208 42,195 30.2,168.4 19.8,128.6 5.7,155.6 3.3,122.8 35,94.68 148,98.18 220,94.69 c 71,3.49 184,0 216,28.11 -2,32.8 -16,5.8 -27,45.6 -12,26.6 25,39.6 -13,50.6 -28,9 -176,10 -176,10 0,0 -149,-1 -176.9,-10 z"
         style="fill:#ffff00;stroke:#000000;stroke-width:4;stroke-miterlimit:4;stroke-opacity:1;stroke-dasharray:none"
         id="path3764" />
      <path
         sodipodi:nodetypes="cc"
         inkscape:connector-curvature="0"
         id="path3767"
         d="m 17.594215,144.17934 c 88.099995,-44.5 305.670245,-38.6 411.670245,-4.7"
         style="fill:none;stroke:#000000;stroke-width:4;stroke-miterlimit:4;stroke-opacity:1;stroke-dasharray:none" />
      <path
         sodipodi:nodetypes="cc"
         inkscape:connector-curvature="0"
         id="path3769"
         d="m 31.4,195 c 120.25289,-29.26446 216.03221,-31.27328 382.03221,6.52672"
         style="fill:none;stroke:#000000;stroke-width:4;stroke-miterlimit:4;stroke-opacity:1;stroke-dasharray:none" />
      <path
         sodipodi:nodetypes="ccccc"
         inkscape:connector-curvature="0"
         id="path3773"
         d="M 24.1,152.9 C 132,93.18 345,124.8 421,147 l 9,-8.2 C 402,125.9 146,74.4 14.7,145.9 z"
         style="opacity:0.5;fill:#333333;fill-opacity:1;fill-rule:evenodd;stroke:none" />
      <path
         sodipodi:nodetypes="ccccc"
         inkscape:connector-curvature="0"
         id="path3067"
         d="m 51.07438,153.71901 c 25.619833,-11.15703 38.01653,-10.7438 38.01653,-10.7438 l 4.13223,9.09091 c -8.67768,7.02479 -39.669421,14.04958 -39.669421,14.04958 z"
         style="fill:none;stroke:#000000;stroke-width:2;stroke-linecap:butt;stroke-linejoin:miter;stroke-opacity:1" />
      <path
         inkscape:connector-curvature="0"
         id="path3069"
         d="m 115.53719,136.77686 -6.19835,9.91735 9.09091,7.43802 6.61157,-9.09091 z"
         style="fill:none;stroke:#000000;stroke-width:2;stroke-linecap:butt;stroke-linejoin:miter;stroke-opacity:1"
         sodipodi:nodetypes="ccccc" />
      <path
         style="fill:none;stroke:#000000;stroke-width:2;stroke-linecap:butt;stroke-linejoin:miter;stroke-opacity:1"
         d="m 343.07438,143.71901 c 32.2314,2.47933 34.23141,2.99174 52.41322,10.01653 l -8.26446,10.33058 C 368.6281,156.6281 345.55372,156.1157 345.55372,156.1157 z"
         id="path3071"
         inkscape:connector-curvature="0"
         sodipodi:nodetypes="ccccc" />
      <path
         sodipodi:nodetypes="ccccc"
         style="fill:none;stroke:#000000;stroke-width:2;stroke-linecap:butt;stroke-linejoin:miter;stroke-opacity:1"
         d="m 319.66942,136.36364 -9.50413,7.43801 6.19834,11.57025 10.74381,-8.67769 z"
         id="path3073"
         inkscape:connector-curvature="0" />
      <path
         inkscape:connector-curvature="0"
         id="path3075"
         d="m 219.66942,128.36364 -9.50413,7.43801 9.0909,11.98347 7.85125,-9.09091 z"
         style="fill:none;stroke:#000000;stroke-width:2;stroke-linecap:butt;stroke-linejoin:miter;stroke-opacity:1"
         sodipodi:nodetypes="ccccc" />
      <path
         style="fill:none;stroke:#000000;stroke-width:2;stroke-linecap:butt;stroke-linejoin:miter;stroke-opacity:1"
         d="m 145.4876,135.10744 c 28.5124,-5.78513 37.60331,-2.89256 37.60331,-2.89256 l 0,10.7438 c -16.1157,0.82644 -36.77686,2.89256 -36.77686,2.89256 z"
         id="path3077"
         inkscape:connector-curvature="0"
         sodipodi:nodetypes="ccccc" />
      <path
         sodipodi:nodetypes="ccccc"
         inkscape:connector-curvature="0"
         id="path3079"
         d="m 245.4876,131.10744 c 21.07438,1.65289 37.60331,5.10744 37.60331,5.10744 l 0,10.7438 c -20.24793,-4.13224 -36.77686,-5.10744 -36.77686,-5.10744 z"
         style="fill:none;stroke:#000000;stroke-width:2;stroke-linecap:butt;stroke-linejoin:miter;stroke-opacity:1" />
      <path
         style="fill:#ffffff;fill-opacity:1;stroke:#000000"
         d="m 27.328244,205.34351 c -12.21374,8.39695 -3.053435,40.45802 -3.053435,40.45802 -9.923664,24.42748 377.862591,21.37404 389.312981,10.68702 11.45038,-10.68702 9.92366,-29.00763 -3.05344,-44.27481 C 206.36603,166.82406 27.328244,205.34351 27.328244,205.34351 z"
         id="path3101"
         inkscape:connector-curvature="0"
         sodipodi:nodetypes="ccscc" />
      <path
         sodipodi:nodetypes="ccccccc"
         inkscape:connector-curvature="0"
         id="path3771"
         d="m 24.956489,248.14504 c 24.493894,-30.2458 385.333581,-14.03053 392.203811,2 0,0 -5.69466,23.36641 -139.61832,13.2061 -31,-6 52.18321,-6.54962 29.18321,-17.54962 -87.05344,-0.69618 -87.54962,4.03741 -159.12977,4.52672 -23,13 73.22901,5.54962 54.22901,16.54962 C 20.454198,261.1374 24.956489,248.14504 24.956489,248.14504 z"
         style="opacity:0.5;fill:#333333;fill-opacity:1;stroke:none" />
      <path
         style="fill:#666666;fill-opacity:1;stroke:none"
         d="m 73.265971,203.97401 c -23.049817,2.42509 -10.844205,6.08992 -27.952103,15.1962 18.975477,-5.64597 10.406346,5.06916 31.6169,-6.90322 -2.96874,-0.90987 -5.212808,-1.42509 -0.958102,-4.76131 -7.946824,1.45991 -4.03311,-1.43119 -2.706695,-3.53167 z"
         id="path3103"
         inkscape:connector-curvature="0"
         sodipodi:nodetypes="ccccc" />
      <path
         sodipodi:nodetypes="ccccc"
         inkscape:connector-curvature="0"
         id="path3105"
         d="m 130.39186,212.07138 c -23.17443,0.3472 -11.34686,5.09238 -29.20281,12.62695 19.40551,-3.92065 9.90955,5.98241 32.10876,-4.0386 -2.87513,-1.17256 -5.06392,-1.88706 -0.52703,-4.82807 -8.04577,0.741 -3.88844,-1.78728 -2.37892,-3.76028 z"
         style="fill:#666666;fill-opacity:1;stroke:none" />
      <path
         style="fill:#666666;fill-opacity:1;stroke:none"
         d="m 185.43537,199.15772 c -22.72064,-4.57682 -12.16889,2.5694 -31.21679,6.14461 19.79556,0.28518 8.41493,7.94842 32.2347,2.86472 -2.56095,-1.75579 -4.54835,-2.91834 0.50917,-4.82998 -8.01984,-0.98266 -3.42079,-2.57148 -1.52708,-4.17935 z"
         id="path3107"
         inkscape:connector-curvature="0"
         sodipodi:nodetypes="ccccc" />
      <path
         sodipodi:nodetypes="ccccc"
         inkscape:connector-curvature="0"
         id="path3109"
         d="m 224.26497,217.77465 c -22.72064,-4.57682 -12.16889,2.5694 -31.21679,6.14461 19.79556,0.28518 8.41493,7.94842 32.2347,2.86472 -2.56095,-1.75579 -4.54835,-2.91834 0.50917,-4.82998 -8.01984,-0.98266 -3.42079,-2.57148 -1.52708,-4.17935 z"
         style="fill:#666666;fill-opacity:1;stroke:none" />
      <path
         style="fill:#666666;fill-opacity:1;stroke:none"
         d="m 262.56266,199.15772 c -22.72064,-4.57682 -12.16889,2.5694 -31.21679,6.14461 19.79556,0.28518 8.41493,7.94842 32.2347,2.86472 -2.56095,-1.75579 -4.54835,-2.91834 0.50917,-4.82998 -8.01984,-0.98266 -3.42079,-2.57148 -1.52708,-4.17935 z"
         id="path3111"
         inkscape:connector-curvature="0"
         sodipodi:nodetypes="ccccc" />
      <path
         sodipodi:nodetypes="ccccc"
         inkscape:connector-curvature="0"
         id="path3113"
         d="m 300.86035,216.71083 c -22.72064,-4.57682 -12.16889,2.5694 -31.21679,6.14461 19.79556,0.28518 8.41493,7.94842 32.2347,2.86472 -2.56095,-1.75579 -4.54835,-2.91834 0.50917,-4.82998 -8.01984,-0.98266 -3.42079,-2.57148 -1.52708,-4.17935 z"
         style="fill:#666666;fill-opacity:1;stroke:none" />
      <path
         style="fill:#666666;fill-opacity:1;stroke:none"
         d="m 348.20054,203.94493 c -22.72064,-4.57682 -12.16889,2.5694 -31.21679,6.14461 19.79556,0.28518 8.41493,7.94842 32.2347,2.86472 -2.56095,-1.75579 -4.54835,-2.91834 0.50917,-4.82998 -8.01984,-0.98266 -3.42079,-2.57148 -1.52708,-4.17935 z"
         id="path3115"
         inkscape:connector-curvature="0"
         sodipodi:nodetypes="ccccc" />
      <path
         sodipodi:nodetypes="ccccc"
         inkscape:connector-curvature="0"
         id="path3117"
         d="m 379.02503,224.17402 c -21.84596,-7.74136 -12.40985,0.82414 -31.77182,1.67198 19.55665,3.07946 7.20737,9.05771 31.50648,7.39079 -2.28715,-2.10004 -4.09034,-3.53175 1.18655,-4.70957 -7.80052,-2.10602 -3.02311,-3.02904 -0.92121,-4.3532 z"
         style="fill:#666666;fill-opacity:1;stroke:none" />
      <path
         id="path3065"
         style="fill:#ffff00;fill-opacity:1;stroke:#000000;stroke-width:4;stroke-opacity:1"
         inkscape:path-effect="#path-effect3067"
         inkscape:original-d="m 415.25,103.75 -30.5,-9 -28,-2.5 -5.5,-9 6.5,-8 8,6.5 10,4 4.5,-10.5 0.5,-16 c -4.61692,-3.73667 -9.84706,0 -15.5,0 l -5.5,4 -1,-8 3.5,-4 2,-12.5 -10,-5.5 -11,1 -9,4.5 3.5,12 5,5.5 0.5,7.5 -7.5,-7 -9.5,-5.5 -4.5,9 1,10.5 5,9.5 11,-3 4,-1 0.5,5 -5.5,8 -13,1 -34,-1.5 -36.25,-1 -28.25,-2.5 -5.5,-9 6.5,-8 8,6.5 10,4 4.5,-10.5 0.5,-16 c -4.61692,-3.73667 -9.84706,0 -15.5,0 l -5.5,4 -1,-8 3.5,-4 2,-12.5 -10,-5.5 -11,1 -9,4.5 3.5,12 5,5.5 0.5,7.5 -7.5,-7 -9.5,-5.5 -4.5,9 1,10.5 5,9.5 11,-3 4,-1 0.5,5 -5.5,8 -15.125,1.625 L 154,85.5 120,87 l -13,-1 -5.5,-8 0.5,-5 4,1 11,3 5,-9.5 1,-10.5 -4.5,-9 -9.5,5.5 -7.5,7 0.5,-7.5 5,-5.5 3.5,-12 -9,-4.5 -11,-1 -10,5.5 2,12.5 3.5,4 -1,8 -5.5,-4 C 73.847058,56 68.616919,52.263332 64,56 l 0.5,16 4.5,10.5 10,-4 8,-6.5 6.5,8 -5.5,9 -28,2.5 -30.5,9 -22.75,18.75 C 56.5,106 181.5,88 223,95 c 41.5,7 215.125,26.125 215.125,26.125 z"
         d="m 415.25,103.75 -30.5,-9 -28,-2.5 -5.5,-9 6.5,-8 8,6.5 10,4 4.5,-10.5 0.5,-16 -15.5,0 -5.5,4 -1,-8 3.5,-4 2,-12.5 -10,-5.5 -11,1 -9,4.5 3.5,12 5,5.5 0.5,7.5 -7.5,-7 -9.5,-5.5 -4.5,9 1,10.5 5,9.5 c 3.65074,-1.057206 7.31801,-2.057368 11,-3 1.33144,-0.340863 2.6648,-0.674203 4,-1 l 0.5,5 -5.5,8 -13,1 c -11.32266,-0.711986 -22.65863,-1.212103 -34,-1.5 -12.08454,-0.306762 -24.17785,-0.372706 -36.25,-1 -9.44281,-0.490668 -18.86777,-1.324735 -28.25,-2.5 l -5.5,-9 6.5,-8 8,6.5 10,4 4.5,-10.5 0.5,-16 -15.5,0 -5.5,4 -1,-8 3.5,-4 2,-12.5 -10,-5.5 -11,1 -9,4.5 3.5,12 5,5.5 0.5,7.5 -7.5,-7 -9.5,-5.5 -4.5,9 1,10.5 5,9.5 c 3.65074,-1.057206 7.31801,-2.057368 11,-3 1.33144,-0.340863 2.6648,-0.674203 4,-1 l 0.5,5 -5.5,8 -15.125,1.625 C 179.41624,84.406645 166.7079,84.948312 154,85.5 142.66632,85.992029 131.33298,86.492029 120,87 l -13,-1 -5.5,-8 0.5,-5 c 1.3352,0.325797 2.66856,0.659137 4,1 3.68199,0.942632 7.34926,1.942794 11,3 l 5,-9.5 1,-10.5 -4.5,-9 -9.5,5.5 -7.5,7 0.5,-7.5 5,-5.5 3.5,-12 -9,-4.5 -11,-1 -10,5.5 2,12.5 3.5,4 -1,8 -5.5,-4 -15.5,0 0.5,16 4.5,10.5 10,-4 8,-6.5 6.5,8 -5.5,9 -28,2.5 -30.5,9 -22.75,18.75 C 77.565181,102.80537 150.30136,94.648825 223,95 c 72.39663,0.349716 144.74903,9.13626 215.125,26.125 L 415.25,103.75"
         inkscape:connector-curvature="0"
         sodipodi:nodetypes="ccccccccccccccccccccccccccccccccccccccccccccccccccccccccccccccccccccccccccccccccccccccccccccscc" />
      <path
         style="fill:none;fill-opacity:1;stroke:#333333;stroke-width:6;stroke-opacity:1;opacity:0.67"
         d="m 70.5,76 11,-6"
         id="path3070"
         inkscape:path-effect="#path-effect3072"
         inkscape:original-d="m 70.5,76 11,-6"
         inkscape:connector-curvature="0" />
      <path
         style="fill:none;fill-opacity:1;stroke:#333333;stroke-width:6;stroke-opacity:1;opacity:0.67"
         d="m 68.5,61.5 8.5,-1"
         id="path3074"
         inkscape:path-effect="#path-effect3076"
         inkscape:original-d="m 68.5,61.5 8.5,-1"
         inkscape:connector-curvature="0" />
      <path
         style="fill:none;fill-opacity:1;stroke:#333333;stroke-width:6;stroke-opacity:1;opacity:0.67"
         d="M 85.5,37.5 88,46"
         id="path3078"
         inkscape:path-effect="#path-effect3080"
         inkscape:original-d="M 85.5,37.5 88,46"
         inkscape:connector-curvature="0" />
      <path
         style="fill:none;fill-opacity:1;stroke:#333333;stroke-width:6;stroke-opacity:1;opacity:0.67"
         d="m 104.5,38 -4,7.5"
         id="path3082"
         inkscape:path-effect="#path-effect3084"
         inkscape:original-d="m 104.5,38 -4,7.5"
         inkscape:connector-curvature="0" />
      <path
         style="fill:none;fill-opacity:1;stroke:#333333;stroke-width:6;stroke-opacity:1;opacity:0.67"
         d="m 108.5,62 6,-6.5"
         id="path3086"
         inkscape:path-effect="#path-effect3088"
         inkscape:original-d="m 108.5,62 6,-6.5"
         inkscape:connector-curvature="0" />
      <path
         style="fill:none;fill-opacity:1;stroke:#333333;stroke-width:6;stroke-opacity:1;opacity:0.67"
         d="m 104.5,68 7.5,3"
         id="path3090"
         inkscape:path-effect="#path-effect3092"
         inkscape:original-d="m 104.5,68 7.5,3"
         inkscape:connector-curvature="0" />
      <path
         style="fill:none;fill-opacity:1;stroke:#333333;stroke-width:6;stroke-opacity:1;opacity:0.67"
         d="m 209,35 2,7.5"
         id="path3094"
         inkscape:path-effect="#path-effect3096"
         inkscape:original-d="m 209,35 2,7.5"
         inkscape:connector-curvature="0" />
      <path
         style="fill:none;fill-opacity:1;stroke:#333333;stroke-width:6;stroke-opacity:1;opacity:0.67"
         d="m 229.5,33.5 -2.5,8"
         id="path3098"
         inkscape:path-effect="#path-effect3100"
         inkscape:original-d="m 229.5,33.5 -2.5,8"
         inkscape:connector-curvature="0" />
      <path
         style="fill:none;fill-opacity:1;stroke:#333333;stroke-width:6;stroke-opacity:1;opacity:0.67"
         d="m 198,51.5 9.5,7"
         id="path3102"
         inkscape:path-effect="#path-effect3104"
         inkscape:original-d="m 198,51.5 9.5,7"
         inkscape:connector-curvature="0" />
      <path
         style="fill:none;fill-opacity:1;stroke:#333333;stroke-width:6;stroke-opacity:1;opacity:0.67"
         d="m 200,65 10.5,0.5"
         id="path3106"
         inkscape:path-effect="#path-effect3108"
         inkscape:original-d="m 200,65 10.5,0.5"
         inkscape:connector-curvature="0" />
      <path
         style="fill:none;fill-opacity:1;stroke:#333333;stroke-width:6;stroke-opacity:1;opacity:0.67"
         d="m 236,58.5 9.5,-1"
         id="path3110"
         inkscape:path-effect="#path-effect3112"
         inkscape:original-d="m 236,58.5 9.5,-1"
         inkscape:connector-curvature="0" />
      <path
         style="fill:none;fill-opacity:1;stroke:#333333;stroke-width:6;stroke-opacity:1;opacity:0.67"
         d="m 233,66.5 9,6.5"
         id="path3114"
         inkscape:path-effect="#path-effect3116"
         inkscape:original-d="m 233,66.5 9,6.5"
         inkscape:connector-curvature="0" />
      <path
         style="fill:none;fill-opacity:1;stroke:#333333;stroke-width:6;stroke-opacity:1;opacity:0.67"
         d="m 341,40.5 2.5,11"
         id="path3118"
         inkscape:path-effect="#path-effect3120"
         inkscape:original-d="m 341,40.5 2.5,11"
         inkscape:connector-curvature="0" />
      <path
         style="fill:none;fill-opacity:1;stroke:#333333;stroke-width:6;stroke-opacity:1;opacity:0.67"
         d="m 357,39.5 1,8"
         id="path3122"
         inkscape:path-effect="#path-effect3124"
         inkscape:original-d="m 357,39.5 1,8"
         inkscape:connector-curvature="0" />
      <path
         style="fill:none;fill-opacity:1;stroke:#333333;stroke-width:6;stroke-opacity:1;opacity:0.67"
         d="m 365,64 9,0"
         id="path3126"
         inkscape:path-effect="#path-effect3128"
         inkscape:original-d="m 365,64 9,0"
         inkscape:connector-curvature="0" />
      <path
         style="fill:none;fill-opacity:1;stroke:#333333;stroke-width:6;stroke-opacity:1;opacity:0.67"
         d="m 363.5,73 9.5,7"
         id="path3130"
         inkscape:path-effect="#path-effect3132"
         inkscape:original-d="m 363.5,73 9.5,7"
         inkscape:connector-curvature="0" />
      <path
         style="fill:none;fill-opacity:1;stroke:#333333;stroke-width:6;stroke-opacity:1;opacity:0.67"
         d="m 329,59 12,8"
         id="path3134"
         inkscape:path-effect="#path-effect3136"
         inkscape:original-d="m 329,59 12,8"
         inkscape:connector-curvature="0" />
      <path
         style="fill:none;fill-opacity:1;stroke:#333333;stroke-width:6;stroke-opacity:1;opacity:0.67"
         d="M 330,73.5 339.5,71"
         id="path3138"
         inkscape:path-effect="#path-effect3140"
         inkscape:original-d="M 330,73.5 339.5,71"
         inkscape:connector-curvature="0" />
    </g>
  </g>
</svg>
