<?xml version="1.0" encoding="UTF-8" standalone="no"?>
<!-- Created with Inkscape (http://www.inkscape.org/) -->

<svg
   xmlns:dc="http://purl.org/dc/elements/1.1/"
   xmlns:cc="http://creativecommons.org/ns#"
   xmlns:rdf="http://www.w3.org/1999/02/22-rdf-syntax-ns#"
   xmlns:svg="http://www.w3.org/2000/svg"
   xmlns="http://www.w3.org/2000/svg"
   xmlns:sodipodi="http://sodipodi.sourceforge.net/DTD/sodipodi-0.dtd"
   xmlns:inkscape="http://www.inkscape.org/namespaces/inkscape"
   width="500"
   height="500"
   id="svg2"
   sodipodi:version="0.32"
   inkscape:version="0.48.2 r9819"
   version="1.0"
   sodipodi:docname="crown-earl.svg"
   inkscape:output_extension="org.inkscape.output.svg.inkscape">
  <defs
     id="defs4">
    <inkscape:perspective
       sodipodi:type="inkscape:persp3d"
       inkscape:vp_x="0 : 526.18109 : 1"
       inkscape:vp_y="0 : 1000 : 0"
       inkscape:vp_z="744.09448 : 526.18109 : 1"
       inkscape:persp3d-origin="372.04724 : 350.78739 : 1"
       id="perspective10" />
  </defs>
  <sodipodi:namedview
     id="base"
     pagecolor="#ffffff"
     bordercolor="#666666"
     borderopacity="1.0"
     gridtolerance="10000"
     guidetolerance="10"
     objecttolerance="10"
     inkscape:pageopacity="0.0"
     inkscape:pageshadow="2"
     inkscape:zoom="1.31"
     inkscape:cx="250"
     inkscape:cy="252.50565"
     inkscape:document-units="px"
     inkscape:current-layer="body"
     showgrid="false"
     inkscape:window-width="1151"
     inkscape:window-height="874"
     inkscape:window-x="119"
     inkscape:window-y="5"
     inkscape:window-maximized="0"
     inkscape:snap-global="false"
     showguides="true"
     inkscape:guide-bbox="true">
    <sodipodi:guide
       orientation="0,1"
       position="71.755725,161.0687"
       id="guide3145" />
  </sodipodi:namedview>
  <metadata
     id="metadata7">
    <rdf:RDF>
      <cc:Work
         rdf:about="">
        <dc:format>image/svg+xml</dc:format>
        <dc:type
           rdf:resource="http://purl.org/dc/dcmitype/StillImage" />
        <dc:title></dc:title>
      </cc:Work>
    </rdf:RDF>
  </metadata>
  <g
     inkscape:label="Layer 1"
     inkscape:groupmode="layer"
     id="layer1">
    <g
       id="body">
      <path
         sodipodi:nodetypes="ccccccccc"
         inkscape:connector-curvature="0"
         d="M 63.1,319 C 25.7,308 62,295 50.2,268.4 39.8,228.6 25.7,255.6 23.3,222.8 55,194.68 168,198.18 240,194.69 c 71,3.49 184,0 216,28.11 -2,32.8 -16,5.8 -27,45.6 -12,26.6 25,39.6 -13,50.6 -28,9 -176,10 -176,10 0,0 -149,-1 -176.9,-10 z"
         style="fill:#ff0000;stroke:#000000;stroke-width:4;stroke-miterlimit:4;stroke-opacity:1;stroke-dasharray:none"
         id="path3764" />
      <path
         sodipodi:nodetypes="cc"
         inkscape:connector-curvature="0"
         id="path3767"
         d="m 37.594215,244.17934 c 88.099995,-44.5 305.670245,-38.6 411.670245,-4.7"
         style="fill:#ff0000;stroke:#000000;stroke-width:4;stroke-miterlimit:4;stroke-opacity:1;stroke-dasharray:none" />
      <path
         sodipodi:nodetypes="cc"
         inkscape:connector-curvature="0"
         id="path3769"
         d="m 51.4,295 c 120.25289,-29.26446 216.03221,-31.27328 382.03221,6.52672"
         style="fill:#ff0000;stroke:#000000;stroke-width:4;stroke-miterlimit:4;stroke-opacity:1;stroke-dasharray:none" />
      <path
         sodipodi:nodetypes="ccccccc"
         inkscape:connector-curvature="0"
         id="path3771"
         d="m 50.3,297 c 107.7,-56.2 377.7,2 377.7,2 0,0 34,31 -90,30 -31,-6 56,-18 33,-29 -84,-15.2 -199,-18.1 -266,3 -23,13 103,17 84,28 C 7.629771,325.25954 50.3,297 50.3,297 z"
         style="opacity:0.50000000000000000;fill:#333333;fill-opacity:1;stroke:none" />
      <path
         sodipodi:nodetypes="ccccc"
         inkscape:connector-curvature="0"
         id="path3773"
         d="M 44.1,252.9 C 152,193.18 365,224.8 441,247 l 9,-8.2 C 422,225.9 166,174.4 34.7,245.9 z"
         style="opacity:0.50000000000000000;fill:#333333;fill-opacity:1;fill-rule:evenodd;stroke:none" />
      <path
         sodipodi:nodetypes="ccsccccccccc"
         inkscape:connector-curvature="0"
         id="path3796"
         d="M 25.31157,220.17355 C 45.21157,194.17355 41.4,142 49.2,107 52.9,135 42.3,195 61.8,195 93,194 105.89389,173.37405 129.37405,84.409924 148.82443,159.52672 133.48092,175.18321 171,178 237,156 215,108 235,42.5 259,116 234,156 285,175 c 53,2 54,-67 67,-83.5 4,28.5 -3,95.5 36,94.5 58,17 42,-52 54,-68 6,43 -17.52066,94.95868 17.47934,103.95868 C 401,190.26446 114.61157,182.17355 25.31157,220.17355 z"
         style="fill:#ff0000;stroke:#000000;stroke-width:4;stroke-miterlimit:4;stroke-opacity:1;stroke-dasharray:none">
        <title
           id="title3798">ducal points</title>
      </path>
      <path
         sodipodi:nodetypes="ccccc"
         inkscape:connector-curvature="0"
         id="path3067"
         d="m 71.07438,253.71901 c 25.619833,-11.15703 38.01653,-10.7438 38.01653,-10.7438 l 4.13223,9.09091 c -8.67768,7.02479 -39.669421,14.04958 -39.669421,14.04958 z"
         style="fill:none;stroke:#000000;stroke-width:2;stroke-linecap:butt;stroke-linejoin:miter;stroke-opacity:1" />
      <path
         inkscape:connector-curvature="0"
         id="path3069"
         d="m 135.53719,236.77686 -6.19835,9.91735 9.09091,7.43802 6.61157,-9.09091 z"
         style="fill:none;stroke:#000000;stroke-width:2;stroke-linecap:butt;stroke-linejoin:miter;stroke-opacity:1" />
      <path
         style="fill:none;stroke:#000000;stroke-width:2;stroke-linecap:butt;stroke-linejoin:miter;stroke-opacity:1"
         d="m 363.07438,243.71901 c 32.2314,2.47933 34.23141,2.99174 52.41322,10.01653 l -8.26446,10.33058 C 388.6281,256.6281 365.55372,256.1157 365.55372,256.1157 z"
         id="path3071"
         inkscape:connector-curvature="0"
         sodipodi:nodetypes="ccccc" />
      <path
         sodipodi:nodetypes="ccccc"
         style="fill:none;stroke:#000000;stroke-width:2;stroke-linecap:butt;stroke-linejoin:miter;stroke-opacity:1"
         d="m 339.66942,236.36364 -9.50413,7.43801 6.19834,11.57025 10.74381,-8.67769 z"
         id="path3073"
         inkscape:connector-curvature="0" />
      <path
         inkscape:connector-curvature="0"
         id="path3075"
         d="m 239.66942,228.36364 -9.50413,7.43801 9.0909,11.98347 7.85125,-9.09091 z"
         style="fill:none;stroke:#000000;stroke-width:2;stroke-linecap:butt;stroke-linejoin:miter;stroke-opacity:1"
         sodipodi:nodetypes="ccccc" />
      <path
         style="fill:none;stroke:#000000;stroke-width:2;stroke-linecap:butt;stroke-linejoin:miter;stroke-opacity:1"
         d="m 165.4876,235.10744 c 28.5124,-5.78513 37.60331,-2.89256 37.60331,-2.89256 l 0,10.7438 c -16.1157,0.82644 -36.77686,2.89256 -36.77686,2.89256 z"
         id="path3077"
         inkscape:connector-curvature="0"
         sodipodi:nodetypes="ccccc" />
      <path
         sodipodi:nodetypes="ccccc"
         inkscape:connector-curvature="0"
         id="path3079"
         d="m 265.4876,231.10744 c 21.07438,1.65289 37.60331,5.10744 37.60331,5.10744 l 0,10.7438 c -20.24793,-4.13224 -36.77686,-5.10744 -36.77686,-5.10744 z"
         style="fill:none;stroke:#000000;stroke-width:2;stroke-linecap:butt;stroke-linejoin:miter;stroke-opacity:1" />
      <path
         sodipodi:nodetypes="zzz"
         inkscape:connector-curvature="0"
         id="path3081"
         d="M 236.36364,46.280991 C 266.94215,47.727272 267.78181,0.92465797 239.2562,0.41322288 210.73059,-0.09821221 205.78513,44.83471 236.36364,46.280991 z"
         style="fill:#f2f2f2;stroke:#000000;stroke-width:4;stroke-linecap:butt;stroke-linejoin:miter;stroke-opacity:1" />
      <path
         style="fill:#f2f2f2;stroke:#000000;stroke-width:4;stroke-linecap:butt;stroke-linejoin:miter;stroke-opacity:1"
         d="m 348.36364,100.28099 c 30.57851,1.44628 31.41817,-45.356332 2.89256,-45.867767 -28.52561,-0.511435 -33.47107,44.421487 -2.89256,45.867767 z"
         id="path3083"
         inkscape:connector-curvature="0"
         sodipodi:nodetypes="zzz" />
      <path
         sodipodi:nodetypes="zzz"
         inkscape:connector-curvature="0"
         id="path3085"
         d="m 442.36364,122.28099 c 30.57851,1.44628 31.41817,-45.356332 2.89256,-45.867767 -28.52561,-0.511435 -33.47107,44.421487 -2.89256,45.867767 z"
         style="fill:#f2f2f2;stroke:#000000;stroke-width:4;stroke-linecap:butt;stroke-linejoin:miter;stroke-opacity:1" />
      <path
         style="fill:#f2f2f2;stroke:#000000;stroke-width:4;stroke-linecap:butt;stroke-linejoin:miter;stroke-opacity:1"
         d="m 128.36364,94.280991 c 30.57851,1.446281 31.41817,-45.356333 2.89256,-45.867768 -28.52561,-0.511435 -33.47107,44.421487 -2.89256,45.867768 z"
         id="path3087"
         inkscape:connector-curvature="0"
         sodipodi:nodetypes="zzz" />
      <path
         sodipodi:nodetypes="zzz"
         inkscape:connector-curvature="0"
         id="path3089"
         d="M 44.36364,114.28099 C 74.94215,115.72727 75.78181,68.924658 47.2562,68.413223 18.73059,67.901788 13.78513,112.83471 44.36364,114.28099 z"
         style="fill:#f2f2f2;stroke:#000000;stroke-width:4;stroke-linecap:butt;stroke-linejoin:miter;stroke-opacity:1" />
      <path
         sodipodi:nodetypes="ccc"
         inkscape:connector-curvature="0"
         id="path3091"
         d="m 25.190839,95.419851 c 0.05827,14.445549 32.06107,34.351139 41.221375,-2.29008 -3.629159,4.234019 -37.592216,8.943539 -41.221375,2.29008 z"
         style="opacity:0.5;fill:#333333;stroke:none" />
      <path
         style="opacity:0.5;fill:#333333;stroke:none"
         d="m 109.0884,75.636622 c -3.57089,12.026109 34.16351,34.134368 43.32381,-2.506851 -9.0729,3.629159 -35.46063,13.999188 -43.32381,2.506851 z"
         id="path3093"
         inkscape:connector-curvature="0"
         sodipodi:nodetypes="ccc" />
      <path
         sodipodi:nodetypes="ccc"
         inkscape:connector-curvature="0"
         id="path3095"
         d="m 215.0884,27.636622 c -3.57089,12.026109 34.16351,34.134368 43.32381,-2.506851 -9.0729,3.629159 -35.46063,13.999188 -43.32381,2.506851 z"
         style="opacity:0.5;fill:#333333;stroke:none" />
      <path
         style="opacity:0.5;fill:#333333;stroke:none"
         d="m 327.0884,81.636622 c -3.57089,12.026109 34.16351,34.134368 43.32381,-2.506851 -9.0729,3.629159 -35.46063,13.999188 -43.32381,2.506851 z"
         id="path3097"
         inkscape:connector-curvature="0"
         sodipodi:nodetypes="ccc" />
      <path
         sodipodi:nodetypes="ccc"
         inkscape:connector-curvature="0"
         id="path3099"
         d="m 421.0884,103.63662 c -3.57089,12.02611 34.16351,34.13437 43.32381,-2.50685 -9.0729,3.62916 -35.46063,13.99919 -43.32381,2.50685 z"
         style="opacity:0.5;fill:#333333;stroke:none" />
      <path
         sodipodi:nodetypes="cccccccccccccccccccccccccc"
         inkscape:connector-curvature="0"
         id="path3103"
         d="m 67.175573,193.89313 -1.526718,-16.03053 -7.633588,5.34351 -3.816794,-7.63359 2.290077,-5.34351 -2.290077,-10.68703 9.160306,1.52672 -2.290076,-8.39695 1.526717,-9.1603 -1.526718,-11.45038 4.580153,-5.34351 7.633588,5.34351 3.816794,-9.16031 3.816794,5.34351 6.10687,6.87023 -3.816794,9.16031 9.923664,0 6.870229,3.81679 -4.580153,9.16031 3.053435,8.39694 -13.740458,5.34352 0,9.92366 -8.396946,-8.39695 -3.816794,5.34352 3.053435,16.03053 z"
         style="fill:#ff0000;stroke:#000000;stroke-width:4;stroke-linecap:butt;stroke-linejoin:miter;stroke-opacity:1" />
      <path
         style="fill:#ff0000;stroke:#000000;stroke-width:4;stroke-linecap:butt;stroke-linejoin:miter;stroke-opacity:1"
         d="m 167.17557,173.89313 -1.52672,-16.03053 -7.63358,5.34351 -3.8168,-7.63359 2.29008,-5.34351 -2.29008,-10.68703 9.16031,1.52672 -2.29008,-8.39695 1.52672,-9.1603 -1.52672,-11.45038 4.58015,-5.34351 7.63359,5.34351 3.8168,-9.16031 3.81679,5.34351 6.10687,6.87023 -3.81679,9.16031 9.92366,0 6.87023,3.81679 -4.58015,9.16031 3.05343,8.39694 -13.74046,5.34352 0,9.92366 -8.39694,-8.39695 -3.8168,5.34352 3.05344,16.03053 z"
         id="path3105"
         inkscape:connector-curvature="0"
         sodipodi:nodetypes="cccccccccccccccccccccccccc" />
      <path
         sodipodi:nodetypes="cccccccccccccccccccccccccc"
         inkscape:connector-curvature="0"
         id="path3107"
         d="m 287.17557,173.89313 -1.52672,-16.03053 -7.63358,5.34351 -3.8168,-7.63359 2.29008,-5.34351 -2.29008,-10.68703 9.16031,1.52672 -2.29008,-8.39695 1.52672,-9.1603 -1.52672,-11.45038 4.58015,-5.34351 7.63359,5.34351 3.8168,-9.16031 3.81679,5.34351 6.10687,6.87023 -3.81679,9.16031 9.92366,0 6.87023,3.81679 -4.58015,9.16031 3.05343,8.39694 -13.74046,5.34352 0,9.92366 -8.39694,-8.39695 -3.8168,5.34352 3.05344,16.03053 z"
         style="fill:#ff0000;stroke:#000000;stroke-width:4;stroke-linecap:butt;stroke-linejoin:miter;stroke-opacity:1" />
      <path
         style="fill:#ff0000;stroke:#000000;stroke-width:4;stroke-linecap:butt;stroke-linejoin:miter;stroke-opacity:1"
         d="m 387.17557,185.89313 -1.52672,-16.03053 -7.63358,5.34351 -3.8168,-7.63359 2.29008,-5.34351 -2.29008,-10.68703 9.16031,1.52672 -2.29008,-8.39695 1.52672,-9.1603 -1.52672,-11.45038 4.58015,-5.34351 7.63359,5.34351 3.8168,-9.16031 3.81679,5.34351 6.10687,6.87023 -3.81679,9.16031 9.92366,0 6.87023,3.81679 -4.58015,9.16031 3.05343,8.39694 -13.74046,5.34352 0,9.92366 -8.39694,-8.39695 -3.8168,5.34352 3.05344,16.03053 z"
         id="path3109"
         inkscape:connector-curvature="0"
         sodipodi:nodetypes="cccccccccccccccccccccccccc" />
      <path
         inkscape:connector-curvature="0"
         id="path3111"
         d="m 70.992366,144.27481 -1.526717,27.48092"
         style="fill:none;stroke:#000000;stroke-width:1px;stroke-linecap:butt;stroke-linejoin:miter;stroke-opacity:1" />
      <path
         inkscape:connector-curvature="0"
         id="path3113"
         d="m 85.496183,151.14504 -13.740458,6.10687"
         style="fill:none;stroke:#000000;stroke-width:1px;stroke-linecap:butt;stroke-linejoin:miter;stroke-opacity:1" />
      <path
         inkscape:connector-curvature="0"
         id="path3115"
         d="m 59.541985,163.35878 8.396946,6.10687"
         style="fill:none;stroke:#000000;stroke-width:1px;stroke-linecap:butt;stroke-linejoin:miter;stroke-opacity:1" />
      <path
         inkscape:connector-curvature="0"
         id="path3117"
         d="m 69.465649,164.8855 16.030534,-3.05344"
         style="fill:none;stroke:#000000;stroke-width:1px;stroke-linecap:butt;stroke-linejoin:miter;stroke-opacity:1" />
      <path
         inkscape:connector-curvature="0"
         id="path3119"
         d="m 172.51908,120.61069 -0.76335,32.82442"
         style="fill:none;stroke:#000000;stroke-width:1px;stroke-linecap:butt;stroke-linejoin:miter;stroke-opacity:1" />
      <path
         inkscape:connector-curvature="0"
         id="path3121"
         d="m 190.83969,131.29771 -16.79389,0.76336"
         style="fill:none;stroke:#000000;stroke-width:1px;stroke-linecap:butt;stroke-linejoin:miter;stroke-opacity:1" />
      <path
         inkscape:connector-curvature="0"
         id="path3123"
         d="m 161.83206,146.56489 9.16031,3.81679"
         style="fill:none;stroke:#000000;stroke-width:1px;stroke-linecap:butt;stroke-linejoin:miter;stroke-opacity:1" />
      <path
         inkscape:connector-curvature="0"
         id="path3125"
         d="m 174.0458,141.22137 10.68702,-3.05343"
         style="fill:none;stroke:#000000;stroke-width:1px;stroke-linecap:butt;stroke-linejoin:miter;stroke-opacity:1" />
      <path
         inkscape:connector-curvature="0"
         id="path3127"
         d="m 295.41985,118.32061 -3.8168,29.77099"
         style="fill:none;stroke:#000000;stroke-width:1px;stroke-linecap:butt;stroke-linejoin:miter;stroke-opacity:1" />
      <path
         inkscape:connector-curvature="0"
         id="path3129"
         d="m 312.9771,129.77099 -15.26718,3.05344"
         style="fill:none;stroke:#000000;stroke-width:1px;stroke-linecap:butt;stroke-linejoin:miter;stroke-opacity:1" />
      <path
         inkscape:connector-curvature="0"
         id="path3131"
         d="m 287.78626,121.37405 6.10687,17.55725"
         style="fill:none;stroke:#000000;stroke-width:1px;stroke-linecap:butt;stroke-linejoin:miter;stroke-opacity:1" />
      <path
         inkscape:connector-curvature="0"
         id="path3133"
         d="m 283.96947,148.85496 7.63358,-5.34351"
         style="fill:none;stroke:#000000;stroke-width:1px;stroke-linecap:butt;stroke-linejoin:miter;stroke-opacity:1" />
      <path
         inkscape:connector-curvature="0"
         id="path3135"
         d="M 310.68702,141.22137 296.18321,138.9313"
         style="fill:none;stroke:#000000;stroke-width:1px;stroke-linecap:butt;stroke-linejoin:miter;stroke-opacity:1" />
      <path
         inkscape:connector-curvature="0"
         id="path3137"
         d="m 395.41985,130.53435 -5.34351,31.29771"
         style="fill:none;stroke:#000000;stroke-width:1px;stroke-linecap:butt;stroke-linejoin:miter;stroke-opacity:1" />
      <path
         inkscape:connector-curvature="0"
         id="path3139"
         d="m 409.16031,143.51145 -15.26718,0.76336"
         style="fill:none;stroke:#000000;stroke-width:1px;stroke-linecap:butt;stroke-linejoin:miter;stroke-opacity:1" />
      <path
         inkscape:connector-curvature="0"
         id="path3141"
         d="m 406.10687,154.19847 -11.45038,0"
         style="fill:none;stroke:#000000;stroke-width:1px;stroke-linecap:butt;stroke-linejoin:miter;stroke-opacity:1" />
      <path
         inkscape:connector-curvature="0"
         id="path3143"
         d="m 384.73282,134.35115 5.34352,16.03053 -7.63359,11.45038"
         style="fill:none;stroke:#000000;stroke-width:1px;stroke-linecap:butt;stroke-linejoin:miter;stroke-opacity:1" />
    </g>
  </g>
</svg>
