<?xml version="1.0" encoding="UTF-8" standalone="no"?>
<!-- Created with Inkscape (http://www.inkscape.org/) -->

<svg
   xmlns:dc="http://purl.org/dc/elements/1.1/"
   xmlns:cc="http://creativecommons.org/ns#"
   xmlns:rdf="http://www.w3.org/1999/02/22-rdf-syntax-ns#"
   xmlns:svg="http://www.w3.org/2000/svg"
   xmlns="http://www.w3.org/2000/svg"
   xmlns:sodipodi="http://sodipodi.sourceforge.net/DTD/sodipodi-0.dtd"
   xmlns:inkscape="http://www.inkscape.org/namespaces/inkscape"
   width="94.885902"
   height="397.75443"
   id="svg2"
   version="1.1"
   inkscape:version="0.48.2 r9819"
   sodipodi:docname="claymore.svg">
  <defs
     id="defs4">
    <inkscape:perspective
       sodipodi:type="inkscape:persp3d"
       inkscape:vp_x="0 : 530 : 1"
       inkscape:vp_y="0 : 1000 : 0"
       inkscape:vp_z="740 : 530 : 1"
       inkscape:persp3d-origin="370 : 350 : 1"
       id="perspective10" />
  </defs>
  <sodipodi:namedview
     id="base"
     pagecolor="#ffffff"
     bordercolor="#666666"
     borderopacity="1.0"
     inkscape:pageopacity="0.0"
     inkscape:pageshadow="2"
     inkscape:zoom="2.0225"
     inkscape:cx="-50.184139"
     inkscape:cy="72.22086"
     inkscape:document-units="px"
     inkscape:current-layer="svg2"
     showgrid="false"
     inkscape:window-width="827"
     inkscape:window-height="874"
     inkscape:window-x="2565"
     inkscape:window-y="99"
     inkscape:window-maximized="0"
     borderlayer="true"
     fit-margin-top="0"
     fit-margin-left="0"
     fit-margin-right="0"
     fit-margin-bottom="0" />
  <metadata
     id="metadata7">
    <rdf:RDF>
      <cc:Work
         rdf:about="">
        <dc:format>image/svg+xml</dc:format>
        <dc:type
           rdf:resource="http://purl.org/dc/dcmitype/StillImage" />
        <dc:title />
      </cc:Work>
    </rdf:RDF>
  </metadata>
  <g
     id="body"
     inkscape:label="#g3074"
     transform="translate(-3.7027194,-3.0202008)">
    <g
       id="g3070">
      <path
         style="fill:#ff0000;fill-opacity:1;stroke:#000000;stroke-width:2;stroke-miterlimit:4;stroke-opacity:1;stroke-dasharray:none"
         d="M 51.012704,4.0202008 C 48.542587,10.182557 46.916005,19.944604 47.47717,31.799396 45.643921,57.482627 42.426407,308.07612 42.426407,308.07612 l 9.091373,0 L 59.599,307.06597 58.588848,31.799396 C 59.007267,18.606136 55.30443,10.66858 51.012704,4.0202008 z"
         id="path3066"
         inkscape:connector-curvature="0"
         sodipodi:nodetypes="ccccccc" />
      <path
         style="fill:#ff0000;fill-opacity:1;stroke:#000000;stroke-width:1;stroke-miterlimit:4;stroke-opacity:1;stroke-dasharray:none"
         d="m 51.785715,121.42857 -1.071429,12.85714 -1.071429,174.28572 c 0,0 3.755257,-0.2346 3.398114,-2.02031 -0.357143,-1.78572 0.530458,-176.19398 0.530458,-176.19398 z"
         id="path3068"
         inkscape:connector-curvature="0"
         sodipodi:nodetypes="cccscc" />
    </g>
  </g>
  <g
     id="pomell"
     inkscape:label="#g3001"
     transform="translate(-3.7027194,-3.0202008)">
    <path
       sodipodi:nodetypes="sccsss"
       inkscape:connector-curvature="0"
       id="path2996"
       d="m 60.357141,385.17856 c 0,2.31762 -5.069401,10.08413 -6.227382,15.05437 l -4.651569,0.0417 c -1.042761,-4.45148 -6.978192,-10.46078 -6.978192,-15.09603 0,-4.63525 3.997458,-8.39286 8.928572,-8.39286 4.931114,0 8.928571,3.75761 8.928571,8.39286 z"
       style="fill:#ff0000;fill-opacity:1;stroke:#000000;stroke-width:1;stroke-miterlimit:4;stroke-opacity:1" />
    <path
       d="m 57.142857,385.71429 c 0,2.56418 -2.638322,4.64286 -5.892857,4.64286 -3.254535,0 -5.892857,-2.07868 -5.892857,-4.64286 0,-2.56417 2.638322,-4.64285 5.892857,-4.64285 3.254535,0 5.892857,2.07868 5.892857,4.64285 z"
       sodipodi:ry="4.6428571"
       sodipodi:rx="5.8928571"
       sodipodi:cy="385.71429"
       sodipodi:cx="51.25"
       id="path2999"
       style="opacity:0.5;fill:#333333;fill-opacity:1"
       sodipodi:type="arc" />
  </g>
  <g
     id="hilt"
     inkscape:label="#g3068"
     transform="translate(-3.7027194,-3.0202008)">
    <path
       id="path3011"
       d="m 8.4054387,297.15698 c 0,1.22882 -0.9408108,2.22497 -2.1013596,2.22497 -1.1605489,0 -2.1013597,-0.99615 -2.1013597,-2.22497 0,-1.22881 0.9408108,-2.22497 2.1013597,-2.22497 1.1605488,0 2.1013596,0.99616 2.1013596,2.22497 z"
       style="fill:#ff0000;fill-opacity:1;stroke:#000000;stroke-opacity:1"
       inkscape:connector-curvature="0" />
    <path
       inkscape:connector-curvature="0"
       style="fill:#ff0000;fill-opacity:1;stroke:#000000;stroke-opacity:1"
       d="m 12.113721,295.67367 c 0,1.22882 -0.940811,2.22497 -2.10136,2.22497 -1.160549,0 -2.1013598,-0.99615 -2.1013598,-2.22497 0,-1.22881 0.9408108,-2.22497 2.1013598,-2.22497 1.160549,0 2.10136,0.99616 2.10136,2.22497 z"
       id="path3014" />
    <path
       id="path3016"
       d="m 10.135971,301.11248 c 0,1.22882 -0.9408113,2.22497 -2.1013603,2.22497 -1.160549,0 -2.1013598,-0.99615 -2.1013598,-2.22497 0,-1.22881 0.9408108,-2.22497 2.1013598,-2.22497 1.160549,0 2.1013603,0.99616 2.1013603,2.22497 z"
       style="fill:#ff0000;fill-opacity:1;stroke:#000000;stroke-opacity:1"
       inkscape:connector-curvature="0" />
    <path
       inkscape:connector-curvature="0"
       style="fill:#ff0000;fill-opacity:1;stroke:#000000;stroke-opacity:1"
       d="m 14.091472,299.87639 c 0,1.22882 -0.940812,2.22497 -2.101361,2.22497 -1.160549,0 -2.1013595,-0.99615 -2.1013595,-2.22497 0,-1.22881 0.9408105,-2.22497 2.1013595,-2.22497 1.160549,0 2.101361,0.99616 2.101361,2.22497 z"
       id="path3018" />
    <path
       inkscape:connector-curvature="0"
       id="path3020"
       d="m 14.33869,298.39308 c 0.988875,-0.24722 28.924598,9.14709 28.924598,9.14709 l 8.652658,0.24722 8.405438,-0.49444 28.924599,-10.13597 1.236094,3.21385 -31.396786,12.36094 c 0,0 -2.22497,2.7194 -1.977751,3.70828 0.247219,0.98887 -0.988875,60.81582 -0.988875,60.81582 l -8.405439,-0.74165 -1.236094,-60.32139 -3.708282,-2.71941 -29.171817,-11.8665 z"
       style="fill:#ff0000;fill-opacity:1;stroke:#000000;stroke-opacity:1" />
    <path
       sodipodi:nodetypes="cc"
       inkscape:connector-curvature="0"
       id="path3024"
       d="m 57.10754,318.91224 c -0.954254,2.52012 -7.85203,2.71487 -10.630408,-1.73053"
       style="fill:#ff0000;fill-opacity:1;stroke:#000000;stroke-opacity:1" />
    <path
       sodipodi:nodetypes="cc"
       inkscape:connector-curvature="0"
       id="path3026"
       d="m 57.849196,326.08158 c -3.323318,2.26864 -9.244719,1.77211 -11.124845,-1.23609"
       style="fill:#ff0000;fill-opacity:1;stroke:#000000;stroke-opacity:1" />
    <path
       sodipodi:nodetypes="cc"
       inkscape:connector-curvature="0"
       id="path3028"
       d="m 58.096415,334.48702 c -2.850552,2.85315 -7.981358,1.88213 -11.619283,-1.23609"
       style="fill:#ff0000;fill-opacity:1;stroke:#000000;stroke-opacity:1" />
    <path
       sodipodi:nodetypes="cc"
       inkscape:connector-curvature="0"
       id="path3030"
       d="m 57.849196,341.90358 c -2.584338,3.42005 -6.630897,2.5615 -11.124845,-0.24721"
       style="fill:#ff0000;fill-opacity:1;stroke:#000000;stroke-opacity:1" />
    <path
       sodipodi:nodetypes="cc"
       inkscape:connector-curvature="0"
       id="path3032"
       d="m 57.601978,350.55624 c -5.496045,1.69706 -9.638821,0.50244 -10.383189,-1.73053"
       style="fill:#ff0000;fill-opacity:1;stroke:#000000;stroke-opacity:1" />
    <path
       sodipodi:nodetypes="cc"
       inkscape:connector-curvature="0"
       id="path3034"
       d="m 57.849197,358.46725 c -4.828335,2.53109 -9.889984,0.24352 -10.877627,-2.71941"
       style="fill:#ff0000;fill-opacity:1;stroke:#000000;stroke-opacity:1" />
    <path
       sodipodi:nodetypes="cc"
       inkscape:connector-curvature="0"
       id="path3036"
       d="m 56.860321,365.63659 c -4.809903,2.07603 -8.437233,0.16892 -9.641532,-1.2361"
       style="fill:#ff0000;fill-opacity:1;stroke:#000000;stroke-opacity:1" />
    <path
       sodipodi:nodetypes="cccccc"
       inkscape:connector-curvature="0"
       id="path3038"
       d="m 19.283065,301.85414 28.924599,10.87763 1.236094,3.70828 4.202719,0.49444 2.719407,-4.44994 27.441285,-10.87763"
       style="fill:none;stroke:#000000;stroke-opacity:1" />
    <path
       inkscape:connector-curvature="0"
       style="fill:#ff0000;fill-opacity:1;stroke:#000000;stroke-opacity:1"
       d="m 93.743472,295.76644 c -0.827704,0.90824 -2.194059,1.0108 -3.051839,0.22908 -0.857781,-0.78172 -0.882164,-2.1517 -0.05446,-3.05995 0.827698,-0.90822 2.194058,-1.01079 3.051837,-0.22907 0.857781,0.78172 0.882158,2.15171 0.05446,3.05994 z"
       id="path3040" />
    <path
       id="path3042"
       d="m 97.48345,297.16792 c -0.827706,0.90824 -2.194061,1.0108 -3.05184,0.22908 -0.857782,-0.78172 -0.882165,-2.1517 -0.05446,-3.05994 0.8277,-0.90824 2.194058,-1.0108 3.05184,-0.22908 0.85778,0.78172 0.882156,2.15171 0.05446,3.05994 z"
       style="fill:#ff0000;fill-opacity:1;stroke:#000000;stroke-opacity:1"
       inkscape:connector-curvature="0" />
    <path
       inkscape:connector-curvature="0"
       style="fill:#ff0000;fill-opacity:1;stroke:#000000;stroke-opacity:1"
       d="m 92.358201,299.85566 c -0.827708,0.90825 -2.194062,1.01081 -3.051841,0.22908 -0.857781,-0.78172 -0.882165,-2.15169 -0.05446,-3.05994 0.827698,-0.90823 2.194058,-1.0108 3.05184,-0.22908 0.857778,0.78172 0.882157,2.15171 0.05446,3.05994 z"
       id="path3044" />
    <path
       id="path3046"
       d="m 96.114379,301.60639 c -0.827707,0.90823 -2.194061,1.0108 -3.051842,0.22908 -0.857781,-0.78172 -0.882164,-2.1517 -0.05446,-3.05994 0.827702,-0.90824 2.19406,-1.0108 3.05184,-0.22909 0.857779,0.78173 0.882158,2.15172 0.05446,3.05995 z"
       style="fill:#ff0000;fill-opacity:1;stroke:#000000;stroke-opacity:1"
       inkscape:connector-curvature="0" />
  </g>
</svg>
