<?xml version="1.0" encoding="UTF-8" standalone="no"?>
<!-- Created with Inkscape (http://www.inkscape.org/) -->

<svg
   xmlns:dc="http://purl.org/dc/elements/1.1/"
   xmlns:cc="http://creativecommons.org/ns#"
   xmlns:rdf="http://www.w3.org/1999/02/22-rdf-syntax-ns#"
   xmlns:svg="http://www.w3.org/2000/svg"
   xmlns="http://www.w3.org/2000/svg"
   xmlns:sodipodi="http://sodipodi.sourceforge.net/DTD/sodipodi-0.dtd"
   xmlns:inkscape="http://www.inkscape.org/namespaces/inkscape"
   width="121.76031"
   height="395.94934"
   id="svg2"
   version="1.1"
   inkscape:version="0.48.2 r9819"
   sodipodi:docname="swordstpaul.svg">
  <defs
     id="defs4">
    <inkscape:perspective
       sodipodi:type="inkscape:persp3d"
       inkscape:vp_x="0 : 530 : 1"
       inkscape:vp_y="0 : 1000 : 0"
       inkscape:vp_z="740 : 530 : 1"
       inkscape:persp3d-origin="370 : 350 : 1"
       id="perspective10" />
  </defs>
  <sodipodi:namedview
     id="base"
     pagecolor="#ffffff"
     bordercolor="#666666"
     borderopacity="1.0"
     inkscape:pageopacity="0.0"
     inkscape:pageshadow="2"
     inkscape:zoom="0.49497475"
     inkscape:cx="221.35115"
     inkscape:cy="173.00167"
     inkscape:document-units="px"
     inkscape:current-layer="svg2"
     showgrid="false"
     inkscape:window-width="827"
     inkscape:window-height="874"
     inkscape:window-x="2565"
     inkscape:window-y="99"
     inkscape:window-maximized="0"
     borderlayer="true"
     showguides="true"
     inkscape:guide-bbox="true"
     inkscape:snap-global="false"
     fit-margin-top="0"
     fit-margin-left="0"
     fit-margin-right="0"
     fit-margin-bottom="0">
    <sodipodi:guide
       orientation="1,0"
       position="120.26031,431.82498"
       id="guide3029" />
  </sodipodi:namedview>
  <metadata
     id="metadata7">
    <rdf:RDF>
      <cc:Work
         rdf:about="">
        <dc:format>image/svg+xml</dc:format>
        <dc:type
           rdf:resource="http://purl.org/dc/dcmitype/StillImage" />
        <dc:title></dc:title>
      </cc:Work>
    </rdf:RDF>
  </metadata>
  <g
     id="blade"
     inkscape:label="#g3031"
     transform="translate(0.05216294,-4.5405062)">
    <path
       inkscape:connector-curvature="0"
       id="path2994"
       d="m 43.941636,303.02536 28.284271,0 L 70.710678,21.192794 58.588848,6.0405062 49.497475,19.172489 z"
       style="fill:#ffff00;stroke:#000000;stroke-width:3"
       sodipodi:nodetypes="cccccc" />
    <path
       inkscape:connector-curvature="0"
       id="path2996"
       d="M 60.609153,24.223252 59.599,297.97459"
       style="fill:#ffff00;fill-opacity:1;stroke:#000000;stroke-width:3;stroke-miterlimit:4;stroke-opacity:1;stroke-dasharray:none" />
  </g>
  <g
     id="hilt"
     inkscape:label="#g3017"
     transform="translate(0.05216294,-4.5405062)">
    <path
       inkscape:connector-curvature="0"
       id="path3001"
       d="m 71.05136,344.72879 c 0,22.71496 -5.353526,41.12906 -11.957435,41.12906 -6.603908,0 -11.957434,-18.4141 -11.957434,-41.12906 0,-22.71495 5.353526,-41.12906 11.957434,-41.12906 6.603909,0 11.957435,18.41411 11.957435,41.12906 z"
       style="fill:#ffff00;fill-opacity:1;stroke:#000000;stroke-width:2.9344058;stroke-miterlimit:4;stroke-opacity:1" />
    <path
       sodipodi:nodetypes="cc"
       inkscape:connector-curvature="0"
       id="path3007"
       d="M 48.928572,328.57143 C 54.041959,337.77637 61.684277,339.6504 70,343.21429"
       style="fill:#ffff00;fill-opacity:1;stroke:#000000;stroke-width:3;stroke-miterlimit:4;stroke-opacity:1;stroke-dasharray:none" />
    <path
       sodipodi:nodetypes="cc"
       inkscape:connector-curvature="0"
       id="path3009"
       d="m 46.785714,341.42857 c 7.034366,6.79152 16.863946,12.14286 24.285715,12.14286"
       style="fill:#ffff00;fill-opacity:1;stroke:#000000;stroke-width:3;stroke-miterlimit:4;stroke-opacity:1;stroke-dasharray:none" />
    <path
       inkscape:connector-curvature="0"
       id="path3011"
       d="m 46.785714,352.5 c 5.917393,8.6298 14.386805,10.71429 22.857143,10.71429"
       style="fill:#ffff00;fill-opacity:1;stroke:#000000;stroke-width:3;stroke-miterlimit:4;stroke-opacity:1;stroke-dasharray:none" />
    <path
       sodipodi:nodetypes="cc"
       inkscape:connector-curvature="0"
       id="path3013"
       d="m 49.285715,364.64286 c 4.217448,5.37257 12.408212,7.14286 19.285714,7.14286"
       style="fill:#ffff00;fill-opacity:1;stroke:#000000;stroke-width:3;stroke-miterlimit:4;stroke-opacity:1;stroke-dasharray:none" />
    <path
       id="path3008"
       style="fill:#ffff00;fill-opacity:1;stroke:#000000;stroke-width:3.156919;stroke-miterlimit:4;stroke-opacity:1;stroke-dasharray:none"
       d="m 97.128407,322.04398 c 7.018283,4.19506 -2.208552,23.64255 10.664833,24.15677 15.0419,0.60084 13.10547,-17.24155 10.66483,-28.18291 -4.61641,-20.69532 -42.773648,-14.59472 -61.592226,-14.28853 -19.097588,-2.04685 -24.036428,6.36675 -34.642488,-0.70396 -6.315206,-4.21014 1.987303,-23.72758 -9.596449,-24.24365 -13.53502416,-0.603 -11.79258974,17.30356 -9.5964493,28.28427 4.1539501,20.76975 38.4886623,14.64721 55.4349613,14.30934 16.503385,1.49262 26.876143,-6.3767 38.662988,0.66867 z"
       inkscape:connector-curvature="0"
       sodipodi:nodetypes="ssscssscs" />
  </g>
  <g
     id="pomell"
     inkscape:label="#g3025"
     transform="translate(0.05216294,-4.5405062)">
    <path
       inkscape:connector-curvature="0"
       id="path3004"
       d="m 72.730983,386.86801 c 0,6.6947 -5.653258,12.12183 -12.626906,12.12183 -6.973648,0 -12.626906,-5.42713 -12.626906,-12.12183 0,-6.6947 5.653258,-12.12183 12.626906,-12.12183 6.973648,0 12.626906,5.42713 12.626906,12.12183 z"
       style="fill:#ffff00;fill-opacity:1;stroke:#000000;stroke-width:3;stroke-miterlimit:4;stroke-opacity:1" />
    <path
       sodipodi:nodetypes="cc"
       inkscape:connector-curvature="0"
       id="path3015"
       d="m 57.857143,378.57143 c -8.831653,3.55728 -8.605455,12.84438 0,16.07143"
       style="fill:#ffff00;fill-opacity:1;stroke:#000000;stroke-width:3;stroke-miterlimit:4;stroke-opacity:1;stroke-dasharray:none" />
  </g>
</svg>
