<?xml version="1.0" encoding="UTF-8" standalone="no"?>
<!-- Created with Inkscape (http://www.inkscape.org/) -->

<svg
   xmlns:dc="http://purl.org/dc/elements/1.1/"
   xmlns:cc="http://creativecommons.org/ns#"
   xmlns:rdf="http://www.w3.org/1999/02/22-rdf-syntax-ns#"
   xmlns:svg="http://www.w3.org/2000/svg"
   xmlns="http://www.w3.org/2000/svg"
   xmlns:sodipodi="http://sodipodi.sourceforge.net/DTD/sodipodi-0.dtd"
   xmlns:inkscape="http://www.inkscape.org/namespaces/inkscape"
   width="500"
   height="500"
   id="svg2"
   sodipodi:version="0.32"
   inkscape:version="0.48.2 r9819"
   version="1.0"
   sodipodi:docname="crown-viscount.svg"
   inkscape:output_extension="org.inkscape.output.svg.inkscape">
  <defs
     id="defs4">
    <inkscape:perspective
       sodipodi:type="inkscape:persp3d"
       inkscape:vp_x="0 : 526.18109 : 1"
       inkscape:vp_y="0 : 1000 : 0"
       inkscape:vp_z="744.09448 : 526.18109 : 1"
       inkscape:persp3d-origin="372.04724 : 350.78739 : 1"
       id="perspective10" />
  </defs>
  <sodipodi:namedview
     id="base"
     pagecolor="#ffffff"
     bordercolor="#666666"
     borderopacity="1.0"
     gridtolerance="10000"
     guidetolerance="10"
     objecttolerance="10"
     inkscape:pageopacity="0.0"
     inkscape:pageshadow="2"
     inkscape:zoom="1.31"
     inkscape:cx="346.94656"
     inkscape:cy="332.65832"
     inkscape:document-units="px"
     inkscape:current-layer="body"
     showgrid="false"
     inkscape:window-width="1151"
     inkscape:window-height="874"
     inkscape:window-x="119"
     inkscape:window-y="5"
     inkscape:window-maximized="0"
     inkscape:snap-global="false"
     showguides="true"
     inkscape:guide-bbox="true">
    <sodipodi:guide
       orientation="0,1"
       position="71.755725,161.0687"
       id="guide3145" />
  </sodipodi:namedview>
  <metadata
     id="metadata7">
    <rdf:RDF>
      <cc:Work
         rdf:about="">
        <dc:format>image/svg+xml</dc:format>
        <dc:type
           rdf:resource="http://purl.org/dc/dcmitype/StillImage" />
        <dc:title></dc:title>
      </cc:Work>
    </rdf:RDF>
  </metadata>
  <g
     inkscape:label="Layer 1"
     inkscape:groupmode="layer"
     id="layer1">
    <g
       id="body">
      <path
         sodipodi:nodetypes="ccccccccc"
         inkscape:connector-curvature="0"
         d="M 63.1,179 C 25.7,168 62,155 50.2,128.4 39.8,88.6 25.7,115.6 23.3,82.8 55,54.68 168,58.18 240,54.69 c 71,3.49 184,0 216,28.11 -2,32.8 -16,5.8 -27,45.6 -12,26.6 25,39.6 -13,50.6 -28,9 -176,10 -176,10 0,0 -149,-1 -176.9,-10 z"
         style="fill:#ff0000;stroke:#000000;stroke-width:4;stroke-miterlimit:4;stroke-opacity:1;stroke-dasharray:none"
         id="path3764" />
      <path
         sodipodi:nodetypes="cc"
         inkscape:connector-curvature="0"
         id="path3767"
         d="m 37.594215,104.17934 c 88.099995,-44.5 305.670245,-38.6 411.670245,-4.7"
         style="fill:none;stroke:#000000;stroke-width:4;stroke-miterlimit:4;stroke-opacity:1;stroke-dasharray:none" />
      <path
         sodipodi:nodetypes="cc"
         inkscape:connector-curvature="0"
         id="path3769"
         d="m 51.4,155 c 120.25289,-29.26446 216.03221,-31.27328 382.03221,6.52672"
         style="fill:none;stroke:#000000;stroke-width:4;stroke-miterlimit:4;stroke-opacity:1;stroke-dasharray:none" />
      <path
         id="path3773"
         style="opacity:0.5;fill:#333333;fill-opacity:1;fill-rule:evenodd;stroke:none"
         d="M 44.1,112.9 C 152,53.18 365,84.8 441,107 l 9,-8.2 C 422,85.9 166,34.4 34.7,105.9 z m 6.2,44.1 c 107.7,-56.2 377.7,2 377.7,2 0,0 34,31 -90,30 -31,-6 56,-18 33,-29 -84,-15.2 -199,-18.1 -266,3 -23,13 103,17 84,28 C 7.629771,185.25954 50.3,157 50.3,157 z"
         inkscape:connector-curvature="0"
         sodipodi:nodetypes="cccccccccccc" />
      <path
         sodipodi:nodetypes="zzz"
         inkscape:connector-curvature="0"
         id="path3089"
         d="M 40.36364,68.28099 C 80.102455,65.910476 80.178757,10.710918 39.439406,13.252918 -1.2999444,15.794918 0.62482466,70.651504 40.36364,68.28099 z"
         style="fill:#f2f2f2;stroke:#000000;stroke-width:4;stroke-linecap:butt;stroke-linejoin:miter;stroke-opacity:1" />
      <path
         sodipodi:nodetypes="ccc"
         inkscape:connector-curvature="0"
         id="path3091"
         d="m 11.267175,53.236645 c 0.05827,14.445549 48.854963,27.48091 58.015268,-9.160309 -3.629159,4.234019 -54.386109,15.813768 -58.015268,9.160309 z"
         style="opacity:0.5;fill:#333333;stroke:none" />
      <path
         sodipodi:nodetypes="zzz"
         inkscape:connector-curvature="0"
         id="path3048"
         d="m 420.36364,64.28099 c 39.73882,-2.370514 39.81512,-57.570072 -0.92423,-55.028072 -40.73935,2.542 -38.81459,57.398586 0.92423,55.028072 z"
         style="fill:#f2f2f2;stroke:#000000;stroke-width:4;stroke-linecap:butt;stroke-linejoin:miter;stroke-opacity:1" />
      <path
         sodipodi:nodetypes="ccc"
         inkscape:connector-curvature="0"
         id="path3050"
         d="m 391.26717,49.236645 c 0.0583,14.445549 48.85497,27.48091 58.01527,-9.160309 -3.62916,4.234019 -54.38611,15.813768 -58.01527,9.160309 z"
         style="opacity:0.5;fill:#333333;stroke:none" />
      <path
         style="fill:#f2f2f2;stroke:#000000;stroke-width:4;stroke-linecap:butt;stroke-linejoin:miter;stroke-opacity:1"
         d="m 292.36364,54.28099 c 39.73882,-2.370514 39.81512,-57.570072 -0.92423,-55.028072 -40.73935,2.542 -38.81459,57.398586 0.92423,55.028072 z"
         id="path3052"
         inkscape:connector-curvature="0"
         sodipodi:nodetypes="zzz" />
      <path
         style="opacity:0.5;fill:#333333;stroke:none"
         d="m 263.26717,39.236645 c 0.0583,14.445549 48.85497,27.48091 58.01527,-9.160309 -3.62916,4.234019 -54.38611,15.813768 -58.01527,9.160309 z"
         id="path3054"
         inkscape:connector-curvature="0"
         sodipodi:nodetypes="ccc" />
      <path
         sodipodi:nodetypes="zzz"
         inkscape:connector-curvature="0"
         id="path3068"
         d="m 164.36364,58.28099 c 39.73882,-2.370514 39.81512,-57.570072 -0.92423,-55.028072 -40.73935,2.542 -38.81459,57.398586 0.92423,55.028072 z"
         style="fill:#f2f2f2;stroke:#000000;stroke-width:4;stroke-linecap:butt;stroke-linejoin:miter;stroke-opacity:1" />
      <path
         sodipodi:nodetypes="ccc"
         inkscape:connector-curvature="0"
         id="path3070"
         d="m 135.26717,43.236645 c 0.0583,14.445549 48.85497,27.48091 58.01527,-9.160309 -3.62916,4.234019 -54.38611,15.813768 -58.01527,9.160309 z"
         style="opacity:0.5;fill:#333333;stroke:none" />
      <path
         style="fill:#f2f2f2;stroke:#000000;stroke-width:4;stroke-linecap:butt;stroke-linejoin:miter;stroke-opacity:1"
         d="m 164.36364,58.28099 c 39.73882,-2.370514 39.81512,-57.570072 -0.92423,-55.028072 -40.73935,2.542 -38.81459,57.398586 0.92423,55.028072 z"
         id="path3072"
         inkscape:connector-curvature="0"
         sodipodi:nodetypes="zzz" />
      <path
         style="opacity:0.5;fill:#333333;stroke:none"
         d="m 135.26717,43.236645 c 0.0583,14.445549 48.85497,27.48091 58.01527,-9.160309 -3.62916,4.234019 -54.38611,15.813768 -58.01527,9.160309 z"
         id="path3074"
         inkscape:connector-curvature="0"
         sodipodi:nodetypes="ccc" />
    </g>
  </g>
</svg>
