<?xml version="1.0" encoding="UTF-8" standalone="no"?>
<!-- Created with Inkscape (http://www.inkscape.org/) -->

<svg
   xmlns:dc="http://purl.org/dc/elements/1.1/"
   xmlns:cc="http://creativecommons.org/ns#"
   xmlns:rdf="http://www.w3.org/1999/02/22-rdf-syntax-ns#"
   xmlns:svg="http://www.w3.org/2000/svg"
   xmlns="http://www.w3.org/2000/svg"
   xmlns:sodipodi="http://sodipodi.sourceforge.net/DTD/sodipodi-0.dtd"
   xmlns:inkscape="http://www.inkscape.org/namespaces/inkscape"
   width="500"
   height="500"
   id="svg2"
   sodipodi:version="0.32"
   inkscape:version="0.48.2 r9819"
   version="1.0"
   sodipodi:docname="king-of-arms.svg"
   inkscape:output_extension="org.inkscape.output.svg.inkscape">
  <defs
     id="defs4">
    <inkscape:perspective
       sodipodi:type="inkscape:persp3d"
       inkscape:vp_x="0 : 526.18109 : 1"
       inkscape:vp_y="0 : 1000 : 0"
       inkscape:vp_z="744.09448 : 526.18109 : 1"
       inkscape:persp3d-origin="372.04724 : 350.78739 : 1"
       id="perspective10" />
  </defs>
  <sodipodi:namedview
     id="base"
     pagecolor="#ffffff"
     bordercolor="#666666"
     borderopacity="1.0"
     gridtolerance="10000"
     guidetolerance="10"
     objecttolerance="10"
     inkscape:pageopacity="0.0"
     inkscape:pageshadow="2"
     inkscape:zoom="1.4142136"
     inkscape:cx="233.97771"
     inkscape:cy="330.75307"
     inkscape:document-units="px"
     inkscape:current-layer="body"
     showgrid="false"
     inkscape:window-width="888"
     inkscape:window-height="948"
     inkscape:window-x="780"
     inkscape:window-y="9"
     inkscape:window-maximized="0"
     inkscape:snap-global="false"
     showguides="true"
     inkscape:guide-bbox="true">
    <sodipodi:guide
       orientation="0,1"
       position="25.455843,133.64318"
       id="guide3145" />
  </sodipodi:namedview>
  <metadata
     id="metadata7">
    <rdf:RDF>
      <cc:Work
         rdf:about="">
        <dc:format>image/svg+xml</dc:format>
        <dc:type
           rdf:resource="http://purl.org/dc/dcmitype/StillImage" />
        <dc:title />
      </cc:Work>
    </rdf:RDF>
  </metadata>
  <g
     inkscape:label="Layer 1"
     inkscape:groupmode="layer"
     id="layer1">
    <g
       id="body">
      <path
         sodipodi:nodetypes="ccccccccc"
         inkscape:connector-curvature="0"
         d="M 63.1,319 C 25.7,308 62,295 50.2,268.4 39.8,228.6 25.7,255.6 23.3,222.8 55,194.68 168,198.18 240,194.69 c 71,3.49 184,0 216,28.11 -2,32.8 -16,5.8 -27,45.6 -12,26.6 25,39.6 -13,50.6 -28,9 -176,10 -176,10 0,0 -149,-1 -176.9,-10 z"
         style="fill:#ffff00;stroke:#000000;stroke-width:4;stroke-miterlimit:4;stroke-opacity:1;stroke-dasharray:none"
         id="path3764" />
      <path
         sodipodi:nodetypes="cc"
         inkscape:connector-curvature="0"
         id="path3767"
         d="m 37.594215,244.17934 c 88.099995,-44.5 305.670245,-38.6 411.670245,-4.7"
         style="fill:none;stroke:#000000;stroke-width:4;stroke-miterlimit:4;stroke-opacity:1;stroke-dasharray:none" />
      <path
         sodipodi:nodetypes="cc"
         inkscape:connector-curvature="0"
         id="path3769"
         d="M 49.278679,286.51472 C 169.53157,257.25026 265.31089,255.24144 431.31089,293.04144"
         style="fill:none;stroke:#000000;stroke-width:4;stroke-miterlimit:4;stroke-opacity:1;stroke-dasharray:none" />
      <path
         sodipodi:nodetypes="ccccc"
         inkscape:connector-curvature="0"
         id="path3773"
         d="M 44.1,252.9 C 152,193.18 365,224.8 441,247 l 9,-8.2 C 422,225.9 166,174.4 34.7,245.9 z"
         style="opacity:0.50000000000000000;fill:#333333;fill-opacity:1;fill-rule:evenodd;stroke:none" />
      <path
         style="fill:#ffffff;fill-opacity:1;stroke:#000000"
         d="m 47.328244,305.34351 c -12.21374,8.39695 -3.053435,40.45802 -3.053435,40.45802 -9.923664,24.42748 377.862591,21.37404 389.312981,10.68702 11.45038,-10.68702 9.92366,-29.00763 -3.05344,-44.27481 C 226.36603,266.82406 47.328244,305.34351 47.328244,305.34351 z"
         id="path3101"
         inkscape:connector-curvature="0"
         sodipodi:nodetypes="ccscc" />
      <path
         sodipodi:nodetypes="ccccccc"
         inkscape:connector-curvature="0"
         id="path3771"
         d="m 44.956489,348.14504 c 24.493894,-30.2458 385.333581,-14.03053 392.203811,2 0,0 -5.69466,23.36641 -139.61832,13.2061 -31,-6 52.18321,-6.54962 29.18321,-17.54962 -87.05344,-0.69618 -87.54962,4.03741 -159.12977,4.52672 -23,13 73.22901,5.54962 54.22901,16.54962 C 40.454198,361.1374 44.956489,348.14504 44.956489,348.14504 z"
         style="opacity:0.5;fill:#333333;fill-opacity:1;stroke:none" />
      <path
         style="fill:#666666;fill-opacity:1;stroke:none"
         d="m 93.265971,303.97401 c -23.049817,2.42509 -10.844205,6.08992 -27.952103,15.1962 18.975477,-5.64597 10.406346,5.06916 31.6169,-6.90322 -2.96874,-0.90987 -5.212808,-1.42509 -0.958102,-4.76131 -7.946824,1.45991 -4.03311,-1.43119 -2.706695,-3.53167 z"
         id="path3103"
         inkscape:connector-curvature="0"
         sodipodi:nodetypes="ccccc" />
      <path
         sodipodi:nodetypes="ccccc"
         inkscape:connector-curvature="0"
         id="path3105"
         d="m 150.39186,312.07138 c -23.17443,0.3472 -11.34686,5.09238 -29.20281,12.62695 19.40551,-3.92065 9.90955,5.98241 32.10876,-4.0386 -2.87513,-1.17256 -5.06392,-1.88706 -0.52703,-4.82807 -8.04577,0.741 -3.88844,-1.78728 -2.37892,-3.76028 z"
         style="fill:#666666;fill-opacity:1;stroke:none" />
      <path
         style="fill:#666666;fill-opacity:1;stroke:none"
         d="m 205.43537,299.15772 c -22.72064,-4.57682 -12.16889,2.5694 -31.21679,6.14461 19.79556,0.28518 8.41493,7.94842 32.2347,2.86472 -2.56095,-1.75579 -4.54835,-2.91834 0.50917,-4.82998 -8.01984,-0.98266 -3.42079,-2.57148 -1.52708,-4.17935 z"
         id="path3107"
         inkscape:connector-curvature="0"
         sodipodi:nodetypes="ccccc" />
      <path
         sodipodi:nodetypes="ccccc"
         inkscape:connector-curvature="0"
         id="path3109"
         d="m 244.26497,317.77465 c -22.72064,-4.57682 -12.16889,2.5694 -31.21679,6.14461 19.79556,0.28518 8.41493,7.94842 32.2347,2.86472 -2.56095,-1.75579 -4.54835,-2.91834 0.50917,-4.82998 -8.01984,-0.98266 -3.42079,-2.57148 -1.52708,-4.17935 z"
         style="fill:#666666;fill-opacity:1;stroke:none" />
      <path
         style="fill:#666666;fill-opacity:1;stroke:none"
         d="m 282.56266,299.15772 c -22.72064,-4.57682 -12.16889,2.5694 -31.21679,6.14461 19.79556,0.28518 8.41493,7.94842 32.2347,2.86472 -2.56095,-1.75579 -4.54835,-2.91834 0.50917,-4.82998 -8.01984,-0.98266 -3.42079,-2.57148 -1.52708,-4.17935 z"
         id="path3111"
         inkscape:connector-curvature="0"
         sodipodi:nodetypes="ccccc" />
      <path
         sodipodi:nodetypes="ccccc"
         inkscape:connector-curvature="0"
         id="path3113"
         d="m 320.86035,316.71083 c -22.72064,-4.57682 -12.16889,2.5694 -31.21679,6.14461 19.79556,0.28518 8.41493,7.94842 32.2347,2.86472 -2.56095,-1.75579 -4.54835,-2.91834 0.50917,-4.82998 -8.01984,-0.98266 -3.42079,-2.57148 -1.52708,-4.17935 z"
         style="fill:#666666;fill-opacity:1;stroke:none" />
      <path
         style="fill:#666666;fill-opacity:1;stroke:none"
         d="m 368.20054,303.94493 c -22.72064,-4.57682 -12.16889,2.5694 -31.21679,6.14461 19.79556,0.28518 8.41493,7.94842 32.2347,2.86472 -2.56095,-1.75579 -4.54835,-2.91834 0.50917,-4.82998 -8.01984,-0.98266 -3.42079,-2.57148 -1.52708,-4.17935 z"
         id="path3115"
         inkscape:connector-curvature="0"
         sodipodi:nodetypes="ccccc" />
      <path
         sodipodi:nodetypes="ccccc"
         inkscape:connector-curvature="0"
         id="path3117"
         d="m 399.02503,324.17402 c -21.84596,-7.74136 -12.40985,0.82414 -31.77182,1.67198 19.55665,3.07946 7.20737,9.05771 31.50648,7.39079 -2.28715,-2.10004 -4.09034,-3.53175 1.18655,-4.70957 -7.80052,-2.10602 -3.02311,-3.02904 -0.92121,-4.3532 z"
         style="fill:#666666;fill-opacity:1;stroke:none" />
      <path
         style="fill:#800000;fill-opacity:1;stroke:#000000;stroke-width:4;stroke-opacity:1"
         d="M 43.62978,211.893 C 14.292514,153.21847 15.796989,147.95281 25.576078,134.41253 35.355167,120.87225 86.507324,71.97681 104.56103,90.030513 c 18.0537,18.053697 92.49571,5.134481 75.22376,-10.531326 -22.74255,-20.627688 14.58846,-21.299124 11.28356,-26.328317 l -17.30147,-26.328315 58.67454,1.504475 -8.27462,26.328316 c 0,0 29.33727,3.00895 18.80594,18.80594 -11.54102,17.311527 70.69883,-6.14848 103.80879,27.832794 28.58503,29.33726 82.74613,20.31041 109.82668,36.1074 14.52924,8.47539 9.13512,83.39159 -21.06265,76.72823 C 275.31895,178.79455 85.002848,200.60944 43.62978,211.893 z"
         id="path3119"
         inkscape:connector-curvature="0"
         sodipodi:nodetypes="csssscccssssc" />
      <path
         style="opacity:0.50000000000000000;fill:#1a1a1a;fill-opacity:1;stroke:none"
         d="M 101.55207,94.543938 C 78.23271,180.29902 86.779163,129.5593 78.23271,190.07811 c -4.354798,30.83703 35.35517,2.25672 36.85964,-39.11635 1.50448,-41.37307 -13.54028,-56.417822 -13.54028,-56.417822 z"
         id="path3121"
         inkscape:connector-curvature="0"
         sodipodi:nodetypes="cssc" />
      <path
         sodipodi:nodetypes="cssc"
         inkscape:connector-curvature="0"
         id="path3123"
         d="m 330.98453,89.278275 c -23.31936,85.755085 -35.83555,30.501935 -44.38201,91.020745 -4.3548,30.83703 67.70139,5.26567 69.20586,-36.1074 1.50448,-41.37307 -24.82385,-54.913345 -24.82385,-54.913345 z"
         style="opacity:0.50000000000000000;fill:#1a1a1a;fill-opacity:1;stroke:none" />
      <path
         style="opacity:0.50000000000000000;fill:#1a1a1a;fill-opacity:1;stroke:none"
         d="m 431.03213,132.15582 c -23.31936,85.75508 -41.10121,-4.101 -49.64767,56.41781 -4.3548,30.83703 100.79984,45.13426 81.24166,-26.32831 4.86825,-30.15282 -31.59399,-30.0895 -31.59399,-30.0895 z"
         id="path3125"
         inkscape:connector-curvature="0"
         sodipodi:nodetypes="cscc" />
      <path
         style="opacity:0.50000000000000000;fill:#1a1a1a;fill-opacity:1;stroke:none"
         d="m 253.50405,84.012612 c -23.31936,85.755088 -53.13701,36.519838 -61.68347,97.038648 -4.3548,30.83703 57.51042,19.21783 82.74614,-45.88649 14.96286,-38.601905 -21.06267,-51.152158 -21.06267,-51.152158 z"
         id="path3127"
         inkscape:connector-curvature="0"
         sodipodi:nodetypes="cssc" />
      <path
         style="opacity:1;fill:none;fill-opacity:1;stroke:#000000;stroke-opacity:1;stroke-width:4"
         d="m 224.1668,53.923108 -32.34621,1.504475 c 32.34621,-1.504475 34.60293,2.256713 34.60293,2.256713"
         id="path3129"
         inkscape:connector-curvature="0" />
      <path
         style="fill:none;stroke:#000000;stroke-width:4;stroke-opacity:1"
         d="m 182.79374,81.755899 c 22.56712,15.044752 57.17005,-3.00895 57.17005,-3.00895"
         id="path3131"
         inkscape:connector-curvature="0"
         sodipodi:nodetypes="cc" />
      <path
         style="fill:none;stroke:#000000;stroke-width:4;stroke-opacity:1"
         d="m 185.05045,31.355981 12.0358,21.062652"
         id="path3133"
         inkscape:connector-curvature="0" />
      <path
         style="fill:none;stroke:#000000;stroke-width:4;stroke-opacity:1"
         d="m 198.59072,31.355981 5.26567,16.549227"
         id="path3135"
         inkscape:connector-curvature="0" />
      <path
         style="fill:none;stroke:#000000;stroke-width:4;stroke-opacity:1"
         d="m 208.36981,32.860456 0.75224,12.035801"
         id="path3137"
         inkscape:connector-curvature="0" />
      <path
         style="fill:none;stroke:#000000;stroke-width:4;stroke-opacity:1"
         d="m 219.65338,32.860456 -4.51343,15.044752"
         id="path3139"
         inkscape:connector-curvature="0" />
      <path
         style="fill:none;stroke:#000000;stroke-width:3;stroke-opacity:1"
         d="m 169.70563,96.242028 10.6066,12.020812 9.19239,9.19239 14.84924,2.12132 14.84924,-1.41421 10.6066,4.24264 13.43503,-8.48528 4.94975,-15.556352 5.65685,-9.192388 0,-7.071068"
         id="path3068"
         inkscape:connector-curvature="0"
         sodipodi:nodetypes="cccccccccc" />
      <path
         inkscape:connector-curvature="0"
         style="font-size:40px;font-style:normal;font-weight:normal;line-height:125%;letter-spacing:0px;word-spacing:0px;fill:#000000;fill-opacity:1;stroke:none;font-family:Sans"
         id="path3078"
         d="m 69.153436,270.82328 -4.572408,-20.23194 3.067177,-0.69318 0.641515,2.83857 c 0.41114,-1.13414 1.075612,-2.12197 1.993419,-2.9635 0.917799,-0.84149 2.049828,-1.41437 3.39609,-1.71865 1.498653,-0.33867 2.797751,-0.30521 3.897296,0.10038 1.099523,0.40564 1.972442,1.12278 2.618758,2.15143 1.066374,-2.72394 2.88232,-4.37581 5.447843,-4.95564 2.006662,-0.45349 3.675351,-0.24658 5.006071,0.62071 1.330672,0.86735 2.257218,2.45675 2.779641,4.76823 l 3.138692,13.88802 -3.410097,0.77068 -2.880359,-12.74498 c -0.310017,-1.37163 -0.644313,-2.33398 -1.002889,-2.88705 -0.358621,-0.55302 -0.871652,-0.94768 -1.539094,-1.18399 -0.667483,-0.23626 -1.394931,-0.26542 -2.182344,-0.0875 -1.422476,0.3215 -2.496705,1.06153 -3.222689,2.2201 -0.726016,1.15861 -0.853651,2.77935 -0.382905,4.86222 l 2.656475,11.75434 -3.429143,0.77498 -2.970773,-13.14504 c -0.344449,-1.52405 -0.882188,-2.60395 -1.61322,-3.23971 -0.731051,-0.63571 -1.731597,-0.81007 -3.001642,-0.52306 -0.965246,0.21817 -1.800051,0.67382 -2.504417,1.36695 -0.704376,0.69318 -1.130212,1.57035 -1.277509,2.63151 -0.147305,1.06119 -0.01286,2.51257 0.403341,4.35413 l 2.372313,10.49699 z" />
      <path
         inkscape:connector-curvature="0"
         style="font-size:40px;font-style:normal;font-weight:normal;line-height:125%;letter-spacing:0px;word-spacing:0px;fill:#000000;fill-opacity:1;stroke:none;font-family:Sans"
         id="path3080"
         d="m 96.88842,239.54964 -0.79975,-3.96308 3.44616,-0.69543 0.79974,3.96308 z m 4.86415,24.10395 -4.10304,-20.33232 3.44615,-0.69543 4.10305,20.33232 z" />
      <path
         inkscape:connector-curvature="0"
         style="font-size:40px;font-style:normal;font-weight:normal;line-height:125%;letter-spacing:0px;word-spacing:0px;fill:#000000;fill-opacity:1;stroke:none;font-family:Sans"
         id="path3082"
         d="m 107.96494,256.05335 3.32129,-1.16389 c 0.44296,1.3353 1.16994,2.28768 2.18092,2.85714 1.01098,0.56948 2.30416,0.71003 3.87956,0.42166 1.58818,-0.2907 2.70732,-0.82978 3.35743,-1.61726 0.65007,-0.78746 0.89541,-1.61667 0.736,-2.48762 -0.14302,-0.78129 -0.59496,-1.33394 -1.35583,-1.65798 -0.53017,-0.22064 -1.78002,-0.3956 -3.74953,-0.52488 -2.65321,-0.1762 -4.51251,-0.40838 -5.57789,-0.69654 -1.06539,-0.28814 -1.92665,-0.79897 -2.58378,-1.53249 -0.65713,-0.73351 -1.07712,-1.59978 -1.25999,-2.59882 -0.16645,-0.90935 -0.11246,-1.78958 0.16196,-2.64067 0.27443,-0.85106 0.72338,-1.59841 1.34685,-2.24203 0.46526,-0.4955 1.13698,-0.96592 2.01516,-1.41129 0.87817,-0.44532 1.8488,-0.76528 2.91187,-0.95989 1.601,-0.29302 3.04888,-0.31978 4.34364,-0.0803 1.29475,0.23957 2.3024,0.70044 3.02295,1.38261 0.72053,0.68222 1.3104,1.66301 1.76963,2.94236 l -3.29693,1.08001 c -0.34594,-1.02211 -0.94107,-1.76035 -1.78536,-2.21474 -0.84431,-0.45435 -1.93888,-0.55845 -3.28372,-0.31231 -1.5882,0.29073 -2.67365,0.76077 -3.25635,1.41013 -0.58271,0.6494 -0.80959,1.32632 -0.68065,2.03074 0.082,0.4483 0.29679,0.82596 0.64421,1.133 0.34976,0.31987 0.84791,0.54638 1.49443,0.67953 0.36926,0.0648 1.44142,0.173 3.21648,0.32462 2.56589,0.20544 4.37044,0.42778 5.41365,0.66703 1.04318,0.23927 1.91283,0.70555 2.60895,1.39882 0.69608,0.6933 1.15197,1.62912 1.36767,2.80745 0.21098,1.15273 0.0735,2.29975 -0.41257,3.44106 -0.48606,1.14133 -1.31209,2.10661 -2.47809,2.89585 -1.16602,0.78925 -2.54953,1.33039 -4.15053,1.62344 -2.65126,0.48529 -4.77254,0.30438 -6.36382,-0.54275 -1.5913,-0.84712 -2.77716,-2.31779 -3.55761,-4.41203 z" />
      <path
         inkscape:connector-curvature="0"
         style="font-size:40px;font-style:normal;font-weight:normal;line-height:125%;letter-spacing:0px;word-spacing:0px;fill:#000000;fill-opacity:1;stroke:none;font-family:Sans"
         id="path3084"
         d="m 143.16901,249.58655 3.65893,-0.10644 c -0.24471,2.1847 -1.04407,3.97362 -2.39807,5.36675 -1.35403,1.39313 -3.22155,2.2722 -5.60258,2.63721 -2.99883,0.45971 -5.51821,-0.0992 -7.55816,-1.67683 -2.03995,-1.57759 -3.31543,-4.03312 -3.82644,-7.36658 -0.52877,-3.44927 -0.0511,-6.26247 1.43303,-8.43959 1.48412,-2.17709 3.64193,-3.48267 6.47344,-3.91676 2.7414,-0.42023 5.12391,0.16958 7.14752,1.76942 2.02359,1.59988 3.29484,4.09227 3.81376,7.47719 0.0316,0.20594 0.0725,0.51582 0.12275,0.92964 l -15.29013,2.34394 c 0.47398,2.23262 1.37545,3.85959 2.70442,4.88094 1.32896,1.02136 2.84932,1.40084 4.56111,1.13842 1.27416,-0.19532 2.31042,-0.69668 3.10877,-1.50406 0.79832,-0.80737 1.34887,-1.98512 1.65165,-3.53325 z m -12.2709,-3.86889 11.44829,-1.755 c -0.41884,-1.70095 -1.05473,-2.92735 -1.90765,-3.6792 -1.31207,-1.16883 -2.84972,-1.6181 -4.61297,-1.34782 -1.59595,0.24467 -2.85581,0.98448 -3.7796,2.21943 -0.9238,1.23499 -1.30649,2.75585 -1.14807,4.56259 z" />
      <path
         inkscape:connector-curvature="0"
         style="font-size:40px;font-style:normal;font-weight:normal;line-height:125%;letter-spacing:0px;word-spacing:0px;fill:#000000;fill-opacity:1;stroke:none;font-family:Sans"
         id="path3086"
         d="m 152.1336,255.0947 -2.60187,-20.57836 3.13907,-0.39689 0.39444,3.11969 c 0.61635,-1.56098 1.23422,-2.61687 1.85362,-3.16769 0.61939,-0.55077 1.336,-0.87762 2.14984,-0.98054 1.17553,-0.14861 2.41781,0.0749 3.72684,0.67062 l -0.79222,3.38785 c -0.9163,-0.39598 -1.80073,-0.54008 -2.65331,-0.4323 -0.76217,0.0964 -1.41783,0.41224 -1.96699,0.94758 -0.54917,0.53537 -0.90148,1.22629 -1.05693,2.07278 -0.23075,1.28914 -0.25302,2.67002 -0.0668,4.14266 l 1.36218,10.7736 z" />
      <path
         inkscape:connector-curvature="0"
         style="font-size:40px;font-style:normal;font-weight:normal;line-height:125%;letter-spacing:0px;word-spacing:0px;fill:#000000;fill-opacity:1;stroke:none;font-family:Sans"
         id="path3088"
         d="m 178.90657,245.38717 3.65933,0.092 c -0.36275,2.16824 -1.25787,3.91121 -2.68537,5.22892 -1.42753,1.31772 -3.33995,2.0943 -5.73725,2.32975 -3.01934,0.29653 -5.50473,-0.39811 -7.45619,-2.08393 -1.95147,-1.68581 -3.09201,-4.20685 -3.42164,-7.5631 -0.34108,-3.47286 0.28833,-6.25604 1.88825,-8.34954 1.59991,-2.09347 3.82529,-3.28021 6.67617,-3.56022 2.76014,-0.27106 5.10719,0.44698 7.04114,2.15412 1.93392,1.70719 3.06824,4.26481 3.40298,7.67288 0.0203,0.20734 0.0444,0.51898 0.0722,0.93492 l -15.39468,1.51195 c 0.3523,2.25502 1.16429,3.92846 2.43596,5.02032 1.27166,1.09187 2.76923,1.55317 4.49272,1.3839 1.28287,-0.12599 2.34478,-0.57045 3.1857,-1.33339 0.8409,-0.76292 1.45446,-1.90911 1.84069,-3.43856 z m -12.04323,-4.52814 11.52658,-1.13206 c -0.32606,-1.72115 -0.89456,-2.9802 -1.70549,-3.77717 -1.2468,-1.23821 -2.75785,-1.77015 -4.53315,-1.59581 -1.60686,0.15784 -2.90496,0.82829 -3.89432,2.01137 -0.98936,1.18311 -1.4539,2.681 -1.39362,4.49367 z" />
      <path
         inkscape:connector-curvature="0"
         style="font-size:40px;font-style:normal;font-weight:normal;line-height:125%;letter-spacing:0px;word-spacing:0px;fill:#000000;fill-opacity:1;stroke:none;font-family:Sans"
         id="path3090"
         d="m 187.5609,251.38659 -1.43469,-20.69251 3.15649,-0.21885 0.2175,3.137 c 0.70358,-1.52365 1.38014,-2.54294 2.02968,-3.05787 0.64953,-0.51489 1.38347,-0.80071 2.20182,-0.85747 1.18205,-0.0819 2.40971,0.21145 3.68298,0.88017 l -0.98243,3.33767 c -0.89245,-0.44714 -1.76733,-0.641 -2.62463,-0.58157 -0.7664,0.0531 -1.43887,0.33145 -2.0174,0.83489 -0.57855,0.50348 -0.96935,1.17339 -1.17239,2.00974 -0.30324,1.27404 -0.40352,2.65146 -0.30084,4.13226 l 0.75112,10.83337 z" />
      <path
         inkscape:connector-curvature="0"
         style="font-size:40px;font-style:normal;font-weight:normal;line-height:125%;letter-spacing:0px;word-spacing:0px;fill:#000000;fill-opacity:1;stroke:none;font-family:Sans"
         id="path3092"
         d="m 214.84804,243.2265 3.64794,0.30278 c -0.48713,2.14372 -1.48124,3.83219 -2.98232,5.06542 -1.50112,1.23324 -3.45513,1.89828 -5.86202,1.99514 -3.03141,0.122 -5.47263,-0.71476 -7.32366,-2.51027 -1.85104,-1.79551 -2.84436,-4.37809 -2.97997,-7.74777 -0.14032,-3.48675 0.64849,-6.22901 2.36642,-8.22681 1.71793,-1.99776 4.00803,-3.05424 6.8703,-3.16945 2.77118,-0.1115 5.07293,0.74065 6.90526,2.55644 1.83229,1.81583 2.81729,4.43458 2.95501,7.85628 0.008,0.20817 0.0144,0.52068 0.0182,0.93753 l -15.45624,0.622 c 0.22173,2.27158 0.9359,3.98904 2.14251,5.1524 1.2066,1.16336 2.67509,1.71022 4.40547,1.64058 1.28801,-0.0518 2.37377,-0.43434 3.25727,-1.14753 0.88348,-0.71318 1.5621,-1.82209 2.03585,-3.32674 z m -11.76217,-5.21485 11.57266,-0.46572 c -0.2263,-1.73708 -0.72127,-3.02681 -1.48491,-3.8692 -1.17335,-1.30802 -2.65122,-1.92618 -4.43362,-1.85447 -1.61329,0.0649 -2.94788,0.65945 -4.00379,1.78353 -1.05592,1.12411 -1.60603,2.59273 -1.65034,4.40586 z" />
      <path
         inkscape:connector-curvature="0"
         style="font-size:40px;font-style:normal;font-weight:normal;line-height:125%;letter-spacing:0px;word-spacing:0px;fill:#000000;fill-opacity:1;stroke:none;font-family:Sans"
         id="path3094"
         d="m 240.27655,251.48012 0.44301,-20.73745 3.14382,0.0672 -0.0622,2.90949 c 0.67258,-1.00147 1.55572,-1.79984 2.64942,-2.39513 1.09368,-0.59524 2.33047,-0.87814 3.71038,-0.84868 1.53609,0.0328 2.78875,0.37868 3.75799,1.03753 0.9692,0.65889 1.64336,1.56543 2.02245,2.7196 1.69196,-2.38626 3.85275,-3.55131 6.48238,-3.49516 2.0568,0.044 3.6263,0.64728 4.70851,1.80997 1.08216,1.16271 1.59794,2.92869 1.54736,5.29792 l -0.30411,14.23504 -3.49529,-0.0747 0.27907,-13.06343 c 0.03,-1.40591 -0.0623,-2.42048 -0.27685,-3.04371 -0.21463,-0.6232 -0.61731,-1.12997 -1.20804,-1.52029 -0.59078,-0.3903 -1.28971,-0.59407 -2.09679,-0.61133 -1.45803,-0.0311 -2.67905,0.42792 -3.66307,1.37715 -0.98406,0.94927 -1.49888,2.49136 -1.54447,4.62627 l -0.25738,12.04804 -3.51483,-0.0751 0.28784,-13.47349 c 0.0334,-1.56213 -0.22801,-2.73985 -0.78409,-3.53318 -0.55612,-0.79329 -1.48506,-1.20385 -2.78683,-1.23168 -0.98937,-0.0211 -1.90944,0.21971 -2.7602,0.72247 -0.85079,0.50279 -1.47564,1.25133 -1.87456,2.24563 -0.39894,0.99432 -0.61857,2.43527 -0.65889,4.32285 l -0.22985,10.75926 z" />
      <path
         inkscape:connector-curvature="0"
         style="font-size:40px;font-style:normal;font-weight:normal;line-height:125%;letter-spacing:0px;word-spacing:0px;fill:#000000;fill-opacity:1;stroke:none;font-family:Sans"
         id="path3096"
         d="m 288.20823,246.64066 3.59791,0.67392 c -0.70361,2.08273 -1.86503,3.66079 -3.48426,4.7342 -1.61927,1.07341 -3.63099,1.53533 -6.03519,1.38576 -3.028,-0.18837 -5.37095,-1.27017 -7.02885,-3.24541 -1.6579,-1.97524 -2.38215,-4.6458 -2.17276,-8.01169 0.21666,-3.48284 1.28152,-6.13016 3.19459,-7.94198 1.91305,-1.81177 4.29911,-2.62874 7.15817,-2.4509 2.76807,0.17222 4.97071,1.25508 6.60792,3.24858 1.63718,1.99354 2.34946,4.69923 2.13686,8.11709 -0.013,0.20794 -0.0389,0.51943 -0.0777,0.93448 l -15.43891,-0.96045 c -0.0115,2.28234 0.52343,4.06378 1.60486,5.34433 1.08143,1.28056 2.48636,1.9746 4.2148,2.08212 1.28656,0.08 2.40572,-0.18954 3.35747,-0.80872 0.95172,-0.61918 1.74009,-1.65296 2.36509,-3.10133 z m -11.1678,-6.38932 11.55968,0.71912 c -0.0476,-1.75111 -0.40824,-3.08467 -1.08181,-4.00067 -1.03357,-1.42106 -2.44055,-2.18698 -4.22095,-2.29776 -1.61148,-0.10023 -2.99983,0.35481 -4.16506,1.36512 -1.16525,1.01035 -1.86253,2.41507 -2.09186,4.21419 z" />
      <path
         inkscape:connector-curvature="0"
         style="font-size:40px;font-style:normal;font-weight:normal;line-height:125%;letter-spacing:0px;word-spacing:0px;fill:#000000;fill-opacity:1;stroke:none;font-family:Sans"
         id="path3098"
         d="m 297.90058,229.43415 0.3363,-4.02896 3.50344,0.29244 -0.3363,4.02895 z m -2.04545,24.50462 1.72539,-20.6703 3.50344,0.29244 -1.72539,20.6703 z" />
      <path
         inkscape:connector-curvature="0"
         style="font-size:40px;font-style:normal;font-weight:normal;line-height:125%;letter-spacing:0px;word-spacing:0px;fill:#000000;fill-opacity:1;stroke:none;font-family:Sans"
         id="path3100"
         d="m 326.20153,257.78638 3.41961,-28.42788 9.79268,1.17797 c 2.21061,0.26594 3.88134,0.60462 5.01219,1.01603 1.58376,0.57087 2.89184,1.41674 3.92424,2.53762 1.34718,1.44731 2.27388,3.2014 2.7801,5.26226 0.50616,2.0609 0.60686,4.35825 0.30209,6.89205 -0.25972,2.15893 -0.74196,4.04189 -1.44672,5.6489 -0.7048,1.60702 -1.51719,2.90929 -2.43715,3.90682 -0.92002,0.99752 -1.88635,1.75341 -2.899,2.26766 -1.0127,0.51424 -2.20101,0.85327 -3.56495,1.01706 -1.36398,0.1638 -2.90565,0.14228 -4.62501,-0.0645 z m 4.16549,-2.9022 6.06952,0.73011 c 1.8745,0.22549 3.36601,0.22785 4.47454,0.007 1.1085,-0.22075 2.01758,-0.60976 2.72726,-1.16701 0.99928,-0.78471 1.83837,-1.90016 2.51728,-3.34636 0.67885,-1.4462 1.14736,-3.24229 1.40553,-5.38828 0.35764,-2.97335 0.14448,-5.31701 -0.63948,-7.031 -0.78401,-1.71395 -1.84143,-2.92639 -3.17228,-3.63732 -0.96173,-0.5091 -2.56082,-0.89818 -4.79728,-1.16723 l -5.97257,-0.71844 z" />
      <path
         inkscape:connector-curvature="0"
         style="font-size:40px;font-style:normal;font-weight:normal;line-height:125%;letter-spacing:0px;word-spacing:0px;fill:#000000;fill-opacity:1;stroke:none;font-family:Sans"
         id="path3102"
         d="m 369.46324,256.7839 3.5279,0.97622 c -0.87748,2.01566 -2.16838,3.48968 -3.87271,4.42209 -1.70436,0.93241 -3.74798,1.22228 -6.13086,0.86963 -3.00118,-0.44415 -5.24409,-1.72051 -6.72873,-3.82906 -1.48465,-2.10856 -1.98012,-4.83087 -1.4864,-8.16693 0.51087,-3.45198 1.79612,-5.9996 3.85576,-7.64287 2.05963,-1.64324 4.50631,-2.25519 7.34004,-1.83583 2.74353,0.40604 4.84654,1.67157 6.30903,3.79657 1.46245,2.12503 1.94302,4.88133 1.4417,8.2689 -0.0305,0.2061 -0.0827,0.51428 -0.15657,0.92454 l -15.30209,-2.2646 c -0.20479,2.27316 0.17736,4.09351 1.14646,5.46105 0.96908,1.36755 2.31018,2.17808 4.0233,2.43161 1.27516,0.18872 2.41313,0.0149 3.4139,-0.52145 1.00075,-0.53635 1.87384,-1.49964 2.61927,-2.88987 z m -10.58653,-7.31223 11.45724,1.69559 c 0.10085,-1.74885 -0.14551,-3.10816 -0.73909,-4.07792 -0.90949,-1.50349 -2.24655,-2.38582 -4.01117,-2.647 -1.5972,-0.23635 -3.0191,0.0995 -4.26571,1.00746 -1.24663,0.90802 -2.06039,2.24864 -2.44127,4.02187 z" />
      <path
         inkscape:connector-curvature="0"
         style="font-size:40px;font-style:normal;font-weight:normal;line-height:125%;letter-spacing:0px;word-spacing:0px;fill:#000000;fill-opacity:1;stroke:none;font-family:Sans"
         id="path3104"
         d="m 389.86143,266.90189 0.5083,-3.00417 c -1.98297,2.04154 -4.34173,2.83097 -7.07629,2.36829 -1.20682,-0.2042 -2.29428,-0.6259 -3.2624,-1.26512 -0.96813,-0.63922 -1.64656,-1.35157 -2.03528,-2.13707 -0.38873,-0.78549 -0.6,-1.70273 -0.6338,-2.75172 -0.0261,-0.70432 0.0858,-1.79469 0.33557,-3.27111 l 2.144,-12.67146 3.46636,0.58651 -1.91918,11.34269 c -0.30629,1.81021 -0.44204,3.0418 -0.40725,3.69477 0.064,0.94846 0.40509,1.7424 1.02323,2.38182 0.61813,0.63943 1.44715,1.04712 2.48707,1.22307 1.03989,0.17595 2.06068,0.0746 3.06236,-0.30392 1.00166,-0.37856 1.76952,-0.99477 2.30358,-1.84864 0.53403,-0.85385 0.94877,-2.15379 1.24421,-3.89981 l 1.85401,-10.95754 3.46635,0.5865 -3.46038,20.45151 z" />
      <path
         inkscape:connector-curvature="0"
         style="font-size:40px;font-style:normal;font-weight:normal;line-height:125%;letter-spacing:0px;word-spacing:0px;fill:#000000;fill-opacity:1;stroke:none;font-family:Sans"
         id="path3106"
         d="m 398.15754,262.06451 3.51784,0.10177 c -0.0642,1.40539 0.27378,2.55486 1.01401,3.44841 0.74023,0.89355 1.89747,1.48758 3.47173,1.7821 1.58703,0.29691 2.82498,0.19403 3.71384,-0.30864 0.88883,-0.50267 1.41467,-1.18916 1.5775,-2.05948 0.14605,-0.78072 -0.0782,-1.45852 -0.6727,-2.03338 -0.4161,-0.39576 -1.52056,-1.00642 -3.31337,-1.83196 -2.41444,-1.11404 -4.06751,-1.99622 -4.95921,-2.64656 -0.89172,-0.65032 -1.51313,-1.43554 -1.86423,-2.35565 -0.35111,-0.92009 -0.43329,-1.87929 -0.24651,-2.87761 0.17,-0.9087 0.53541,-1.71131 1.09624,-2.40783 0.56082,-0.69649 1.24749,-1.23367 2.06,-1.61155 0.61177,-0.29618 1.40736,-0.49506 2.38676,-0.59666 0.97938,-0.10155 2.00022,-0.053 3.06253,0.14575 1.59984,0.29932 2.9614,0.79249 4.0847,1.47951 1.12327,0.68705 1.89925,1.478 2.32796,2.37286 0.42866,0.89489 0.62848,2.02181 0.59945,3.38078 l -3.46508,-0.17138 c 0.0428,-1.07822 -0.24877,-1.98055 -0.87453,-2.70699 -0.6258,-0.72641 -1.61063,-1.21533 -2.95449,-1.46676 -1.58706,-0.2969 -2.76884,-0.24643 -3.54533,0.1514 -0.77652,0.39786 -1.23062,0.94874 -1.36231,1.65266 -0.0838,0.44797 -0.0185,0.87747 0.19609,1.2885 0.21212,0.42386 0.59621,0.81364 1.15227,1.16934 0.32161,0.19265 1.28404,0.67738 2.88729,1.45419 2.32243,1.11009 3.9279,1.9635 4.81641,2.56023 0.88847,0.59675 1.53365,1.34337 1.93556,2.23984 0.40188,0.89649 0.49268,1.93348 0.27241,3.11096 -0.21552,1.1519 -0.75442,2.17374 -1.6167,3.06553 -0.86231,0.89179 -1.97907,1.49754 -3.3503,1.81723 -1.37125,0.3197 -2.85679,0.32989 -4.45662,0.0306 -2.64936,-0.49566 -4.5654,-1.42373 -5.74814,-2.78422 -1.18275,-1.36049 -1.76377,-3.15815 -1.74307,-5.39298 z" />
      <path
         style="fill:#ffff00;stroke:#000000;stroke-width:3;stroke-linecap:butt;stroke-linejoin:miter;stroke-opacity:1"
         d="m 225.92061,194.52988 c -4.42739,-4.5933 -11.59119,-6.34678 -14.35266,-12.53596 -2.88107,-4.942 4.60933,-6.65464 7.71879,-4.0842 1.33419,0.89214 4.20558,1.067 1.9894,-1.0356 -3.16917,-3.78605 -9.18045,-3.49512 -11.8691,-7.96443 -4.24736,-3.18314 -1.17467,-9.19932 3.81671,-8.14423 3.4289,0.69795 6.56968,2.67323 9.17058,4.95662 -3.9763,-4.46554 -9.81768,-7.94684 -11.11648,-14.19945 -1.22557,-4.03524 3.39897,-6.73813 5.85944,-3.1289 0.96245,1.45219 6.45359,4.44297 2.68799,1.6179 -3.36184,-2.40443 -5.75444,-7.17967 -3.40953,-11.06821 1.82016,-3.3262 6.4454,-5.7089 9.90437,-3.3808 -2.3867,-3.05866 -4.71674,-6.74062 -4.04277,-10.84515 0.23366,-3.98311 5.36332,-4.91106 6.37563,-0.82029 1.63804,2.948 3.22868,0.0506 2.22462,-2.07415 -0.28568,-3.91714 -0.10037,-8.83717 3.44208,-11.28483 4.68055,-2.24238 8.7669,3.58578 7.27757,7.87276 -1.04887,2.81539 -2.48559,9.94401 2.59105,6.46717 2.08092,-2.29873 6.98416,-1.73224 5.10075,2.17277 -1.10417,3.65113 -4.56363,5.67693 -7.75711,7.21658 -3.26226,3.40494 2.87986,-1.29358 4.34174,1.02281 4.2088,2.07122 1.76238,6.45869 -1.61065,7.58857 -1.75306,0.54223 -5.58635,4.98033 -1.28344,3.26612 2.85533,-1.00652 6.41912,-3.84256 9.21527,-1.30312 1.42868,2.18307 0.58334,5.21616 -0.52401,7.40288 -1.24774,2.61162 -3.98663,3.73511 -6.52772,4.64815 -1.35617,0.38684 -5.2722,3.85516 -3.79206,3.42479 2.98245,-2.54769 7.20769,-5.47067 11.19641,-3.32347 4.33714,2.53348 3.80714,9.07828 -0.36978,11.51777 -2.85741,2.92883 -6.70364,4.66202 -10.74953,5.00372 -1.79425,0.12309 -3.30176,1.88358 -0.3931,1.46167 3.60019,1.8761 8.32176,1.95614 10.98237,5.37364 0.52699,5.33171 -6.02375,5.17141 -9.52491,6.06418 -2.5372,3.04448 -1.62191,9.25808 -7.29854,8.86463 -3.1946,1.06731 -6.30365,0.81222 -9.27338,-0.74994 z"
         id="path3048"
         inkscape:connector-curvature="0" />
      <path
         style="fill:none;stroke:#4d4d4d;stroke-width:2"
         d="m 234.54162,125.62133 c 0.5,2 -5,35 -5,35 l 1.5,32"
         id="path3054"
         inkscape:connector-curvature="0" />
      <path
         style="fill:#4d4d4d;fill-opacity:1;stroke:#4d4d4d;stroke-width:2"
         d="m 222.54162,141.62133 8.5,8"
         id="path3056"
         inkscape:connector-curvature="0" />
      <path
         style="fill:#4d4d4d;fill-opacity:1;stroke:#4d4d4d;stroke-width:2"
         d="m 221.04162,155.62133 6,6"
         id="path3058"
         inkscape:connector-curvature="0" />
      <path
         style="fill:#4d4d4d;fill-opacity:1;stroke:#4d4d4d;stroke-width:2"
         d="m 221.54162,169.62133 8,8.5"
         id="path3060"
         inkscape:connector-curvature="0" />
      <path
         style="fill:#4d4d4d;fill-opacity:1;stroke:#4d4d4d;stroke-width:2"
         d="m 230.54162,170.62133 14.5,-5.5"
         id="path3062"
         inkscape:connector-curvature="0" />
      <path
         style="fill:#4d4d4d;fill-opacity:1;stroke:#4d4d4d;stroke-width:2"
         d="m 231.54162,157.12133 10.5,-5"
         id="path3064"
         inkscape:connector-curvature="0" />
      <path
         style="fill:#4d4d4d;fill-opacity:1;stroke:#4d4d4d;stroke-width:2"
         d="m 235.04162,133.62133 5.5,-3.5"
         id="path3066"
         inkscape:connector-curvature="0" />
      <path
         inkscape:connector-curvature="0"
         id="path3069"
         d="m 362.88435,200.87161 c -4.43282,-4.33178 -11.6054,-5.98543 -14.37025,-11.82223 -2.8846,-4.66063 4.61498,-6.27576 7.72825,-3.85167 1.33583,0.84134 4.21073,1.00625 1.99184,-0.97664 -3.17306,-3.5705 -9.19171,-3.29613 -11.88365,-7.51098 -4.25257,-3.00191 -1.17611,-8.67557 3.82139,-7.68054 3.4331,0.65821 6.57773,2.52102 9.18182,4.67442 -3.98117,-4.21131 -9.82972,-7.4944 -11.1301,-13.39103 -1.22708,-3.80549 3.40313,-6.35449 5.86662,-2.95075 0.96363,1.36951 6.4615,4.19001 2.69128,1.52578 -3.36596,-2.26753 -5.7615,-6.7709 -3.41371,-10.43804 1.82239,-3.13683 6.4533,-5.38387 9.91651,-3.18832 -2.38963,-2.88452 -4.72252,-6.35685 -4.04772,-10.22769 0.23395,-3.75634 5.36989,-4.63145 6.38344,-0.77359 1.64005,2.78016 3.23264,0.0477 2.22735,-1.95606 -0.28604,-3.69412 -0.10049,-8.33403 3.4463,-10.64233 4.68629,-2.11471 8.77765,3.38162 7.28649,7.42452 -1.05015,2.6551 -2.48863,9.37786 2.59423,6.09897 2.08347,-2.16785 6.99272,-1.63361 5.107,2.04906 -1.10552,3.44326 -4.56922,5.35373 -7.76662,6.80571 -3.26626,3.21109 2.88339,-1.21992 4.34707,0.96459 4.21396,1.95329 1.76453,6.09097 -1.61263,7.15652 -1.75521,0.51135 -5.5932,4.69677 -1.28501,3.08016 2.85883,-0.94922 6.42698,-3.62379 9.22657,-1.22893 1.43042,2.05878 0.58405,4.91919 -0.52466,6.9814 -1.24927,2.46294 -3.99152,3.52246 -6.53572,4.38351 -1.35784,0.36482 -5.27867,3.63568 -3.79671,3.22981 2.9861,-2.40264 7.21653,-5.15921 11.21013,-3.13425 4.34246,2.38923 3.81182,8.56142 -0.37023,10.86201 -2.86091,2.76208 -6.71186,4.3966 -10.76271,4.71883 -1.79645,0.11609 -3.3058,1.77635 -0.39358,1.37846 3.60461,1.76928 8.33196,1.84477 10.99583,5.0677 0.52764,5.02814 -6.03112,4.87697 -9.53658,5.71891 -2.54031,2.87115 -1.6239,8.73098 -7.30749,8.35993 -3.19851,1.00655 -6.31138,0.76598 -9.28475,-0.70724 z"
         style="fill:#ffff00;stroke:#000000;stroke-width:2.91513228;stroke-linecap:butt;stroke-linejoin:miter;stroke-opacity:1" />
      <path
         inkscape:connector-curvature="0"
         id="path3071"
         d="m 371.51593,135.88632 c 0.50061,1.88613 -5.00613,33.0073 -5.00613,33.0073 l 1.50184,30.1781"
         style="fill:none;stroke:#4d4d4d;stroke-width:1.9434216" />
      <path
         inkscape:connector-curvature="0"
         id="path3073"
         d="m 359.50122,150.97537 8.51042,7.54453"
         style="fill:#4d4d4d;fill-opacity:1;stroke:#4d4d4d;stroke-width:1.9434216" />
      <path
         inkscape:connector-curvature="0"
         id="path3075"
         d="m 357.99938,164.17829 6.00735,5.6584"
         style="fill:#4d4d4d;fill-opacity:1;stroke:#4d4d4d;stroke-width:1.9434216" />
      <path
         inkscape:connector-curvature="0"
         id="path3077"
         d="m 358.49999,177.38121 8.00981,8.01606"
         style="fill:#4d4d4d;fill-opacity:1;stroke:#4d4d4d;stroke-width:1.9434216" />
      <path
         inkscape:connector-curvature="0"
         id="path3079"
         d="m 367.51103,178.32428 14.51777,-5.18686"
         style="fill:#4d4d4d;fill-opacity:1;stroke:#4d4d4d;stroke-width:1.9434216" />
      <path
         inkscape:connector-curvature="0"
         id="path3081"
         d="m 368.51225,165.59289 10.51288,-4.71533"
         style="fill:#4d4d4d;fill-opacity:1;stroke:#4d4d4d;stroke-width:1.9434216" />
      <path
         inkscape:connector-curvature="0"
         id="path3083"
         d="m 372.01654,143.43084 5.50674,-3.30072"
         style="fill:#4d4d4d;fill-opacity:1;stroke:#4d4d4d;stroke-width:1.9434216" />
      <path
         style="fill:#ffff00;stroke:#000000;stroke-width:2.91513228;stroke-linecap:butt;stroke-linejoin:miter;stroke-opacity:1"
         d="m 112.73613,198.12897 c -4.43282,-4.33178 -11.6054,-5.98543 -14.370253,-11.82223 -2.8846,-4.66063 4.614983,-6.27576 7.728253,-3.85167 1.33583,0.84134 4.21073,1.00625 1.99184,-0.97664 -3.17306,-3.5705 -9.191713,-3.29613 -11.883653,-7.51098 -4.25257,-3.00191 -1.17611,-8.67557 3.821393,-7.68054 3.4331,0.65821 6.57773,2.52102 9.18182,4.67442 -3.98117,-4.21131 -9.829723,-7.4944 -11.130103,-13.39103 -1.22708,-3.80549 3.403133,-6.35449 5.866623,-2.95075 0.96363,1.36951 6.4615,4.19001 2.69128,1.52578 -3.36596,-2.26753 -5.7615,-6.7709 -3.41371,-10.43804 1.82239,-3.13683 6.4533,-5.38387 9.91651,-3.18832 -2.38963,-2.88452 -4.72252,-6.35685 -4.04772,-10.22769 0.23395,-3.75634 5.36989,-4.63145 6.38344,-0.77359 1.64005,2.78016 3.23264,0.0477 2.22735,-1.95606 -0.28604,-3.69412 -0.10049,-8.33403 3.4463,-10.64233 4.68629,-2.11471 8.77765,3.38162 7.28649,7.42452 -1.05015,2.6551 -2.48863,9.37786 2.59423,6.09897 2.08347,-2.16785 6.99272,-1.63361 5.107,2.04906 -1.10552,3.44326 -4.56922,5.35373 -7.76662,6.80571 -3.26626,3.21109 2.88339,-1.21992 4.34707,0.96459 4.21396,1.95329 1.76453,6.09097 -1.61263,7.15652 -1.75521,0.51135 -5.5932,4.69677 -1.28501,3.08016 2.85883,-0.94922 6.42698,-3.62379 9.22657,-1.22893 1.43042,2.05878 0.58405,4.91919 -0.52466,6.9814 -1.24927,2.46294 -3.99152,3.52246 -6.53572,4.38351 -1.35784,0.36482 -5.27867,3.63568 -3.79671,3.22981 2.9861,-2.40264 7.21653,-5.15921 11.21013,-3.13425 4.34246,2.38923 3.81182,8.56142 -0.37023,10.86201 -2.86091,2.76208 -6.71186,4.3966 -10.76271,4.71883 -1.79645,0.11609 -3.3058,1.77635 -0.39358,1.37846 3.60461,1.76928 8.33196,1.84477 10.99583,5.0677 0.52764,5.02814 -6.03112,4.87697 -9.53658,5.71891 -2.54031,2.87115 -1.6239,8.73098 -7.30749,8.35993 -3.19851,1.00655 -6.31138,0.76598 -9.28475,-0.70724 z"
         id="path3085"
         inkscape:connector-curvature="0" />
      <path
         style="fill:none;stroke:#4d4d4d;stroke-width:1.9434216"
         d="m 121.36771,133.14368 c 0.50061,1.88613 -5.00613,33.0073 -5.00613,33.0073 l 1.50184,30.1781"
         id="path3087"
         inkscape:connector-curvature="0" />
      <path
         style="fill:#4d4d4d;fill-opacity:1;stroke:#4d4d4d;stroke-width:1.9434216"
         d="m 109.353,148.23273 8.51042,7.54453"
         id="path3089"
         inkscape:connector-curvature="0" />
      <path
         style="fill:#4d4d4d;fill-opacity:1;stroke:#4d4d4d;stroke-width:1.9434216"
         d="m 107.85116,161.43565 6.00735,5.6584"
         id="path3091"
         inkscape:connector-curvature="0" />
      <path
         style="fill:#4d4d4d;fill-opacity:1;stroke:#4d4d4d;stroke-width:1.9434216"
         d="m 108.35177,174.63857 8.00981,8.01606"
         id="path3093"
         inkscape:connector-curvature="0" />
      <path
         style="fill:#4d4d4d;fill-opacity:1;stroke:#4d4d4d;stroke-width:1.9434216"
         d="m 117.36281,175.58164 14.51777,-5.18686"
         id="path3095"
         inkscape:connector-curvature="0" />
      <path
         style="fill:#4d4d4d;fill-opacity:1;stroke:#4d4d4d;stroke-width:1.9434216"
         d="m 118.36403,162.85025 10.51288,-4.71533"
         id="path3097"
         inkscape:connector-curvature="0" />
      <path
         style="fill:#4d4d4d;fill-opacity:1;stroke:#4d4d4d;stroke-width:1.9434216"
         d="m 121.86832,140.6882 5.50674,-3.30072"
         id="path3099"
         inkscape:connector-curvature="0" />
      <path
         style="fill:#ffff00;stroke:#000000;stroke-width:3;stroke-linecap:butt;stroke-linejoin:miter;stroke-opacity:1"
         d="m 168.64496,195.59054 c -1.35566,0.22066 -1.29614,-1.36789 -0.1941,-0.16353 -2.12044,-0.88502 -3.11031,-3.16949 -4.50273,-4.8503 -1.49669,-2.03558 -1.75525,-5.15266 -0.23309,-7.17297 1.30569,-1.5127 4.8046,0.89098 3.99072,-2.20468 -1.34735,-2.36067 -3.09067,-4.48706 -4.35038,-6.91954 -1.38853,-2.03432 -1.80613,-5.43279 0.80026,-6.69655 1.36394,-0.61254 3.84156,3.38405 3.04113,0.25584 -0.65272,-2.6029 -3.45204,-4.01108 -3.97455,-6.72642 -0.71623,-2.42704 -2.15794,-5.49008 -0.39505,-7.77442 1.49337,-2.69368 5.48607,-0.0906 6.38519,0.01 -1.42053,-3.2345 0.031,-6.75752 0.70887,-9.98812 0.49658,-2.53568 2.69931,-5.1213 5.49935,-4.70689 2.53393,0.0503 3.36574,2.56562 3.68875,4.58018 1.26318,3.10478 0.10367,6.44144 -1.0157,9.40326 -0.42721,1.22054 -0.65095,2.05556 0.48198,0.64926 2.00679,-1.5458 6.28882,-2.04199 6.27249,1.49236 0.37984,2.82379 -1.14437,5.56117 -2.96113,7.60947 -0.42167,1.05973 -3.71023,2.29536 -2.58953,2.9713 3.01484,-1.5777 6.17497,2.67792 4.49549,5.33519 -1.08843,3.16903 -4.28199,4.77704 -5.87226,7.59964 -0.7459,1.83876 1.64092,-2.01207 2.63166,-2.32748 2.18889,-1.36333 4.06905,-3.22927 6.44031,-4.29047 1.5251,1.78456 0.97579,4.25772 -0.089,6.1088 -1.73656,2.90565 -4.96154,4.41911 -6.88805,7.17325 -0.59047,0.77759 -1.92089,1.79652 -0.26802,0.85326 2.36146,-1.51132 4.73205,1.08492 4.17117,3.46158 -0.52515,2.47288 -2.97197,3.58769 -5.13129,4.32878 -1.69566,0.28642 -3.4604,1.54926 -4.23646,1.04493 -1.28155,-0.20032 -3.29057,1.77401 -4.13821,0.2372"
         id="path3108"
         inkscape:connector-curvature="0" />
      <path
         style="fill:none;fill-opacity:1;stroke:#333333;stroke-width:2"
         d="m 175.00892,143.61819 -1.76776,25.8094 -1.06066,22.27386"
         id="path3114"
         inkscape:connector-curvature="0" />
      <path
         style="fill:none;stroke:#333333;stroke-width:2"
         d="m 167.5843,157.40677 5.3033,9.54594"
         id="path3116"
         inkscape:connector-curvature="0" />
      <path
         style="fill:none;stroke:#333333;stroke-width:2"
         d="m 168.29141,173.67023 4.24264,8.13173"
         id="path3118"
         inkscape:connector-curvature="0" />
      <path
         style="fill:none;stroke:#333333;stroke-width:2"
         d="m 173.59471,172.96312 3.88909,-3.88908"
         id="path3120"
         inkscape:connector-curvature="0" />
      <path
         inkscape:connector-curvature="0"
         id="path3122"
         d="m 296.63128,195.23699 c -1.35566,0.22066 -1.29614,-1.36789 -0.1941,-0.16353 -2.12044,-0.88502 -3.11031,-3.16949 -4.50273,-4.8503 -1.49669,-2.03558 -1.75525,-5.15266 -0.23309,-7.17297 1.30569,-1.5127 4.8046,0.89098 3.99072,-2.20468 -1.34735,-2.36067 -3.09067,-4.48706 -4.35038,-6.91954 -1.38853,-2.03432 -1.80613,-5.43279 0.80026,-6.69655 1.36394,-0.61254 3.84156,3.38405 3.04113,0.25584 -0.65272,-2.6029 -3.45204,-4.01108 -3.97455,-6.72642 -0.71623,-2.42704 -2.15794,-5.49008 -0.39505,-7.77442 1.49337,-2.69368 5.48607,-0.0906 6.38519,0.01 -1.42053,-3.2345 0.031,-6.75752 0.70887,-9.98812 0.49658,-2.53568 2.69931,-5.1213 5.49935,-4.70689 2.53393,0.0503 3.36574,2.56562 3.68875,4.58018 1.26318,3.10478 0.10367,6.44144 -1.0157,9.40326 -0.42721,1.22054 -0.65095,2.05556 0.48198,0.64926 2.00679,-1.5458 6.28882,-2.04199 6.27249,1.49236 0.37984,2.82379 -1.14437,5.56117 -2.96113,7.60947 -0.42167,1.05973 -3.71023,2.29536 -2.58953,2.9713 3.01484,-1.5777 6.17497,2.67792 4.49549,5.33519 -1.08843,3.16903 -4.28199,4.77704 -5.87226,7.59964 -0.7459,1.83876 1.64092,-2.01207 2.63166,-2.32748 2.18889,-1.36333 4.06905,-3.22927 6.44031,-4.29047 1.5251,1.78456 0.97579,4.25772 -0.089,6.1088 -1.73656,2.90565 -4.96154,4.41911 -6.88805,7.17325 -0.59047,0.77759 -1.92089,1.79652 -0.26802,0.85326 2.36146,-1.51132 4.73205,1.08492 4.17117,3.46158 -0.52515,2.47288 -2.97197,3.58769 -5.13129,4.32878 -1.69566,0.28642 -3.4604,1.54926 -4.23646,1.04493 -1.28155,-0.20032 -3.29057,1.77401 -4.13821,0.2372"
         style="fill:#ffff00;stroke:#000000;stroke-width:3;stroke-linecap:butt;stroke-linejoin:miter;stroke-opacity:1" />
      <path
         inkscape:connector-curvature="0"
         id="path3124"
         d="m 302.99524,143.26464 -1.76776,25.8094 -1.06066,22.27386"
         style="fill:none;stroke:#333333;stroke-width:2" />
      <path
         inkscape:connector-curvature="0"
         id="path3126"
         d="m 295.57062,157.05322 5.3033,9.54594"
         style="fill:none;stroke:#333333;stroke-width:2" />
      <path
         inkscape:connector-curvature="0"
         id="path3128"
         d="m 296.27773,173.31668 4.24264,8.13173"
         style="fill:none;stroke:#333333;stroke-width:2" />
      <path
         inkscape:connector-curvature="0"
         id="path3130"
         d="m 301.58103,172.60957 3.88909,-3.88908"
         style="fill:none;stroke:#333333;stroke-width:2" />
      <path
         style="fill:#ffff00;stroke:#000000;stroke-width:2.83950186;stroke-linecap:butt;stroke-linejoin:miter;stroke-opacity:1"
         d="m 411.86189,209.48351 c -1.36162,0.19682 -1.30184,-1.22007 -0.19495,-0.14586 -2.12977,-0.78938 -3.124,-2.82699 -4.52254,-4.32617 -1.50328,-1.81561 -1.76298,-4.59585 -0.23412,-6.39785 1.31144,-1.34923 4.82574,0.7947 4.00828,-1.96643 -1.35328,-2.10558 -3.10427,-4.00219 -4.36952,-6.17181 -1.39464,-1.81449 -1.81408,-4.84572 0.80378,-5.97291 1.36994,-0.54635 3.85846,3.01836 3.05451,0.22819 -0.65559,-2.32163 -3.46723,-3.57764 -3.99204,-5.99955 -0.71938,-2.16477 -2.16743,-4.89682 -0.39678,-6.93431 1.49994,-2.4026 5.5102,-0.0808 6.41328,0.009 -1.42678,-2.88497 0.0311,-6.02729 0.71199,-8.90879 0.49877,-2.26167 2.71119,-4.56789 5.52355,-4.19826 2.54508,0.0449 3.38055,2.28838 3.70498,4.08524 1.26874,2.76928 0.10413,5.74537 -1.02017,8.38713 -0.42909,1.08865 -0.65381,1.83344 0.4841,0.5791 2.01562,-1.37875 6.31649,-1.82133 6.30009,1.3311 0.38151,2.51865 -1.1494,4.96022 -2.97416,6.78718 -0.42352,0.94521 -3.72655,2.04732 -2.60092,2.65022 3.0281,-1.40722 6.20214,2.38854 4.51527,4.75866 -1.09322,2.82658 -4.30083,4.26083 -5.8981,6.77841 -0.74918,1.64006 1.64814,-1.79464 2.64324,-2.07597 2.19852,-1.21601 4.08695,-2.88031 6.46865,-3.82683 1.53181,1.59171 0.98008,3.79762 -0.0894,5.44867 -1.7442,2.59166 -4.98338,3.94158 -6.91836,6.3981 -0.59307,0.69356 -1.92934,1.60239 -0.2692,0.76106 2.37185,-1.34801 4.75287,0.96768 4.18952,3.08751 -0.52746,2.20566 -2.98504,3.2 -5.15387,3.86101 -1.70312,0.25547 -3.47562,1.38184 -4.2551,0.93201 -1.28719,-0.17867 -3.30505,1.58231 -4.15642,0.21157"
         id="path3132"
         inkscape:connector-curvature="0" />
      <path
         style="fill:none;stroke:#333333;stroke-width:1.8930012"
         d="m 418.25386,163.12736 -1.77554,23.02041 -1.06533,19.86691"
         id="path3134"
         inkscape:connector-curvature="0" />
      <path
         style="fill:none;stroke:#333333;stroke-width:1.8930012"
         d="m 410.79657,175.42593 5.32663,8.51439"
         id="path3136"
         inkscape:connector-curvature="0" />
      <path
         style="fill:none;stroke:#333333;stroke-width:1.8930012"
         d="m 411.50679,189.93194 4.26131,7.25301"
         id="path3138"
         inkscape:connector-curvature="0" />
      <path
         style="fill:none;stroke:#333333;stroke-width:1.8930012"
         d="m 416.83342,189.30124 3.90621,-3.46882"
         id="path3140"
         inkscape:connector-curvature="0" />
      <path
         inkscape:connector-curvature="0"
         id="path3142"
         d="m 62.551149,205.94798 c -1.36162,0.19682 -1.30184,-1.22007 -0.19495,-0.14586 -2.12977,-0.78938 -3.124,-2.82699 -4.52254,-4.32617 -1.50328,-1.81561 -1.76298,-4.59585 -0.23412,-6.39785 1.31144,-1.34923 4.82574,0.7947 4.00828,-1.96643 -1.35328,-2.10558 -3.10427,-4.00219 -4.36952,-6.17181 -1.39464,-1.81449 -1.81408,-4.84572 0.80378,-5.97291 1.36994,-0.54635 3.85846,3.01836 3.05451,0.22819 -0.65559,-2.32163 -3.46723,-3.57764 -3.99204,-5.99955 -0.71938,-2.16477 -2.16743,-4.89682 -0.39678,-6.93431 1.49994,-2.4026 5.5102,-0.0808 6.41328,0.009 -1.42678,-2.88497 0.0311,-6.02729 0.71199,-8.90879 0.49877,-2.26167 2.71119,-4.56789 5.52355,-4.19826 2.54508,0.0449 3.38055,2.28838 3.70498,4.08524 1.26874,2.76928 0.10413,5.74537 -1.02017,8.38713 -0.42909,1.08865 -0.65381,1.83344 0.4841,0.5791 2.01562,-1.37875 6.31649,-1.82133 6.30009,1.3311 0.38151,2.51865 -1.1494,4.96022 -2.97416,6.78718 -0.42352,0.94521 -3.72655,2.04732 -2.60092,2.65022 3.0281,-1.40722 6.20214,2.38854 4.51527,4.75866 -1.09322,2.82658 -4.30083,4.26083 -5.8981,6.77841 -0.74918,1.64006 1.64814,-1.79464 2.64324,-2.07597 2.19852,-1.21601 4.08695,-2.88031 6.46865,-3.82683 1.53181,1.59171 0.98008,3.79762 -0.0894,5.44867 -1.7442,2.59166 -4.98338,3.94158 -6.91836,6.3981 -0.59307,0.69356 -1.92934,1.60239 -0.2692,0.76106 2.37185,-1.34801 4.75287,0.96768 4.18952,3.08751 -0.52746,2.20566 -2.98504,3.2 -5.15387,3.86101 -1.70312,0.25547 -3.47562,1.38184 -4.2551,0.93201 -1.28719,-0.17867 -3.30505,1.58231 -4.15642,0.21157"
         style="fill:#ffff00;stroke:#000000;stroke-width:2.83950186;stroke-linecap:butt;stroke-linejoin:miter;stroke-opacity:1" />
      <path
         inkscape:connector-curvature="0"
         id="path3144"
         d="m 68.943119,159.59183 -1.77554,23.02041 -1.06533,19.86691"
         style="fill:none;stroke:#333333;stroke-width:1.8930012" />
      <path
         inkscape:connector-curvature="0"
         id="path3146"
         d="m 61.485829,171.8904 5.32663,8.51439"
         style="fill:none;stroke:#333333;stroke-width:1.8930012" />
      <path
         inkscape:connector-curvature="0"
         id="path3148"
         d="m 62.196049,186.39641 4.26131,7.25301"
         style="fill:none;stroke:#333333;stroke-width:1.8930012" />
      <path
         inkscape:connector-curvature="0"
         id="path3150"
         d="m 67.522679,185.76571 3.90621,-3.46882"
         style="fill:none;stroke:#333333;stroke-width:1.8930012" />
      <path
         style="fill:#ffff00;stroke:#000000;stroke-width:3;stroke-opacity:1"
         d="m 40.749999,210.25001 c -0.255459,-2.55804 -0.930627,-4.81052 -1.731643,-7.26593 -1.12362,-2.00476 -0.696292,-4.85926 -2.291714,-6.63835 -2.0827,-1.65702 -3.058102,-3.96382 -4.891319,-5.83771 -1.836629,-2.10959 -3.563559,-4.33598 -5.78761,-6.06846 -1.758403,-2.11832 -2.314667,-5.04161 -2.534864,-7.78136 0.267681,-2.2628 -0.571472,-5.45516 1.982957,-6.64736 2.728438,-2.67983 3.290169,0.5035 2.820059,2.44455 2.379306,-0.4349 5.197103,-4.13946 7.280183,-1.71253 1.171264,3.03532 -2.996535,4.2277 -3.197981,6.7932 0.196674,2.2425 3.919852,1.03269 5.164932,-0.39788 1.488629,-1.33676 3.058285,-0.52699 2.145375,1.48121 -2.058946,1.6669 -3.074339,4.39295 -3.350962,6.9499 1.803284,0.47289 4.402993,-5.21761 5.776408,-1.3189 0.427711,2.44668 -1.680444,4.24507 -2.473568,6.42341 -1.394103,2.22837 4.34359,-1.10938 3.736839,1.8354 -0.09797,2.26721 -4.469197,3.1423 -3.759655,4.92802 2.21697,-1.29613 6.241985,-0.18322 4.436772,2.93098 -0.844311,1.75405 -1.717804,3.32896 0.638367,3.93842 1.289796,2.47753 -1.103678,4.46359 -3.001266,5.57628 -0.329934,0.0966 -0.640139,0.24699 -0.96131,0.36711 z"
         id="path3152"
         inkscape:connector-curvature="0" />
      <path
         style="fill:none;fill-opacity:1;stroke:#333333;stroke-width:2;stroke-opacity:1"
         d="m 26.499999,177.50001 9.25,12.25 5.5,16.5"
         id="path3156"
         inkscape:connector-curvature="0" />
      <path
         inkscape:connector-curvature="0"
         id="path3158"
         d="m 449.98355,215.19976 c 0.25546,-2.55804 0.93062,-4.81052 1.73164,-7.26593 1.12362,-2.00476 0.69629,-4.85926 2.29171,-6.63835 2.0827,-1.65702 3.05811,-3.96382 4.89132,-5.83771 1.83663,-2.10959 3.56356,-4.33598 5.78761,-6.06846 1.75841,-2.11832 2.31467,-5.04161 2.53487,-7.78136 -0.26768,-2.2628 0.57147,-5.45516 -1.98296,-6.64736 -2.72844,-2.67983 -3.29017,0.5035 -2.82006,2.44455 -2.3793,-0.4349 -5.1971,-4.13946 -7.28018,-1.71253 -1.17127,3.03532 2.99653,4.2277 3.19798,6.7932 -0.19667,2.2425 -3.91985,1.03269 -5.16493,-0.39788 -1.48863,-1.33676 -3.05829,-0.52699 -2.14538,1.48121 2.05895,1.6669 3.07434,4.39295 3.35096,6.9499 -1.80328,0.47289 -4.40299,-5.21761 -5.7764,-1.3189 -0.42771,2.44668 1.68044,4.24507 2.47356,6.42341 1.39411,2.22837 -4.34359,-1.10938 -3.73683,1.8354 0.098,2.26721 4.46919,3.1423 3.75965,4.92802 -2.21697,-1.29613 -6.24198,-0.18322 -4.43677,2.93098 0.84431,1.75405 1.7178,3.32896 -0.63837,3.93842 -1.28979,2.47753 1.10368,4.46359 3.00127,5.57628 0.32993,0.0966 0.64014,0.24699 0.96131,0.36711 z"
         style="fill:#ffff00;stroke:#000000;stroke-width:3;stroke-opacity:1" />
      <path
         inkscape:connector-curvature="0"
         id="path3160"
         d="m 464.23355,182.44976 -9.25,12.25 -5.5,16.5"
         style="fill:none;stroke:#333333;stroke-width:2;stroke-opacity:1" />
    </g>
  </g>
</svg>
