<?xml version="1.0" encoding="UTF-8" standalone="no"?>
<!-- Created with Inkscape (http://www.inkscape.org/) -->

<svg
   xmlns:dc="http://purl.org/dc/elements/1.1/"
   xmlns:cc="http://creativecommons.org/ns#"
   xmlns:rdf="http://www.w3.org/1999/02/22-rdf-syntax-ns#"
   xmlns:svg="http://www.w3.org/2000/svg"
   xmlns="http://www.w3.org/2000/svg"
   xmlns:sodipodi="http://sodipodi.sourceforge.net/DTD/sodipodi-0.dtd"
   xmlns:inkscape="http://www.inkscape.org/namespaces/inkscape"
   width="209.05894"
   height="228.77621"
   id="svg2"
   version="1.1"
   inkscape:version="0.48.2 r9819"
   sodipodi:docname="brey.svg">
  <defs
     id="defs4">
    <inkscape:perspective
       sodipodi:type="inkscape:persp3d"
       inkscape:vp_x="0 : 530 : 1"
       inkscape:vp_y="0 : 1000 : 0"
       inkscape:vp_z="740 : 530 : 1"
       inkscape:persp3d-origin="370 : 350 : 1"
       id="perspective10" />
  </defs>
  <sodipodi:namedview
     id="base"
     pagecolor="#ffffff"
     bordercolor="#666666"
     borderopacity="1.0"
     inkscape:pageopacity="0.0"
     inkscape:pageshadow="2"
     inkscape:zoom="0.98994949"
     inkscape:cx="-45.037054"
     inkscape:cy="-57.560433"
     inkscape:document-units="px"
     inkscape:current-layer="svg2"
     showgrid="false"
     inkscape:window-width="827"
     inkscape:window-height="874"
     inkscape:window-x="2565"
     inkscape:window-y="99"
     inkscape:window-maximized="0"
     borderlayer="true"
     fit-margin-top="0"
     fit-margin-left="0"
     fit-margin-right="0"
     fit-margin-bottom="0" />
  <metadata
     id="metadata7">
    <rdf:RDF>
      <cc:Work
         rdf:about="">
        <dc:format>image/svg+xml</dc:format>
        <dc:type
           rdf:resource="http://purl.org/dc/dcmitype/StillImage" />
        <dc:title></dc:title>
      </cc:Work>
    </rdf:RDF>
  </metadata>
  <g
     id="body"
     transform="translate(-99.963404,14.063918)">
    <path
       id="path2997"
       style="fill:#ffff00;fill-opacity:1;fill-rule:nonzero;stroke:#000000;stroke-width:2;stroke-linecap:butt;stroke-linejoin:miter;stroke-miterlimit:16;stroke-opacity:1;stroke-dasharray:none"
       d="m 253.41308,-13.063918 c 23.79505,35.603313 43.18011,72.138001 50.35508,113.516358 15.44332,75.79199 -13.79023,99.20479 -45.41937,107.60224 -29.2202,17.25167 -25.24237,-10.32871 -4.66866,-11.66377 -24.13392,-0.54243 -17.26085,-20.47835 3.83601,-14.56039 -27.33955,-13.25479 -15.92808,-32.91983 1.74162,-15.766 28.50699,45.26755 49.10461,-16.45513 4.64888,-18.05762 l 11.50188,-18.74066 -24.8118,-7.15306 15.65612,-18.43929 L 240.45223,97.887775 253.56531,78.64686 229.75098,74.717146 238.02283,52.38474 213.96364,49.943282 224.34532,28.72299 200.9634,24.483365 z"
       inkscape:connector-curvature="0"
       sodipodi:nodetypes="cccccccccccccccccc" />
    <path
       sodipodi:nodetypes="cccccccccccccccccc"
       inkscape:connector-curvature="0"
       d="m 155.57268,-13.063918 c -23.79505,35.603313 -43.18011,72.138001 -50.35508,113.516358 -15.44332,75.79199 13.79023,99.20479 45.41937,107.60224 29.2202,17.25167 25.24237,-10.32871 4.66866,-11.66377 24.13392,-0.54243 17.26085,-20.47835 -3.83601,-14.56039 27.33955,-13.25479 15.92808,-32.91983 -1.74162,-15.766 -28.50699,45.26755 -49.10461,-16.45513 -4.64888,-18.05762 l -11.50188,-18.74066 24.8118,-7.15306 -15.65612,-18.43929 25.80061,-5.786115 -13.11308,-19.240915 23.81433,-3.929714 -8.27185,-22.332406 24.05919,-2.441458 -10.38168,-21.220292 23.38192,-4.239625 z"
       style="fill:#ffff00;fill-opacity:1;fill-rule:nonzero;stroke:#000000;stroke-width:2;stroke-linecap:butt;stroke-linejoin:miter;stroke-miterlimit:16;stroke-opacity:1;stroke-dasharray:none"
       id="path2992" />
    <path
       id="path2999"
       style="fill:#333333;fill-opacity:1;fill-rule:evenodd;stroke:#000000;stroke-width:2;stroke-linecap:butt;stroke-linejoin:miter;stroke-miterlimit:16;stroke-opacity:1;stroke-dasharray:none"
       d="m 188.19299,15.231 18,11.067 17.465,-10.932 c 1.611,-1.008 1.628,-4.047 3.467,-4.535 2.099,-0.555 4.925,0.649 6,2.535 1.132,1.989 0.722,5.221 -0.932,6.8 -1.099,1.048 -3.265,-0.427 -4.535,0.4 l -14.533,9.465 15.068,7.200004 c 1.8,0.861 3.984,-2.694 5.732,-1.733 2.182,1.202 2.599,4.783 2,7.2 -0.545,2.197 -2.411,4.777 -4.667,4.933 -1.703,0.119 -2.44,-2.508 -4,-3.2 l -21.333,-9.465 -18.667,10.265 c -1.653,0.91 -1.348,4.314 -3.2,4.667 -2.422,0.463 -5.228,-1.84 -6.133,-4.132 -0.956,-2.416 -0.334,-6.024 1.733,-7.6 1.627,-1.241 4.35,1.27 6.135,0.265 l 13.732,-7.733004 -14.132,-8.4 c -1.733,-1.029 -4.035,2.305 -5.868,1.468 -2.859,-1.302 -5.078,-5.366 -4.267,-8.4 0.753,-2.822 4.417,-4.968 7.335,-4.8 2.425,0.14 3.529,3.393 5.6,4.665 z"
       inkscape:connector-curvature="0"
       sodipodi:nodetypes="ccccccccccccccccccccccccc" />
  </g>
</svg>
