<?xml version="1.0" encoding="UTF-8" standalone="no"?>
<!-- Created with Inkscape (http://www.inkscape.org/) -->

<svg
   xmlns:dc="http://purl.org/dc/elements/1.1/"
   xmlns:cc="http://creativecommons.org/ns#"
   xmlns:rdf="http://www.w3.org/1999/02/22-rdf-syntax-ns#"
   xmlns:svg="http://www.w3.org/2000/svg"
   xmlns="http://www.w3.org/2000/svg"
   xmlns:sodipodi="http://sodipodi.sourceforge.net/DTD/sodipodi-0.dtd"
   xmlns:inkscape="http://www.inkscape.org/namespaces/inkscape"
   width="477.62524"
   height="211.48856"
   id="svg2"
   sodipodi:version="0.32"
   inkscape:version="0.48.2 r9819"
   version="1.0"
   sodipodi:docname="marquis.svg"
   inkscape:output_extension="org.inkscape.output.svg.inkscape">
  <defs
     id="defs4">
    <inkscape:perspective
       sodipodi:type="inkscape:persp3d"
       inkscape:vp_x="0 : 526.18109 : 1"
       inkscape:vp_y="0 : 1000 : 0"
       inkscape:vp_z="744.09448 : 526.18109 : 1"
       inkscape:persp3d-origin="372.04724 : 350.78739 : 1"
       id="perspective10" />
  </defs>
  <sodipodi:namedview
     id="base"
     pagecolor="#ffffff"
     bordercolor="#666666"
     borderopacity="1.0"
     gridtolerance="10000"
     guidetolerance="10"
     objecttolerance="10"
     inkscape:pageopacity="0.0"
     inkscape:pageshadow="2"
     inkscape:zoom="1.8526198"
     inkscape:cx="147.07028"
     inkscape:cy="108.43146"
     inkscape:document-units="px"
     inkscape:current-layer="body"
     showgrid="false"
     inkscape:window-width="1151"
     inkscape:window-height="874"
     inkscape:window-x="119"
     inkscape:window-y="5"
     inkscape:window-maximized="0"
     inkscape:snap-global="false"
     showguides="true"
     inkscape:guide-bbox="true"
     fit-margin-top="0"
     fit-margin-left="0"
     fit-margin-right="0"
     fit-margin-bottom="0">
    <sodipodi:guide
       orientation="0,1"
       position="21.431942,0.8598"
       id="guide3145" />
  </sodipodi:namedview>
  <metadata
     id="metadata7">
    <rdf:RDF>
      <cc:Work
         rdf:about="">
        <dc:format>image/svg+xml</dc:format>
        <dc:type
           rdf:resource="http://purl.org/dc/dcmitype/StillImage" />
        <dc:title />
      </cc:Work>
    </rdf:RDF>
  </metadata>
  <g
     inkscape:label="Layer 1"
     inkscape:groupmode="layer"
     id="layer1"
     transform="translate(0.3806715,0.4885514)">
    <g
       id="body">
      <path
         sodipodi:nodetypes="ccccccccc"
         inkscape:connector-curvature="0"
         d="M 63.1,199 C 25.7,188 62,175 50.2,148.4 39.8,108.6 25.7,135.6 23.3,102.8 55,74.68 168,78.18 240,74.69 c 71,3.49 184,0 216,28.11 -2,32.8 -16,5.8 -27,45.6 -12,26.6 25,39.6 -13,50.6 -28,9 -176,10 -176,10 0,0 -149,-1 -176.9,-10 z"
         style="fill:#ff0000;stroke:#000000;stroke-width:4;stroke-miterlimit:4;stroke-opacity:1;stroke-dasharray:none"
         id="path3764" />
      <path
         sodipodi:nodetypes="cc"
         inkscape:connector-curvature="0"
         id="path3767"
         d="m 37.594215,124.17934 c 88.099995,-44.5 305.670245,-38.6 411.670245,-4.7"
         style="fill:none;stroke:#000000;stroke-width:4;stroke-miterlimit:4;stroke-opacity:1;stroke-dasharray:none" />
      <path
         sodipodi:nodetypes="cc"
         inkscape:connector-curvature="0"
         id="path3769"
         d="m 51.4,175 c 120.25289,-29.26446 216.03221,-31.27328 382.03221,6.52672"
         style="fill:none;stroke:#000000;stroke-width:4;stroke-miterlimit:4;stroke-opacity:1;stroke-dasharray:none" />
      <path
         id="path3773"
         style="opacity:0.5;fill:#333333;fill-opacity:1;fill-rule:evenodd;stroke:none"
         d="M 44.1,132.9 C 152,73.18 365,104.8 441,127 l 9,-8.2 C 422,105.9 166,54.4 34.7,125.9 z m 6.2,44.1 c 107.7,-56.2 377.7,2 377.7,2 0,0 34,31 -90,30 -31,-6 56,-18 33,-29 -84,-15.2 -199,-18.1 -266,3 -23,13 103,17 84,28 C 7.629771,205.25954 50.3,177 50.3,177 z"
         inkscape:connector-curvature="0"
         sodipodi:nodetypes="cccccccccccc" />
      <path
         id="path3079"
         style="fill:none;stroke:#000000;stroke-width:2;stroke-linecap:butt;stroke-linejoin:miter;stroke-opacity:1"
         d="m 265.4876,111.10744 c 21.07438,1.65289 37.60331,5.10744 37.60331,5.10744 l 0,10.7438 c -20.24793,-4.13224 -36.77686,-5.10744 -36.77686,-5.10744 z m -100,4 c 28.5124,-5.78513 37.60331,-2.89256 37.60331,-2.89256 l 0,10.7438 c -16.1157,0.82644 -36.77686,2.89256 -36.77686,2.89256 z m 74.18182,-6.7438 -9.50413,7.43801 9.0909,11.98347 7.85125,-9.09091 z m 100,8 -9.50413,7.43801 6.19834,11.57025 10.74381,-8.67769 z m 23.40496,7.35537 c 32.2314,2.47933 34.23141,2.99174 52.41322,10.01653 l -8.26446,10.33058 C 388.6281,136.6281 365.55372,136.1157 365.55372,136.1157 z m -227.53719,-6.94215 -6.19835,9.91735 9.09091,7.43802 6.61157,-9.09091 z m -64.46281,16.94215 c 25.619833,-11.15703 38.01653,-10.7438 38.01653,-10.7438 l 4.13223,9.09091 c -8.67768,7.02479 -39.669421,14.04958 -39.669421,14.04958 z"
         inkscape:connector-curvature="0"
         sodipodi:nodetypes="ccccccccccccccccccccccccccccccccccc" />
      <path
         style="fill:#f2f2f2;stroke:#000000;stroke-width:4;stroke-linecap:butt;stroke-linejoin:miter;stroke-opacity:1"
         d="m 322.36364,62.28099 c 39.73882,-2.370514 39.81512,-57.570072 -0.92423,-55.028072 -40.73935,2.542 -38.81459,57.398586 0.92423,55.028072 z"
         id="path3052"
         inkscape:connector-curvature="0"
         sodipodi:nodetypes="zzz" />
      <path
         style="opacity:0.5;fill:#333333;stroke:none"
         d="m 293.26717,47.236645 c 0.0583,14.445549 48.85497,27.48091 58.01527,-9.160309 -3.62916,4.234019 -54.38611,15.813768 -58.01527,9.160309 z"
         id="path3054"
         inkscape:connector-curvature="0"
         sodipodi:nodetypes="ccc" />
      <path
         sodipodi:nodetypes="zzz"
         inkscape:connector-curvature="0"
         id="path3068"
         d="m 144.36364,66.28099 c 39.73882,-2.370514 39.81512,-57.570072 -0.92423,-55.028072 -40.73935,2.542 -38.81459,57.398586 0.92423,55.028072 z"
         style="fill:#f2f2f2;stroke:#000000;stroke-width:4;stroke-linecap:butt;stroke-linejoin:miter;stroke-opacity:1" />
      <path
         sodipodi:nodetypes="ccc"
         inkscape:connector-curvature="0"
         id="path3070"
         d="m 115.26717,51.236645 c 0.0583,14.445549 48.85497,27.48091 58.01527,-9.160309 -3.62916,4.234019 -54.38611,15.813768 -58.01527,9.160309 z"
         style="opacity:0.5;fill:#333333;stroke:none" />
      <path
         style="fill:#f2f2f2;stroke:#000000;stroke-width:4;stroke-linecap:butt;stroke-linejoin:miter;stroke-opacity:1"
         d="m 144.36364,66.28099 c 39.73882,-2.370514 39.81512,-57.570072 -0.92423,-55.028072 -40.73935,2.542 -38.81459,57.398586 0.92423,55.028072 z"
         id="path3072"
         inkscape:connector-curvature="0"
         sodipodi:nodetypes="zzz" />
      <path
         style="opacity:0.5;fill:#333333;stroke:none"
         d="m 115.26717,51.236645 c 0.0583,14.445549 48.85497,27.48091 58.01527,-9.160309 -3.62916,4.234019 -54.38611,15.813768 -58.01527,9.160309 z"
         id="path3074"
         inkscape:connector-curvature="0"
         sodipodi:nodetypes="ccc" />
      <path
         sodipodi:nodetypes="ccccccccccccccccccccccccccccc"
         inkscape:connector-curvature="0"
         id="path3107"
         d="M 35.066477,90.316433 C 92.282751,75.2027 143.31475,66.472026 143.31475,66.472026 c 17.27284,5.937538 81.25947,4.223954 81.25947,4.223954 l 0.58608,-14.222691 -7.63358,5.34351 -3.8168,-7.63359 2.29008,-5.34351 -2.29008,-10.68703 9.16031,1.52672 -2.29008,-8.39695 1.52672,-9.1603 -1.52672,-11.45038 4.58015,-5.3435104 7.63359,5.3435104 3.8168,-9.1603104 3.81679,5.34351 6.10687,6.8702304 -3.81679,9.16031 9.92366,0 6.87023,3.81679 -4.58015,9.16031 3.05343,8.39694 -13.74046,5.34352 0,9.92366 -8.39694,-8.39695 -1.11792,18.298148 c 0,0 56.85378,1.268063 85.46191,-4.669475 l 93.55857,20.160229 C 226.44755,70.344714 103.07827,76.822029 35.066477,90.316433 z"
         style="fill:#ff0000;stroke:#000000;stroke-width:4;stroke-linecap:butt;stroke-linejoin:miter;stroke-opacity:1" />
      <path
         inkscape:connector-curvature="0"
         id="path3127"
         d="m 234.9313,16.931299 -3.8168,29.77099"
         style="fill:none;stroke:#000000;stroke-width:1px;stroke-linecap:butt;stroke-linejoin:miter;stroke-opacity:1"
         sodipodi:nodetypes="cc" />
      <path
         inkscape:connector-curvature="0"
         id="path3129"
         d="m 252.48855,28.381679 -15.26718,3.05344"
         style="fill:none;stroke:#000000;stroke-width:1px;stroke-linecap:butt;stroke-linejoin:miter;stroke-opacity:1"
         sodipodi:nodetypes="cc" />
      <path
         inkscape:connector-curvature="0"
         id="path3131"
         d="m 227.29771,19.984739 6.10687,17.55725"
         style="fill:none;stroke:#000000;stroke-width:1px;stroke-linecap:butt;stroke-linejoin:miter;stroke-opacity:1"
         sodipodi:nodetypes="cc" />
      <path
         inkscape:connector-curvature="0"
         id="path3133"
         d="m 223.48092,47.465649 7.63358,-5.34351"
         style="fill:none;stroke:#000000;stroke-width:1px;stroke-linecap:butt;stroke-linejoin:miter;stroke-opacity:1"
         sodipodi:nodetypes="cc" />
      <path
         inkscape:connector-curvature="0"
         id="path3135"
         d="m 250.19847,39.832059 -14.50381,-2.29007"
         style="fill:none;stroke:#000000;stroke-width:1px;stroke-linecap:butt;stroke-linejoin:miter;stroke-opacity:1"
         sodipodi:nodetypes="cc" />
      <path
         style="fill:#ff0000;stroke:#000000;stroke-width:4;stroke-linecap:butt;stroke-linejoin:miter;stroke-opacity:1"
         d="M 36.165003,91.38944 C 26.449032,76.275707 30.767242,64.400632 30.767242,64.400632 l 6.477314,-12.954628 -6.477314,-11.3353 -3.778434,-5.397762 -7.556866,5.397762 -2.159105,-11.875076 -15.6535085,-3.238657 1.0795523,13.494405 9.1761952,10.255747 1.079552,9.176195 5.397762,8.096642 0,10.255747 7.556866,9.176195 -5.397762,15.113728 15.653509,-8.096638"
         id="path3215"
         inkscape:connector-curvature="0"
         sodipodi:nodetypes="cccccccccccccccc" />
      <path
         style="fill:none;stroke:#000000;stroke-width:1px;stroke-linecap:butt;stroke-linejoin:miter;stroke-opacity:1"
         d="m 7.5568664,33.093614 13.4944046,23.750151 8.636418,35.085451 0,0"
         id="path3985"
         inkscape:connector-curvature="0" />
      <path
         style="fill:none;stroke:#000000;stroke-width:1px;stroke-linecap:butt;stroke-linejoin:miter;stroke-opacity:1"
         d="m 26.449032,42.269809 -5.397761,10.795523 10.795523,0"
         id="path3987"
         inkscape:connector-curvature="0" />
      <path
         style="fill:none;stroke:#000000;stroke-width:1px;stroke-linecap:butt;stroke-linejoin:miter;stroke-opacity:1"
         d="M 27.528585,76.275707 25.909256,55.764213"
         id="path3989"
         inkscape:connector-curvature="0" />
      <path
         sodipodi:nodetypes="cccccccccccccccc"
         inkscape:connector-curvature="0"
         id="path3991"
         d="m 440.69888,89.38944 c 9.71597,-15.113733 5.39776,-26.988808 5.39776,-26.988808 l -6.47731,-12.954628 6.47731,-11.3353 3.77844,-5.397762 7.55686,5.397762 2.15911,-11.875076 15.65351,-3.238657 -1.07956,13.494405 -9.17619,10.255747 -1.07955,9.176195 -5.39776,8.096642 0,10.255747 -7.55687,9.176195 5.39776,15.113728 -15.65351,-8.096638"
         style="fill:#ff0000;stroke:#000000;stroke-width:4;stroke-linecap:butt;stroke-linejoin:miter;stroke-opacity:1" />
      <path
         style="fill:none;stroke:#000000;stroke-width:1px;stroke-linecap:butt;stroke-linejoin:miter;stroke-opacity:1"
         d="M 448.01422,85.451902 457.73019,56.303989 468.52571,33.63339"
         id="path3993"
         inkscape:connector-curvature="0" />
      <path
         style="fill:none;stroke:#000000;stroke-width:1px;stroke-linecap:butt;stroke-linejoin:miter;stroke-opacity:1"
         d="m 445.85512,46.048242 9.17619,20.511494"
         id="path3995"
         inkscape:connector-curvature="0" />
      <path
         style="fill:none;stroke:#000000;stroke-width:1px;stroke-linecap:butt;stroke-linejoin:miter;stroke-opacity:1"
         d="m 449.09377,41.190256 9.1762,13.494405"
         id="path3997"
         inkscape:connector-curvature="0" />
    </g>
  </g>
</svg>
