<?xml version="1.0" encoding="UTF-8" standalone="no"?>
<!-- Created with Inkscape (http://www.inkscape.org/) -->
<svg xmlns:dc="http://purl.org/dc/elements/1.1/" xmlns:cc="http://creativecommons.org/ns#" xmlns:rdf="http://www.w3.org/1999/02/22-rdf-syntax-ns#" xmlns:svg="http://www.w3.org/2000/svg" xmlns="http://www.w3.org/2000/svg" xmlns:sodipodi="http://sodipodi.sourceforge.net/DTD/sodipodi-0.dtd" xmlns:inkscape="http://www.inkscape.org/namespaces/inkscape" width="211.875" height="110.9186" id="svg3114" version="1.1" inkscape:version="0.48.4 r9939" sodipodi:docname="New document 2">
  <defs id="defs3116"/>
  <sodipodi:namedview id="base" pagecolor="#ffffff" bordercolor="#666666" borderopacity="1.0" inkscape:pageopacity="0.0" inkscape:pageshadow="2" inkscape:zoom="0.35" inkscape:cx="105.93395" inkscape:cy="55.459298" inkscape:document-units="px" inkscape:current-layer="layer1" showgrid="false" fit-margin-top="0" fit-margin-left="0" fit-margin-right="0" fit-margin-bottom="0"/>
  <metadata id="metadata3119">
    <rdf:RDF>
      <cc:Work rdf:about="">
        <dc:format>image/svg+xml</dc:format>
        <dc:type rdf:resource="http://purl.org/dc/dcmitype/StillImage"/>
        <cc:license rdf:resource=""/>
        <dc:title/>
        <dc:creator>
          <cc:Agent>
            <dc:title>Open Clip Art Library</dc:title>
          </cc:Agent>
        </dc:creator>
      </cc:Work>
    </rdf:RDF>
  </metadata>
  <g inkscape:label="Layer 1" inkscape:groupmode="layer" id="layer1">
    <g id="body">
      <path inkscape:connector-curvature="0" style="fill:#000000" d="m114.7,110.6   c-1.714,-0.4164 -3.351,-1.261 -4.209,-2.17   l-0.7368,-0.7812 -40.09,-0.1322   c-24.15,-0.0796 -40.15,-0.2205 -40.24,-0.3543 -0.0822,-0.1222 -0.3336,-0.29 -0.5587,-0.373 -0.3835,-0.1413 -0.4118,-2.881 -0.4486,-43.42 -0.0216,-23.8 -0.0296,-47.05 -0.0179,-51.67   l0.0214,-8.4 4.894,-0.06477 4.894,-0.06477 1.504,-1.566 1.504,-1.566 36.03,-0.04931   c31.62,-0.04327 36.12,-0.0052 36.74,0.3107 0.6313,0.3197 1.115,0.8893 1.936,2.28 0.2145,0.3636 0.3397,0.2704 0.96,-0.7144 0.3923,-0.6229 1.005,-1.284 1.361,-1.469 0.5478,-0.2846 6.333,-0.3366 37.4,-0.3366   l36.75,0 1.51,1.609 1.51,1.609 4.494,0.01091 4.494,0.01091 0.3796,0.96   c0.3426,0.8666 0.3731,5.924 0.3137,51.96 -0.0608,47.1 -0.0961,51.01 -0.4612,51.16 -0.2174,0.0897 -18.31,0.1702 -40.21,0.18   l-39.81,0.0169 -1.054,0.9716   c-2.187,2.015 -5.675,2.825 -8.85,2.054   z " id="path7788" sodipodi:nodetypes="cccsccsccccccsccccscccccsscscscc"/>
      <path sodipodi:nodetypes="ccscsscccscccsccscscssccccc" id="path7798" d="m199.2,4.997   c-0.4677,-0.0061 -0.8272,0.0091 -0.96,0.06 -0.1881,0.07219 -0.345,0.3313 -0.345,0.57 0,0.4353 0.3062,0.8517 1.987,2.708 0.4981,0.5498 0.9921,1.373 1.103,1.837 0.1104,0.4645 0.1945,9.559 0.18,20.21 -0.0145,10.65 0.0514,19.31 0.15,19.25 0.0986,-0.0609 0.0649,0.1947 -0.075,0.5625 -0.1398,0.3678 -0.1672,0.6919 -0.06,0.7275 0.1072,0.0356 0.1134,3.766 0.015,8.288 -0.1389,6.379 -0.1153,16.14 0.0525,24.06 0.003,0.132 -0.0494,4.02 -0.1125,8.64 -0.063,4.62 -0.1185,8.589 -0.12,8.82 -0.003,0.3982 -1.96,0.42 -37.76,0.42 -30.93,0 -37.83,0.055 -38.19,0.315 -0.4065,0.2972 -0.4085,0.3695 -0.045,1.072 0.2135,0.4129 0.39,1.237 0.39,1.83 0,0.5928 0.1054,1.136 0.2325,1.215 0.1271,0.0785 4.528,0.2025 9.78,0.2775 5.252,0.075 9.563,0.1532 9.585,0.1725 0.0218,0.0192 2.938,0.01 6.48,-0.0225 3.542,-0.0325 16.51,-0.0865 28.81,-0.12 16.62,-0.0452 22.44,-0.1301 22.65,-0.3375 0.2103,-0.2104 0.2828,-12.55 0.285,-50.08 0.002,-27.39 -0.0644,-49.9 -0.1425,-50.03 -0.1196,-0.1935 -2.489,-0.4243 -3.892,-0.4425   z " style="fill:#ff0000;fill-opacity:1" inkscape:connector-curvature="0"/>
      <path sodipodi:nodetypes="csssscccscccccccc" id="path7800" d="m31.73,5.197   c-0.7227,0.01558 -0.8269,0.1219 -1.05,0.345 -0.3817,0.3817 -0.4012,3.538 -0.2475,49.97 0.1451,43.81 0.2111,49.6 0.5325,49.92 0.4802,0.4806 10.4,0.6075 48.55,0.6075 28.36,0 28.64,-0.005 28.99,-0.48 0.2181,-0.298 0.3213,-0.8895 0.2775,-1.56   l-0.0675,-1.08 -37,-0.12   c-20.35,-0.066 -37.06,-0.177 -37.13,-0.2475 -0.1364,-0.1364 -0.3767,-44.23 -0.4125,-75.64   l-0.0225,-18.89 0.8625,-1.05   c1.034,-1.262 1.076,-1.594 0.2025,-1.635 -1.536,-0.07222 -2.501,-0.1211 -3.128,-0.1275 -0.1305,-0.0013 -0.2493,-0.0022 -0.3525,0   z " style="fill:#ff0000;fill-opacity:1" inkscape:connector-curvature="0"/>
      <path sodipodi:nodetypes="csscsccc" id="path7808" d="m117.2,99.6   c-2.312,0.0144 -3.338,0.3074 -4.95,1.418 -1.78,1.226 -2.338,2.175 -2.19,3.72 0.1512,1.574 1.125,2.937 2.737,3.817 1.509,0.824 2.008,0.9169 4.763,0.8625 1.648,-0.0325 2.421,-0.1684 3.255,-0.5625 1.361,-0.6431 2.753,-1.896 3.09,-2.782 1.236,-3.252 -2.126,-6.501 -6.705,-6.473   z " style="fill:#ff0000;fill-opacity:1" inkscape:connector-curvature="0"/>
    </g>
    <g id="clasped">
      <path sodipodi:nodetypes="sssss" style="fill:#ffff00;fill-opacity:1;stroke:#000000;stroke-width:1.20000005;stroke-miterlimit:4;stroke-opacity:1" d="m12.83,20.9   c6.786,0 12.25,4.274 12.25,9.582 0,5.309 -5.463,9.582 -12.25,9.582 -6.786,0 -12.25,-4.274 -12.25,-9.582 0,-5.309 5.463,-9.582 12.25,-9.582   z " id="rect7835" inkscape:connector-curvature="0"/>
      <path sodipodi:nodetypes="ccccc" style="fill:#ffff00;fill-opacity:1;stroke:#000000;stroke-width:1.07863605;stroke-miterlimit:4;stroke-opacity:1" d="m10.23,20.9 14.06,0 0,19.18 -14.06,0   z " id="rect7837" inkscape:connector-curvature="0"/>
      <path sodipodi:nodetypes="sssssssss" inkscape:connector-curvature="0" id="path7840" d="m7.634,40.8   c0,1.381 1.131,2.5 2.526,2.5   l0.5615,0   c1.394,0 2.526,-1.119 2.526,-2.5   l0,-21.11   c0,-1.381 -1.131,-2.5 -2.526,-2.5   l-0.5615,0   c-1.395,0 -2.526,1.119 -2.526,2.5   z " style="fill:#ffff00;fill-opacity:1;stroke:#000000;stroke-width:1.20000005;stroke-miterlimit:4;stroke-opacity:1;stroke-dasharray:none;display:inline"/>
      <path sodipodi:nodetypes="sssssssss" inkscape:connector-curvature="0" id="path7842" d="m22.33,40.8   c0,1.381 1.131,2.5 2.526,2.5   l0.5615,0   c1.394,0 2.526,-1.119 2.526,-2.5   l0,-21.11   c0,-1.381 -1.131,-2.5 -2.526,-2.5   l-0.5615,0   c-1.395,0 -2.526,1.119 -2.526,2.5   z " style="fill:#ffff00;fill-opacity:1;stroke:#000000;stroke-width:1.20000005;stroke-miterlimit:4;stroke-opacity:1;stroke-dasharray:none;display:inline"/>
      <path sodipodi:nodetypes="sssssssss" style="fill:#ffff00;fill-opacity:1;stroke:#000000;stroke-width:1.20000005;stroke-miterlimit:4;stroke-opacity:1;stroke-dasharray:none;display:inline" d="m205.6,40.8   c0,1.381 1.131,2.5 2.526,2.5   l0.5615,0   c1.394,0 2.526,-1.119 2.526,-2.5   l0,-21.11   c0,-1.381 -1.131,-2.5 -2.526,-2.5   l-0.5615,0   c-1.395,0 -2.526,1.119 -2.526,2.5   z " id="path7844" inkscape:connector-curvature="0"/>
      <path sodipodi:nodetypes="sssssssss" id="path7846" d="m205.6,90.8   c0,1.381 1.131,2.5 2.526,2.5   l0.5615,0   c1.394,0 2.526,-1.119 2.526,-2.5   l0,-21.11   c0,-1.381 -1.131,-2.5 -2.526,-2.5   l-0.5615,0   c-1.395,0 -2.526,1.119 -2.526,2.5   z " style="fill:#ffff00;fill-opacity:1;stroke:#000000;stroke-width:1.20000005;stroke-miterlimit:4;stroke-opacity:1;stroke-dasharray:none;display:inline" inkscape:connector-curvature="0"/>
      <path sodipodi:nodetypes="sssss" style="fill:#ffff00;fill-opacity:1;stroke:#000000;stroke-width:1.20000005;stroke-miterlimit:4;stroke-opacity:1" d="m12.83,70.9   c6.786,0 12.25,4.274 12.25,9.582 0,5.309 -5.463,9.582 -12.25,9.582 -6.786,0 -12.25,-4.274 -12.25,-9.582 0,-5.309 5.463,-9.582 12.25,-9.582   z " id="rect7849" inkscape:connector-curvature="0"/>
      <path sodipodi:nodetypes="ccccc" style="fill:#ffff00;fill-opacity:1;stroke:#000000;stroke-width:1.07863605;stroke-miterlimit:4;stroke-opacity:1" d="m10.23,70.8 14.06,0 0,19.18 -14.06,0   z " id="rect7851" inkscape:connector-curvature="0"/>
      <path sodipodi:nodetypes="sssssssss" inkscape:connector-curvature="0" style="fill:#ffff00;fill-opacity:1;stroke:#000000;stroke-width:1.20000005;stroke-miterlimit:4;stroke-opacity:1;stroke-dasharray:none;display:inline" d="m7.634,90.8   c0,1.381 1.131,2.5 2.526,2.5   l0.5615,0   c1.394,0 2.526,-1.119 2.526,-2.5   l0,-21.11   c0,-1.381 -1.131,-2.5 -2.526,-2.5   l-0.5615,0   c-1.395,0 -2.526,1.119 -2.526,2.5   z " id="path7854"/>
      <path sodipodi:nodetypes="sssssssss" inkscape:connector-curvature="0" style="fill:#ffff00;fill-opacity:1;stroke:#000000;stroke-width:1.20000005;stroke-miterlimit:4;stroke-opacity:1;stroke-dasharray:none;display:inline" d="m22.33,90.8   c0,1.381 1.131,2.5 2.526,2.5   l0.5615,0   c1.394,0 2.526,-1.119 2.526,-2.5   l0,-21.11   c0,-1.381 -1.131,-2.5 -2.526,-2.5   l-0.5615,0   c-1.395,0 -2.526,1.119 -2.526,2.5   z " id="path7856"/>
    </g>
    <g id="leaved">
      <path sodipodi:nodetypes="cccccccscscc" id="path7790" d="m159.8,1.697   c-19.48,0.02381 -40.86,0.185 -41.24,0.4275 -0.2784,0.1778 -0.7914,0.8708 -1.14,1.537   l-0.6375,1.215 0,16.74   c0.002,9.209 1.412,69.66 1.156,74.66 18.82,-2.523 30.39,-1.581 72.78,-2.027 1.59,-15.62 1.31,-66.23 1.298,-77.65 -0.0153,-14.99 0.0179,-14.31 -0.7725,-14.64 -0.3892,-0.1647 -10.61,-0.244 -23.27,-0.255 -2.638,-0.0023 -5.385,-0.0034 -8.167,0   z " style="fill:#ffff00;fill-opacity:1" inkscape:connector-curvature="0"/>
      <path sodipodi:nodetypes="csscccccccccccscc" id="path7792" d="m73.93,1.697   c-17.06,-0.0033 -31.24,0.05897 -31.5,0.1425 -0.4749,0.1507 -0.4808,0.3377 -0.3675,24.44 0.0628,13.36 0.12,34.11 0.1275,46.12 0.008,13.01 0.1072,21.98 0.24,22.19 0.1944,0.3074 4.615,0.3535 34.49,0.36   l34.27,0.008 1.095,0.645   c0.6008,0.3532 1.519,1.109 2.04,1.68 0.8787,0.9625 0.9636,1 1.162,0.555 -0.5899,-2.361 0.2209,7.553 0.135,-92.96   l-0.7875,-1.395 -0.7875,-1.402 -2.145,-0.1875   c-1.183,-0.1037 -3.232,-0.1876 -4.552,-0.1875 -1.32,0 -16.36,-0.0042 -33.43,-0.0075   z " style="fill:#ffff00;fill-opacity:1" inkscape:connector-curvature="0"/>
      <path sodipodi:nodetypes="cccccccccsscc" id="path7794" d="m40.23,2.997   c-0.1024,0 -0.6083,0.49 -1.118,1.087 -0.5092,0.5975 -1.286,1.489 -1.732,1.98 -0.4462,0.4915 -1.07,1.279 -1.388,1.755   l-0.5775,0.87 0.007,23.73   c0.0116,30.46 0.2234,66.82 0.39,67.09 0.2169,0.351 0.8457,-0.1438 3.075,-2.43   l2.138,-2.19 -0.15,-45.41   C40.83,24.5 40.63,3.797 40.53,3.497   c-0.0845,-0.297 -0.2351,-0.54 -0.3375,-0.54   z " style="fill:#ffff00;fill-opacity:1" inkscape:connector-curvature="0"/>
      <path sodipodi:nodetypes="cccccccsscccccccc" id="path7796" d="m194,3.897   c-0.0954,-0.0046 -0.1813,0.02369 -0.2775,0.06749   l-0.555,0.2475 0.045,11.72   c0.8553,0.6741 -0.0671,31.03 -0.0525,49.84 0.0132,15.92 0.0807,29.09 0.15,29.27 0.1949,0.5079 1.95,1.311 2.49,1.14 0.4664,-0.148 0.4765,-0.3938 0.45,-12.79 -0.0467,-21.9 -0.0391,-22.36 0.3675,-22.36 0.3143,0 0.3661,2.24 0.42,18.16   l0.06,18.16 1.162,0.8025   c1.38,0.951 1.508,0.9689 1.68,0.2625 0.0723,-0.297 0.1284,-20.21 0.1275,-44.25   l0,-43.71 -2.895,-3.368   c-2.184,-2.542 -2.759,-3.168 -3.173,-3.187   z " style="fill:#ffff00;fill-opacity:1" inkscape:connector-curvature="0"/>
      <path sodipodi:nodetypes="ccccccccscscsccccc" id="path7804" d="m176.4,95.9   c-4.782,0 -11.01,0.008 -19.15,0.0225   l-34.56,0.06 -1.32,0.7425   c-0.726,0.409 -1.35,0.9031 -1.388,1.095 -0.0428,0.2181 0.5423,0.671 1.56,1.215   l1.628,0.87 37.26,0.0225   c31.59,0.0144 37.26,-0.0332 37.26,-0.315 0,-0.1828 -0.297,-0.533 -0.66,-0.7725 -0.6265,-0.4134 -2.026,-0.4349 -27.61,-0.48 -14.83,-0.0261 -27.01,-0.1092 -27.08,-0.18 -0.5715,-0.5715 0.6703,-0.6476 9.473,-0.615 5.105,0.0189 16.59,0.0225 25.52,0.008 15.32,-0.0257 16.24,-0.0538 16.18,-0.45 -0.0307,-0.231 -0.4249,-0.6085 -0.8775,-0.84 -0.5812,-0.2973 -1.891,-0.3822 -16.24,-0.3825   z " style="fill:#ffff00;fill-opacity:1" inkscape:connector-curvature="0"/>
      <path sodipodi:nodetypes="cccscccssccc" id="path7806" d="m41.63,96.1 -2.31,2.25   c-1.885,1.837 -2.263,2.317 -2.032,2.595 0.1556,0.1875 0.2125,0.41 0.1275,0.495 -0.085,0.085 15.87,0.159 35.46,0.1575   l35.62,-0.007 1.462,-0.7725   c3.217,-1.702 3.458,-1.86 3.458,-2.317 0,-0.5942 -1.565,-1.885 -2.64,-2.175 -0.508,-0.137 -14.33,-0.2239 -34.99,-0.225   l-34.16,0   z " style="fill:#ffff00;fill-opacity:1" inkscape:connector-curvature="0"/>
      <path sodipodi:nodetypes="ccssscc" id="path7810" d="m44.13,99.4   c-0.0838,-0.1355 -0.0494,-0.3493 0.0764,-0.475 0.1402,-0.1402 4.398,-0.2018 11.01,-0.1591 9.39,0.0606 10.78,0.116 10.78,0.4296 0,0.314 -1.386,0.3658 -10.85,0.4054 -7.213,0.0302 -10.91,-0.0372 -11.01,-0.2009   z " style="fill:#000000;fill-opacity:1" inkscape:connector-curvature="0"/>
      <path sodipodi:nodetypes="cccscccssc" id="path7812" d="m96.33,34   c-0.0735,-0.0735 -9.569,-0.1396 -21.1,-0.1468 -11.53,-0.007 -21.21,-0.0668 -21.51,-0.1324 -0.408,-0.0901 -1.035,-0.6413 -0.54,-0.8132   l0,-0.694 22.32,0 22.32,0 0,0.5804   c0,0.9293 -0.2529,1.34 -0.8257,1.34 -0.2939,0 -0.5945,-0.0601 -0.668,-0.1336   z " style="fill:#000000;fill-opacity:1" inkscape:connector-curvature="0"/>
      <path sodipodi:nodetypes="cscccccsccc" id="path7814" d="m96.23,46.3   c-0.3937,-0.1592 -7.862,-0.2212 -21.72,-0.1648   l-21.12,0.0778 -0.0752,-0.78 -0.0752,-0.78 22.34,0 22.34,0 0,0.4958   c0,0.6638 -0.4275,1.428 -0.7884,1.409 -0.1603,-0.008 -0.5616,-0.1244 -0.8916,-0.2578   z " style="fill:#000000;fill-opacity:1" inkscape:connector-curvature="0"/>
      <path sodipodi:nodetypes="cscccccsccc" id="path7822" d="M96.13,21.2   C95.73,21 88.33,21 74.43,21   l-21.12,0.0778 -0.0752,-0.78 -0.0752,-0.78 22.33,0 22.34,0 0,0.4958   c0,0.6638 -0.4275,1.428 -0.7884,1.409 -0.1603,-0.008 -0.5615,-0.1244 -0.8915,-0.2578   z " style="fill:#000000;fill-opacity:1" inkscape:connector-curvature="0"/>
      <path sodipodi:nodetypes="cscccccsccc" style="fill:#000000;fill-opacity:1" d="m174.9,21.2   c-0.3937,-0.1592 -7.862,-0.2212 -21.72,-0.1648   l-21.12,0.0778 -0.0752,-0.78 -0.0752,-0.78 22.34,0 22.34,0 0,0.4958   c0,0.6638 -0.4275,1.428 -0.7884,1.409 -0.1603,-0.008 -0.5615,-0.1244 -0.8915,-0.2578   z " id="path7824" inkscape:connector-curvature="0"/>
      <path sodipodi:nodetypes="cccscccssc" style="fill:#000000;fill-opacity:1" d="m175,34   c-0.0735,-0.0735 -9.569,-0.1396 -21.1,-0.1468 -11.53,-0.007 -21.21,-0.0668 -21.51,-0.1324 -0.408,-0.09 -1.035,-0.6413 -0.54,-0.8132   l0,-0.694 22.32,0 22.32,0 0,0.5804   c0,0.9293 -0.2529,1.34 -0.8257,1.34 -0.2939,0 -0.5945,-0.0601 -0.668,-0.1336   z " id="path7826" inkscape:connector-curvature="0"/>
      <path sodipodi:nodetypes="cscscccc" style="fill:#000000;fill-opacity:1" d="m169.9,46.4   c-2.904,-0.0858 -12.33,-0.119 -20.95,-0.0739 -8.618,0.0452 -15.94,0.0152 -16.26,-0.0666 -0.7013,-0.176 -1.08,-1.229 -0.5607,-1.558 0.4259,-0.2697 43.67,-0.2786 44.09,-0.009 0.1911,0.1212 0.2868,0.5263 0.24,1.016 -0.0924,0.9672 0.5403,0.9005 -6.558,0.6909   z " id="path7828" inkscape:connector-curvature="0"/>
      <path sodipodi:nodetypes="cscccccsccc" style="fill:#000000;fill-opacity:1" d="m174.9,58.7   c-0.3937,-0.1592 -7.862,-0.2212 -21.72,-0.1648   l-21.12,0.0778 -0.0752,-0.78 -0.0752,-0.78 22.34,0 22.34,0 0,0.4958   c0,0.6638 -0.4275,1.428 -0.7884,1.409 -0.1603,-0.008 -0.5615,-0.1244 -0.8915,-0.2578   z " id="path7830" inkscape:connector-curvature="0"/>
      <path sodipodi:nodetypes="cccscccssc" style="fill:#000000;fill-opacity:1" d="m175,71.2   c-0.0735,-0.0735 -9.569,-0.1396 -21.1,-0.1468 -11.53,-0.007 -21.21,-0.0668 -21.51,-0.1324 -0.408,-0.09 -1.035,-0.6413 -0.54,-0.8132   l0,-0.694 22.32,0 22.32,0 0,0.5804   c0,0.9293 -0.2529,1.34 -0.8257,1.34 -0.2939,0 -0.5945,-0.0601 -0.668,-0.1336   z " id="path7832" inkscape:connector-curvature="0"/>
      <path sodipodi:nodetypes="cscscccc" id="path7736" d="m91.33,71.2   c-2.904,-0.0858 -12.33,-0.119 -20.95,-0.0739 -8.618,0.0452 -15.94,0.0152 -16.26,-0.0666 -0.7013,-0.176 -1.08,-1.229 -0.5607,-1.558 0.4259,-0.2697 43.67,-0.2786 44.09,-0.009 0.1911,0.1212 0.2868,0.5263 0.24,1.016 -0.0923,0.9672 0.5403,0.9005 -6.558,0.6909   z " style="fill:#000000;fill-opacity:1" inkscape:connector-curvature="0"/>
      <path sodipodi:nodetypes="cccscccssc" id="path7738" d="m96.43,58.8   c-0.0735,-0.0735 -9.569,-0.1396 -21.1,-0.1468 -11.53,-0.007 -21.21,-0.0668 -21.51,-0.1324 -0.408,-0.0901 -1.035,-0.6413 -0.54,-0.8132   l0,-0.694 22.32,0 22.32,0 0,0.5804   c0,0.9293 -0.2529,1.34 -0.8257,1.34 -0.2939,0 -0.5945,-0.0601 -0.668,-0.1336   z " style="fill:#000000;fill-opacity:1" inkscape:connector-curvature="0"/>
    </g>
  </g>
</svg>
