<?xml version="1.0" encoding="UTF-8" standalone="no"?>
<svg xmlns:dc="http://purl.org/dc/elements/1.1/" xmlns:cc="http://creativecommons.org/ns#" xmlns:rdf="http://www.w3.org/1999/02/22-rdf-syntax-ns#" xmlns:svg="http://www.w3.org/2000/svg" xmlns="http://www.w3.org/2000/svg" xmlns:xlink="http://www.w3.org/1999/xlink" xmlns:sodipodi="http://sodipodi.sourceforge.net/DTD/sodipodi-0.dtd" xmlns:inkscape="http://www.inkscape.org/namespaces/inkscape" width="600" height="780" viewBox="0 0 600 780" id="svg2" version="1.1" inkscape:version="0.48.4 r9939" sodipodi:docname="whirlpool.svg">
  <metadata id="metadata22">
    <rdf:RDF>
      <cc:Work rdf:about="">
        <dc:format>image/svg+xml</dc:format>
        <dc:type rdf:resource="http://purl.org/dc/dcmitype/StillImage"/>
        <dc:title>Heraldic gurges (whirlpool) / Gorges</dc:title>
        <dc:creator>
          <cc:Agent>
            <dc:title>http://commons.wikimedia.org/wiki/User:AnonMoos</dc:title>
          </cc:Agent>
        </dc:creator>
      </cc:Work>
    </rdf:RDF>
  </metadata>
  <sodipodi:namedview pagecolor="#ffffff" bordercolor="#666666" borderopacity="1" objecttolerance="10" gridtolerance="10" guidetolerance="10" inkscape:pageopacity="0" inkscape:pageshadow="2" inkscape:window-width="640" inkscape:window-height="480" id="namedview20" showgrid="false" inkscape:zoom="0.3025641" inkscape:cx="-210.63559" inkscape:cy="390" inkscape:current-layer="svg2"/>
  <title id="title4">Heraldic gurges (whirlpool) / Gorges</title>
  <defs id="defs6">
    <path id="Shield" d="M300,776.849  C300,776.849 3,665.094 3,381.076V3H597V381.076 C597,665.094 300,776.849 300,776.849Z"/>
    <clipPath id="clip1">
      <use xlink:href="#Shield" id="use10"/>
    </clipPath>
  </defs>
  <use xlink:href="#Shield" style="fill:#ffffff" id="use12"/>
  <g id="g14" style="fill:#ffff00">
    <path d="M756.3,351   C755.4,313.2 748.6,269.9 737.9,233.7 727.3,197.6 709.7,157.8 690.1,125.8 670.6,93.93 643.5,60.27 616.4,34.55 589.6,8.997 554.9,-16.31 522.3,-34.03 489.9,-51.65 450.1,-66.99 414.3,-75.63 378.7,-84.2 336.6,-88.68 300,-87.75   c-36.34,0.9256 -77.94,7.471 -112.8,17.78 -34.62,10.24 -72.86,27.22 -103.7,46.07 -30.58,18.73 -62.9,44.86 -87.59,70.86 -24.52,25.83 -48.8,59.21 -65.8,90.51 -16.88,31.09 -31.58,69.35 -39.84,103.8 -8.196,34.16 -12.46,74.65 -11.53,109.8 0.925,34.88 7.25,74.81 17.18,108.3 9.858,33.22 26.19,69.89 44.32,99.42 18,29.32 43.1,60.29 68.08,83.95 24.8,23.49 56.84,46.74 86.88,63.01 29.83,16.15 66.53,30.21 99.52,38.08   C227.5,751.5 266.3,755.6 300,754.7 333.4,753.7 371.7,747.6 403.7,738.1 435.5,728.6 470.6,712.9 498.9,695.5   c28.06,-17.27 57.69,-41.34 80.32,-65.29 22.46,-23.77 44.68,-54.47 60.22,-83.24 15.42,-28.56 28.83,-63.71 36.33,-95.29   C683.2,420.3 687,383.2 686.1,351 685.2,319 679.3,282.5 670.1,251.8 661,221.4 646,187.9 629.3,160.9 612.8,134.1 589.7,105.8 566.8,84.19 544.1,62.76 514.7,41.57 487.2,26.76 459.9,12.07 426.3,-0.6968 396.1,-7.818 366.2,-14.88 330.7,-18.48 300,-17.55   c-30.5,0.925 -65.41,6.588 -94.63,15.38 -28.99,8.725 -60.98,23.12 -86.72,39.06 -25.53,15.81 -52.48,37.82 -73.05,59.71 -20.4,21.71 -40.56,49.72 -54.64,75.97 -13.96,26.04 -26.08,58.06 -32.82,86.82   C-48.55,287.9 -51.93,321.7 -51,351   c0.9243,29.04 6.367,62.27 14.79,90.09 8.347,27.58 22.1,58.01 37.31,82.49 15.08,24.27 36.07,49.88 56.92,69.41 20.68,19.37 47.35,38.5 72.34,51.85 24.77,13.24 55.23,24.71 82.59,31.07   C240.1,682.2 272.2,685.4 300,684.5 327.6,683.5 359.1,678.3 385.5,670.3 411.7,662.3 440.6,649.2 463.8,634.7 486.8,620.4 511.1,600.4 529.6,580.6 547.9,560.9 566,535.6 578.6,511.9 591.2,488.4 602,459.5 608,433.5 613.9,407.8 616.8,377.4 615.9,351 615,324.9 610,295 602.3,270 594.7,245.2 582.3,217.9 568.5,196 554.9,174.2 536,151.3 517.2,133.8 498.6,116.5 474.6,99.45 452.1,87.56 429.9,75.78 402.5,65.6 378,59.99 353.7,54.43 324.9,51.72 300,52.65   c-24.67,0.9237 -52.87,5.705 -76.46,12.99 -23.36,7.214 -49.1,19.02 -69.79,32.05 -20.48,12.89 -42.07,30.79 -58.51,48.55 -16.28,17.58 -32.32,40.24 -43.49,61.44 -11.05,20.98 -20.58,46.76 -25.81,69.89 -5.179,22.89 -7.677,49.98 -6.743,73.43 0.9237,23.21 5.484,49.74 12.39,71.92 6.837,21.95 18,46.13 30.29,65.56 12.16,19.22 29.03,39.47 45.76,54.88 16.55,15.24 37.86,30.26 57.8,40.7 19.72,10.32 43.94,19.2 65.66,24.06 21.49,4.801 46.9,7.078 68.89,6.144 21.75,-0.923 46.61,-5.264 67.38,-11.8 20.54,-6.459 43.16,-16.98 61.32,-28.54 17.96,-11.43 36.86,-27.28 51.24,-42.97 14.21,-15.52 28.2,-35.49 37.91,-54.17 9.591,-18.46 17.83,-41.11 22.3,-61.43   C544.6,395.3 546.6,371.5 545.7,351   c-0.923,-20.3 -5.043,-43.47 -11.2,-62.83 -6.081,-19.13 -15.95,-40.19 -26.79,-57.09 -10.7,-16.69 -25.52,-34.26 -40.18,-47.61 -14.49,-13.18 -33.12,-26.14 -50.53,-35.12 -17.2,-8.863 -38.29,-16.45 -57.19,-20.55   C341.1,123.8 319.1,121.9 300,122.8   c-18.84,0.9224 -40.34,4.822 -58.29,10.6 -17.72,5.703 -37.22,14.93 -52.86,25.03 -15.43,9.974 -31.66,23.76 -43.97,37.4 -12.15,13.46 -24.09,30.75 -32.33,46.9 -8.134,15.93 -15.08,35.46 -18.8,52.96 -3.67,17.26 -5.285,37.64 -4.35,55.26 0.9217,17.38 4.601,37.21 10,53.75 5.325,16.31 13.9,34.25 23.28,48.62 9.244,14.17 22,29.05 34.61,40.34 12.42,11.12 28.38,22.03 43.26,29.54 14.67,7.405 32.64,13.7 48.73,17.04 15.85,3.293 34.56,4.688 50.72,3.752 15.92,-0.9211 34.07,-4.38 49.21,-9.404 14.9,-4.947 31.28,-12.88 44.39,-21.53 12.91,-8.514 26.45,-20.24 36.7,-31.82 10.09,-11.39 19.97,-26 26.75,-39.63 6.677,-13.41 12.33,-29.82 15.29,-44.5   C475.3,382.7 476.4,365.7 475.5,351   c-0.9211,-14.46 -4.158,-30.94 -8.806,-44.67 -4.569,-13.5 -11.85,-28.31 -19.77,-40.16 -7.784,-11.64 -18.48,-23.85 -29.03,-33.07 -10.36,-9.06 -23.63,-17.91 -35.99,-23.96 -12.14,-5.948 -26.99,-10.95 -40.26,-13.54   C328.6,193.1 313.2,192.1 300,193   c-13,0.9198 -27.81,3.937 -40.12,8.208 -12.09,4.191 -25.35,10.83 -35.93,18.02 -10.38,7.055 -21.25,16.73 -29.43,26.24 -8.029,9.329 -15.85,21.26 -21.17,32.36 -5.22,10.88 -9.577,24.17 -11.79,36.03 -2.163,11.62 -2.896,25.31 -1.958,37.1 0.9191,11.55 3.715,24.67 7.61,35.58 3.812,10.68 9.804,22.38 16.27,31.69 6.325,9.118 14.97,18.64 23.45,25.8 8.297,6.999 18.89,13.79 28.72,18.38 9.616,4.492 21.34,8.203 31.8,10.03 10.22,1.788 22.22,2.3 32.55,1.361 10.09,-0.9172 21.54,-3.494 31.04,-7.012   C340.3,463.4 350.4,458.1 358.5,452.3 366.4,446.7 374.5,439.1 380.7,431.7 386.6,424.4 392.4,415.1 396.3,406.6 400,398.2 403.1,388.1 404.5,379 405.9,370.2 406.2,359.9 405.3,351 404.4,342.4 402,332.6 398.9,324.5 395.8,316.6 391.1,308.1 386.1,301.3 381.3,294.7 374.7,287.8 368.3,282.7 362,277.8 354.1,273.1 346.8,269.9 339.7,266.9 331.1,264.5 323.5,263.4 316.1,262.4 307.4,262.3 300,263.2   c-7.171,0.9133 -15.28,3.049 -21.95,5.816 -6.456,2.675 -13.47,6.727 -19,11.01 -5.334,4.133 -10.84,9.691 -14.89,15.08 -3.911,5.2 -7.618,11.77 -10.02,17.82 -2.311,5.825 -4.083,12.87 -4.772,19.1 -0.6623,5.989 -0.5135,12.98 0.4336,18.93 0.9093,5.714 2.824,12.14 5.217,17.41 2.294,5.05 5.7,10.51 9.254,14.76 3.4,4.074 7.931,8.239 12.29,11.26 4.167,2.884 9.398,5.563 14.18,7.228 4.56,1.587 10.05,2.713 14.87,3.019   C290.2,405 295.5,404.6 300,403.6 304.3,402.7 309,401.1 312.9,399 316.5,397.1 320.4,394.4 323.4,391.5 326.2,388.9 329,385.4 331,382 332.9,378.9 334.5,375 335.5,371.5 336.3,368.2 336.8,364.2 336.7,360.8 336.7,357.7 336.1,354 335.1,351 334.2,348.2 332.7,345.1 331.1,342.7 329.6,340.4 327.4,338.1 325.3,336.4 323.4,334.8 320.9,333.3 318.6,332.4 316.5,331.5 314,330.9 311.7,330.7 309.7,330.6 307.3,330.7 305.3,331.2 303.5,331.7 301.5,332.5 300,333.4   c-1.37,0.8725 -2.793,2.137 -3.785,3.423 -0.8738,1.134 -1.663,2.621 -2.065,3.994 -0.3526,1.205 -0.5046,2.681 -0.3548,3.928 0.1319,1.097 0.5472,2.346 1.139,3.28 0.5313,0.8384 1.379,1.677 2.241,2.168   C298,350.7 299.1,351 300,351 300.9,351 302,351.3 302.8,351.8 303.7,352.2 304.5,353.1 305.1,353.9 305.7,354.9 306.1,356.1 306.2,357.2 306.4,358.5 306.2,359.9 305.9,361.1 305.4,362.5 304.7,364 303.8,365.1 302.8,366.4 301.4,367.7 300,368.6 298.5,369.5 296.5,370.3 294.7,370.8 292.7,371.3 290.3,371.4 288.3,371.3 286,371.1 283.5,370.5 281.4,369.6 279.1,368.7 276.6,367.2 274.7,365.6 272.6,363.9 270.4,361.6 268.9,359.3 267.3,356.9 265.8,353.8 264.9,351   c-0.9631,-3.026 -1.553,-6.667 -1.629,-9.842 -0.08171,-3.408 0.3985,-7.337 1.266,-10.63 0.927,-3.523 2.579,-7.417 4.44,-10.55 1.981,-3.335 4.807,-6.839 7.624,-9.506 2.989,-2.829 6.885,-5.59 10.53,-7.501   C291,300.9 295.7,299.3 300,298.4   c4.49,-0.9528 9.803,-1.322 14.38,-1.031 4.819,0.306 10.31,1.432 14.87,3.019 4.786,1.665 10.02,4.344 14.18,7.228 4.363,3.02 8.894,7.185 12.29,11.26 3.554,4.258 6.96,9.713 9.254,14.76   C367.4,338.9 369.3,345.3 370.2,351   c0.9471,5.951 1.096,12.94 0.4336,18.93   C369.9,376.2 368.2,383.2 365.9,389 363.5,395.1 359.8,401.6 355.8,406.8 351.8,412.2 346.3,417.8 340.9,421.9 335.4,426.2 328.4,430.3 322,432.9 315.3,435.7 307.2,437.8 300,438.8   c-7.411,0.9432 -16.07,0.8717 -23.47,-0.1645   C268.9,437.5 260.3,435.1 253.2,432.1   c-7.31,-3.132 -15.22,-7.867 -21.45,-12.81 -6.422,-5.09 -13.01,-11.93 -17.87,-18.53 -5.007,-6.789 -9.706,-15.36 -12.76,-23.23   C198,369.4 195.6,359.6 194.7,351   c-0.9412,-8.87 -0.6487,-19.2 0.7631,-28.01 1.45,-9.046 4.514,-19.21 8.278,-27.56 3.864,-8.573 9.626,-17.82 15.6,-25.09 6.123,-7.452 14.31,-15.07 22.16,-20.66 8.054,-5.735 18.19,-11.08 27.46,-14.51 9.498,-3.518 20.95,-6.094 31.04,-7.012 10.33,-0.9393 22.34,-0.4264 32.55,1.361 10.45,1.828 22.18,5.54 31.8,10.03 9.835,4.594 20.43,11.39 28.72,18.38 8.482,7.155 17.13,16.68 23.45,25.8 6.463,9.318 12.45,21.01 16.27,31.69 3.894,10.91 6.69,24.04 7.61,35.58 0.938,11.79 0.2048,25.47 -1.958,37.1 -2.208,11.86 -6.566,25.15 -11.79,36.03 -5.325,11.1 -13.14,23.03 -21.17,32.36   C397.3,466 386.4,475.7 376.1,482.7 365.5,489.9 352.2,496.6 340.1,500.7 327.8,505 313,508 300,509   c-13.25,0.9367 -28.6,-0.0169 -41.64,-2.556 -13.27,-2.586 -28.12,-7.591 -40.26,-13.54 -12.36,-6.055 -25.63,-14.9 -35.99,-23.96 -10.54,-9.22 -21.24,-21.42 -29.03,-33.07 -7.92,-11.84 -15.2,-26.66 -19.77,-40.16   C128.7,381.9 125.4,365.5 124.5,351   c-0.936,-14.7 0.2379,-31.74 3.155,-46.18 2.964,-14.68 8.614,-31.09 15.29,-44.5 6.785,-13.62 16.66,-28.23 26.75,-39.63 10.25,-11.57 23.8,-23.3 36.7,-31.82 13.11,-8.648 29.49,-16.58 44.39,-21.53 15.13,-5.024 33.29,-8.482 49.21,-9.404 16.16,-0.9354 34.87,0.4596 50.72,3.752 16.09,3.343 34.06,9.64 48.73,17.04 14.89,7.515 30.84,18.42 43.26,29.54 12.6,11.28 25.36,26.17 34.61,40.34 9.377,14.37 17.95,32.31 23.28,48.62 5.401,16.54 9.08,36.37 10,53.75 0.9347,17.62 -0.6805,38 -4.35,55.26 -3.721,17.5 -10.66,37.03 -18.8,52.96 -8.244,16.15 -20.18,33.44 -32.33,46.9   C442.8,519.8 426.6,533.5 411.1,543.5 395.5,553.6 376,562.8 358.3,568.6 340.3,574.3 318.8,578.2 300,579.1   c-19.08,0.9341 -41.14,-0.9016 -59.81,-4.949 -18.91,-4.098 -40,-11.69 -57.19,-20.55 -17.41,-8.974 -36.04,-21.94 -50.53,-35.12 -14.67,-13.35 -29.48,-30.91 -40.18,-47.61 -10.83,-16.9 -20.71,-37.96 -26.79,-57.09   C59.34,394.5 55.22,371.3 54.3,351   c-0.9341,-20.54 1.123,-44.27 5.546,-64.35 4.477,-20.31 12.71,-42.97 22.3,-61.43 9.703,-18.67 23.69,-38.65 37.91,-54.17 14.38,-15.7 33.28,-31.54 51.24,-42.97 18.16,-11.56 40.78,-22.08 61.32,-28.54   C253.4,93.01 278.2,88.67 300,87.75   c22,-0.9334 47.41,1.344 68.89,6.144 21.72,4.854 45.94,13.74 65.66,24.06 19.94,10.43 41.25,25.45 57.8,40.7 16.73,15.41 33.6,35.66 45.76,54.88 12.29,19.42 23.46,43.61 30.29,65.56 6.91,22.18 11.47,48.71 12.39,71.92 0.9334,23.45 -1.565,50.54 -6.743,73.43 -5.232,23.13 -14.76,48.91 -25.81,69.89 -11.16,21.2 -27.21,43.85 -43.49,61.44 -16.44,17.76 -38.03,35.66 -58.51,48.55 -20.69,13.02 -46.43,24.83 -69.79,32.05   C352.9,643.6 324.7,648.4 300,649.4   c-24.91,0.9328 -53.67,-1.785 -77.98,-7.34 -24.54,-5.61 -51.88,-15.79 -74.12,-27.56 -22.46,-11.89 -46.46,-28.97 -65.07,-46.27 -18.79,-17.47 -37.72,-40.4 -51.34,-62.15 -13.75,-21.95 -26.21,-49.26 -33.8,-74.02   C-9.974,407 -14.98,377.1 -15.9,351   c-0.9328,-26.37 2.006,-56.81 7.938,-82.52 5.988,-25.95 16.81,-54.85 29.32,-78.36 12.62,-23.73 30.73,-49.06 49.06,-68.7 18.5,-19.82 42.77,-39.78 65.78,-54.13 23.21,-14.48 52.08,-27.58 78.25,-35.55 26.4,-8.04 57.96,-13.26 85.55,-14.19 27.83,-0.9328 59.94,2.227 87.06,8.537 27.36,6.365 57.82,17.83 82.59,31.07 24.99,13.35 51.66,32.48 72.34,51.85 20.85,19.54 41.84,45.14 56.92,69.41 15.21,24.48 28.96,54.91 37.31,82.49   C644.6,288.7 650.1,322 651,351   c0.9321,29.29 -2.447,63.07 -9.134,91.6 -6.743,28.77 -18.86,60.79 -32.82,86.82 -14.08,26.25 -34.24,54.27 -54.64,75.97   C533.8,627.3 506.9,649.3 481.4,665.1 455.6,681 423.6,695.4 394.6,704.2 365.4,713 330.5,718.6 300,719.5 269.3,720.5 233.8,716.9 203.9,709.8 173.7,702.7 140.1,689.9 112.8,675.2   c-27.51,-14.81 -56.87,-36 -79.61,-57.43 -22.92,-21.6 -45.96,-49.89 -62.5,-76.68 -16.67,-27 -31.71,-60.55 -40.81,-90.95   C-79.29,419.5 -85.18,383 -86.1,351   c-0.9321,-32.2 2.889,-69.34 10.33,-100.7 7.498,-31.58 20.91,-66.73 36.33,-95.29 15.54,-28.78 37.76,-59.47 60.22,-83.24 22.63,-23.95 52.26,-48.02 80.32,-65.29 28.27,-17.4 63.38,-33.09 95.18,-42.57   C228.3,-45.62 266.6,-51.73 300,-52.65   c33.66,-0.9315 72.47,3.11 105.2,10.93 32.99,7.876 69.69,21.93 99.52,38.08 30.04,16.27 62.08,39.52 86.88,63.01 24.98,23.66 50.08,54.63 68.08,83.95 18.12,29.53 34.46,66.2 44.32,99.42   C713.9,276.2 720.3,316.1 721.2,351 722.1,386.1 717.9,426.6 709.7,460.8 701.4,495.2 686.7,533.4 669.8,564.5 652.8,595.8 628.6,629.2 604,655 579.3,681 547,707.2 516.5,725.9 485.7,744.8 447.4,761.7 412.8,772 377.9,782.3 336.3,788.8 300,789.8 263.4,790.7 221.3,786.2 185.7,777.6 149.9,769 110.1,753.6 77.7,736 45.13,718.3 10.42,693 -16.45,667.4 -43.49,641.7 -70.65,608.1 -90.1,576.2 -109.7,544.2 -127.3,504.4 -137.9,468.3 -148.6,432.1 -155.4,388.8 -156.3,351   c-0.9315,-38.04 3.772,-81.87 12.72,-118.9 9.008,-37.22 25,-78.6 43.34,-112.2 18.46,-33.83 44.79,-69.89 71.38,-97.78 26.75,-28.07 61.75,-56.26 94.86,-76.44 33.32,-20.31 74.67,-38.59 112.1,-49.58   C215.8,-114.9 260.7,-121.9 300,-122.9   c39.5,-0.9315 85.01,3.992 123.4,13.32 38.63,9.386 81.57,26.03 116.5,45.1 35.09,19.18 72.49,46.55 101.4,74.16 29.1,27.79 58.32,64.12 79.23,98.49 21.04,34.58 39.96,77.5 51.33,116.3   C783.3,263.7 790.5,310.3 791.4,351   z " id="path16" inkscape:connector-curvature="0" style="fill:#ffff00"/>
  </g>
</svg>
