<?xml version="1.0" encoding="UTF-8" standalone="no"?>
<!-- Created with Inkscape (http://www.inkscape.org/) -->

<svg
   xmlns:dc="http://purl.org/dc/elements/1.1/"
   xmlns:cc="http://creativecommons.org/ns#"
   xmlns:rdf="http://www.w3.org/1999/02/22-rdf-syntax-ns#"
   xmlns:svg="http://www.w3.org/2000/svg"
   xmlns="http://www.w3.org/2000/svg"
   xmlns:sodipodi="http://sodipodi.sourceforge.net/DTD/sodipodi-0.dtd"
   xmlns:inkscape="http://www.inkscape.org/namespaces/inkscape"
   width="451.39618"
   height="342.03531"
   id="svg2"
   sodipodi:version="0.32"
   inkscape:version="0.48.2 r9819"
   version="1.0"
   sodipodi:docname="duke.svg"
   inkscape:output_extension="org.inkscape.output.svg.inkscape">
  <defs
     id="defs4">
    <inkscape:perspective
       sodipodi:type="inkscape:persp3d"
       inkscape:vp_x="0 : 526.18109 : 1"
       inkscape:vp_y="0 : 1000 : 0"
       inkscape:vp_z="744.09448 : 526.18109 : 1"
       inkscape:persp3d-origin="372.04724 : 350.78739 : 1"
       id="perspective10" />
  </defs>
  <sodipodi:namedview
     id="base"
     pagecolor="#ffffff"
     bordercolor="#666666"
     borderopacity="1.0"
     gridtolerance="10000"
     guidetolerance="10"
     objecttolerance="10"
     inkscape:pageopacity="0.0"
     inkscape:pageshadow="2"
     inkscape:zoom="0.70710678"
     inkscape:cx="88.082258"
     inkscape:cy="188.01486"
     inkscape:document-units="px"
     inkscape:current-layer="body"
     showgrid="false"
     inkscape:window-width="855"
     inkscape:window-height="874"
     inkscape:window-x="777"
     inkscape:window-y="68"
     inkscape:window-maximized="0"
     inkscape:snap-global="false"
     showguides="true"
     inkscape:guide-bbox="true"
     fit-margin-top="0"
     fit-margin-left="0"
     fit-margin-right="0"
     fit-margin-bottom="0">
    <sodipodi:guide
       orientation="0,1"
       position="55.751599,-2.12214"
       id="guide3145" />
  </sodipodi:namedview>
  <metadata
     id="metadata7">
    <rdf:RDF>
      <cc:Work
         rdf:about="">
        <dc:format>image/svg+xml</dc:format>
        <dc:type
           rdf:resource="http://purl.org/dc/dcmitype/StillImage" />
        <dc:title />
      </cc:Work>
    </rdf:RDF>
  </metadata>
  <g
     inkscape:label="Layer 1"
     inkscape:groupmode="layer"
     id="layer1"
     transform="translate(-17.248401,-24.842555)">
    <g
       id="body">
      <path
         sodipodi:nodetypes="ccccccccc"
         inkscape:connector-curvature="0"
         d="M 63.1,319 C 25.7,308 62,295 50.2,268.4 39.8,228.6 25.7,255.6 23.3,222.8 55,194.68 168,198.18 240,194.69 c 71,3.49 184,0 216,28.11 -2,32.8 -16,5.8 -27,45.6 -12,26.6 25,39.6 -13,50.6 -28,9 -176,10 -176,10 0,0 -149,-1 -176.9,-10 z"
         style="fill:#ffff00;stroke:#000000;stroke-width:4;stroke-miterlimit:4;stroke-opacity:1;stroke-dasharray:none"
         id="path3764" />
      <path
         sodipodi:nodetypes="cc"
         inkscape:connector-curvature="0"
         id="path3767"
         d="m 37.594215,244.17934 c 88.099995,-44.5 305.670245,-38.6 411.670245,-4.7"
         style="fill:none;stroke:#000000;stroke-width:4;stroke-miterlimit:4;stroke-opacity:1;stroke-dasharray:none" />
      <path
         sodipodi:nodetypes="cc"
         inkscape:connector-curvature="0"
         id="path3769"
         d="m 51.4,295 c 120.25289,-29.26446 216.03221,-31.27328 382.03221,6.52672"
         style="fill:none;stroke:#000000;stroke-width:4;stroke-miterlimit:4;stroke-opacity:1;stroke-dasharray:none" />
      <path
         sodipodi:nodetypes="ccccc"
         inkscape:connector-curvature="0"
         id="path3773"
         d="M 44.1,252.9 C 152,193.18 365,224.8 441,247 l 9,-8.2 C 422,225.9 166,174.4 34.7,245.9 z"
         style="opacity:0.5;fill:#333333;fill-opacity:1;fill-rule:evenodd;stroke:none" />
      <path
         sodipodi:nodetypes="ccccc"
         inkscape:connector-curvature="0"
         id="path3067"
         d="m 71.07438,253.71901 c 25.619833,-11.15703 38.01653,-10.7438 38.01653,-10.7438 l 4.13223,9.09091 c -8.67768,7.02479 -39.669421,14.04958 -39.669421,14.04958 z"
         style="fill:none;stroke:#000000;stroke-width:2;stroke-linecap:butt;stroke-linejoin:miter;stroke-opacity:1" />
      <path
         inkscape:connector-curvature="0"
         id="path3069"
         d="m 135.53719,236.77686 -6.19835,9.91735 9.09091,7.43802 6.61157,-9.09091 z"
         style="fill:none;stroke:#000000;stroke-width:2;stroke-linecap:butt;stroke-linejoin:miter;stroke-opacity:1" />
      <path
         style="fill:none;stroke:#000000;stroke-width:2;stroke-linecap:butt;stroke-linejoin:miter;stroke-opacity:1"
         d="m 363.07438,243.71901 c 32.2314,2.47933 34.23141,2.99174 52.41322,10.01653 l -8.26446,10.33058 C 388.6281,256.6281 365.55372,256.1157 365.55372,256.1157 z"
         id="path3071"
         inkscape:connector-curvature="0"
         sodipodi:nodetypes="ccccc" />
      <path
         sodipodi:nodetypes="ccccc"
         style="fill:none;stroke:#000000;stroke-width:2;stroke-linecap:butt;stroke-linejoin:miter;stroke-opacity:1"
         d="m 339.66942,236.36364 -9.50413,7.43801 6.19834,11.57025 10.74381,-8.67769 z"
         id="path3073"
         inkscape:connector-curvature="0" />
      <path
         inkscape:connector-curvature="0"
         id="path3075"
         d="m 239.66942,228.36364 -9.50413,7.43801 9.0909,11.98347 7.85125,-9.09091 z"
         style="fill:none;stroke:#000000;stroke-width:2;stroke-linecap:butt;stroke-linejoin:miter;stroke-opacity:1"
         sodipodi:nodetypes="ccccc" />
      <path
         style="fill:none;stroke:#000000;stroke-width:2;stroke-linecap:butt;stroke-linejoin:miter;stroke-opacity:1"
         d="m 165.4876,235.10744 c 28.5124,-5.78513 37.60331,-2.89256 37.60331,-2.89256 l 0,10.7438 c -16.1157,0.82644 -36.77686,2.89256 -36.77686,2.89256 z"
         id="path3077"
         inkscape:connector-curvature="0"
         sodipodi:nodetypes="ccccc" />
      <path
         sodipodi:nodetypes="ccccc"
         inkscape:connector-curvature="0"
         id="path3079"
         d="m 265.4876,231.10744 c 21.07438,1.65289 37.60331,5.10744 37.60331,5.10744 l 0,10.7438 c -20.24793,-4.13224 -36.77686,-5.10744 -36.77686,-5.10744 z"
         style="fill:none;stroke:#000000;stroke-width:2;stroke-linecap:butt;stroke-linejoin:miter;stroke-opacity:1" />
      <path
         style="fill:#ffffff;fill-opacity:1;stroke:#000000"
         d="m 47.328244,305.34351 c -12.21374,8.39695 -3.053435,40.45802 -3.053435,40.45802 -9.923664,24.42748 377.862591,21.37404 389.312981,10.68702 11.45038,-10.68702 9.92366,-29.00763 -3.05344,-44.27481 C 226.36603,266.82406 47.328244,305.34351 47.328244,305.34351 z"
         id="path3101"
         inkscape:connector-curvature="0"
         sodipodi:nodetypes="ccscc" />
      <path
         sodipodi:nodetypes="ccccccc"
         inkscape:connector-curvature="0"
         id="path3771"
         d="m 44.956489,348.14504 c 24.493894,-30.2458 385.333581,-14.03053 392.203811,2 0,0 -5.69466,23.36641 -139.61832,13.2061 -31,-6 52.18321,-6.54962 29.18321,-17.54962 -87.05344,-0.69618 -87.54962,4.03741 -159.12977,4.52672 -23,13 73.22901,5.54962 54.22901,16.54962 C 40.454198,361.1374 44.956489,348.14504 44.956489,348.14504 z"
         style="opacity:0.5;fill:#333333;fill-opacity:1;stroke:none" />
      <path
         style="fill:#666666;fill-opacity:1;stroke:none"
         d="m 93.265971,303.97401 c -23.049817,2.42509 -10.844205,6.08992 -27.952103,15.1962 18.975477,-5.64597 10.406346,5.06916 31.6169,-6.90322 -2.96874,-0.90987 -5.212808,-1.42509 -0.958102,-4.76131 -7.946824,1.45991 -4.03311,-1.43119 -2.706695,-3.53167 z"
         id="path3103"
         inkscape:connector-curvature="0"
         sodipodi:nodetypes="ccccc" />
      <path
         sodipodi:nodetypes="ccccc"
         inkscape:connector-curvature="0"
         id="path3105"
         d="m 150.39186,312.07138 c -23.17443,0.3472 -11.34686,5.09238 -29.20281,12.62695 19.40551,-3.92065 9.90955,5.98241 32.10876,-4.0386 -2.87513,-1.17256 -5.06392,-1.88706 -0.52703,-4.82807 -8.04577,0.741 -3.88844,-1.78728 -2.37892,-3.76028 z"
         style="fill:#666666;fill-opacity:1;stroke:none" />
      <path
         style="fill:#666666;fill-opacity:1;stroke:none"
         d="m 205.43537,299.15772 c -22.72064,-4.57682 -12.16889,2.5694 -31.21679,6.14461 19.79556,0.28518 8.41493,7.94842 32.2347,2.86472 -2.56095,-1.75579 -4.54835,-2.91834 0.50917,-4.82998 -8.01984,-0.98266 -3.42079,-2.57148 -1.52708,-4.17935 z"
         id="path3107"
         inkscape:connector-curvature="0"
         sodipodi:nodetypes="ccccc" />
      <path
         sodipodi:nodetypes="ccccc"
         inkscape:connector-curvature="0"
         id="path3109"
         d="m 244.26497,317.77465 c -22.72064,-4.57682 -12.16889,2.5694 -31.21679,6.14461 19.79556,0.28518 8.41493,7.94842 32.2347,2.86472 -2.56095,-1.75579 -4.54835,-2.91834 0.50917,-4.82998 -8.01984,-0.98266 -3.42079,-2.57148 -1.52708,-4.17935 z"
         style="fill:#666666;fill-opacity:1;stroke:none" />
      <path
         style="fill:#666666;fill-opacity:1;stroke:none"
         d="m 282.56266,299.15772 c -22.72064,-4.57682 -12.16889,2.5694 -31.21679,6.14461 19.79556,0.28518 8.41493,7.94842 32.2347,2.86472 -2.56095,-1.75579 -4.54835,-2.91834 0.50917,-4.82998 -8.01984,-0.98266 -3.42079,-2.57148 -1.52708,-4.17935 z"
         id="path3111"
         inkscape:connector-curvature="0"
         sodipodi:nodetypes="ccccc" />
      <path
         sodipodi:nodetypes="ccccc"
         inkscape:connector-curvature="0"
         id="path3113"
         d="m 320.86035,316.71083 c -22.72064,-4.57682 -12.16889,2.5694 -31.21679,6.14461 19.79556,0.28518 8.41493,7.94842 32.2347,2.86472 -2.56095,-1.75579 -4.54835,-2.91834 0.50917,-4.82998 -8.01984,-0.98266 -3.42079,-2.57148 -1.52708,-4.17935 z"
         style="fill:#666666;fill-opacity:1;stroke:none" />
      <path
         style="fill:#666666;fill-opacity:1;stroke:none"
         d="m 368.20054,303.94493 c -22.72064,-4.57682 -12.16889,2.5694 -31.21679,6.14461 19.79556,0.28518 8.41493,7.94842 32.2347,2.86472 -2.56095,-1.75579 -4.54835,-2.91834 0.50917,-4.82998 -8.01984,-0.98266 -3.42079,-2.57148 -1.52708,-4.17935 z"
         id="path3115"
         inkscape:connector-curvature="0"
         sodipodi:nodetypes="ccccc" />
      <path
         sodipodi:nodetypes="ccccc"
         inkscape:connector-curvature="0"
         id="path3117"
         d="m 399.02503,324.17402 c -21.84596,-7.74136 -12.40985,0.82414 -31.77182,1.67198 19.55665,3.07946 7.20737,9.05771 31.50648,7.39079 -2.28715,-2.10004 -4.09034,-3.53175 1.18655,-4.70957 -7.80052,-2.10602 -3.02311,-3.02904 -0.92121,-4.3532 z"
         style="fill:#666666;fill-opacity:1;stroke:none" />
      <path
         style="fill:#800000;fill-opacity:1;stroke:#000000;stroke-width:4;stroke-opacity:1"
         d="M 43.62978,211.893 C 14.292514,153.21847 15.796989,147.95281 25.576078,134.41253 35.355167,120.87225 86.507324,71.97681 104.56103,90.030513 c 18.0537,18.053697 92.49571,5.134481 75.22376,-10.531326 -22.74255,-20.627688 14.58846,-21.299124 11.28356,-26.328317 l -17.30147,-26.328315 58.67454,1.504475 -8.27462,26.328316 c 0,0 29.33727,3.00895 18.80594,18.80594 -11.54102,17.311527 70.69883,-6.14848 103.80879,27.832794 28.58503,29.33726 82.74613,20.31041 109.82668,36.1074 14.52924,8.47539 9.13512,83.39159 -21.06265,76.72823 C 275.31895,178.79455 85.002848,200.60944 43.62978,211.893 z"
         id="path3119"
         inkscape:connector-curvature="0"
         sodipodi:nodetypes="csssscccssssc" />
      <path
         style="opacity:0.5;fill:#1a1a1a;fill-opacity:1;stroke:none"
         d="M 101.55207,94.543938 C 78.23271,180.29902 86.779163,129.5593 78.23271,190.07811 c -4.354798,30.83703 35.35517,2.25672 36.85964,-39.11635 1.50448,-41.37307 -13.54028,-56.417822 -13.54028,-56.417822 z"
         id="path3121"
         inkscape:connector-curvature="0"
         sodipodi:nodetypes="cssc" />
      <path
         sodipodi:nodetypes="cssc"
         inkscape:connector-curvature="0"
         id="path3123"
         d="m 330.98453,89.278275 c -23.31936,85.755085 -35.83555,30.501935 -44.38201,91.020745 -4.3548,30.83703 67.70139,5.26567 69.20586,-36.1074 1.50448,-41.37307 -24.82385,-54.913345 -24.82385,-54.913345 z"
         style="opacity:0.5;fill:#1a1a1a;fill-opacity:1;stroke:none" />
      <path
         style="opacity:0.5;fill:#1a1a1a;fill-opacity:1;stroke:none"
         d="m 431.03213,132.15582 c -23.31936,85.75508 -41.10121,-4.101 -49.64767,56.41781 -4.3548,30.83703 100.79984,45.13426 81.24166,-26.32831 4.86825,-30.15282 -31.59399,-30.0895 -31.59399,-30.0895 z"
         id="path3125"
         inkscape:connector-curvature="0"
         sodipodi:nodetypes="cscc" />
      <path
         style="opacity:0.5;fill:#1a1a1a;fill-opacity:1;stroke:none"
         d="m 253.50405,84.012612 c -23.31936,85.755088 -53.13701,36.519838 -61.68347,97.038648 -4.3548,30.83703 57.51042,19.21783 82.74614,-45.88649 14.96286,-38.601905 -21.06267,-51.152158 -21.06267,-51.152158 z"
         id="path3127"
         inkscape:connector-curvature="0"
         sodipodi:nodetypes="cssc" />
      <path
         style="fill:none;stroke:#000000;stroke-width:4;stroke-opacity:1"
         d="m 224.1668,53.923108 -32.34621,1.504475 c 32.34621,-1.504475 34.60293,2.256713 34.60293,2.256713"
         id="path3129"
         inkscape:connector-curvature="0" />
      <path
         style="fill:none;stroke:#000000;stroke-width:4;stroke-opacity:1"
         d="m 182.79374,81.755899 c 22.56712,15.044752 57.17005,-3.00895 57.17005,-3.00895"
         id="path3131"
         inkscape:connector-curvature="0"
         sodipodi:nodetypes="cc" />
      <path
         style="fill:none;stroke:#000000;stroke-width:4;stroke-opacity:1"
         d="m 185.05045,31.355981 12.0358,21.062652"
         id="path3133"
         inkscape:connector-curvature="0" />
      <path
         style="fill:none;stroke:#000000;stroke-width:4;stroke-opacity:1"
         d="m 198.59072,31.355981 5.26567,16.549227"
         id="path3135"
         inkscape:connector-curvature="0" />
      <path
         style="fill:none;stroke:#000000;stroke-width:4;stroke-opacity:1"
         d="m 208.36981,32.860456 0.75224,12.035801"
         id="path3137"
         inkscape:connector-curvature="0" />
      <path
         style="fill:none;stroke:#000000;stroke-width:4;stroke-opacity:1"
         d="m 219.65338,32.860456 -4.51343,15.044752"
         id="path3139"
         inkscape:connector-curvature="0" />
      <path
         id="path3028"
         style="fill:#ffff00;stroke:#000000;stroke-width:3;stroke-linecap:butt;stroke-linejoin:miter;stroke-opacity:1"
         d="m 466.02075,177.08626 c 4.37637,-5.76694 -5.23942,-13.93374 -8.16464,-5.06105 -1.56359,2.32776 -3.19805,15.8025 -4.4673,7.05947 0.44282,-3.34225 0.92593,-14.44872 -5.38944,-8.70607 -0.41112,3.69986 5.86724,12.75532 0.44549,13.48189 -1.98348,-3.1169 -12.96823,-9.01325 -13.70361,-3.65263 1.84124,3.41078 14.20329,7.67813 10.46303,9.51049 -4.44797,-2.31855 -17.24098,0.20016 -7.70003,3.76559 11.78817,2.69556 -13.71752,-1.60688 -5.45516,4.58139 6.44171,-1.17916 10.07746,6.76449 1.51582,3.82976 -9.84026,-3.86466 -20.42175,-0.60186 -30.1099,-5.00558 -8.59997,-2.99925 -17.31125,-11.70914 -20.44951,-19.02408 5.19226,-4.30872 14.1179,4.16543 20.82985,4.16522 6.06606,-2.11611 -6.99987,-6.83126 -10.4378,-8.03522 -4.744,-0.9009 -13.43787,-2.66854 -3.95766,-3.6444 5.2241,1.2171 21.07643,-1.81058 11.60252,-6.69755 -5.45741,-1.60715 -18.11216,0.0234 -19.66486,-0.60212 6.26761,-0.77296 22.40118,-5.25236 14.76132,-10.81012 -5.29793,0.87412 -16.52812,5.03446 -17.93788,3.65543 7.71085,-2.97315 9.58091,-20.81275 -2.14619,-15.14978 -3.08206,3.23163 -1.02653,12.95958 -4.80413,12.71535 -3.91063,-6.70565 -0.14791,-14.30412 -2.21024,-20.7259 -6.58787,-5.09048 -12.12724,1.50504 -8.83777,6.6602 1.04986,4.2879 6.33812,18.43764 -3.96981,11.80315 -1.96585,-3.71512 -8.90941,-15.95611 -12.7338,-8.24389 0.6605,6.38244 15.56966,8.99827 11.62574,14.78298 -4.57273,0.0237 -17.45061,-3.4689 -16.20216,2.88276 3.30904,4.39694 25.19845,0.75468 14.07806,6.89379 -7.78114,-0.85652 -10.45388,9.67181 -0.45395,6.17528 4.91301,-1.93608 15.4405,1.2617 5.21303,3.58599 -4.21866,-0.57102 -19.62284,1.16214 -10.30798,4.97978 4.38281,1.1852 15.6111,-2.67012 14.79762,-1.22453 -9.70675,4.74692 -21.28744,3.40048 -31.63925,6.05984 -14.36713,2.15065 -25.20567,1.71413 -44.00173,-1.27295 -7.27233,-2.43889 -25.41645,-11.91447 -23.32262,-12.93145 8.17146,-5.47333 25.23579,-0.74899 31.43699,2.66516 7.31467,-7.86582 -9.7486,-13.21293 -17.82953,-12.03903 -40.15765,6.2922 7.13695,-5.38832 10.06224,-6.76497 10.2865,1.04825 6.09254,-15.92107 -1.53893,-7.15908 -3.75947,4.313 -42.44312,21.20053 -11.7008,-1.83079 5.35614,-3.75109 21.81628,-13.16107 9.49915,-17.24131 -6.085,0.48908 -23.95668,25.51102 -27.63217,16.68073 -0.68366,-6.18676 25.28572,-25.50245 13.50541,-28.3605 -3.47579,1.79495 -12.30418,22.16582 -18.60442,16.76432 1.25728,-4.75013 4.52218,-25.43569 -4.79785,-25.43569 -9.32004,0 -4.55515,22.68556 -3.29786,27.43569 -6.30024,5.4015 -16.62863,-16.96937 -20.10442,-18.76432 -11.78031,2.85805 12.18907,21.17374 11.5054,27.3605 -3.67548,8.83029 -19.54717,-15.19165 -25.63216,-15.68073 -12.31713,4.08024 17.64301,17.99022 22.99915,21.74131 8.30368,8.07223 -21.44133,1.64379 -25.2008,-2.66921 -7.63148,-8.76199 -11.82544,8.20733 -1.53893,7.15908 2.92529,1.37665 29.86975,7.14135 22.56224,7.76497 -8.08093,-1.1739 -37.64421,3.17321 -30.32953,11.03903 6.2012,-3.41415 24.26553,-6.63849 31.93698,-0.16516 1.59384,7.62978 -18.05028,6.49256 -25.32261,8.93145 -15.29606,1.98708 -25.6346,3.9236 -40.00173,1.77295 -10.3518,-2.65936 -24.43249,-0.31292 -34.13924,-5.05984 -0.81348,-1.44559 10.41481,2.40973 14.79762,1.22453 9.31486,-3.81764 -6.08932,-5.5508 -10.30798,-4.97978 -10.22747,-2.32429 0.30002,-5.52207 5.21303,-3.58599 9.99993,3.49653 7.32719,-7.0318 -0.45395,-6.17528 -11.12039,-6.13911 10.76902,-2.49685 14.07806,-6.89379 1.24845,-6.35166 -11.62943,-2.85906 -16.20216,-2.88276 -3.94392,-5.78471 10.96524,-8.40054 11.62574,-14.78298 -3.82439,-7.71222 -10.76795,4.52877 -12.7338,8.24389 -10.30793,6.63449 -5.01967,-7.51525 -3.96981,-11.80315 3.28947,-5.15516 -2.2499,-11.75068 -8.83777,-6.6602 -2.06233,6.42178 1.70039,14.02025 -2.21024,20.7259 -3.77761,0.24423 -1.72207,-9.48372 -4.80413,-12.71535 -11.7271,-5.66297 -9.85705,12.17663 -2.1462,15.14978 -1.40975,1.37903 -12.63995,-2.78131 -17.937872,-3.65543 -7.639862,5.55776 8.493712,10.03716 14.761322,10.81012 -1.5527,0.62552 -14.207459,-1.00503 -19.664859,0.60212 -9.473906,4.88697 6.378415,7.91465 11.602519,6.69755 9.48021,0.97586 0.78634,2.7435 -3.957667,3.6444 -3.437934,1.20396 -16.50386,5.91911 -10.437808,8.03522 6.711959,2.1e-4 15.637605,-8.47394 20.829865,-4.16522 -3.13827,7.31494 -9.849537,10.02483 -19.449523,16.02408 -9.688138,4.40372 -21.269633,4.14092 -31.109891,8.00558 -8.561637,2.93473 -4.925897,-5.00892 1.515817,-3.82976 8.26236,-6.18827 -17.243332,-1.88583 -5.455159,-4.58139 9.54095,-3.56543 -3.25206,-6.08414 -7.700024,-3.76559 -3.740264,-1.83236 8.621789,-6.09971 10.463021,-9.51049 -0.735381,-5.36062 -11.720134,0.53573 -13.703609,3.65263 -5.421745,-0.72657 0.856605,-9.78203 0.445497,-13.48189 -6.31538,-5.74265 -5.832262,5.36382 -5.389441,8.70607 -1.269254,8.74303 -2.903712,-4.73171 -4.467301,-7.05947 -2.925227,-8.87269 -12.541009,-0.70589 -8.164643,5.06105 5.196105,10.34802 8.456902,21.37395 16.958969,27.90026 8.502067,6.52631 19.607101,5.63294 32.750471,1.9186 10.711624,-4.22629 16.784737,-2.93392 32.624496,-10.96364 11.5662,-17.19418 21.19657,-3.1289 35.17295,-4.969 17.51068,0.18407 34.69383,4.82062 52.30354,3.55739 12.23958,-0.89186 25.61309,0.30044 35.35534,-8.48528 7.58672,-0.44194 13.22235,-20.18897 17.00341,-14.43126 8.04092,11.38069 23.18027,15.64749 35.98591,21.30121 13.63449,4.50687 23.76931,7.51154 44.26299,6.1864 15.75965,-5.00583 31.58085,-2.06866 44.87615,-13.05635 -1.82815,-2.10042 4.8378,7.06469 11.77734,12.78038 13.96071,8.40253 23.72446,11.74404 37.36987,11.26125 4.21848,0.2182 13.57982,2.35492 24.2774,-2.8159 11.49397,-8.81011 14.75477,-19.83604 19.95087,-30.18406 z"
         inkscape:connector-curvature="0"
         sodipodi:nodetypes="ccccccccccccccccccccccccccccccccccccccccccccscccccccccccccccccccccccccccccccccccccccccccccccccccccccccc" />
      <path
         style="fill:none;stroke:#4d4d4d;stroke-width:2.53799176"
         d="m 32.268996,183.269 18.462008,22.962"
         id="path3034"
         inkscape:connector-curvature="0" />
      <path
         style="fill:none;stroke:#4d4d4d;stroke-width:2"
         d="m 125,149.5 -1.5,3.5 -4.5,27 -3,-20.5"
         id="path3036"
         inkscape:connector-curvature="0" />
      <path
         style="fill:none;stroke:#4d4d4d;stroke-width:2"
         d="m 119,178.5 9.5,-18"
         id="path3038"
         inkscape:connector-curvature="0" />
      <path
         style="fill:none;stroke:#4d4d4d;stroke-width:2"
         d="M 47,201.5 36.5,197"
         id="path3040"
         inkscape:connector-curvature="0" />
      <path
         style="fill:none;stroke:#4d4d4d;stroke-width:2"
         d="m 244,166 2,-43.5"
         id="path3042"
         inkscape:connector-curvature="0" />
      <path
         style="fill:none;stroke:#4d4d4d;stroke-width:2"
         d="m 236,140.5 7,11"
         id="path3044"
         inkscape:connector-curvature="0" />
      <path
         style="fill:none;stroke:#4d4d4d;stroke-width:2"
         d="m 222.5,158.5 19,1.5"
         id="path3046"
         inkscape:connector-curvature="0" />
      <path
         style="fill:none;stroke:#4d4d4d;stroke-width:2"
         d="m 255.5,139.5 -10,12"
         id="path3048"
         inkscape:connector-curvature="0" />
      <path
         style="fill:none;stroke:#4d4d4d;stroke-width:2"
         d="M 239.5,161 255,155.5"
         id="path3050"
         inkscape:connector-curvature="0" />
      <path
         style="fill:none;stroke:#4d4d4d;stroke-width:2"
         d="m 368.5,161 3,20"
         id="path3052"
         inkscape:connector-curvature="0" />
      <path
         style="fill:none;stroke:#4d4d4d;stroke-width:2"
         d="m 359,160.5 9,8.5"
         id="path3054"
         inkscape:connector-curvature="0" />
      <path
         style="fill:none;stroke:#4d4d4d;stroke-width:2"
         d="m 370.5,164 7,-5"
         id="path3056"
         inkscape:connector-curvature="0" />
      <path
         style="fill:none;stroke:#4d4d4d;stroke-width:2"
         d="m 365,151 2.5,11"
         id="path3058"
         inkscape:connector-curvature="0" />
      <path
         style="fill:none;stroke:#4d4d4d;stroke-width:2"
         d="m 366.5,168 12,-1.5"
         id="path3060"
         inkscape:connector-curvature="0" />
      <path
         style="fill:none;stroke:#4d4d4d;stroke-width:2"
         d="m 371,174 5.5,3.5"
         id="path3062"
         inkscape:connector-curvature="0" />
      <path
         style="fill:none;stroke:#4d4d4d;stroke-width:2"
         d="M 443.5,204 458,185"
         id="path3064"
         inkscape:connector-curvature="0" />
    </g>
  </g>
</svg>
