<?xml version="1.0" encoding="UTF-8" standalone="no"?>
<!-- Created with Inkscape (http://www.inkscape.org/) -->
<svg xmlns:dc="http://purl.org/dc/elements/1.1/" xmlns:cc="http://creativecommons.org/ns#" xmlns:rdf="http://www.w3.org/1999/02/22-rdf-syntax-ns#" xmlns:svg="http://www.w3.org/2000/svg" xmlns="http://www.w3.org/2000/svg" xmlns:sodipodi="http://sodipodi.sourceforge.net/DTD/sodipodi-0.dtd" xmlns:inkscape="http://www.inkscape.org/namespaces/inkscape" version="1.0" width="700" height="620" id="svg2361" inkscape:version="0.48.4 r9939" sodipodi:docname="fishtail-griffin.svg">
  <metadata id="metadata6256">
    <rdf:RDF>
      <cc:Work rdf:about="">
        <dc:format>image/svg+xml</dc:format>
        <dc:type rdf:resource="http://purl.org/dc/dcmitype/StillImage"/>
        <dc:title/>
        <cc:license rdf:resource=""/>
        <dc:creator>
          <cc:Agent>
            <dc:title>http://commons.wikimedia.org/wiki/User:Jacek_FH</dc:title>
          </cc:Agent>
        </dc:creator>
      </cc:Work>
    </rdf:RDF>
  </metadata>
  <sodipodi:namedview pagecolor="#ffffff" bordercolor="#666666" borderopacity="1" objecttolerance="10" gridtolerance="10" guidetolerance="10" inkscape:pageopacity="0" inkscape:pageshadow="2" inkscape:window-width="640" inkscape:window-height="480" id="namedview6254" showgrid="false" inkscape:zoom="0.91595766" inkscape:cx="181.64691" inkscape:cy="309.59923" inkscape:current-layer="g2968"/>
  <defs id="defs2364"/>
  <g id="g2968">
    <path d="M356.3,33.61   C356,27.77 368.1,10.87 389.7,12.45   C406.2,13.67 422.6,9.208 422.9,9.48   C418,23.28 372.2,40.6 356.3,33.61   z " id="path3582" style="fill:#ffff00;fill-opacity:1;fill-rule:evenodd;stroke:#000000;stroke-width:2.50000000000000000;stroke-linecap:round;stroke-linejoin:round;marker:none;marker-start:none;marker-mid:none;marker-end:none;stroke-miterlimit:4;stroke-dasharray:none;stroke-dashoffset:0;stroke-opacity:1;visibility:visible;display:inline;overflow:visible;enable-background:accumulate"/>
    <path d="M311.6,205.4   C367.6,208.5 410.2,190.9 447.7,149.9   C420,132.7 417.1,81 479.7,68.62   C501.5,64.31 583.3,37.5 619.1,11.31   C620.7,34.44 560.5,78.1 524.8,74.68   C570.8,159.7 361.9,294.4 311.6,205.4   z " id="path3551" style="fill:#ffff00;fill-opacity:1;fill-rule:evenodd;stroke:#000000;stroke-width:2.50000000000000000;stroke-linecap:round;stroke-linejoin:round;marker:none;marker-start:none;marker-mid:none;marker-end:none;stroke-miterlimit:4;stroke-dasharray:none;stroke-dashoffset:0;stroke-opacity:1;visibility:visible;display:inline;overflow:visible;enable-background:accumulate"/>
    <g id="tongued" inkscape:label="#g6258" style="fill:#ff0000">
      <path style="fill:#ff0000;fill-opacity:1;fill-rule:evenodd;stroke:#000000;stroke-width:2.50000000000000000;stroke-linecap:butt;stroke-linejoin:miter;stroke-miterlimit:4;stroke-dasharray:none;stroke-opacity:1" id="path3011" d="M212.6,71.65   C212.4,72.41 233.2,103.5 266.4,84.09   C301.8,63.42 325.4,86.89 331.2,96.15   C331.1,85.07 303.3,57.08 269.8,72.03   C249,81.29 226.4,83.83 212.6,71.65   z "/>
    </g>
    <g id="armed" inkscape:label="#g6261">
      <path style="fill:#00ff00;fill-opacity:1;fill-rule:evenodd;stroke:#000000;stroke-width:2.50000000000000000;stroke-linecap:round;stroke-linejoin:miter;marker:none;marker-start:none;marker-mid:none;marker-end:none;stroke-miterlimit:4;stroke-dasharray:none;stroke-dashoffset:0;stroke-opacity:1;visibility:visible;display:inline;overflow:visible;enable-background:accumulate" id="path3025" d="M69.98,157.1   C75.57,168.2 84.65,168.5 92.9,158.6   C90.91,154.6 86,150.7 87.52,146.7   C87.23,151.4 79.55,158.3 69.98,157.1   z M48.17,96.43   C45.34,71.15 81.74,82.6 72.48,99.49   C64.19,91.11 53.84,94.13 48.17,96.43   z M83.99,43.82   C92.09,32.99 124.9,43.77 98.09,62.37   C99.65,57.71 99.73,43.63 83.99,43.82   z M141.7,68.04   C144.3,70.27 152.7,52.13 150.4,44.37   C156.5,48.52 166.2,59.2 149.2,75.92   L141.7,68.04   z M78.14,260.6   C82.58,252.6 76.83,243.2 71.65,239.2   C84.12,237.7 92.91,247.7 88.44,261   L78.14,260.6   z M17.45,264.7   C19.31,264.4 25.99,266.3 28.87,269.9   C32.86,274.9 44.36,272 44.64,271.3   C38.1,257.9 25.75,253.8 17.45,264.7   z M5.25,325.5   C11.94,317.7 18.32,318.7 24.64,321.5   C27.11,308.9 9.51,296.6 5.25,325.5   z M33.6,361.9   C41.89,386.7 57.61,381.1 52.25,361.7   C49.74,366.2 41.27,371.2 33.6,361.9   z "/>
    </g>
    <path d="M185.7,204.5   C171.4,219.6 162.3,196 156.4,174.5   C152.9,161.7 156.2,150.7 143,132.5   C130.6,115.5 135.9,94.57 149.3,83.53   C166.8,69.11 129.4,55.79 133.7,75.74   C135.9,85.86 130.4,88.07 129.3,93.18   C125.8,109 116.8,106.4 115.2,87.62   C114.5,79.99 114.3,70.03 117.4,64.97   C121.8,57.71 115.3,50.08 106.4,51.39   C97.57,52.69 91.21,61.86 98.84,68.69   C107.9,76.81 102.3,76.97 102.9,85.39   C103.1,88.17 102.7,94.69 104.9,97.99   C107.2,101.3 104.3,106.8 98.47,100.2   C94.37,95.62 95.19,99.61 84.41,86.69   C68.17,67.23 63.58,105.9 78.42,101.7   C85.74,99.67 90.38,104.6 96.61,114.3   C100.4,120.2 107.8,123.2 108.1,130.3   C108.5,138.6 101.3,147.3 95.87,144   C71.42,129.4 93.5,189.7 109.2,157   C120.9,132.8 128.1,150.4 131.1,162.2   C133.4,171 126.8,189.5 124.8,187.5   C129.4,183.9 133.7,180.5 136.3,178.9   C131.7,179.5 137.7,205.1 132.6,226.8   C138.9,221 142.9,210.6 145.6,210.9   C149.2,220.3 147.4,228.9 148.1,236.1   C148.7,243.3 149.5,260.4 147.5,268.8   L185.7,204.5   z M193.1,370.5   C182.4,385.5 177.8,388.7 162.3,379.7   C146.8,370.8 129.8,356.4 121.1,347.4   C114.2,340.4 114.1,335.8 101.8,328.5   C83.44,317.6 96.08,315.8 87.89,305.1   C89.54,297.5 94.14,292.9 94.01,279.5   C93.96,273.8 95.32,274.4 97.35,270.2   C106,252.5 61.24,253.1 77.49,268.8   C82.7,273.8 81.61,273.5 80.46,279.3   C79.29,285.3 78.85,282.5 76.76,294.7   C74.48,308 66.6,301.8 63.2,287.7   C54.2,250.4 41.37,256.9 36.21,267.1   C32.48,274.5 29.25,284.1 42.79,280.6   C49.39,279 49.7,284.1 49.28,288.6   C49.05,291.2 50.38,293.9 51.74,297.4   C52.98,300.5 54.16,304.3 56.06,305.4   C67.08,311.6 56.49,326.7 32.95,303.6   C14.05,285 15.23,337.5 27.57,322.6   C29.64,320.1 33.69,318 39.82,323.7   C44.2,327.7 46.87,328.6 50.58,328.9   C57.46,329.4 60.26,339.9 60.6,346.2   C61.06,354.4 59.62,359.2 55.04,359.7   C46.52,360.7 47.02,365.2 49.09,372.3   C52.65,384.5 73.56,384.9 72.48,354.9   C71.92,339.1 82.19,330.1 97.35,353   C103.8,362.7 106.6,365.5 110.7,382.3   C110.2,345.2 132.1,406.7 131.1,408.3   C131.9,403.2 130.5,390.6 128.2,382   C134.9,385.2 153.6,409.4 157.9,421.3   C157,412.2 158.1,409.4 156,400.5   C164.2,406.1 176.6,429.9 189.4,428   C205.5,425.5 193.6,411.8 215.8,415.4   C240.1,366.5 231.8,340.4 193.1,370.5   z " id="path3580" style="fill:#ffff00;fill-opacity:1;fill-rule:evenodd;stroke:#000000;stroke-width:2.50000000000000000;stroke-linecap:round;stroke-linejoin:round;marker:none;marker-start:none;marker-mid:none;marker-end:none;stroke-miterlimit:4;stroke-dasharray:none;stroke-dashoffset:0;stroke-opacity:1;visibility:visible;display:inline;overflow:visible;enable-background:accumulate"/>
    <path d="M288,573.7   C288,573.7 262.6,504.6 216.1,488.9   C171.8,473.9 137.4,422.8 137.4,422.8   C133.3,438.6 138.5,443 141.9,448.4   C125.8,451.6 145.1,474.3 155.8,481.6   C151.9,502.9 185.7,525.4 238.8,530.8   C197.1,524.8 155.3,517.8 152.3,538.6   C139.8,535.5 109,531.4 114.2,542.3   C102.1,538 86.23,542.7 84.73,549   C92,549.4 100,555.3 124.4,564.2   C154.6,575.2 196.1,577.5 223.6,570.2   C247.4,563.8 242.8,565.5 288,573.7   z " id="path3212" style="fill:#ffff00;fill-opacity:1;fill-rule:evenodd;stroke:#000000;stroke-width:2.50000000000000000;stroke-linecap:round;stroke-linejoin:round;stroke-miterlimit:4;stroke-dasharray:none;stroke-opacity:1"/>
    <path d="M152.2,538.5   C165.8,542.7 166,547.4 196.1,547.9   M114.1,542.1   C122.3,547.2 134.4,552.7 156.7,555   M155.6,481.3   C169.5,496 185.1,493.9 199.8,506.5   M141.7,447.9   C145.1,454.1 152.2,460.4 157,463.3   C162.9,467 167.8,471.2 174.4,472.5   " id="path3210" style="fill:none;fill-opacity:0.39215686;fill-rule:evenodd;stroke:#000000;stroke-width:2.5;stroke-linecap:round;stroke-linejoin:round;stroke-miterlimit:4;stroke-dasharray:none;stroke-opacity:1"/>
    <path d="M338.1,428.3   C298.4,418.5 255,412.5 227.5,378.8   C181,356.9 166.6,350.3 175.1,320.4   C176.4,317.1 177.4,314 178,311.5   C176.8,314.7 175.9,317.6 175.1,320.4   C171.5,329 165.3,338.9 156.2,343.7   C161.8,337.5 151.6,288.8 155.8,272.8   C156.5,271.6 157.1,270.2 157.8,268.7   C156.9,269.6 156.2,271 155.8,272.8   C148.2,286.2 137.3,286.1 130.2,286.3   C146.4,273.8 146.6,260.7 152.5,246.7   C169.1,207.4 192.9,186.5 226,168.2   C213.9,170.4 204.8,169.6 194.5,170   C217.3,156.6 241.5,143.1 259.3,147.9   C270.6,151 281.8,149.7 284.3,146.4   C269.1,144.9 263.8,136.6 256.4,130.6   C331.4,131.5 357.3,81.44 301.1,52.4   C282.5,42.82 284,31.96 284,18.81   C284,10.12 289.3,6.91 297.9,7.056   C314.3,7.337 342.7,19.86 369.3,29.87   C369.3,29.87 368.3,30.63 366.5,32.15   C364.8,33.49 363.4,34.75 362.5,35.62   C364.2,34.13 365.4,33.04 366.5,32.15   C372.5,27.34 382.8,21.1 396.4,24.84   C405.9,27.48 413,27.06 422.3,26.68   C409.4,37.23 396.8,48.69 379.8,49.78   C401.7,68.49 398.3,80.31 401.9,94.4   C399.3,91.98 397.1,89.64 394.9,87.21   C391,83.01 387.4,78.6 383.5,73.4   C397.7,111.6 396.3,129.3 387.2,169   C383.3,162.2 383.1,160.1 377.7,152.2   C374.2,180.1 367.1,196.8 352.5,212.9   C292.3,289.6 391,336.8 447.6,366.2   C507.4,396.9 548.8,453.4 530.2,511.5   C518,549.7 491.2,580.1 436.7,603.6   C392.6,622.6 325.3,614.1 284.3,585.2   C248.5,560.1 239,543.5 208.2,525.9   C253.5,528.6 255.8,532.8 282.7,544.8   C437.8,613.9 512.7,472.5 338.1,428.3   " id="path3080" style="fill:#ffff00;fill-opacity:1;fill-rule:evenodd;stroke:#000000;stroke-width:2.50000000000000000;stroke-linecap:round;stroke-linejoin:round;marker:none;marker-start:none;marker-mid:none;marker-end:none;stroke-miterlimit:4;stroke-dasharray:none;stroke-dashoffset:0;stroke-opacity:1;visibility:visible;display:inline;overflow:visible;enable-background:accumulate"/>
    <path d="M200.5,331.1   C197.9,344.1 186.2,356.6 160.8,368.6   C178.3,377.4 195.6,383.2 215,373.4   C207.7,395.3 209.1,412.5 215.8,423.5   C223.6,405.2 232.6,390.5 250.7,376.8   " id="path3015" style="fill:#ffff00;fill-opacity:1;fill-rule:evenodd;stroke:#000000;stroke-width:2.50000000000000000;stroke-linecap:butt;stroke-linejoin:miter;stroke-miterlimit:4;stroke-dasharray:none;stroke-opacity:1"/>
    <g id="beaked" inkscape:label="#g6264" style="fill:#0000ff">
      <path style="fill:#0000ff;fill-opacity:1;fill-rule:evenodd;stroke:#000000;stroke-width:2.50000000000000000;stroke-linecap:round;stroke-linejoin:round;stroke-miterlimit:4;stroke-dasharray:none;stroke-opacity:1" id="path3007" d="M242.1,68.87   C239.3,59.19 230.3,28.81 262,28.78   C325,28.73 393.3,81.68 318.6,119.9   C329.2,94.87 294.1,92.5 281.6,91.88   C287.4,75.93 306.3,85.28 316.5,85.95   C312.8,59.76 284.1,55.59 279,59.96   C262.7,43.42 245.8,61.48 242.1,68.87   z "/>
      <path style="fill:#0000ff;fill-opacity:1;fill-rule:evenodd;stroke:#000000;stroke-width:2.50000000000000000;stroke-linecap:round;stroke-linejoin:round;marker:none;marker-start:none;marker-mid:none;marker-end:none;stroke-miterlimit:4;stroke-dasharray:none;stroke-dashoffset:0;stroke-opacity:1;visibility:visible;display:inline;overflow:visible;enable-background:accumulate" id="path3009" d="M273.3,29.52   L294.2,29.57   C285.8,20.1 267.7,7.988 273.3,29.52   z "/>
    </g>
    <path d="M305.3,207.3   C370.3,210.4 432.5,214.8 476.2,149.7   C450.7,137.5 442.1,98.12 492.1,80.81   C513.1,73.53 541.7,65.77 580.3,56.71   C605.2,50.84 655.6,35.07 688.5,20.92   C689.8,58.07 612.4,98.88 561.2,107.4   C611.9,116.8 666.8,103.1 695.3,85.48   C698.7,131.4 607.8,150.3 560.9,145.9   C585.3,164.8 639,166 685.3,161.6   C674,194.3 585.2,193.3 547.8,181   C570.2,195.6 582.7,213.6 666.4,212   C660,237.3 573.5,239 521,207.3   C547.2,241.7 595.5,258.7 629.7,260.3   C599.4,293.3 541.8,272.6 486.9,232.5   C503.1,261 543.8,295.7 572.5,303.9   C550.4,320.7 492.5,300.7 450.7,251.9   C457.4,278.5 470.7,303.6 505.3,323.3   C477.2,335.3 421.3,294.7 411.8,265.8   C411.8,283.3 408.5,296.1 433.4,330.6   C412.8,339 396,319.7 388.8,308.4   C378.9,292.5 371.4,279.3 370.4,268.7   C367.2,288.9 377.6,310.9 386.6,326.4   C358.9,329.6 332.9,291.6 326.8,270.3   C325,287.3 324.1,300.3 332,324.3   C294.9,319.3 287.5,289.1 283.7,269.7   " id="path3556" style="fill:#ffff00;fill-opacity:1;fill-rule:evenodd;stroke:#000000;stroke-width:2.50000000000000000;stroke-linecap:round;stroke-linejoin:round;marker:none;marker-start:none;marker-mid:none;marker-end:none;stroke-miterlimit:4;stroke-dasharray:none;stroke-dashoffset:0;stroke-opacity:1;visibility:visible;display:inline;overflow:visible;enable-background:accumulate"/>
    <path d="M306.5,207.4   C279.3,206.1 275.7,222 275.2,232.2   C274.5,245.4 297.6,256.5 308.4,241.9   C320.9,254.4 333.8,261.3 346.7,241.4   C356.9,254.3 367.7,258.4 380.9,240.9   C398.5,257.6 417.1,248.6 418.4,235.7   C431.5,241.5 454.9,241 453.1,219.6   C469.4,230.5 493.5,215.7 482.9,197.3   C499.3,203.1 518.3,188.4 507.6,170   C525.7,171.1 540.8,144.2 519.2,134.8   C534.9,124.8 535.4,101.2 513.3,98.67   C540.3,94.08 564.6,83.67 586.6,74.46   " id="path3558" style="fill:none;fill-opacity:1;fill-rule:evenodd;stroke:#000000;stroke-width:2.5;stroke-linecap:round;stroke-linejoin:round;marker:none;marker-start:none;marker-mid:none;marker-end:none;stroke-miterlimit:4;stroke-dasharray:none;stroke-dashoffset:0;stroke-opacity:1;visibility:visible;display:inline;overflow:visible;enable-background:accumulate"/>
    <path d="M370.9,39.18   C374.6,35.23 381.5,32.16 399.1,32.18   " id="path3096" style="fill:none;fill-rule:evenodd;stroke:#000000;stroke-width:2;stroke-linecap:round;stroke-linejoin:round;stroke-miterlimit:4;stroke-dasharray:none;stroke-opacity:1"/>
    <path d="M380.1,61.06   C377.8,56.92 376.6,53.81 371,48.85   C376.5,50.69 378.2,49.75 380.9,49.81   " id="path3098" style="fill:none;fill-rule:evenodd;stroke:#000000;stroke-width:2;stroke-linecap:round;stroke-linejoin:round;stroke-miterlimit:4;stroke-dasharray:none;stroke-opacity:1"/>
    <path d="M291.4,29.18   C318.5,28.43 326.3,36.01 343.9,34.43   " id="path3090" style="fill:none;fill-rule:evenodd;stroke:#000000;stroke-width:2.5;stroke-linecap:round;stroke-linejoin:round;stroke-miterlimit:4;stroke-dasharray:none;stroke-opacity:1"/>
    <path d="M304.9,29.43   C315.6,27.21 325.7,28.63 334.4,34.43   C330.8,56.68 305.4,54.94 304.9,29.43   z " id="path3088" style="fill:#ffffff;fill-opacity:1;fill-rule:evenodd;stroke:#000000;stroke-width:2.5;stroke-linecap:round;stroke-linejoin:round;stroke-miterlimit:4;stroke-dasharray:none;stroke-opacity:1"/>
    <path d="M319.9,29.6   C331,30.55 328.8,46.1 318.6,44.44   C308.2,42.75 308.3,28.6 319.9,29.6   z " id="path3092" style="fill:#020000;fill-opacity:1;fill-rule:evenodd;stroke:none;stroke-width:2.5;stroke-linecap:round;stroke-linejoin:round;stroke-miterlimit:4;stroke-dasharray:none;stroke-opacity:1"/>
    <path d="M305.9,29.62   C311.9,32.97 321.9,33.18 331.4,32.68   C323.4,29.65 315.3,27.08 305.9,29.62   z " id="path3094" style="fill:#020000;fill-opacity:1;fill-rule:evenodd;stroke:none;stroke-width:1.5;stroke-linecap:round;stroke-linejoin:round;stroke-miterlimit:4;stroke-dasharray:none;stroke-opacity:1"/>
  </g>
</svg>
