<?xml version="1.0" encoding="UTF-8" standalone="no"?>
<!-- Created with Inkscape (http://www.inkscape.org/) -->
<svg xmlns:dc="http://purl.org/dc/elements/1.1/" xmlns:cc="http://creativecommons.org/ns#" xmlns:rdf="http://www.w3.org/1999/02/22-rdf-syntax-ns#" xmlns:svg="http://www.w3.org/2000/svg" xmlns="http://www.w3.org/2000/svg" xmlns:sodipodi="http://sodipodi.sourceforge.net/DTD/sodipodi-0.dtd" xmlns:inkscape="http://www.inkscape.org/namespaces/inkscape" width="269.22635" height="192.10826" id="svg3070" version="1.1" inkscape:version="0.48.4 r9939" sodipodi:docname="bears-head.svg">
  <defs id="defs3072"/>
  <sodipodi:namedview id="base" pagecolor="#ffffff" bordercolor="#666666" borderopacity="1.0" inkscape:pageopacity="0.0" inkscape:pageshadow="2" inkscape:zoom="2.9138051" inkscape:cx="133.99367" inkscape:cy="96.356151" inkscape:document-units="px" inkscape:current-layer="g9726" showgrid="false" fit-margin-top="0" fit-margin-left="0" fit-margin-right="0" fit-margin-bottom="0"/>
  <metadata id="metadata3075">
    <rdf:RDF>
      <cc:Work rdf:about="">
        <dc:format>image/svg+xml</dc:format>
        <dc:type rdf:resource="http://purl.org/dc/dcmitype/StillImage"/>
        <dc:title/>
        <dc:creator>
          <cc:Agent>
            <dc:title>http://commons.wikimedia.org/wiki/User:Spedona</dc:title>
          </cc:Agent>
        </dc:creator>
      </cc:Work>
    </rdf:RDF>
  </metadata>
  <g inkscape:label="Layer 1" inkscape:groupmode="layer" id="layer1">
    <g style="display:inline" id="g9726">
      <g style="display:inline" id="g9728">
        <g id="tongued" inkscape:label="#g3115">
          <path id="path13675" style="fill:#ff0000;fill-opacity:1;fill-rule:evenodd;stroke:#313131;stroke-width:3;stroke-linecap:butt;stroke-linejoin:miter;stroke-miterlimit:4;stroke-opacity:1;stroke-dasharray:none;display:inline" d="m82.79,96.39   c-7.366,-8.518 -14.39,-13.25 -26.02,-13.9 -10.08,-0.7072 -20.5,9.856 -30.05,9.581 -15.92,1.161 -24.84,-23.62 -26,-6.678 0.7546,10.14 15.89,15.78 25.79,16.03 11.49,0.3032 19.58,-8.31 30.48,-10.77 7.252,-1.105 13.87,3.312 19.85,7.594 2.034,1.374 3.999,-1.53 5.953,-1.87   z " sodipodi:nodetypes="cccccccc" inkscape:connector-curvature="0"/>
        </g>
        <g id="armed" inkscape:label="#g3118">
          <path id="path12800" style="fill:#00ff00;fill-opacity:1;fill-rule:evenodd;stroke:#313131;stroke-width:3;stroke-linecap:butt;stroke-linejoin:miter;stroke-miterlimit:4;stroke-opacity:1;stroke-dasharray:none;display:inline" d="m21.69,76.19   c3.175,6.047 6.389,13.8 13.13,16.6 -1.591,-5.222 -0.6545,-10.29 0.4538,-15.47 -4.361,-1.754 -9.007,-1.615 -13.58,-1.133   z " sodipodi:nodetypes="cccc" inkscape:connector-curvature="0"/>
          <path id="path11925" style="fill:#00ff00;fill-opacity:1;fill-rule:evenodd;stroke:#313131;stroke-width:3;stroke-linecap:butt;stroke-linejoin:miter;stroke-miterlimit:4;stroke-opacity:1;stroke-dasharray:none;display:inline" d="m52.79,101.3   c-4.895,-3.283 -8.846,-7.712 -13.3,-11.53 -1.713,-1.713 -1.774,0.237 -1.774,1.774 0.6877,4.743 2.704,9.301 5.322,13.3 3.503,-0.3608 6.944,-1.397 9.756,-3.548   z " sodipodi:nodetypes="ccccc" inkscape:connector-curvature="0"/>
        </g>
        <path inkscape:connector-curvature="0" sodipodi:nodetypes="cccccccssccsccsccccccccccccccccccccccccccccc" d="m176.4,25.89   c-2.898,0.1609 -4.158,-7.19 -7.062,-7.342 -16.38,1.423 -32.87,-0.5355 -49.04,2.635 -1.59,0.3976 -2.728,1.052 -4.705,1.192 -18.5,1.301 -27.74,11.1 -35.51,11.23 -9.861,-0.6303 -14.32,4.541 -18.63,11.86 -0.5995,1.199 -2.621,3.414 -3.645,3.67 -5.108,1.449 -13.8,2.814 -18.5,5.331 -4.99,2.675 -10.95,2.422 -16,4.705 -3.397,1.536 -4.862,2.621 -7.337,3.889 -3.346,3.027 -2.201,5.203 0.06906,8.689 0.5573,1.114 0.5644,2.201 0.5644,3.889 0,1.514 1.772,1.129 3.262,1.129 9.538,2.524 19.46,3.448 29.29,4.14 7.94,-1.795 17.88,-5.104 28.53,-4.705 14.22,0.5331 20.21,9.244 0.2003,18.94 -4.14,2.076 -8.357,2.522 -12.49,1.217 -3.929,-0.3303 -13.66,2.71 -17.28,4.184 -3.392,4.743 -9.538,2.613 -13.61,5.644 -0.118,2.64 2.388,4.467 4.14,6.46 7.38,4.113 22.24,1.211 29.9,-0.8784 7.779,-1.306 23.13,5.189 30.74,7.584 2.383,3.72 17.38,3.788 20.47,6.413 2.988,14.2 2.413,50.56 -1.818,62.75 14,-4.885 11.48,-33.39 22.23,-38.72 3.47,3.477 18.11,24.84 39.38,40.63 -1.417,-18.47 7.257,-32.83 3.376,-37.32 9.439,2.554 11.76,28.7 30.72,37.69 -4.771,-17.24 0.8893,-33.12 -2.784,-38.76 17.63,2.78 11.51,38.51 36.87,34.31 -9.998,-17.4 -6.55,-32.58 -10.95,-44.58 0.9775,-4.923 11.65,11.44 28.24,9.496   C235.3,126.4 244.1,122 247.5,114 249.8,110.2 258,109.7 267.3,112.7 253,93.99 239.3,91.59 235.8,83.19   c4.724,-5.578 6.887,-1.538 14.62,-3.828 -3.71,-2.762 -32.5,-14.98 -36.6,-14.56 -1.254,-3.392 14.61,-7.001 14.94,-10.56 -3.443,0.225 -18.53,2.788 -21.64,4.133 -1.039,-3.853 8.666,-11.93 7.907,-15.68 -7.84,-1.286 -16.85,-2.347 -23.97,1.873 -2.824,-4.172 -1.356,-7.456 0.9481,-11.55 -1.842,-0.2204 -4.123,0.8134 -6.028,1.451 -3.332,-2.561 -5.497,-7.788 -9.624,-8.594   z " style="fill:#ffff00;fill-opacity:1;fill-rule:evenodd;stroke:#000000;stroke-width:3;stroke-linecap:butt;stroke-linejoin:miter;stroke-miterlimit:4;stroke-opacity:1;stroke-dasharray:none;display:inline" id="path18970"/>
        <path inkscape:connector-curvature="0" d="m79.79,38.99   c-0.6636,0 -3.169,0 -4.73,0 -1.707,0 -2.472,0.3488 -3.548,0.8869 -1.271,0.6356 -1.862,0.9752 -2.661,1.774 -0.9301,0.9301 -1.161,1.752 -2.069,2.661 -0.7518,0.7518 -1.105,2.209 -1.478,2.956 -0.4548,0.9097 -2.119,1.565 -2.956,1.774 -2.113,0.5284 1.148,1.026 1.774,1.182 1.347,0.3367 3.07,-0.02846 4.139,-0.2956 1.328,-0.3319 2.28,-1.394 2.956,-2.069 0.9477,-0.9477 0.8575,2.543 1.182,3.843 0.5763,2.305 2.175,-0.9922 2.661,-1.478 0.8737,-0.8737 2.225,-1.182 3.548,-1.182 2.564,0 1.29,0.2013 -0.2956,-0.5915 -1.327,-0.6636 -2.061,-1.694 -2.956,-2.365 -1.649,-1.237 0.1507,-3.107 0.5915,-3.548 0.9728,-0.9728 1.735,-1.697 2.365,-2.956 0.2373,-0.4748 0.9856,-0.3942 1.478,-0.5915   z " style="fill:#000000;fill-opacity:1;fill-rule:evenodd;stroke:#313131;stroke-width:3;stroke-linecap:butt;stroke-linejoin:miter;stroke-miterlimit:4;stroke-opacity:1;stroke-dasharray:none;display:inline" id="path10175"/>
        <path inkscape:connector-curvature="0" sodipodi:nodetypes="ccccccccccccc" d="m141.9,0.8899   c-6.986,0.5061 -13.8,4.557 -18.03,10.05 -3.246,4.594 -5.502,9.382 -7.096,14.78 -1.385,4.131 -1.668,8.703 0,12.71 0.3067,0.1533 0.6266,0.2943 0.9609,0.4435 0.7764,-2.234 1.7,-5.469 1.7,-6.356 1.389,-7.641 5.725,-12.23 12.14,-17.55 15.23,-7.731 33.65,2.326 28.71,20.38 -4.786,7.409 -8.713,10.49 -15.14,14.22 1.56,0.2426 0.7892,1.591 2.036,1.279 7.565,-2.478 15.27,-8.594 20.15,-14.49 4.039,-6.213 5.26,-15.23 2.365,-22.17 -5.075,-12.78 -16.17,-13.96 -27.79,-13.3   z " style="fill:#ffff00;fill-opacity:1;fill-rule:evenodd;stroke:#000000;stroke-width:3;stroke-linecap:butt;stroke-linejoin:miter;stroke-miterlimit:4;stroke-opacity:1;stroke-dasharray:none;display:inline" id="path15425"/>
        <path inkscape:connector-curvature="0" sodipodi:nodetypes="ccscscc" d="m115.5,46.09   c0.4033,-0.2355 2.51,-6.617 2.51,-7.869 0.2891,-7.015 2.589,-15.12 8.647,-20.08 4.491,-3.684 11.53,-8.229 17.5,-8.76 15.14,-0.1779 24.15,15 15.97,30.2 -3.836,7.129 -5.995,11.08 -11.99,11.94 -2.746,-2.148 -10.91,2.449 -12.15,2.449   " style="fill:#000000;fill-opacity:1;fill-rule:evenodd;stroke:#313131;stroke-width:3;stroke-linecap:butt;stroke-linejoin:miter;stroke-miterlimit:4;stroke-opacity:1;stroke-dasharray:none;display:inline" id="path2230"/>
      </g>
      <g inkscape:label="muselière" style="display:inline" id="muzzled">
        <path inkscape:connector-curvature="0" id="path2219" style="fill:#0000ff;stroke:#000000;stroke-width:2;stroke-miterlimit:4;stroke-dasharray:none" d="m111.8,119.4   c-6.92,0 -12.54,5.611 -12.54,12.54 0,6.925 5.616,12.54 12.54,12.54 6.925,0 12.54,-5.611 12.54,-12.54 0,-6.925 -5.611,-12.54 -12.54,-12.54   z m0,21.94   c-5.194,0 -9.405,-4.21 -9.405,-9.405 0,-5.194 4.212,-9.405 9.405,-9.405 5.194,0 9.405,4.21 9.405,9.405 0.001423,5.194 -4.209,9.405 -9.405,9.405   z "/>
        <path inkscape:connector-curvature="0" id="path2253" style="fill:#0000ff;stroke:#000000;stroke-width:2;stroke-miterlimit:4;stroke-dasharray:none" d="m110.2,122.7   c0.7001,0.6047 5.834,2.083 7.176,1.949 1.092,-0.7271 2.112,-0.8737 1.697,-2.452 0.9002,-1.736 2.504,-4.652 3.649,-7.238 4.937,-11.15 8.462,-25.02 9.429,-35.56 -0.6275,-2.516 0.2341,-2.306 1.051,0.06379 8.903,11.73 25.94,14.34 41.01,24.78 -11.36,13.14 -27.92,19.68 -41.77,22.64 -3.141,0.6721 -6.251,1.597 -8.964,1.356 -1.345,1.179 -2.252,0.9486 -3.262,0.2856 -0.9576,0.619 -1.168,6.095 -0.08239,7.347 1.082,0.5265 2.162,1.101 3.526,0.2745 2.535,0.2758 6.327,-0.2208 9.581,-0.8229 15.56,-2.878 31.97,-12.54 41.32,-18.85 3.807,-2.793 5.013,-3.673 5.009,-3.996 0,0 1.077,-1.723 2.33,-1.802 3.553,-0.1128 5.559,-3.065 6.185,-6.28   l2.837,-4.099   c3.493,-3.502 12.99,-8.495 22.25,-15.4 7.062,-5.27 12.48,-12.44 15.94,-16.24 -1.574,-3.299 -8.903,-6.365 -11.35,-4.904 -3.213,9.481 -33.57,25.91 -38.47,34.28 -16.29,-15.82 -30.25,-14.84 -42.05,-25.59 8.101,-0.9296 20.93,-7.726 30.84,-15.48 9.78,-7.086 19.56,-19.4 18.19,-24.54 2.275,-1.604 -3.142,-6.721 -6.441,-6.844 -0.85,3.784 -1.663,7.859 -4.711,11.8 -3.387,4.383 -7.859,9.273 -13.57,14.1 -7.954,6.721 -20.06,11.11 -28.86,13.23 -1.785,-0.06692 -0.1484,-0.03008 -0.8466,-0.9088 -4.199,-16.59 -17.84,-40.7 -24.64,-42.12 -3.138,-0.02889 -7.053,0.6574 -8.334,3.027 3.074,2.19 18.98,15.35 23.89,41.31 -27.68,2.661 -30.32,9.405 -55.73,7.987 -0.3307,-3.752 -2.166,-7.001 -3.014,-10.55 -1.433,-5.995 -4.724,-11.31 -9.287,-14.6 -1.716,-0.5919 -6.413,-0.5896 -8.011,0.9709 2.307,1.51 8.955,12.12 10.49,18.7 2.26,9.676 6.062,40.21 1.39,47   l8.945,-2.464   c1.669,-5.255 2.074,-11.29 1.822,-16.71 -0.2876,-6.185 -1.43,-11.56 -2.525,-14.06 23.04,2.829 32.44,-3.608 56.63,-7.527 -1.937,21.57 -5.768,29.62 -9.353,38.06 -0.9315,2.195 -1.423,4.895 -2.901,6.911 0.886,1.144 0.1953,1.676 -1.011,2.958   z " sodipodi:nodetypes="cccscccsccccscccccscccccccssccccccsccsccsccscc"/>
        <path inkscape:connector-curvature="0" sodipodi:nodetypes="ccccccc" d="m130.8,62.29   c-0.289,1.218 -0.2365,1.571 -1.67,1.586 -1.107,-0.4942 -0.6256,-2.568 -0.6968,-4.412 -3.517,-8.537 -1.846,-1.989 -1.227,1.872 -0.3825,2.177 -0.6043,2.483 -1.152,1.59 -1.643,-6.109 -5.801,-12.11 -1.75,-0.6308 0.1825,0.8684 -0.8106,3.018 -1.279,3.37   " style="fill:#0000ff;stroke:#000000;stroke-width:2;stroke-miterlimit:4;stroke-dasharray:none" id="path2283"/>
        <path inkscape:connector-curvature="0" sodipodi:nodetypes="cscccccccc" id="path2287" style="fill:#000080;stroke:#000000;stroke-width:2;stroke-miterlimit:4;stroke-dasharray:none" d="m123.4,74.49   c0.6394,-0.2817 0.3269,-1.001 -0.222,-1.426 -0.8319,-0.6422 -1.539,-0.6673 -3.497,-0.1227 -1.236,0.3427 -2.36,0.6465 -3.444,0.8604 -7.873,1.968 -6.232,-0.5099 -0.1446,-1.82 1.41,-0.2314 2.885,-0.3111 4.161,-0.61 1.99,-0.5284 1.666,-0.6014 -2.874,-0.664 -6.066,0.245 -10.44,-0.6185 -1.249,-1.352 2.27,-0.1648 4.814,-0.5431 6.389,-1.857 0.2321,-0.3474 0.3226,-0.7096 0.2,-0.8044   "/>
        <path inkscape:connector-curvature="0" sodipodi:nodetypes="csccccccccccsccscccsc" d="m134.2,66.19   c-0.3606,0.2073 -0.5535,0.3752 -0.5535,0.4933 0,1.044 0.4307,1.022 4.015,-0.2 5.089,-1.734 6.996,-1.687 0.4628,1.194 -4.857,1.743 -4.229,1.937 2.552,0.7911 8.338,-2.954 -0.4753,1.97 -1.274,2.279 -1.614,0.7779 -3.417,-0.8343 -4.148,1.106 -0.1577,0.6071 -0.3234,1.435 0.4124,1.467 6.636,5.279 9.358,7.84 1.585,3.112 -3.375,-2.198 -3.784,-1.883 -0.8694,1.331 2.017,3.048 4.35,6.469 -0.6716,1.198   l-2.625,-2.489   c-0.2278,-0.2307 -1.013,-0.8485 -1.504,-0.4413 -0.6308,0.5241 -1.275,2.111 -1.048,4.246 -0.9481,6.621 -2.011,6.949 -1.41,-0.9168 -0.8087,-3.042 -0.3508,-3.538 -0.8049,-1.651 -0.254,1.055 -0.8642,3.069 -1.365,4.475 -2.171,4.795 -2.377,3.996 -1.234,-0.6394 0.1343,-1.758 0.3583,-3.699 0.6123,-4.315 0.3577,-0.8585 0.05469,-1.885 -0.9775,-1.885 -0.5473,0 -1.17,0.8632 -1.372,1.173   " style="fill:#0000ff;stroke:#000000;stroke-width:2;stroke-miterlimit:4;stroke-dasharray:none" id="path2289"/>
        <path inkscape:connector-curvature="0" sodipodi:nodetypes="csss" d="m131.7,69.69   c0.1446,-3.285 -3.779,-4.526 -6.104,-2.496 -1.686,1.474 -1.465,3.489 0,4.99 2.372,2.434 5.971,0.5061 6.104,-2.496   z " style="fill:#0000ff;stroke:#000000;stroke-width:2;stroke-miterlimit:4;stroke-dasharray:none" id="path2291"/>
      </g>
    </g>
  </g>
</svg>
