<?xml version="1.0" encoding="UTF-8" standalone="no"?>
<!-- Created with Inkscape (http://www.inkscape.org/) -->
<svg xmlns:dc="http://purl.org/dc/elements/1.1/" xmlns:cc="http://creativecommons.org/ns#" xmlns:rdf="http://www.w3.org/1999/02/22-rdf-syntax-ns#" xmlns:svg="http://www.w3.org/2000/svg" xmlns="http://www.w3.org/2000/svg" version="1.1" width="238.52299" height="290.07599" viewBox="0 0 238.523 290.076" id="Calque_1" xml:space="preserve"><metadata id="metadata4229"><rdf:RDF><cc:Work rdf:about=""><dc:format>image/svg+xml</dc:format><dc:type rdf:resource="http://purl.org/dc/dcmitype/StillImage"/><dc:title/><cc:license rdf:resource=""/><dc:creator><cc:Agent><dc:title>wikimedia-commons:Fdupas</dc:title></cc:Agent></dc:creator></cc:Work></rdf:RDF></metadata><defs id="defs4227"/><g id="g4074"><g id="g4080"><g id="body" style="stroke-width:1.50000012"><path d="m 42.377,50.039 c 0,0 -0.734,2.568 6.604,6.237 0,0 0,5.503 0.917,6.421 0.917,0.917 19.262,13.942 20.363,16.694 1.1,2.751 -2.018,2.384 -3.854,2.018 0,0 4.771,1.467 6.604,4.402 0,0 3.67,3.485 -1.65,2.019 0,0 3.669,2.201 6.971,4.585 3.303,2.384 0.735,2.751 -2.017,1.651 0,0 5.136,3.119 5.871,4.035 0.733,0.917 1.284,4.587 1.284,4.587 0,0 12.659,5.319 16.511,3.853 l 0.184,-1.834 c 0,0 -4.404,-5.688 -4.587,-10.64 0,0 -12.291,-10.273 -12.658,-18.161 -0.367,-7.889 -6.971,-5.688 -6.971,-5.688 0,0 -11.19,-9.173 -12.108,-12.107 -0.917,-2.936 -6.237,-5.688 -6.237,-5.688 0,0 -1.101,-5.87 -3.486,-6.239 0,0 -0.917,4.221 -5.503,2.202 -0.001,0 -3.488,3.119 -6.238,1.653 z" id="path4100" style="fill:#ffff00;stroke:#000000;stroke-width:1.50000012"/><path d="m 152.25,183.506 c 0,0 -6.789,3.992 -10.383,-2.396 -3.594,-6.388 -10.382,10.383 -10.382,12.778 0,2.396 0,15.173 0,16.37 0,1.198 -3.593,-5.989 -4.392,-4.392 -0.799,1.596 -1.598,8.385 -1.996,11.979 0,0 -1.199,-5.19 -3.195,-5.19 -1.996,0 -1.598,7.187 -1.996,10.78 l -2.795,-2.795 c 0,0 -1.198,-0.398 -1.997,8.783 0,0 -1.996,-4.391 -2.794,-2.794 -0.798,1.597 -2.396,13.176 -2.396,13.176 l -7.187,2.796 c 0,0 -2.396,7.586 -3.594,7.985 -1.198,0.4 -9.981,-5.189 -9.981,-7.187 0,-1.998 -0.798,-6.788 7.188,-9.184 0,0 12.777,-19.565 13.176,-29.548 0.399,-9.983 -5.59,-27.95 4.792,-45.119 0,0 11.18,-10.382 21.562,-13.576 0,0 4.392,-2.795 -3.195,-3.994 -7.585,-1.197 -29.147,-8.784 -29.946,-37.133 0,0 -15.173,-13.975 -2.396,-30.745 l 19.167,-17.968 0.398,-2.396 c 0,0 -8.385,1.597 -10.381,-2.396 0,0 -3.195,1.198 -0.4,7.187 0,0 -1.597,-1.198 -3.194,0 -1.597,1.198 -1.597,6.789 -3.993,6.789 -2.396,0 -6.388,4.791 -6.388,5.989 0,1.198 0.798,-6.788 3.992,-9.583 l -0.008,-1.619 c 0,0 -3.521,2.543 -4.107,2.935 -0.587,0.39 2.151,-4.109 0.978,-6.652 -1.173,-2.542 -5.281,-6.064 -5.281,-7.629 0,-1.565 0.587,-5.869 0.587,-5.869 0,0 -7.825,-4.304 0.391,-9.781 8.216,-5.477 12.911,-4.304 14.475,-5.282 1.565,-0.979 1.566,-8.02 8.608,-8.608 7.042,-0.585 5.478,1.37 5.478,1.37 0,0 7.629,-5.281 16.041,-3.716 8.412,1.565 8.607,15.258 8.607,15.258 l 5.672,9.585 c 0,0 4.108,5.673 1.566,17.02 -2.543,11.347 -10.76,18.389 -2.935,38.342 0,0 0.587,1.174 5.282,4.696 4.694,3.522 26.605,19.366 33.646,31.887 l 0.393,1.37 c 0,0 14.279,3.521 16.236,-0.588 0,0 -0.587,9.586 -12.912,12.127 0,0 -1.955,8.999 1.37,16.824 0,0 -4.108,-0.978 -5.282,0.979 0,0 2.152,9.781 1.564,12.128 0,0 0,-2.543 -1.956,-3.13 0,0 0.392,3.13 -0.195,5.086 -0.587,1.957 -3.13,7.631 -3.13,7.631 0,0 -1.564,9.193 1.174,11.735 2.738,2.544 8.216,5.479 9.781,6.064 0,0 -0.196,11.738 0.195,13.891 0.391,2.153 -2.739,-1.369 -2.739,-1.369 0,0 -0.448,7.788 0.749,10.783 0.172,0.429 0.377,0.757 0.621,0.954 1.956,1.566 -5.086,-0.979 -3.717,2.738 1.369,3.717 2.543,10.172 2.543,10.172 0,0 -5.478,-1.172 -6.26,1.176 -0.783,2.345 -0.979,11.15 -0.979,11.15 0,0 -9.586,-4.5 -9.977,-8.218 -0.392,-3.717 2.738,-9.78 3.717,-10.563 0.979,-0.782 4.304,-13.693 1.369,-20.345 -2.934,-6.651 -5.673,-8.802 -8.411,-10.172 -2.739,-1.368 -20.163,-12.593 -20.448,-20.576 z" id="path4104" style="fill:#ffff00;stroke:#000000;stroke-width:1.50000012"/><g id="g4108" style="fill:#ffff00;stroke:#000000;stroke-width:1.50000012"><path d="m 41.737,132.178 -1.074,7.518 c 0,0 10.201,1.878 12.348,0.804 0,0 -0.805,-3.222 1.074,-3.757 1.879,-0.538 0.806,-7.517 0.806,-7.517 0,0 8.589,-9.396 9.664,-11.275 0,0 4.563,0.538 6.711,-1.61 2.147,-2.147 11.811,-1.074 10.469,2.685 -1.343,3.758 -5.906,2.149 -5.906,2.149 0,0 3.222,3.757 12.349,2.683 0,0 2.147,1.88 -2.417,3.49 0,0 7.785,2.685 11.544,-0.804 0,0 1.341,3.22 -2.954,4.563 0,0 14.496,-0.537 16.375,-2.953 0,0 -0.805,4.294 -4.832,4.832 0,0 13.422,1.611 16.643,-2.684 3.223,-4.295 6.176,-16.911 5.906,-19.865 -0.269,-2.953 0,-22.011 -12.616,-13.958 0,0 -3.222,6.71 -4.563,12.347 l -30.333,-4.025 c 0,0 -8.59,-2.147 -9.396,-1.342 -0.805,0.805 -2.953,4.295 -5.368,5.101 -2.417,0.805 -8.053,-1.075 -10.201,3.758 0,0 -4.563,8.859 -5.1,9.664 -0.538,0.805 -4.833,8.59 -5.638,8.052 -0.807,-0.54 -3.491,2.144 -3.491,2.144 z" id="path4110" style="fill:#ffff00;stroke:#000000;stroke-width:1.50000012"/><path d="m 117.994,95.455 c 0,0 -3.132,-0.732 -6.73,13.368 0,0 -25.163,-3.719 -29.59,-3.719" id="path4112" style="fill:#ffff00;stroke:#000000;stroke-width:1.50000012;stroke-linecap:round"/><path d="m 127.188,100.79 c 0,0 4.767,14.758 -5.335,30.078 0,0 -2.583,3.053 -11.081,2.544" id="path4114" style="fill:#ffff00;stroke:#000000;stroke-width:1.50000012;stroke-linecap:round"/></g></g><g id="horned" style="fill:#0000ff;stroke-width:1.50000012"><g id="g4124" style="fill:#0000ff;stroke-width:1.50000012">
								<path d="m 141.534,21.898 c 0,0 -6.01,-4.006 -5.608,-5.408 0.4,-1.402 4.206,-4.807 8.012,-1.402 0,0 3.405,-8.814 9.215,-2.203 0,0 4.607,-7.212 8.613,0 0,0 5.208,-7.413 9.215,0 0,0 6.409,-4.607 7.813,5.008 0,0 9.414,13.621 0,22.635 0,0 3.404,-4.207 4.206,-5.208 0,0 2.805,-2.003 2.403,7.212 0,0 4.207,3.806 -0.4,7.812 0,0 2.203,4.807 -2.003,7.813 0,0 0.401,6.409 -2.403,8.213 0,0 0.2,6.209 -3.205,6.41 0,0 0.601,3.005 -0.801,5.008 0,0 2.002,3.807 -0.4,6.41 0,0 -0.802,6.811 1.201,11.218 0,0 -10.016,-12.619 -3.005,-36.457 7.009,-23.84 -22.438,-46.876 -32.853,-37.061 z" id="path4126" style="fill:#0000ff;stroke:#000000;stroke-width:1.50000012;stroke-linecap:round"/>
								<path d="m 143.938,15.088 c 0,0 2.004,2.003 2.805,3.406" id="path4128" style="fill:#0000ff;stroke:#000000;stroke-width:1.50000012;stroke-linecap:round"/>
								<path d="m 153.152,12.885 c 0,0 1.203,2.404 1.803,4.207" id="path4130" style="fill:#0000ff;stroke:#000000;stroke-width:1.50000012;stroke-linecap:round"/>
								
									<line x1="161.76601" y1="12.885" x2="162.367" y2="15.088" id="line4132" style="fill:#0000ff;stroke:#000000;stroke-width:1.50000012;stroke-linecap:round"/>
								<path d="m 185.402,42.532 c 0,0 -0.4,1.802 -5.207,4.006" id="path4134" style="fill:#0000ff;stroke:#000000;stroke-width:1.50000012;stroke-linecap:round"/>
								<path d="m 185.002,50.343 c 0,0 -2.604,2.003 -6.01,2.204" id="path4136" style="fill:#0000ff;stroke:#000000;stroke-width:1.50000012;stroke-linecap:round"/>
								<path d="m 182.999,58.156 c 0,0 -2.604,0.8 -4.808,0" id="path4138" style="fill:#0000ff;stroke:#000000;stroke-width:1.50000012;stroke-linecap:round"/>
								<path d="m 180.596,66.369 c 0,0 -4.207,0.602 -5.008,0.4" id="path4140" style="fill:#0000ff;stroke:#000000;stroke-width:1.50000012;stroke-linecap:round"/>
								<path d="m 177.391,72.778 c 0,0 -2.004,0 -2.805,0" id="path4142" style="fill:#0000ff;stroke:#000000;stroke-width:1.50000012;stroke-linecap:round"/>
								<path d="m 176.59,77.786 c 0,0 -2.004,1.403 -2.805,1.403" id="path4144" style="fill:#0000ff;stroke:#000000;stroke-width:1.50000012;stroke-linecap:round"/>
								<path d="m 176.189,84.196 c 0,0 -1.003,1.403 -1.604,1.403" id="path4146" style="fill:#0000ff;stroke:#000000;stroke-width:1.50000012;stroke-linecap:round"/>
							</g><g id="g4148" style="fill:#0000ff;stroke-width:1.50000012">
								<path d="m 194.41,96.683 c 0,0 -12.82,-3.606 -7.412,-28.445 5.408,-24.84 8.613,-27.644 -10.818,-38.26 0,0 -26.44,2.404 -32.65,-1.203 -6.21,-3.604 -0.4,-11.617 4.607,-8.212 0,0 4.205,-9.815 10.616,-2.404 0,0 2.004,-8.813 8.614,-1.001 0,0 2.203,-6.41 8.213,0.4 0,0 8.213,-3.406 8.813,4.207 0,0 6.21,-3.005 6.61,2.804 0,0 7.612,0.802 5.609,7.612 0,0 5.809,1.803 3.404,8.214 0,0 3.605,2.804 0,8.213 0,0 5.208,3.605 -1.402,7.611 0,0 2.404,3.406 -2.002,6.411 0,0 4.206,3.806 -2.404,6.811 0,0 3.205,3.004 -1.602,6.209 0,0 0.199,4.607 -0.803,6.21 0,0 1.803,3.005 0.201,5.208 l 2.406,9.615 z" id="path4150" style="fill:#0000ff;stroke:#000000;stroke-width:1.50000012;stroke-linecap:round"/>
								<path d="m 148.137,20.563 c 0,0 2.403,2.604 3.205,4.808" id="path4152" style="fill:#0000ff;stroke:#000000;stroke-width:1.50000012;stroke-linecap:round"/>
								<path d="m 158.354,17.558 c 0,0 1.602,3.005 2.002,5.008" id="path4154" style="fill:#0000ff;stroke:#000000;stroke-width:1.50000012;stroke-linecap:round"/>
								<path d="m 167.367,17.157 c 0,0 0.801,3.004 0.801,5.809" id="path4156" style="fill:#0000ff;stroke:#000000;stroke-width:1.50000012;stroke-linecap:round"/>
								<path d="m 175.58,17.558 c 0,0 1.602,3.005 1.201,6.01" id="path4158" style="fill:#0000ff;stroke:#000000;stroke-width:1.50000012;stroke-linecap:round"/>
								<path d="m 184.394,21.764 c 0,0 1.002,3.406 -1.603,6.811" id="path4160" style="fill:#0000ff;stroke:#000000;stroke-width:1.50000012;stroke-linecap:round"/>
								<path d="m 190.939,25.042 c 0,0 -0.6,1.803 -1.2,3.407" id="path4162" style="fill:#0000ff;stroke:#000000;stroke-width:1.50000012;stroke-linecap:round"/>
								<path d="m 196.613,32.18 c 0,0 -1.002,3.606 -3.606,4.407" id="path4164" style="fill:#0000ff;stroke:#000000;stroke-width:1.50000012;stroke-linecap:round"/>
								<path d="m 200.018,40.394 c 0,0 -1.402,2.002 -5.207,2.804" id="path4166" style="fill:#0000ff;stroke:#000000;stroke-width:1.50000012;stroke-linecap:round"/>
								<path d="m 200.218,47.805 c 0,0 0,1.001 -3.806,1.802" id="path4168" style="fill:#0000ff;stroke:#000000;stroke-width:1.50000012;stroke-linecap:round"/>
								<path d="m 199.417,55.617 c 0,0 -1.401,0.4 -3.205,0.801" id="path4170" style="fill:#0000ff;stroke:#000000;stroke-width:1.50000012;stroke-linecap:round"/>
								<path d="m 197.615,61.828 c 0,0 -2.205,1 -4.809,1" id="path4172" style="fill:#0000ff;stroke:#000000;stroke-width:1.50000012;stroke-linecap:round"/>
								<path d="m 195.41,68.638 c 0,0 -2.203,1.402 -3.807,1.402" id="path4174" style="fill:#0000ff;stroke:#000000;stroke-width:1.50000012;stroke-linecap:round"/>
								<path d="m 192.607,75.648 c 0,0 -3.006,1.002 -3.607,1.002" id="path4176" style="fill:#0000ff;stroke:#000000;stroke-width:1.50000012;stroke-linecap:round"/>
								<path d="m 192.205,81.059 c 0,0 -0.199,1 -2.403,1" id="path4178" style="fill:#0000ff;stroke:#000000;stroke-width:1.50000012;stroke-linecap:round"/>
								<path d="m 192.406,86.266 c 0,0 -1.203,1.602 -1.803,1.602" id="path4180" style="fill:#0000ff;stroke:#000000;stroke-width:1.50000012;stroke-linecap:round"/>
							</g>
						</g><g id="hooved" style="fill:#00ff00;stroke-width:1.50000012"><path d="m 43.11,33.344 c 0,0 -0.366,7.338 5.688,14.493 0,0 0.368,4.036 -4.402,2.936 C 39.625,49.672 38.525,39.398 43.11,33.344 z" id="path4096" style="fill:#00ff00;stroke:#000000;stroke-width:1.50000012"/><path d="m 46.045,27.474 c 0,0 0.184,9.54 8.255,18.529 0,0 -0.365,4.954 -5.319,2.751 -4.953,-2.2 -8.989,-14.308 -2.936,-21.28 z" id="path4098" style="fill:#00ff00;stroke:#000000;stroke-width:1.50000012"/><g id="g4116" style="fill:#00ff00;stroke-width:1.50000012">
										<path d="m 48.828,140.755 h 2.699 c 0,0 2.428,10.791 -8.094,17.536 l -1.618,0.811 -0.539,-4.318" id="path4118" style="fill:#00ff00;stroke:#000000;stroke-width:1.50000012"/>
										<path d="m 41.275,139.676 7.823,0.27 c 0,0 1.889,14.298 -16.726,19.156 0,0 9.172,-17.268 8.903,-19.426 z" id="path4120" style="fill:#00ff00;stroke:#000000;stroke-width:1.50000012"/>
									</g><g id="g4182" style="fill:#00ff00;stroke-width:1.50000012">
							<path d="m 82.792,254.373 c 0,0 9.008,-4.182 11.259,-6.113 2.252,-1.932 4.826,0.964 4.826,2.252 0,1.287 -7.399,8.043 -16.085,3.861 z" id="path4184" style="fill:#00ff00;stroke:#000000;stroke-width:1.50000012"/>
							<path d="m 89.226,242.468 c 0,0 5.147,1.93 4.826,5.792 -0.321,3.86 -13.834,8.043 -24.129,4.504 l -2.572,-1.288 c -0.001,0 16.405,-2.895 21.875,-9.008 z" id="path4186" style="fill:#00ff00;stroke:#000000;stroke-width:1.50000012"/>
						</g><g id="g4188" style="fill:#00ff00;stroke-width:1.50000012">
							<path d="m 168.412,258.84 c 0,0 10.52,-8.295 10.926,-9.307 0.403,-1.012 6.475,-1.013 7.081,3.034 0.607,4.049 -12.747,8.297 -18.007,6.273 z" id="path4190" style="fill:#00ff00;stroke:#000000;stroke-width:1.50000012"/>
							<path d="m 174.076,245.081 c 0,0 5.868,-1.013 5.665,5.261 0,0 -9.104,10.117 -20.03,8.095 0,0 13.557,-10.725 14.365,-13.356 z" id="path4192" style="fill:#00ff00;stroke:#000000;stroke-width:1.50000012"/>
						</g></g><path d="m 109.588,26.361 c 0,0 -0.167,2.352 3.191,2.352 3.359,0 7.053,-1.849 8.565,0.167 1.512,2.016 -5.375,9.406 -6.549,0.168" id="path4194" style="fill:#000000;stroke:#000000;stroke-width:1.50000012;stroke-linecap:round"/><path d="m 121.046,30.543 c -0.005,1.241 -1.312,2.24 -2.918,2.233 -1.605,-0.007 -2.902,-1.019 -2.897,-2.258 0.005,-1.242 1.311,-2.241 2.917,-2.235 1.606,0.008 2.903,1.02 2.898,2.26 z" id="path4215" style="fill:url(#radialGradient4407);stroke-width:1.50000012"/><path d="m 142.642,33.856 -2.396,-2.396 c 0,0 5.986,-6.943 14.605,-1.676 0,0 3.353,2.394 7.902,0.718 4.549,-1.676 -3.832,8.62 -18.197,6.944 0,0 -3.352,-1.676 -0.24,-4.789 3.113,-3.113 8.381,-0.718 6.465,1.915 -1.914,2.633 -4.309,1.676 -4.309,1.676 h -1.916" id="path4217" style="fill:#ffff00;stroke:#000000;stroke-width:1.50000012;stroke-linecap:round"/><path d="m 92.458,35.828 c 0,0 -2.17,1.737 -0.868,3.909 1.302,2.171 -1.956,1.303 -2.389,-0.869 -0.434,-2.171 1.955,-3.257 3.257,-3.04 z" id="path4219" style="fill:#ffffff;stroke-width:1.50000012"/><path d="m 91.872,44.654 c 0,0 8.717,-0.569 9.854,0.379 1.137,0.948 3.222,1.137 3.222,3.222 0,2.085 -7.959,1.706 -11.939,-0.189 l -1.137,0.758" id="path4221" style="fill:#000000;stroke:#000000;stroke-width:1.50000012;stroke-linecap:round"/><g id="tongued" style="stroke-width:1.50000012"><path d="m 100.514,48 c 0,0 -11.262,0.559 -13.589,1.675 -2.328,1.117 -7.447,1.304 -8.285,-6.05 0,0 4.283,-0.279 5.585,1.676 1.303,1.955 13.589,0.651 15.264,1.302 0,0 1.675,0.187 4.096,0.838 2.42,0.652 -3.071,0.559 -3.071,0.559 z" id="path4223" style="fill:#ff0000;stroke:#000000;stroke-width:1.50000012"/></g></g></g></svg>
