<?xml version="1.0" encoding="UTF-8" standalone="no"?>
<!-- Created with Inkscape (http://www.inkscape.org/) -->
<svg xmlns:dc="http://purl.org/dc/elements/1.1/" xmlns:cc="http://creativecommons.org/ns#" xmlns:rdf="http://www.w3.org/1999/02/22-rdf-syntax-ns#" xmlns:svg="http://www.w3.org/2000/svg" xmlns="http://www.w3.org/2000/svg" xmlns:sodipodi="http://sodipodi.sourceforge.net/DTD/sodipodi-0.dtd" xmlns:inkscape="http://www.inkscape.org/namespaces/inkscape" width="400" height="420" id="svg2" sodipodi:version="0.32" inkscape:version="0.48.2 r9819" sodipodi:docname="lion-rampant.svg" inkscape:output_extension="org.inkscape.output.svg.inkscape" version="1.0">
  <defs id="defs4">
  </defs>
  <sodipodi:namedview id="base" pagecolor="#ffffff" bordercolor="#666666" borderopacity="1.0" gridtolerance="10000" guidetolerance="10" objecttolerance="10" inkscape:pageopacity="0.0" inkscape:pageshadow="2" inkscape:zoom="1.677" inkscape:cx="107.9" inkscape:cy="210" inkscape:document-units="px" inkscape:current-layer="layer3" showgrid="false" inkscape:window-width="1280" inkscape:window-height="713" inkscape:window-x="0" inkscape:window-y="0" showguides="true" inkscape:guide-bbox="true"/>
  <metadata id="metadata7">
    <rdf:RDF>
      <cc:Work rdf:about="">
        <dc:format>image/svg+xml</dc:format>
        <dc:type rdf:resource="http://purl.org/dc/dcmitype/StillImage"/>
        <dc:title/>
        <dc:creator>
          <cc:Agent>
            <dc:title>http://commons.wikimedia.org/wiki/User:Sodacan</dc:title>
          </cc:Agent>
        </dc:creator>
      </cc:Work>
    </rdf:RDF>
  </metadata>
  <g inkscape:groupmode="layer" id="layer3" inkscape:label="Main" style="opacity:1">
    <g id="body">
      <path sodipodi:nodetypes="csssscccc" id="path8117" d="m 128.3,283.9 c 0,0 -11.4,-8.6 -11.2,-13.4 0,-1.4 1.7,-2 2.3,-3.4 0.6,-1.6 0.9,-3.3 -0.3,-4.6 -1.6,-2.2 -6,-1.7 -8.6,-1.1 -3.7,0.8 -9.7,6.4 -9.7,6.4 l -1.38,9 12.68,11.5 16.2,-4.4 z" style="fill:#ffff00;fill-opacity:1;fill-rule:evenodd;stroke:#000000;stroke-width:2.9999;stroke-linecap:butt;stroke-linejoin:miter;stroke-miterlimit:4;stroke-opacity:1;stroke-dasharray:none" inkscape:connector-curvature="0"/>
      <path sodipodi:nodetypes="csssscsscscsscsssssscsssssssscscccsscssssccscccsccsccssccscsssssscssssssssscssscssssssscccc" id="path8042" d="m 259.5,308.7 c 0,0 -37.6,-6.3 -53.9,-5.9 -3.8,0 -9.4,0.1 -12.8,1.9 -2.9,1.6 -5.9,5.6 -7.4,8.6 -1.7,3.4 -4.1,8.9 -2.5,12.3 1.4,3.2 10.1,5.5 10.1,5.5 0,0 -8.2,2.5 -11.7,1.5 -2.4,-0.7 -5.2,-3.3 -6.7,-5.4 -1,-1.7 -1.8,-6.3 -1.8,-6.3 0,0 -3.2,3.2 -5.3,3.7 -2.7,0.5 -8.5,-0.6 -8.5,-0.6 0,0 2.6,-2.3 3.5,-3.3 1.7,-1.7 3.3,-4 3.8,-6.3 0.4,-1.4 -1.2,-4.7 -1.2,-4.7 0,0 -0.7,2.9 -1.4,3.9 -1.3,2.4 -3.6,5.3 -5.7,6.9 -1.2,0.8 -3.7,0.6 -4.7,1.8 -1.2,1.5 -2.2,2.3 -1.7,4.2 0.3,1.5 0.8,3.5 2.3,4 1,0.4 3,1.3 4,0.9 0.7,-0.4 2.5,-1.1 2.5,-1.1 0,0 -1,2.9 -3,4.6 -1.1,1 -3,1.1 -3.9,1.2 -0.5,0.2 -2.5,0.9 -4.5,-0.3 -1.9,-1.1 -3.5,-3.3 -3.8,-3.7 0,0 -2.8,-3.3 -3.3,-5 -0.8,-2.8 -0.5,-6.6 0.3,-9.3 0.4,-1.5 2.1,-3 2.5,-4.5 0.3,-1.3 -0.6,-3 -0.3,-4.3 0.4,-1.4 0.3,-1.3 0.3,-1.3 0,0 0.8,1.2 -0.5,3.1 -1.4,2.2 -5.2,7.9 -5.2,7.9 l -3.5,-5.1 -0.5,-5.2 c 0,0 -0.2,-1.8 0.3,-2.2 0.6,-0.4 1.6,0.7 2.3,0.4 1.6,-0.7 1.4,-3.9 1.4,-3.9 0,0 0,3.1 -1.6,3.8 -0.6,0.3 -1.7,-0.7 -2.1,-0.2 -1.8,1.5 -0.5,4.1 0.1,7.6 0.5,2.7 1.8,5.2 0.9,6.8 -0.7,1.4 -4.6,2.5 -4.6,2.5 L 120,319.1 c 0,0 -3.6,-3.4 -3.9,-5.3 -0.5,-3.2 1.4,-11.4 1.4,-11.4 l -0.8,-0.1 -5,4.8 c 0,0 0.1,7.2 -2.2,8.5 -1.6,0.8 -5.9,-2.1 -5.9,-2.1 l -10.55,-9.7 c 0,0 -0.59,-3.8 0.1,-5.3 1.12,-2.1 6.26,-4.8 6.26,-4.8 L 94.25,291 c 0,0 -6.52,3.4 -9.23,2.5 -1.33,-0.5 -2.32,-2.5 -2.89,-3.7 -1.09,-2.5 -1.47,-8.9 -1.47,-8.9 l 9.81,-15.2 c 0,0 3.67,-0.5 4.92,0.4 2.51,1.8 4.09,9.6 4.09,9.6 0,0 9.42,5.3 14.02,5.8 4.8,0.5 10.9,-2.6 15.8,-3 3.2,-0.2 7.6,-0.3 10.8,0.6 1.1,0.3 2.6,1 3.6,1.7 1.9,1.6 3.8,4.4 5.1,6.6 1.2,2.2 1.4,5.7 2.8,7.7 0.8,1 3.3,2.6 3.3,2.6 0,0 -4.7,-7.3 -6.5,-10.6 -2.1,-4 -3.5,-10.2 -6.2,-13.9 -0.9,-1.1 -3,-1.7 -3.6,-3 -1,-2.4 -0.6,-6.4 0.5,-8.9 0.2,-0.3 1,-0.5 1,-0.9 0,-1.5 -2.8,-2.4 -3.5,-3.7 -1.7,-3 -2.6,-7.8 -2.4,-11.1 0.1,-3 1,-7.5 3.1,-9.6 1.7,-1.6 5.2,-2.1 7.6,-2.1 3.3,0 10.7,3.1 10.7,3.1 0,0 -5.6,0.9 -7.6,2.2 -1.3,0.9 -3,2.8 -3.3,4.5 -0.2,0.9 0.5,2.1 0.9,3 2,3.5 9,10 9,10 0,0 8.5,-2.4 12.2,-2.7 4.7,-0.5 11.1,-0.5 15.8,0.3 2.4,0.4 5.8,1.5 8.1,2.4 2.9,1.2 6,4.6 9.1,4.8 1.9,0.2 4.3,-1.2 5.9,-1.9 1.9,-0.8 4.6,-1.7 6,-3.1 1.3,-1.3 54.2,-18.6 39,-28.9 l -31.5,-21.3 48.3,29.7 22.1,33.4 -30.1,39.3 z" style="fill:#ffff00;fill-opacity:1;fill-rule:evenodd;stroke:#000000;stroke-width:2.9999;stroke-linecap:butt;stroke-linejoin:miter;stroke-miterlimit:4;stroke-opacity:1;stroke-dasharray:none" inkscape:connector-curvature="0"/>
      <path sodipodi:nodetypes="css" id="path8120" d="m 140.5,259.6 c 0,0 3.2,1.8 4.7,2.3 1.4,0.3 4.8,0.5 4.8,0.5" style="fill:none;stroke:#000000;stroke-width:2.4999;stroke-linecap:butt;stroke-linejoin:miter;stroke-miterlimit:4;stroke-opacity:1;stroke-dasharray:none" inkscape:connector-curvature="0"/>
      <path sodipodi:nodetypes="csss" id="path8122" d="m 155,268.8 c 0,0 -2.8,-1.9 -4.2,-2.1 -1.6,-0.1 -3.9,0.4 -5,1.4 -1.4,1 -2.6,5.1 -2.6,5.1" style="fill:none;stroke:#000000;stroke-width:2.4999;stroke-linecap:butt;stroke-linejoin:miter;stroke-miterlimit:4;stroke-opacity:1;stroke-dasharray:none" inkscape:connector-curvature="0"/>
      <path sodipodi:nodetypes="csss" id="path8124" d="m 155.9,272.8 c 0,0 -3.2,-1 -4.6,-0.5 -1.8,0.8 -3.2,3.7 -4,5.5 -0.4,1 -0.7,3.6 -0.7,3.6" style="fill:none;stroke:#000000;stroke-width:2.4999;stroke-linecap:butt;stroke-linejoin:miter;stroke-miterlimit:4;stroke-opacity:1;stroke-dasharray:none" inkscape:connector-curvature="0"/>
      <path sodipodi:nodetypes="csss" id="path8126" d="m 159.6,278.2 c 0,0 -3.9,-0.1 -5.2,0.6 -1.3,0.6 -2.6,2.4 -3.2,3.7 -0.8,1.8 -1,6.4 -1,6.4" style="fill:none;stroke:#000000;stroke-width:2.4999;stroke-linecap:butt;stroke-linejoin:miter;stroke-miterlimit:4;stroke-opacity:1;stroke-dasharray:none" inkscape:connector-curvature="0"/>
      <path sodipodi:nodetypes="css" id="path8128" d="m 116.6,302 c 0,0 3.1,-2.4 4.3,-3.2 1.6,-1 6.4,0 6.4,0" style="fill:none;stroke:#000000;stroke-width:2.4999;stroke-linecap:butt;stroke-linejoin:miter;stroke-miterlimit:4;stroke-opacity:1;stroke-dasharray:none" inkscape:connector-curvature="0"/>
      <path sodipodi:nodetypes="csc" id="path8130" d="m 101.1,293.3 c 0,0 1.9,-2 3.1,-2.2 1.4,-0.3 5,0.9 5,0.9" style="fill:none;stroke:#000000;stroke-width:2.4999;stroke-linecap:butt;stroke-linejoin:miter;stroke-miterlimit:4;stroke-opacity:1;stroke-dasharray:none" inkscape:connector-curvature="0"/>
      <path sodipodi:nodetypes="cssscsccc" id="path3264" d="m 87.55,54.79 c 0,0 2.58,-12.04 6.49,-14.99 1.21,-0.92 3.02,0.16 4.95,-0.67 2.01,-0.86 6.71,-2.5 7.01,-4.69 0.4,-2.22 -3,-6.96 -3,-6.96 0,0 -6.98,-5.07 -10.56,-5.18 -3.84,-0.21 -12.03,4.54 -12.03,4.54 l -1.56,10.54 8.7,17.41 z" style="fill:#ffff00;fill-opacity:1;fill-rule:evenodd;stroke:#000000;stroke-width:3;stroke-linecap:butt;stroke-linejoin:miter;stroke-miterlimit:4;stroke-opacity:1;stroke-dasharray:none" inkscape:connector-curvature="0"/>
      <path sodipodi:nodetypes="csscsscssscscssscsssscssscsccsccccsccscccccccsscsscssssccc" id="path3269" d="m 230.1,111.7 c 0,0 -25.2,61.7 -73.3,64.7 -8.8,0.5 -20.8,-3.2 -28.4,-7.6 -3.9,-2.2 -10.5,-10.5 -10.5,-10.5 0,0 -7,4.4 -8.1,7.5 -0.8,2.3 0.4,5.7 1.5,8 1,2.4 5.3,7 5.3,7 0,0 -8,-1.6 -10.5,-3.8 -2.7,-2.3 -4.7,-6.9 -5.7,-10.4 -0.96,-3 -0.86,-6.1 0.5,-9 1,-2.1 4,-6.6 4,-6.6 0,0 -5.45,-7.1 -7.56,-10.6 -1.88,-3.1 -5.09,-10.9 -5.09,-10.9 0,0 -2.92,1 -3.94,1.7 -0.88,0.7 -2.09,1.9 -2.45,2.9 -0.56,1.5 -1.18,4.2 -0.19,5.4 1.07,1.4 5.61,1.6 5.61,1.6 0,0 -1.9,2.7 -3.08,3 -2.74,0.5 -6.73,-1.2 -8.48,-3.3 -2.58,-3.1 -3.22,-9.3 -2.6,-13.3 0.43,-2.4 2.39,-5.4 4.13,-7.2 1.66,-1.8 7.02,-4.7 7.02,-4.7 0,0 -4.48,-4 -5.38,-6.3 -0.67,-1.6 0.1,-4.3 -0.57,-6 -0.84,-2.2 -4.27,-4.06 -4.62,-6.37 -0.96,-6.9 8.18,-21.79 8.18,-21.79 0,0 -5.21,12.77 -10.15,15.2 -2.23,1.1 -8.18,-0.6 -8.18,-0.6 L 61.67,77.4 c 0,0 0.1,-4.47 1.48,-5.52 3.25,-2.45 13.6,0.1 13.6,0.1 l -9.01,-1.86 -0.92,-10.08 7.05,-4.02 c 0,0 -8.02,5.17 -11.72,4.41 -2.12,-0.41 -5.22,-4.92 -5.22,-4.92 l 1.1,-10.27 c 0,0 1.72,-4.77 3.61,-5.09 4.93,-0.7 13.11,10.35 13.11,10.35 l -8.17,-8.09 2.3,-4.25 8.09,6.68 -8.13,-7.38 0,-7.41 2.7,-0.27 c 0,0 -5.16,-0.85 -6.35,-2.32 -1.3,-1.83 -2.03,-4.49 -1,-6.51 1.54,-3.06 10.12,-5.45 10.12,-5.45 0,0 7.99,-1.04 10.19,0.91 1.94,1.6 2.73,4.05 2.65,6.52 -0.1,2.08 -3.28,6.19 -3.28,6.19 0,0 3.57,11.89 6.09,16.56 2.94,5.43 8.01,12.1 12.34,16.5 4.1,4.2 11.2,7.89 15.3,12.12 6.2,6.44 13.3,20.7 18.2,28.3 6.1,9.7 21.9,18.9 21.9,18.9 l 73,-20.2 c 0,0 -0.6,10.4 -0.6,10.4 z" style="fill:#ffff00;fill-opacity:1;fill-rule:evenodd;stroke:#000000;stroke-width:3;stroke-linecap:butt;stroke-linejoin:miter;stroke-miterlimit:4;stroke-opacity:1;stroke-dasharray:none" inkscape:connector-curvature="0"/>
      <path sodipodi:nodetypes="csss" id="path3283" d="m 104.9,151.9 c 0,0 3.6,-4.2 4.9,-5.9 1.1,-1.4 2.6,-3.2 4,-4.3 0.8,-0.8 3.1,-1.8 3.1,-1.8" style="fill:none;stroke:#000000;stroke-width:2.5;stroke-linecap:butt;stroke-linejoin:miter;stroke-miterlimit:4;stroke-opacity:1;stroke-dasharray:none" inkscape:connector-curvature="0"/>
      <path sodipodi:nodetypes="cssss" id="path3285" d="m 92.04,129.6 c 0,0 3.1,-1.6 4.5,-1.9 2.09,-0.6 5.26,0.2 7.16,-0.7 2.4,-1.2 4.5,-4.2 5.9,-6.3 1,-1.5 2.5,-5.3 2.5,-5.3" style="fill:none;stroke:#000000;stroke-width:2.5;stroke-linecap:butt;stroke-linejoin:miter;stroke-miterlimit:4;stroke-opacity:1;stroke-dasharray:none" inkscape:connector-curvature="0"/>
      <path sodipodi:nodetypes="cs" id="path3287" d="m 87.51,115.9 c 0,0 5.21,-0.5 7.36,-2.6" style="fill:none;stroke:#000000;stroke-width:2.5;stroke-linecap:butt;stroke-linejoin:miter;stroke-miterlimit:4;stroke-opacity:1;stroke-dasharray:none" inkscape:connector-curvature="0"/>
      <path sodipodi:nodetypes="css" id="path3289" d="m 87.45,86.59 c 0,0 4.31,15.61 10.07,19.81 4.18,3.1 12.78,3.9 12.78,3.9" style="fill:none;stroke:#000000;stroke-width:2.5;stroke-linecap:butt;stroke-linejoin:miter;stroke-miterlimit:4;stroke-opacity:1;stroke-dasharray:none" inkscape:connector-curvature="0"/>
      <path sodipodi:nodetypes="csssccccss" id="path3426" d="m 45.31,165.3 c 1.3,-0.2 3.2,0 4.38,0.6 0.88,0.4 1.94,1.5 2.4,2.4 1.3,2.5 0.74,6.6 1.84,9.1 1.83,4.2 8.71,12.3 8.71,12.3 l -17.37,1.3 -13.74,-11.6 1.65,-6.3 c 0,0 2.84,-3.5 4.49,-4.6 2.06,-1.4 5.22,-2.9 7.64,-3.2 z" style="fill:#ffff00;fill-opacity:1;fill-rule:evenodd;stroke:#000000;stroke-width:3;stroke-linecap:butt;stroke-linejoin:miter;stroke-miterlimit:4;stroke-opacity:1;stroke-dasharray:none" inkscape:connector-curvature="0"/>
      <path id="path3428" d="m 45.3,165.4 0,0 z" style="fill:#f8c300;fill-opacity:1;fill-rule:evenodd;stroke:#000000;stroke-width:1px;stroke-linecap:butt;stroke-linejoin:miter;stroke-opacity:1" inkscape:connector-curvature="0"/>
      <path sodipodi:nodetypes="cccccsccsccsssssccssssccssscsccscsscscssscscssssccc" id="path3432" d="m 203.6,140.5 -67.2,10.4 -70.01,27.6 -19.64,8.2 -5.17,-3.5 c 0,0 -3.7,-7.4 -6.53,-9.2 -1.86,-1.2 -7.36,-1.3 -7.36,-1.3 l -6.23,15.6 c 0,0 0.64,4 1.79,5.3 1.05,1.3 5.2,2.6 5.2,2.6 l 5.59,-2.2 c 0.73,-0.6 16.37,1.1 19.02,2.6 0.68,0.4 2.04,-1.1 1.77,-1.7 -0.37,-0.8 -2.82,0.3 -4.92,0.2 -2.7,-0.1 -4.23,0.8 -5.43,0.6 -4.78,-0.5 -4.9,0.1 -8.19,2.3 -1.54,0.9 -2.71,5.2 -2.71,5.2 l 12.18,15.7 c 0,0 6.72,2 9.08,0.5 2.67,-1.7 2.2,-7.3 4.01,-10 1.28,-2 3.68,-7 5.63,-5.6 1.85,1.3 -4,2.3 -5.92,5.4 -2.56,3.8 -1.5,9.7 -1.5,9.7 l 5.16,6.2 c 0,0 11.37,1.1 15.65,-0.8 0.71,-0.3 1.64,-1.1 1.77,-1.7 0.16,-1.5 1.94,-6.1 0.71,-7.9 -1.6,-2.5 -4.64,-3.9 -4.64,-3.9 0,0 -0.72,0.3 0.19,0.1 2.22,-0.4 4.65,3.8 4.65,3.8 l 10.42,-7.8 c 0,0 0.6,2.6 0.45,3.7 -0.37,1.9 -3.12,5.6 -3.12,5.6 0,0 6.43,-0.7 9.71,-2.5 2.49,-1.3 7.19,-4.2 8.39,-6.7 0.8,-1.7 2,-3.2 2,-3.2 0,0 0.5,5.7 -0.7,8.9 -0.7,1.8 -3.4,4.5 -3.4,4.5 0,0 3.7,0.3 6.9,-0.4 2.8,-0.7 5.2,-2.2 6,-2.4 0.1,-0.1 3.8,-1.9 6.2,-6.1 2.4,-4 1.1,-3.9 4,-5.3 0.7,-0.4 0.8,3.1 0,6.7 -0.7,3.1 -2.6,6.5 -2.6,6.6 3.5,-0.5 14,-3.4 18.2,-6.2 7.1,-4.9 10,-15.8 11.5,-15.2 6.2,2.9 22.1,3.3 27,8 4.8,4.5 16.7,-3.1 22.7,-0.4 9.6,4.2 25.2,-43.7 25.2,-43.7 l -11,-18.2 -14.8,-0.1 z" style="fill:#ffff00;fill-opacity:1;fill-rule:evenodd;stroke:#000000;stroke-width:3;stroke-linecap:butt;stroke-linejoin:miter;stroke-miterlimit:4;stroke-opacity:1;stroke-dasharray:none" inkscape:connector-curvature="0"/>
      <path inkscape:connector-curvature="0" sodipodi:nodetypes="cscssscss" id="path3303" d="m 248.6,239.7 c -4.4,-1 -10.7,0.1 -15,1.2 -2.4,0.6 -7.6,3.2 -7.6,3.2 0,0 5.8,3.1 8.3,4.3 5.2,2.2 12.8,3.3 17.5,6.2 4.2,2.6 8.6,7.7 11.7,11.5 3.5,4.4 9.9,15.9 9.9,15.9 0,0 1.6,-21.6 -3.1,-28.9 -4,-6.5 -14.3,-11.6 -21.7,-13.4 z" style="fill:#ffff00;fill-opacity:1;fill-rule:evenodd;stroke:#000000;stroke-width:3;stroke-linecap:butt;stroke-linejoin:miter;stroke-miterlimit:4;stroke-opacity:1;stroke-dasharray:none"/>
      <path sodipodi:nodetypes="csssccccc" id="path7851" d="m 253.6,371.9 c 0,0 -7.3,-5.4 -8.5,-8.9 -0.8,-2.3 1.7,-5.9 0.9,-8.3 -0.8,-2.3 -3.5,-4.9 -5.8,-5.7 -1.7,-0.6 -6,0.7 -6,0.7 l -5,11.5 3.6,4.6 7.3,6.5 13.5,-0.4 z" style="fill:#ffff00;fill-opacity:1;fill-rule:evenodd;stroke:#000000;stroke-width:3;stroke-linecap:butt;stroke-linejoin:miter;stroke-miterlimit:4;stroke-opacity:1;stroke-dasharray:none" inkscape:connector-curvature="0"/>
      <path sodipodi:nodetypes="cssssssssscssscssscssscscscssccssccccscscccscccsscsscsscsscsscsssscssscsssscsscssssccc" id="path3268" d="m 164.7,131.5 c 0,0 -29.8,59.5 -24.6,64 4.9,4.3 33.2,11.6 39.3,14.1 9.7,3.9 30.6,15.7 40.5,19.2 7.4,2.7 17.5,8.5 24.3,12.5 7.5,4.4 18.4,10.4 22.8,17.9 2.8,4.7 4.2,12.6 2.8,17.8 -2,7.9 -11.7,14.3 -17.2,20.3 -0.9,1 -3.9,0.7 -6.7,4 -2.8,3.4 -5.4,10.6 -7.2,10.6 -3,0.2 -8.4,-3.2 -8.4,-3.2 0,0 0.5,4 2.8,6.9 1.8,2.3 5.5,3.6 6.6,3.6 2.5,0 5.9,-1.5 6.7,-1.8 4,-1.4 9.7,-10.3 9.7,-10.3 0,0 -10.5,11.5 -10.7,17.8 -0.1,2.7 2.3,4.9 1.8,7.6 -0.5,2.9 -1.3,6.1 -4.3,6.3 -4.2,0.4 -9.9,-1.3 -9.9,-1.3 0,0 2.5,4.5 6.5,6.7 2.5,1.4 5.6,1.6 8.3,0.6 6,-2.2 13,-7.9 16.5,-13.2 2.1,-3.1 3.5,-11.9 3.5,-11.9 0,0 -6.3,13.2 -4.9,18.9 0.9,4 6.6,8.6 6.6,8.6 0,0 -7.2,2.5 -10.5,4.6 -5.3,3.4 -13,16.6 -13,16.6 0,0 -8.1,-3.1 -11,-5.3 -2,-1.4 -3.1,-5.2 -5.5,-5.9 -1.6,-0.5 -5.6,1.5 -5.6,1.5 l -4.1,17.1 c 0,0 2.1,4.9 4.1,5.5 3.3,1.2 7.4,-2.7 11.1,-3.1 3.6,-0.3 11,1.1 11,1.1 l -13.2,7.8 -0.7,5.3 10.3,9.6 c 0,0 6.9,-0.8 8.6,-2.9 2.5,-2.8 2.2,-12.3 2.2,-12.3 0,0 2.5,2.8 3.1,4.8 0.8,2.4 -0.5,6.9 -0.5,6.9 l 5,4.6 10,1 c 0,0 4.4,-3 4.6,-5 0.5,-3.5 -5.8,-10.4 -5.8,-10.4 l 11.1,-1.5 1.8,-8.4 c 0,0 3.3,10.9 7,13.3 2.5,1.6 6.9,1.5 9.6,0.5 2.3,-0.8 5.9,-5.4 5.9,-5.4 0,0 -4.2,1.6 -6,1.1 -1.6,-0.5 -4.1,-2.1 -4.1,-3.8 0,-3.1 7.6,-7.2 7.6,-7.2 0,0 6.6,3.7 9.7,4 2.3,0.2 5.8,0 7.4,-1.6 1.7,-1.7 1.4,-7.9 1.4,-7.9 0,0 -1.9,3.1 -3.8,3.2 -1.9,0.2 -5.3,-0.7 -6.1,-2.4 -1.5,-3.2 1.7,-11.8 1.7,-11.8 0,0 7,2.1 10.1,0.6 1.3,-0.6 3.5,-3 3.7,-5.2 0.4,-3.3 -0.2,-4.9 -0.2,-4.9 0,0 -1.9,4.1 -4.2,4 -2.3,-0.2 -5.5,-1.6 -7.1,-3.3 -2.6,-2.9 -4.4,-8.5 -4.3,-12.5 0,-4.8 2.5,-9.3 4.2,-13.8 0.5,-1.3 1.6,-3.7 1.6,-3.7 0,0 5.2,4.2 8,5.1 2,0.6 6.6,-0.2 8.3,-1.4 2.6,-1.8 4.7,-6.6 3.9,-9.6 -0.6,-2.5 -4.5,-4.6 -4.5,-4.6 0,0 0.3,4 0.1,5.8 -0.2,1.3 -3.5,2.1 -4.8,2.4 -1,0.3 -2.3,-1 -2.9,-1.9 -2.9,-4.2 -2.8,-11 -2.2,-16.1 0.4,-3.7 5.3,-11.1 5.3,-11.1 0,0 7.6,6.2 11.6,7.5 2.8,0.9 4.2,-4.1 2.7,-8.5 -1.8,-5.4 -6.9,-10.6 -6.9,-10.6 0,0 -14.8,-13.9 -17.8,-18.2 -8.3,-11.7 -11,-22.5 -20.2,-33.5 -3.6,-4.2 -9.7,-10.9 -13.6,-14.8 -6.8,-6.6 -18.2,-15.9 -24.4,-22.9 -10.6,-12 -34.4,-39.2 -34.4,-39.2 l -11.4,-17.7 -48.7,-1.2 z" style="fill:#ffff00;fill-opacity:1;fill-rule:evenodd;stroke:#000000;stroke-width:3;stroke-linecap:butt;stroke-linejoin:miter;stroke-miterlimit:4;stroke-opacity:1;stroke-dasharray:none" inkscape:connector-curvature="0"/>
      <path sodipodi:nodetypes="cssc" id="path7912" d="m 328.1,291.4 c 0,0 -2.8,-6.8 -4.8,-9.8 -1.7,-2.6 -5.9,-4.5 -7.6,-7.1 -1.5,-2.2 -3.1,-8.3 -3.1,-8.3" style="fill:none;stroke:#000000;stroke-width:2.5;stroke-linecap:butt;stroke-linejoin:miter;stroke-miterlimit:4;stroke-opacity:1;stroke-dasharray:none" inkscape:connector-curvature="0"/>
      <path sodipodi:nodetypes="cssscscss" id="path7914" d="m 303.5,276.5 c 0,0 4.2,5.6 4.7,8.4 0.8,4.3 -2.4,9.4 -2.5,13.8 0,2.8 0.8,6 0.4,8.3 -0.4,1.9 -2.3,6.1 -2.3,6.1 0,0 4.5,-2.2 6.1,-4.1 0.7,-0.7 4.8,-5.1 4.8,-5.1 0,0 -1.5,10.3 -0.2,14.5 0.3,1.3 2.4,3.6 2.4,3.6" style="fill:none;stroke:#000000;stroke-width:2.5;stroke-linecap:butt;stroke-linejoin:miter;stroke-miterlimit:4;stroke-opacity:1;stroke-dasharray:none" inkscape:connector-curvature="0"/>
      <path sodipodi:nodetypes="css" id="path7916" d="m 305.1,349.4 c 0,0 1.4,5 2.6,6.9 0.9,1.6 4.2,4.7 4.2,4.7" style="fill:none;stroke:#000000;stroke-width:2.5;stroke-linecap:butt;stroke-linejoin:miter;stroke-miterlimit:4;stroke-opacity:1;stroke-dasharray:none" inkscape:connector-curvature="0"/>
      <path sodipodi:nodetypes="cssc" id="path7918" d="m 299.6,379.3 c 0,0 2.6,-5.3 3,-7.8 0.4,-2.7 0.3,-6.6 -0.5,-9.2 -0.3,-1 -1.8,-3 -1.8,-3" style="fill:none;stroke:#000000;stroke-width:2.5;stroke-linecap:butt;stroke-linejoin:miter;stroke-miterlimit:4;stroke-opacity:1;stroke-dasharray:none" inkscape:connector-curvature="0"/>
      <path sodipodi:nodetypes="csssc" id="path7920" d="m 291.4,361.9 c 0,0 2.7,5.3 2.5,7.8 -0.3,3.8 -3.2,8.2 -4.2,11.8 -0.5,1.8 -1.3,4.3 -1.2,6.2 0.1,1.5 1.5,4.6 1.5,4.6" style="fill:none;stroke:#000000;stroke-width:2.5;stroke-linecap:butt;stroke-linejoin:miter;stroke-miterlimit:4;stroke-opacity:1;stroke-dasharray:none" inkscape:connector-curvature="0"/>
      <path sodipodi:nodetypes="csc" id="path7922" d="m 282.1,380.2 c 0,0 1.7,-9.2 2,-11.3 0.2,-1.7 -0.8,-5.2 -0.8,-5.2" style="fill:none;stroke:#000000;stroke-width:2.5;stroke-linecap:butt;stroke-linejoin:miter;stroke-miterlimit:4;stroke-opacity:1;stroke-dasharray:none" inkscape:connector-curvature="0"/>
      <path inkscape:connector-curvature="0" sodipodi:nodetypes="cc" id="path7926" d="m 245.5,181.2 -6.9,10" style="fill:none;stroke:#000000;stroke-width:2.4999;stroke-linecap:butt;stroke-linejoin:miter;stroke-miterlimit:4;stroke-opacity:1;stroke-dasharray:none"/>
      <path inkscape:connector-curvature="0" sodipodi:nodetypes="cc" id="path7928" d="m 250.1,186.1 -5.9,7.3" style="fill:none;stroke:#000000;stroke-width:2.4999;stroke-linecap:butt;stroke-linejoin:miter;stroke-miterlimit:4;stroke-opacity:1;stroke-dasharray:none"/>
      <path inkscape:connector-curvature="0" sodipodi:nodetypes="cc" id="path7930" d="m 253.6,191.3 -3.1,5.7" style="fill:none;stroke:#000000;stroke-width:2.4999;stroke-linecap:butt;stroke-linejoin:miter;stroke-miterlimit:4;stroke-opacity:1;stroke-dasharray:none"/>
      <path inkscape:connector-curvature="0" sodipodi:nodetypes="cc" id="path7932" d="m 257.3,195.5 -3.3,5.3" style="fill:none;stroke:#000000;stroke-width:2.4999;stroke-linecap:butt;stroke-linejoin:miter;stroke-miterlimit:4;stroke-opacity:1;stroke-dasharray:none"/>
      <path sodipodi:nodetypes="cccsssc" id="path7934" d="m 285.4,347.7 -5.8,1.3 -9,-1.5 c 0,0 -0.4,2.1 -0.1,3.4 0.3,0.9 1.4,2.4 2.2,2.8 1.5,0.7 3.8,1.4 5.5,1.1 0.8,-0.1 2.4,-1.3 2.4,-1.3" style="fill:none;stroke:#000000;stroke-width:2.5;stroke-linecap:butt;stroke-linejoin:miter;stroke-miterlimit:4;stroke-opacity:1;stroke-dasharray:none" inkscape:connector-curvature="0"/>
      <path sodipodi:nodetypes="cssscsssc" id="path7936" d="m 279.1,315.6 c 0,0 -3.6,5.4 -3.8,8.1 -0.2,2.5 1.3,5.7 2.5,7.9 1,1.9 2.1,3.5 4.1,4.3 1.7,0.7 6.8,0.6 6.8,0.6 0,0 -4.4,2.7 -6.5,2.9 -2.8,0.3 -6.7,-0.7 -9.1,-2.2 -1.6,-1 -3.1,-3.1 -4,-4.7 -1.2,-2.2 -2.3,-7.9 -2.3,-7.9" style="fill:none;stroke:#000000;stroke-width:2.5;stroke-linecap:butt;stroke-linejoin:miter;stroke-miterlimit:4;stroke-opacity:1;stroke-dasharray:none" inkscape:connector-curvature="0"/>
      <path sodipodi:nodetypes="csssc" id="path7938" d="m 259.5,316.4 c 0,0 -4.2,4.9 -4.7,7.5 -0.4,2.1 0.7,5 0.4,7.1 -0.2,2 -0.7,4 -1.5,5.8 -0.9,2 -4.5,7.6 -4.5,7.6" style="fill:none;stroke:#000000;stroke-width:2.5;stroke-linecap:butt;stroke-linejoin:miter;stroke-miterlimit:4;stroke-opacity:1;stroke-dasharray:none" inkscape:connector-curvature="0"/>
      <path sodipodi:nodetypes="csc" id="path7940" d="m 317.9,285.5 c 0,0 0.6,6.8 0,9.7 -0.6,3.1 -3.8,9.7 -3.8,9.7" style="fill:none;stroke:#000000;stroke-width:2.5;stroke-linecap:butt;stroke-linejoin:miter;stroke-miterlimit:4;stroke-opacity:1;stroke-dasharray:none" inkscape:connector-curvature="0"/>
      <path sodipodi:nodetypes="css" id="path7952" d="m 209.2,207.9 c 0,0 4.5,3.8 5.9,5.6 0.8,1.1 4.4,6.3 4.4,6.3" style="fill:none;stroke:#000000;stroke-width:2.5;stroke-linecap:butt;stroke-linejoin:miter;stroke-miterlimit:4;stroke-opacity:1;stroke-dasharray:none" inkscape:connector-curvature="0"/>
      <path sodipodi:nodetypes="css" id="path7954" d="m 220.6,212.9 c 0,0 6,5.7 8,8.1 1,1.3 3.2,5.8 3.2,5.8" style="fill:none;stroke:#000000;stroke-width:2.5;stroke-linecap:butt;stroke-linejoin:miter;stroke-miterlimit:4;stroke-opacity:1;stroke-dasharray:none" inkscape:connector-curvature="0"/>
      <path sodipodi:nodetypes="csss" id="path7956" d="m 231.3,217.7 c 0,0 4.4,5.6 6,8.2 1.2,1.9 3.3,6.6 3.3,6.6 0,0 0,0 0,0" style="fill:none;stroke:#000000;stroke-width:2.5;stroke-linecap:butt;stroke-linejoin:miter;stroke-miterlimit:4;stroke-opacity:1;stroke-dasharray:none" inkscape:connector-curvature="0"/>
      <path sodipodi:nodetypes="csss" id="path7958" d="m 242.8,224.6 c 0,0 3.1,3.8 4.2,5.6 1,1.7 2.3,4.1 2.7,6 0.4,1.9 -0.1,6.3 -0.1,6.3" style="fill:none;stroke:#000000;stroke-width:2.5;stroke-linecap:butt;stroke-linejoin:miter;stroke-miterlimit:4;stroke-opacity:1;stroke-dasharray:none" inkscape:connector-curvature="0"/>
      <path id="path2474" d="m 331.6,293.4 -5.9,-7.8" style="fill:none;stroke:#000000;stroke-width:1.6;stroke-linecap:butt;stroke-linejoin:miter;stroke-miterlimit:4;stroke-opacity:1;stroke-dasharray:none" inkscape:connector-curvature="0"/>
      <path sodipodi:nodetypes="cssszsssscsssscsssssscssscccssssssssssscssssssccsssssssscsssssccsssssssszzzzczzzzzscssssssscsssscccccsssscsssssssssscssssscssssssssscssssscsssssssssssssccsssssssssssssssssssc" id="path2839" d="m 337.9,282.1 c 0,0 3.7,3.3 8.2,3.3 3.9,-0.1 8.7,-3.8 10.8,-7.1 1.3,-1.9 2.8,-14.9 2,-17.9 -1.1,-3.8 -4.9,-9.1 -7.7,-10.8 -2.8,-1.7 -5.9,-1.9 -8.3,-1.3 -1.2,0.3 -2.3,1.7 -3.2,2.6 -0.7,0.6 -2,1.4 -2,2.3 -0.1,0.5 0.6,1.1 1,1.5 1.4,1.4 5.5,3.7 5.5,3.7 0,0 -5.1,2.5 -7.3,2.1 -2.1,-0.4 -4.7,-2.2 -5.6,-4 -1.3,-2.4 -1,-6.4 0,-8.9 0.8,-2.2 3.2,-4.7 5.2,-5.9 2.2,-1.4 8.2,-2.3 8.2,-2.3 0,0 -9.3,1.2 -13.1,0.3 -3.2,-0.8 -7.3,-3 -9.8,-5.2 -1.3,-1.2 -2.8,-3.1 -3.2,-4.7 -0.5,-2 -0.1,-5.1 0.9,-6.9 1,-1.8 3.3,-3.8 5.3,-4.3 1.9,-0.5 4.8,0.3 6.5,1.4 1.4,0.8 3.6,4.2 3.6,4.2 0,0 -3.3,-0.6 -4.5,-0.1 -1.1,0.4 -2.6,1.4 -2.7,2.5 0,1.6 2.3,3 3.7,3.9 1.5,1 5.8,1.9 5.8,1.9 l 7.2,-0.2 5.7,0.8 c 0,0 -6.7,-14.4 -9.5,-19.8 -1.6,-3.1 -4,-11.2 -5,-14.5 -1.4,-4.5 -1,-5 -2.5,-9.3 -1.7,-5.1 -4.7,-12 -8.7,-15.6 -2.3,-2 -7.4,-4.3 -10.3,-5.1 -2.5,-0.6 -5.2,-0.5 -7.7,0 -2,0.4 -4.7,1.5 -5.8,3.2 -1.3,1.9 -1.8,5.4 -1.1,7.5 0.3,0.7 1.2,1.3 1.9,1.7 1.3,0.8 3.3,1.6 4.9,1.7 2.2,0.3 5.3,0.1 7.3,-0.9 0.5,-0.2 1.5,-1.3 1.5,-1.3 0,0 -1.4,5.3 -3,6.9 -1.7,1.7 -4.9,3.1 -7.3,3.3 -2.7,0.3 -6.5,-0.5 -8.8,-1.9 -2.9,-1.9 -6.2,-5.8 -7.1,-9.1 -1.1,-3.9 -0.3,-9.8 1.6,-13.3 1.7,-3 5.7,-6 8.9,-7.3 2,-0.8 7.2,-0.7 7.2,-0.7 l 3.1,1.1 c 0,0 -3.8,-1.1 -5.4,-1.8 -1.7,-0.6 -4.1,-1.4 -5.5,-2.6 -2.7,-2.4 -5.7,-6.5 -6.6,-10 -0.5,-2.3 0.2,-5.5 0.9,-7.7 1,-2.7 2.9,-6.4 5.2,-8.2 2.3,-1.8 6.3,-3.1 9.2,-3.2 1.8,-0.1 4.4,0.5 5.8,1.5 2,1.3 4.3,4.1 4.6,6.5 0.2,1.1 -1.2,3.4 -1.2,3.4 0,0 -2.6,-3.2 -4.2,-3.9 -1.6,-0.6 -4.2,-0.7 -5.8,0 -1,0.5 -1.9,1.8 -2.4,2.8 -0.8,1.9 -1.5,5 -0.7,6.9 1,2.1 4.1,3.6 6.2,4.6 2,1 7.2,2.1 7.2,2.1 l 7.5,5.6 c 0,0 -1.2,-9.9 -1.1,-14.2 0.1,-3.7 0.6,-8.5 1.4,-12.1 1,-4.8 3.1,-11 5.2,-15.4 3.1,-6.5 10,-13.6 12.9,-20.2 1,-2.24 2,-5.44 2.2,-7.88 0.3,-3.08 0.2,-7.34 -0.8,-10.28 -0.6,-1.88 -2.3,-4.01 -3.6,-5.59 -1.3,-1.74 -2.9,-4.51 -4.9,-5.37 -1.3,-0.59 -3.6,-0.39 -5,0.11 -1.4,0.51 -2.9,1.85 -3.6,2.97 -0.8,1.13 -1.5,3.09 -1.2,4.11 0.4,1.03 2.9,3.4 3.7,3.14 0.8,-0.25 6.7,-1.54 6.7,-1.54 0,0 -1.6,4.95 -3.5,6.4 -1.9,1.45 -7.2,1.7 -10.8,1.26 -3.5,-0.45 -8,-4.08 -10.9,-6.4 -3,-2.32 -5.5,-4.8 -6.5,-7.31 -1,-2.51 -0.9,-6.07 -0.3,-8.22 0.6,-2.15 2,-4.37 3.6,-5.6 1.2,-0.93 4.8,-1.59 4.8,-1.59 0,0 -5.6,-2.22 -7.6,-3.89 -2,-1.76 -4.3,-4.74 -5.1,-7.3 -0.9,-2.92 -1.1,-7.4 0.2,-10.17 1.8,-3.85 5.4,-8.37 9.1,-10.55 2.5,-1.52 7.8,-3.83 10.8,-3.88 2.1,0 5.1,2.36 6.6,3.81 1.5,1.43 2.7,4.4 2.3,6.4 -0.3,1.5 -3.3,3.88 -3.3,3.88 0,0 0.8,-3.97 0,-5.37 -0.7,-1.12 -2.5,-2.23 -3.8,-2.17 -1.7,0.1 -4.1,1.81 -4.8,3.43 -0.5,1.2 0.1,3.14 0.6,4.34 1.3,2.9 7,7.99 7,7.99 l 11.8,3.43 7.7,5.02 2.2,3.08 3.8,-9.02 c 0,0 7.4,-7.42 11.3,-9.24 2.2,-0.99 5.5,-1.79 7.8,-1.37 2.3,0.4 5,2.24 6.6,3.88 1.2,1.18 3,3.15 2.8,4.79 -0.3,1.85 -4.5,4.34 -4.5,4.34 0,0 1,-3.78 0.1,-5.02 -0.8,-1.26 -3.2,-1.81 -4.8,-1.71 -1.5,0.1 -3.3,1.31 -4.5,2.28 -1.5,1.18 -3.1,3.22 -3.9,4.91 -0.9,1.84 -1.7,4.58 -1.6,6.62 0.1,3.04 2.2,6.75 3.3,9.59 1.6,4.13 4.7,9.28 5.7,13.59 0.5,2.14 0.6,5.13 0.4,7.31 -0.2,1.34 -1.3,4.34 -1.3,4.34 0,0 0,0 0,0 0,0 -2.6,5.15 -2.6,5.15 0,0 6.6,-6.13 10.2,-7.27 2.7,-0.86 6.9,-1.26 9.4,0 3.1,1.54 5.8,5.97 7,9.2 0.6,1.5 0.9,3.77 0.5,5.33 -0.4,1.75 -1.9,3.74 -3.1,5.04 -0.9,1 -3.4,2.5 -3.4,2.5 0,0 2.3,-5.42 1.9,-7.78 -0.3,-2.03 -1.8,-4.89 -3.6,-5.81 -2.4,-1.18 -6.5,-0.73 -8.7,0.72 -1.9,1.23 -2.9,4.39 -3.4,6.54 -0.6,2.43 0.7,6.03 0,8.43 -0.8,2.7 -3.2,5.9 -5.1,8 -2.6,3 -7.5,5.5 -10.2,8.5 -2.1,2.3 -9.2,12.7 -10.1,14.8 -1.2,2.5 -2.6,6.2 -2.2,8.9 0.1,1.2 1.9,3.6 1.9,3.6 0,0 1.4,-4 2.7,-5.3 2.6,-2.8 7.6,-4.8 11.1,-6.3 2.7,-1.1 7.4,-0.5 9.2,-2.6 1.6,-1.9 1.9,-5.8 1,-8 -0.7,-1.6 -3.4,-3.2 -4.6,-3.4 -1.2,-0.2 -2.2,0.7 -2.2,0.7 0,0 3,-3.8 4.9,-4.1 2.4,-0.5 6.1,0.8 7.7,2.7 1.3,1.4 2.8,3.9 3,5.8 0.3,2.1 -0.3,5.3 -1.1,7.2 -0.8,2 -3.9,3.3 -5.3,4.9 -1,1.1 -3.3,2.6 -2.9,4.1 0.5,1.8 4.2,1.7 5.8,2.7 2.8,1.6 6.4,4.1 8.5,6.5 1.2,1.4 2.7,3.7 3.1,5.6 0.9,3.4 0.6,8.2 -0.4,11.6 -0.7,2 -2,4.7 -3.7,6 -0.8,0.7 -2.3,0.9 -3.4,1 -2,0.1 -5,0.2 -6.7,-1 -1.5,-0.9 -3,-4.8 -3,-4.8 l -0.7,-1.7 c 0,0 5,3 7.3,2.7 1.3,-0.2 3,-1.5 3.4,-2.7 0.5,-1.6 -0.3,-4.3 -1.5,-5.6 -1.5,-1.5 -4.8,-1.5 -7,-1.9 -1.7,-0.3 -4,-1.1 -5.9,-0.5 -2.2,0.8 -5.3,1.7 -7.3,2.9 -1.4,1 -3.1,2.7 -4.3,3.9 -0.9,0.9 -2.5,2 -2.9,3.2 -1.5,3.8 -0.7,12 -0.2,16.2 0.3,2.7 1,6.3 2,8.9 2.4,7.1 4.7,11.2 7.5,18.2 2.3,5.8 8,18.2 9.9,24.2 0.8,2.6 2.2,6 2.7,8.7 0.5,3.2 0.3,7.5 0.4,10.7 0.2,5.1 1.2,10 -0.1,14.9 -0.8,3.1 -3.1,8.6 -4.9,11.2 -2.1,3 -4.6,7.2 -7.6,9.2 -2.7,1.9 -7.1,3.2 -10.4,3.4 -2.5,0.2 -6.5,-0.1 -8.9,-1.1 -3.6,-1.4 -11.2,-6.9 -11.2,-6.9" style="fill:#ffff00;fill-opacity:1;fill-rule:evenodd;stroke:#000000;stroke-width:3;stroke-linecap:butt;stroke-linejoin:miter;stroke-miterlimit:4;stroke-opacity:1;stroke-dasharray:none" inkscape:connector-curvature="0"/>
      <path sodipodi:nodetypes="csssc" id="path3611" d="m 309.5,20.17 c 0,0 -2.4,7.99 -1.9,10.77 0.5,3.35 1.7,7.92 3.7,10.7 1.5,2.21 4.6,4.39 7,5.68 3.8,2.12 13.9,4.59 13.9,4.59" style="fill:none;stroke:#000000;stroke-width:2.5;stroke-linecap:butt;stroke-linejoin:miter;stroke-miterlimit:4;stroke-opacity:1;stroke-dasharray:none" inkscape:connector-curvature="0"/>
      <path sodipodi:nodetypes="cssc" id="path3613" d="m 324.6,58.9 c 0,0 -5.8,3.03 -7.7,5.02 -1.3,1.43 -2.8,3.76 -3.2,5.68 -0.5,2.14 0.8,7.21 0.8,7.21" style="fill:#ffff00;fill-opacity:1;fill-rule:evenodd;stroke:#000000;stroke-width:2.5;stroke-linecap:butt;stroke-linejoin:miter;stroke-miterlimit:4;stroke-opacity:1;stroke-dasharray:none" inkscape:connector-curvature="0"/>
      <path sodipodi:nodetypes="csss" id="path3615" d="m 366.1,89.05 c 0,0 -4.9,9.9 -7.9,13.55 -1,1.2 -2.6,2.5 -3.9,3.5 -1.2,0.9 -4.4,2.8 -4.4,2.8" style="fill:#f8de00;fill-opacity:1;fill-rule:evenodd;stroke:#000000;stroke-width:2.5;stroke-linecap:butt;stroke-linejoin:miter;stroke-miterlimit:4;stroke-opacity:1;stroke-dasharray:none" inkscape:connector-curvature="0"/>
      <path sodipodi:nodetypes="csss" id="path3617" d="m 360.4,119.4 c 0,0 -4.4,-1.3 -6.3,-1.1 -1.6,0.2 -3.6,1 -4.8,2 -1.2,0.8 -3.1,3.7 -3.1,3.7" style="fill:#f8de00;fill-opacity:1;fill-rule:evenodd;stroke:#000000;stroke-width:2.5;stroke-linecap:butt;stroke-linejoin:miter;stroke-miterlimit:4;stroke-opacity:1;stroke-dasharray:none" inkscape:connector-curvature="0"/>
      <path sodipodi:nodetypes="csssss" id="path3619" d="m 387.1,169 c 0,0 -5.6,-6.4 -8.5,-8.5 -3.1,-2.2 -7.9,-4.4 -11.6,-4.6 -4.2,-0.3 -9.9,1.4 -13.6,3.5 -2.4,1.3 -4.9,4.4 -6.7,6.5 -2,2.3 -5.7,8.1 -5.7,8.1" style="fill:none;stroke:#000000;stroke-width:2.5;stroke-linecap:butt;stroke-linejoin:miter;stroke-miterlimit:4;stroke-opacity:1;stroke-dasharray:none" inkscape:connector-curvature="0"/>
      <path sodipodi:nodetypes="csc" id="path3621" d="m 349.9,232.5 c 0,0 4,5 5.1,7 0.8,1.6 1.9,5.7 1.9,5.7" style="fill:#f8de00;fill-opacity:1;fill-rule:evenodd;stroke:#000000;stroke-width:2.5;stroke-linecap:butt;stroke-linejoin:miter;stroke-miterlimit:4;stroke-opacity:1;stroke-dasharray:none" inkscape:connector-curvature="0"/>
    </g>
    <g id="armed">
      <path inkscape:connector-curvature="0" style="fill:#00ff00;fill-rule:evenodd;stroke:#000000;stroke-width:2.4999;stroke-linecap:butt;stroke-linejoin:miter;stroke-miterlimit:4;stroke-opacity:1;stroke-dasharray:none" d="m 103.7,267.9 c -1.5,-1.2 -2.1,-4.1 -3.4,-5.6 -1.99,-2.1 -8.03,-5.5 -8.03,-5.5 0,0 5.17,-0.7 7.25,-0.4 2.68,0.4 6.38,1.4 8.28,3.3 1.4,1.4 2.8,4.2 2.6,6.3 -0.1,1.3 -1.1,3.2 -2.4,3.7 -1.3,0.4 -3.2,-0.9 -4.3,-1.8 z" id="path8162" sodipodi:nodetypes="cscsssss"/>
      <path inkscape:connector-curvature="0" style="fill:#00ff00;fill-opacity:1;fill-rule:evenodd;stroke:#000000;stroke-width:2.4999;stroke-linecap:butt;stroke-linejoin:miter;stroke-miterlimit:4;stroke-opacity:1;stroke-dasharray:none" d="m 88.46,271.9 c 1.07,1 2.07,2.8 2.46,4.3 0.41,1.5 0.92,3.8 0.1,5.2 -0.53,0.8 -2.02,1.3 -3.01,1.4 -0.7,0.2 -1.67,-0.1 -2.3,-0.4 -1.34,-0.6 -2.46,-2.5 -3.89,-2.9 -1.24,-0.4 -3.12,0 -4.35,0.5 -1.73,0.7 -2.66,0.9 -3.89,2.3 -0.94,1.2 -2.85,5.4 -2.85,5.4 0,0 -1.8,-5 -1.61,-7.1 0.28,-3 1.49,-5.9 3.8,-7.9 1.47,-1.3 4.11,-2.1 6.01,-2.4 2.35,-0.4 5.55,0 7.78,0.6 0.58,0.2 1.32,0.6 1.75,1 z" id="path8164" sodipodi:nodetypes="cssssssscsssss"/>
      <path inkscape:connector-curvature="0" style="fill:#00ff00;fill-opacity:1;fill-rule:evenodd;stroke:#000000;stroke-width:2.4999;stroke-linecap:butt;stroke-linejoin:miter;stroke-miterlimit:4;stroke-opacity:1;stroke-dasharray:none" d="m 98.4,303 c 0.91,-0.1 2.1,0.4 2.8,1.1 1.5,1.4 3,4.4 2.6,6.5 -0.3,1.6 -2.5,2.9 -3.9,3.7 -1.98,1.3 -5.14,2.4 -7.56,2.7 -2.22,0.3 -7.35,-0.9 -7.35,-0.9 0,0 4.44,-2.7 5.83,-4.4 1.39,-1.6 1.75,-4.6 3.14,-6.1 1.06,-1.2 2.93,-2.5 4.44,-2.6 z" id="path8166" sodipodi:nodetypes="csssscsss"/>
      <path inkscape:connector-curvature="0" style="fill:#00ff00;fill-opacity:1;fill-rule:evenodd;stroke:#000000;stroke-width:2.4999;stroke-linecap:butt;stroke-linejoin:miter;stroke-miterlimit:4;stroke-opacity:1;stroke-dasharray:none" d="m 126.6,316.1 c 2,-0.2 4.3,2 5.6,3.6 1,1.2 1.2,2.5 1,4.1 -0.1,2.2 -1.7,5 -3.5,6.3 -1.1,0.9 -3,1.4 -4.3,1.4 -1.6,0 -3,0.3 -4.5,-0.3 -1.6,-0.9 -4.7,-4 -4.7,-4 0,0 4,0 5.5,-0.9 1.5,-0.9 3.1,-2.9 3.6,-4.7 0.3,-0.9 -0.6,-2.3 -0.4,-3.2 0.2,-0.8 0.9,-2.1 1.7,-2.3 z" id="path8168" sodipodi:nodetypes="cssssscssss"/>
      <path inkscape:connector-curvature="0" style="fill:#00ff00;fill-rule:evenodd;stroke:#000000;stroke-width:2.5;stroke-linecap:butt;stroke-linejoin:miter;stroke-miterlimit:4;stroke-opacity:1;stroke-dasharray:none" d="m 92.93,27.43 c 0.25,1.56 1.31,3.58 2.59,4.45 0.94,0.71 2.67,1.31 3.84,0.88 1.44,-0.45 2.94,-1.17 3.34,-2.64 1.3,-4.06 1.5,-9.21 -0.2,-13.09 -1.4,-2.95 -4.63,-6.5 -7.64,-7.713 -1.38,-0.566 -2.67,-1.045 -4.1,-0.574 -1.42,0.471 -4.77,2.307 -4.77,2.307 0,0 3.38,0.87 4.53,1.76 1.28,1.02 2.61,2.87 3.24,4.37 0.77,1.89 0,3.47 0,5.49 0,1.44 -1.07,3.33 -0.82,4.76 z" id="path3291" sodipodi:nodetypes="csssssscssss"/>
      <path inkscape:connector-curvature="0" style="fill:#00ff00;fill-opacity:1;fill-rule:evenodd;stroke:#000000;stroke-width:2.5;stroke-linecap:butt;stroke-linejoin:miter;stroke-miterlimit:4;stroke-opacity:1;stroke-dasharray:none" d="m 54.92,15.77 c 0,0 0.32,-5.35 2.41,-7.373 2.09,-2.024 6.02,-3.736 8.97,-3.919 2.06,-0.18 4.82,0.682 6.45,1.864 3.12,2.251 5.84,5.618 6.78,9.398 0.4,1.56 0.86,3.45 0.15,4.96 -0.71,1.64 -2.54,2.69 -4.41,2.9 -1.33,0.15 -3.25,-1.56 -4.25,-2.45 -2.54,-2.27 -2.57,-7.12 -5.53,-8.82 -0.91,-0.54 -2.42,-0.68 -3.51,-0.59 -0.9,0 -2.07,0.57 -3.04,0.91 -1.36,0.39 -4.02,3.12 -4.02,3.12 z" id="path3293" sodipodi:nodetypes="cssssssssssc"/>
      <path inkscape:connector-curvature="0" style="fill:#00ff00;fill-opacity:1;fill-rule:evenodd;stroke:#000000;stroke-width:2.5;stroke-linecap:butt;stroke-linejoin:miter;stroke-miterlimit:4;stroke-opacity:1;stroke-dasharray:none" d="m 59,53.17 c 0.92,-0.25 2.44,-0.37 3,-1.21 0.78,-1.18 0.52,-3.42 -0.12,-4.66 -0.93,-1.76 -1.9,-3.17 -3.82,-3.67 -1.08,-0.3 -5.7,1.07 -6.7,1.52 -2.55,1.21 -4.02,2.58 -5.16,5.18 -0.99,2.33 -1.13,6.1 -0.15,8.44 0.8,1.79 3.08,3.55 4.79,4.55 1.09,0.56 3.88,1.18 3.88,1.18 0,0 -2.23,-4.81 -1.93,-6.95 0.2,-1.3 1.16,-2.98 2.19,-3.68 1.01,-0.7 2.8,-0.31 4.02,-0.7 z" id="path3295" sodipodi:nodetypes="cssssssscsss"/>
      <path inkscape:connector-curvature="0" style="fill:#00ff00;fill-opacity:1;fill-rule:evenodd;stroke:#000000;stroke-width:2.5;stroke-linecap:butt;stroke-linejoin:miter;stroke-miterlimit:4;stroke-opacity:1;stroke-dasharray:none" d="m 63.71,77.75 c 1.21,-1.07 3.95,0 5.11,1.07 1.3,1.02 2.24,3.47 2.02,5.15 -0.22,1.82 -2.11,3.88 -3.58,4.98 -2.04,1.54 -5.54,3.1 -8.14,2.92 -2.76,-0.18 -6.35,-2.18 -8.2,-4.23 -1.94,-2.27 -3.26,-6.39 -3.39,-9.33 0,-1.34 1.17,-4.17 1.17,-4.17 0,0 1.63,4.13 2.99,5.35 1.97,1.62 5.53,2.65 8.09,2.65 1.35,0 3.25,-3.8 3.92,-4.4 z" id="path3297" sodipodi:nodetypes="csssssscsss"/>
      <path inkscape:connector-curvature="0" style="fill:#00ff00;fill-rule:evenodd;stroke:#000000;stroke-width:2.5;stroke-linecap:butt;stroke-linejoin:miter;stroke-miterlimit:4;stroke-opacity:1;stroke-dasharray:none" d="m 47.69,170.8 c 0.21,-2.9 -0.97,-5.9 -3.09,-7.9 -1.74,-1.6 -5.31,-2.3 -7.8,-2.6 -2.49,-0.3 -6.19,-0.4 -8.44,0.9 -1.23,0.6 -1.86,1.4 -2.21,2.7 -0.35,1.2 -0.56,3.9 -0.56,3.9 0,0 2.16,-1.6 3.27,-1.7 1.6,-0.1 3.76,1.1 5.23,1.9 1.47,0.8 2.99,2.7 4.35,3.6 0.98,0.7 2.34,1.8 3.53,2 1.29,0.3 3.19,0.3 4.32,-0.3 0.72,-0.5 1.36,-1.7 1.4,-2.5 z" id="path3474" sodipodi:nodetypes="csssscssssss"/>
      <path inkscape:connector-curvature="0" style="fill:#00ff00;fill-rule:evenodd;stroke:#000000;stroke-width:2.5;stroke-linecap:butt;stroke-linejoin:miter;stroke-miterlimit:4;stroke-opacity:1;stroke-dasharray:none" d="m 34.15,181.4 c -0.46,1.5 -2.13,3.2 -3.55,3.8 -1.32,0.4 -3.31,0.1 -4.59,-0.5 -1.57,-0.7 -2.67,-3.4 -4.24,-4 -1.97,-0.8 -4.98,-0.6 -7.11,0 -1.31,0.3 -3.05,1.2 -3.99,2.1 -1.248,1.3 -2.908,5.2 -2.908,5.2 0,0 -0.996,-7.5 0.319,-10.4 0.991,-2.2 3.879,-4.4 6.129,-5.6 2.04,-1 5.07,-1.5 7.27,-1.5 2.09,0.1 4.98,0.6 6.84,1.6 1.76,1 3.79,2.9 4.72,4.6 0.75,1.3 1.47,3.3 1.11,4.7 z" id="path3476" sodipodi:nodetypes="cssssscssssss"/>
      <path inkscape:connector-curvature="0" style="fill:#00ff00;fill-rule:evenodd;stroke:#000000;stroke-width:2.5;stroke-linecap:butt;stroke-linejoin:miter;stroke-miterlimit:4;stroke-opacity:1;stroke-dasharray:none" d="m 44.35,211.6 c 1.36,-1.5 1.25,-3.7 0.22,-5.5 -1.12,-2 -3.72,-4.5 -6.02,-4.8 -1.59,-0.1 -3.18,2.1 -4.52,3 -1.75,1.1 -4.1,2.5 -5.56,3.9 -1.46,1.4 -3.24,3.6 -4.12,5.4 -0.55,1.2 -1.22,2.9 -0.96,4.1 0.33,1.7 3.5,4.8 3.5,4.8 0,0 -0.63,-4.1 0.13,-5.6 0.75,-1.3 2.7,-2.4 4.02,-2.9 2.34,-0.9 5.64,-1 8.15,-1.1 1.9,0 3.99,0.3 5.16,-1.3 z" id="path3478" sodipodi:nodetypes="csssssscssss"/>
      <path inkscape:connector-curvature="0" style="fill:#00ff00;fill-rule:evenodd;stroke:#000000;stroke-width:2.5;stroke-linecap:butt;stroke-linejoin:miter;stroke-miterlimit:4;stroke-opacity:1;stroke-dasharray:none" d="m 72.32,222.9 c 0.71,2.3 1.31,4.6 0.62,6.9 -0.8,2.5 -3.71,5.1 -6.15,6 -1.52,0.7 -3.24,1 -4.83,0.8 -1.69,-0.4 -5.43,-2 -5.43,-2 0,0 2.87,-1.5 3.9,-2.3 1.24,-1 3.1,-2.4 3.66,-3.9 0.68,-1.9 -1.2,-5 -0.32,-6.9 0.54,-1.2 2.09,-2.4 3.4,-2.6 1.31,-0.1 3.17,1 4.13,1.9 0.48,0.4 0.84,1.4 1.02,2.1 z" id="path3480" sodipodi:nodetypes="cssscssssss"/>
      <path inkscape:connector-curvature="0" style="fill:#00ff00;fill-rule:evenodd;stroke:#000000;stroke-width:2.5;stroke-linecap:butt;stroke-linejoin:miter;stroke-miterlimit:4;stroke-opacity:1;stroke-dasharray:none" d="m 237.7,353.6 c -0.1,-2 -2.5,-4.2 -4.1,-5.3 -2,-1.4 -3,-1.8 -5.3,-2.2 -2.1,-0.3 -5,-0.7 -6.9,0.1 -2,0.9 -5,5.4 -5,5.4 0,0 6.5,-1.1 9.2,-0.4 2.9,0.7 3.7,3.5 6.5,4.5 1.1,0.4 2.6,1.2 3.6,0.8 1,-0.4 2,-1.9 2,-2.9 z" id="path8213" sodipodi:nodetypes="cssscssss"/>
      <path inkscape:connector-curvature="0" style="fill:#00ff00;fill-rule:evenodd;stroke:#000000;stroke-width:2.5;stroke-linecap:butt;stroke-linejoin:miter;stroke-miterlimit:4;stroke-opacity:1;stroke-dasharray:none" d="m 225.6,362.6 c 1.5,1.5 2.5,1.8 2.5,3.8 0,1.8 -1.1,4.5 -2.7,5.3 -0.9,0.5 -2.5,-0.2 -3.5,-0.5 -1.8,-0.4 -3.9,-1.9 -5.7,-2 -1.5,-0.1 -3.6,0.4 -4.9,1.2 -1,0.6 -2.1,1.9 -2.8,3 -0.6,1.1 -0.3,2.4 -0.6,3.6 -0.1,0.4 -2.3,-2.1 -2.9,-3.6 -0.5,-1.6 -0.7,-4 -0.3,-5.6 0.6,-2.3 2.5,-3.5 4.3,-5.1 1.6,-1.5 4.1,-1.4 6.3,-1.9 2.2,-0.5 5.4,-0.3 7.7,0.4 0.8,0.2 2,0.8 2.6,1.4 z" id="path8215" sodipodi:nodetypes="csssssscssssss"/>
      <path inkscape:connector-curvature="0" style="fill:#00ff00;fill-rule:evenodd;stroke:#000000;stroke-width:2.5;stroke-linecap:butt;stroke-linejoin:miter;stroke-miterlimit:4;stroke-opacity:1;stroke-dasharray:none" d="m 235.4,391.8 c 0,0 3.7,1 5,1.9 0.7,0.6 1.1,1 1.3,1.8 0.5,1.8 0.1,4.8 -1.2,6.2 -1.6,1.9 -5.5,2.2 -7.9,2.9 -1.7,0.4 -5.2,1.7 -5.2,1.7 0,0 3.5,-10 4.7,-11.6 1.4,-1.9 3.1,-2.8 3.3,-2.9 z" id="path8217" sodipodi:nodetypes="csssscss"/>
      <path inkscape:connector-curvature="0" style="fill:#00ff00;fill-rule:evenodd;stroke:#000000;stroke-width:2.5;stroke-linecap:butt;stroke-linejoin:miter;stroke-miterlimit:4;stroke-opacity:1;stroke-dasharray:none" d="m 269.9,399.6 c 1.2,0.6 2.6,1.9 3.1,3.2 0.6,1.5 0.8,3.9 0.2,5.4 -0.9,2.1 -3.7,4 -5.7,5 -2.7,1.4 -9.8,2.2 -9.8,2.2 0,0 3.3,-3.4 4.5,-5.1 0.7,-1 1.8,-2.5 1.9,-3.7 0.2,-1.5 -1.8,-3.4 -1.4,-4.9 0.2,-1 1.3,-2.1 2.2,-2.4 1.4,-0.6 3.6,-0.3 5,0.3 z" id="path8219" sodipodi:nodetypes="cssscsssss"/>
    </g>
    <g id="g2674">
      <g id="g6176">
        <path style="fill:#ff2a2a;fill-opacity:1;fill-rule:evenodd;stroke:#000000;stroke-width:2.5;stroke-linecap:butt;stroke-linejoin:miter;stroke-miterlimit:4;stroke-opacity:1;stroke-dasharray:none" d="m631.6, 11.72   c0,0 -9.477,-5.738 -14.17,-6.357 -3.398,-0.4136 -7.998,-0.432 -11.3,0.1548 -4.704,0.8812 -11.72,6.153 -16.52,6.734 -2.261,0.291 -4.152,0.5834 -5.767,-0.8231 -2.9,-2.512 -0.6899,-7.523 -2.467,-10.75 -0.8737,-1.574 -3.057,-3.212 -4.814,-4.049 -2.176,-1.029 -5.573,-1.892 -8.034,-1.642 -1.531,0.1539 -4.598,2.002 -4.598,2.002 0,0 4.042,2.006 5.036,3.44 2.177,3.159 0.5346,8.842 2.482,12.05 0.7648,1.303 2.59,2.61 3.886,3.516 1.336,0.9054 3.181,2.213 4.82,2.619 3.636,0.9146 8.927,0.7357 12.63,0.05052 4.494,-0.882 9.514,-5.862 14.02,-6.744 3.502,-0.586 8.298,0.6332 11.7,1.147 2.598,0.4104 8.089,2.732 8.089,2.732   l5.016,-4.08   z " id="path6066" sodipodi:nodetypes="cssssssscssssssscc" inkscape:connector-curvature="0"/>
        <path style="fill:#ffffff;fill-rule:evenodd;stroke:#000000;stroke-width:2.5;stroke-linecap:butt;stroke-linejoin:miter;stroke-miterlimit:4;stroke-opacity:1;stroke-dasharray:none" d="m598.6, -7.222   c0.5058,-1.458 0.9039,-0.9764 2.306,-1.481 1.502,-0.504 1.503,-0.784 2.599,0.2404 1.096,0.9244 1.398,0.5756 1.492,1.966 0.3857,3.572 -0.02864,7.16 -1.442,10.48 -0.6055,1.378 -2.113,3.272 -2.113,3.272 0,0 -1.194,-1.405 -1.688,-3.127 -1.186,-3.585 -2.269,-7.769 -1.155,-11.35   z " id="path6139" sodipodi:nodetypes="csssscss" inkscape:connector-curvature="0"/>
        <path style="fill:#ffffff;fill-rule:evenodd;stroke:#000000;stroke-width:2.5;stroke-linecap:butt;stroke-linejoin:miter;stroke-miterlimit:4;stroke-opacity:1;stroke-dasharray:none" d="m600.4, 20.3   c-0.006,1.5 0.4952,1.202 1.692,2.107 1.196,1.005 1.095,1.204 2.497,0.71 1.302,-0.5948 1.501,-0.194 2.106,-1.392 1.613,-3.294 2.327,-6.791 2.142,-10.39 -0.094,-1.5 -1.085,-3.804 -1.085,-3.804 0,0 -1.504,0.994 -2.61,2.39 -2.212,2.991 -4.626,6.582 -4.742,10.38   z " id="path6141" sodipodi:nodetypes="csssscss" inkscape:connector-curvature="0"/>
        <g id="g6049">
          <path sodipodi:nodetypes="csssssssscsscssscssscsssssscssssscsssscssssscscsssssssccccc" id="path5995" d="m648.3, 15.39   c0,0 -14.56,15.04 -22.08,19.91 -7.118,4.472 -18.83,6.425 -25.94,11.1 -7.218,4.571 -15.95,12.34 -21.08,19.12 -3.519,4.686 -6.648,12.07 -8.87,17.46 -2.02,4.992 2.852,11.91 0.7496,12.6 -2.703,0.7892 -7.617,4.27 -10.84,9.657 -2.215,3.791 -3.239,9.687 -3.746,11.49 -0.61,2.498 -0.2256,6.399 1.366,8.406 1.791,2.207 8.786,3.535 8.786,3.535 0,0 -3.079,-5.312 -2.469,-7.71 0.6072,-1.798 3.115,-3.688 4.917,-4.18 2.903,-0.6884 6.398,0.5256 6.398,0.5256 0,0 -2.734,8.389 -1.848,11.89 0.6892,2.703 4.681,4.719 5.57,7.422 0.8904,2.404 1.075,6.204 0.3652,8.702 -1.217,4.295 -8.449,12.27 -8.449,12.27 0,0 11.11,-3.456 14.73,-6.641 3.111,-2.788 6.231,-7.775 7.048,-11.87 0.8152,-3.797 -2.963,-9.212 -1.748,-12.91 1.619,-4.794 11.65,-11.85 11.65,-11.85 0,0 0.4656,8.602 1.351,12.21 0.5904,2.402 3.679,5.315 3.069,7.712 -0.7132,3.297 -6.917,4.272 -8.43,7.366 -1.412,2.994 -1.231,7.795 -0.7448,11.2 0.3908,2.302 1.578,5.506 3.171,7.313 2.389,2.71 6.98,5.028 10.48,6.042 1.199,0.3048 4.2,0.0168 4.2,0.0168 0,0 -7.082,-4.628 -8.369,-7.734 -0.6928,-1.803 -0.4816,-4.602 0.3252,-6.299 1.008,-2.096 3.915,-3.784 5.621,-5.278 2.608,-2.09 6.716,-4.073 8.826,-6.565 2.111,-2.692 4.028,-6.884 4.941,-10.18 0.914,-3.496 0.7476,-11.9 0.7476,-11.9 0,0 -0.3256,6.399 1.362,9.506 0.9928,1.804 5.08,4.92 6.274,6.625 0.8944,1.404 2.286,3.609 2.079,5.308 -0.2084,2.099 -2.816,4.089 -3.924,5.884 -1.007,1.696 -3.122,5.588 -3.122,5.588 0,0 9.418,-4.362 12.63,-7.25 2.911,-2.688 6.728,-6.973 7.344,-10.87 0.408,-1.998 -1.081,-4.704 -1.674,-6.607 -0.4944,-1.402 -1.287,-3.205 -1.782,-4.607 -0.3948,-1.302 -1.387,-3.206 -0.982,-4.504 0.7092,-2.297 5.921,-5.276 5.921,-5.276 0,0 -1.218,4.395 -1.025,6.296 0.3872,3.202 4.161,9.817 4.161,9.817 0,0 0.424,-5.998 2.131,-7.692 2.912,-2.988 9.609,-2.162 13.32,-4.147 4.209,-2.283 11.44,-9.554 14.45,-13.34 0.6032,-0.7976 6.373,6.726 9.984,4.04 5.818,-4.477 10.14,-9.76 14.47,-18.44 3.327,-6.687 -0.7348,-16.3 -0.4004,-24.9 0.3376,-9.399 3.084,-21.09 2.888,-21.99 -1.481,-4.806 -7.458,-10.63 -7.458,-10.63   L702.9,8.266 691.5,-5.47   l-49.45,13.45 6.271,7.375   z " style="fill:#f8de00;fill-opacity:1;fill-rule:evenodd;stroke:#000000;stroke-width:3;stroke-linecap:butt;stroke-linejoin:miter;stroke-miterlimit:4;stroke-opacity:1;stroke-dasharray:none" inkscape:connector-curvature="0"/>
          <path sodipodi:nodetypes="csscscscssscssssssssscssssssscscssscsssssssscccscscsscscscsscssssscssssscsscsc" id="path5193" d="m689.7, -38.94   c0,0 2.614,-3.46 3.426,-6.406 0.5072,-1.788 0.2282,-7.059 -0.06128,-9.68 -0.2902,-2.451 -1.086,-3.414 -1.086,-3.414 0,0 -0.512,2.988 -1.218,4.535 -1.21,2.595 -5.93,7.426 -5.93,7.426 0,0 0.8138,-3.437 0.7198,-4.937 -0.2816,-4.611 -4.141,-14.84 -4.141,-14.84 0,0 -1.84,9.993 -4.354,13.39 -2.112,2.942 -4.908,1.96 -8.413,3.136 -8.612,2.956 -24.3,0.6128 -34.12,4.524 -4.107,1.614 -12.43,7.33 -12.43,7.33 0,0 -10.31,3.519 -16.11,2.446 -2.098,-0.3984 -4.591,-2.338 -6.692,-1.937 -3.703,0.6952 -6.703,0.6032 -9.906,1.55 -3.905,1.184 -4.138,9.464 -2.854,13.38 0.3948,1.312 2.19,2.499 2.485,3.84 0.5911,2.232 -1.322,5.445 -0.6306,7.648 0.7896,2.593 3.277,5.863 5.672,7.033 3.394,1.614 8.599,0.2744 12.1,-0.9116 3.905,-1.294 8.104,-0.9276 10.22,-4.419 0.9056,-1.406 3.527,-6.676 3.527,-6.676 0,0 6.282,4.515 7.667,8.321 1.287,3.315 1.166,8.595 -0.3472,11.79 -2.219,4.721 -8.238,9.547 -13.15,11.43 -4.407,1.682 -11.29,-1.645 -15.6,0.2376 -3.406,1.486 -6.812,2.873 -8.026,6.368 -0.7092,2.297 -1.228,7.095 0.2644,8.901 1.792,2.107 5.699,0.2228 6.99,2.628 0.7948,1.303 0.6732,6.703 0.6732,6.703 0,0 6.216,-4.075 7.627,-6.67 1.007,-1.696 1.026,-6.396 1.026,-6.396 0,0 15.2,1.061 21.7,1.087 4.5,-0.082 12.2,1.049 16.2,-0.9352 3.206,-1.587 5.722,-5.477 6.436,-8.874 0.3052,-1.299 -1.283,-4.205 -1.283,-4.205 0,0 2.406,-1.39 3.501,-0.286 2.989,2.712 4.075,6.216 4.159,10.22 0.0716,7.1 -0.7704,17.6 -3.896,23.88 -1.915,3.792 -5.135,8.68 -8.749,12.17 -1.406,1.394 -2.91,2.588 -4.414,3.382 -3.608,1.986 -9.608,1.962 -13.12,4.148 -2.306,1.491 -5.117,4.18 -6.427,6.674 -1.008,1.996 -1.72,5.093 -1.629,7.294 0.1884,2.901 3.164,8.913 3.164,8.913   l2.529,-7.19 12.52,-5.95   c0,0 16.61,-3.634 22.63,-7.51 6.617,-4.174 6.826,-6.573 6.826,-6.573 0,0 -1.536,9.094 -9.365,16.16 -2.509,2.19 -9.522,5.462 -9.522,5.462 0,0 13.4,-0.9464 18.51,-3.426 6.012,-2.976 12.64,-9.55 16.56,-15.03 3.62,-4.886 9.187,-21.66 9.187,-21.66 0,0 -4.237,-15.82 -7.506,-23.43 -1.684,-4.107 -7.95,-12.54 -7.95,-12.54 0,0 6.065,8.734 7.949,12.84 4.164,9.117 9.972,31.94 9.972,31.94 0,0 4.759,-14.68 5.585,-21.18 0.5188,-4.698 0.7452,-11.3 -0.436,-16 -1.084,-3.964 -6.452,-12.05 -6.452,-12.05 0,0 5.066,8.43 6.35,12.45 1.482,4.506 -0.0468,11.7 2.538,15.61 2.981,4.712 9.96,10.04 15.46,10.16 2.3,0.0092 5.009,-2.28 6.516,-3.974 2.11,-2.392 4.426,-6.482 4.038,-9.584 -0.192,-2.001 -3.978,-5.516 -3.978,-5.516 0,0 -1.82,4.893 -3.126,6.388 -1.205,1.195 -3.403,0.6864 -4.799,-0.2192 -1.297,-0.8052 -1.081,-4.704 -1.375,-6.206 -1.17,-7.505 3.465,-16.31 0.8896,-22.39 -0.8917,-2.074 -3.77,-7.595 -6.363,-9.256 -1.696,-1.087 -8.084,-3.972 -8.084,-3.972 0,0 4.311,-2.743 5.518,-4.488 2.615,-3.78 4.24,-9.973 5.058,-14.52 0.613,-3.258 0.04408,-11.02 0.04408,-11.02 0,0 -10.2,0.2892 -14.5,0.942 -2.502,0.37 -8.208,1.937 -8.208,1.937   z " style="fill:#f8de00;fill-opacity:1;fill-rule:evenodd;stroke:#000000;stroke-width:3;stroke-linecap:butt;stroke-linejoin:miter;stroke-miterlimit:4;stroke-opacity:1;stroke-dasharray:none" inkscape:connector-curvature="0"/>
          <g id="g5187">
            <path sodipodi:type="arc" style="fill:#ffffff;fill-opacity:1;fill-rule:evenodd;stroke:#000000;stroke-width:2.5;stroke-linecap:butt;stroke-linejoin:miter;stroke-miterlimit:4;stroke-opacity:1;stroke-dasharray:none;stroke-dashoffset:0;marker:none;visibility:visible;display:inline;overflow:visible;enable-background:accumulate" id="path3163" sodipodi:cx="136.8" sodipodi:cy="142.9" sodipodi:rx="12.5" sodipodi:ry="7.361" d="m634.3, -29   c-1.661,3.748 2.122,9.035 8.431,11.83 6.309,2.795 12.76,2.047 14.43,-1.701 1.661,-3.748 -2.122,-9.035 -8.431,-11.83 -6.309,-2.795 -12.76,-2.047 -14.43,1.701   z "/>
            <path sodipodi:type="arc" style="fill:#ffffff;fill-opacity:1;fill-rule:evenodd;stroke:#000000;stroke-width:2.5;stroke-linecap:butt;stroke-linejoin:miter;stroke-miterlimit:4;stroke-opacity:1;stroke-dasharray:none;stroke-dashoffset:0;marker:none;visibility:visible;display:inline;overflow:visible;enable-background:accumulate" id="path3179" sodipodi:cx="141.9" sodipodi:cy="141.4" sodipodi:rx="8.007" sodipodi:ry="8.007" d="m650.2, -26.57   c-0.0176,4.4 -3.632,7.986 -8.032,7.968 -4.4,-0.0176 -7.986,-3.632 -7.968,-8.032 0.0176,-4.4 3.632,-7.986 8.032,-7.968 4.4,0.0176 7.986,3.632 7.968,8.032   z "/>
            <path style="fill:#000000;fill-opacity:1;fill-rule:evenodd;stroke:none" d="m643, -33.52   c-0.6,-0.0024 -1.1,0.0956 -1.701,0.1532 -1,0.116 -2.001,0.302 -2.001,0.302   l0.7864,3.403   c0,0 0.8006,-0.1368 1.601,-0.2436 0.9004,-0.0964 2,0.108 1.9,0.0076 -0.1,-0.0004 0.597,0.7624 0.5962,0.9424 0.1977,0.5708 0.08916,2.71 -0.2132,3.289 -0.1008,0.1996 -0.9037,0.9164 -0.9037,0.9264 0.2004,-0.0992 -0.6,-0.0024 -1.3,-0.1252 -0.5995,-0.1224 -1.199,-0.2548 -1.199,-0.2548 0,0 -1.699,-0.2168 -2.001,0.362 -0.303,0.7588 0.9896,2.594 0.9896,2.594 0,0 0.6993,0.1728 1.499,0.326 0.8994,0.1436 1.698,0.4168 3,0.012 1.502,-0.484 2.406,-1.43 3.011,-2.678 0.8067,-1.677 1.115,-3.626 0.5219,-5.468 -0.3948,-1.302 -1.09,-2.424 -2.588,-3.1 -0.6987,-0.3228 -1.398,-0.4156 -1.998,-0.418   z " id="path3183" sodipodi:nodetypes="csccsssssscscsssssc" inkscape:connector-curvature="0"/>
            <path style="fill:#f8de00;fill-opacity:1;fill-rule:evenodd;stroke:#000000;stroke-width:2.5;stroke-linecap:butt;stroke-linejoin:miter;stroke-miterlimit:4;stroke-opacity:1;stroke-dasharray:none" d="m641.6, -38.9   c0,0 -2.802,0.4188 -3.904,0.8744 -2.304,0.8808 -4.512,2.902 -4.821,5.301 -0.205,1.249 0.2907,2.321 1.187,3.195 0.9962,0.944 2.597,0.8404 3.896,0.9056 2,0.108 4.506,-1.452 6.405,-1.214 2.799,0.3412 6.392,2.066 8.484,3.934 0.9965,0.874 1.188,3.015 2.285,3.729 0.9974,0.654 2.896,1.082 3.898,0.5556 1.102,-0.5456 1.709,-2.363 2.014,-3.542 0.1023,-0.5696 0.1056,-1.39 0.0078,-1.95 -0.2966,-0.8512 -0.9926,-1.854 -1.59,-2.486 -0.7968,-0.8032 -2.991,-2.142 -2.991,-2.142   " id="path3167" sodipodi:nodetypes="csssssssssssc" inkscape:connector-curvature="0"/>
          </g>
          <path sodipodi:nodetypes="csssc" id="path6013" d="m590.7, -21.34   c0,0 4.826,-6.441 7.13,-7.362 2.204,-0.9112 3.003,-0.778 3.5,0.014 0.3968,0.8016 0.2918,2.051 -1.415,3.674 -1.607,1.634 -9.215,3.673 -9.215,3.673   z " style="fill:none;stroke:#000000;stroke-width:2.5;stroke-linecap:butt;stroke-linejoin:miter;stroke-miterlimit:4;stroke-opacity:1;stroke-dasharray:none" inkscape:connector-curvature="0"/>
          <path sodipodi:nodetypes="cscssscsc" id="path6022" d="m689.2, -27.42   c0,0 2.718,-4.369 4.622,-5.442 2.907,-1.678 11.01,-1.986 11.01,-1.986 0,0 1.372,7.086 -0.5361,9.018 -0.9038,0.9564 -3.498,-0.584 -4.402,0.3624 -1.305,1.235 0.6816,4.613 -0.6234,5.838 -0.8033,0.8268 -3.901,0.2444 -3.901,0.2444 0,0 0.12,-5.01 -1.274,-6.485 -0.9954,-1.164 -4.894,-1.55 -4.894,-1.55   z " style="fill:#000000;fill-rule:evenodd;stroke:#000000;stroke-width:2.5;stroke-linecap:butt;stroke-linejoin:miter;stroke-miterlimit:4;stroke-opacity:1;stroke-dasharray:none" inkscape:connector-curvature="0"/>
          <path sodipodi:nodetypes="cssccsssc" id="path6018" d="m681.8, -24.86   c0,0 -5.544,11.03 -9.159,14.72 -2.008,1.942 -5.216,4.069 -7.82,4.889 -5.006,1.55 -18.11,2.398 -18.11,2.398   l-0.9042,1.036   c0,0 14.82,-3.761 19,0.076 1.594,1.426 1.58,5.106 0.6719,7.033 -0.7066,1.647 -2.816,3.939 -4.32,4.873 -2.406,1.45 -8.813,3.205 -8.813,3.205   " style="fill:none;stroke:#000000;stroke-width:2.5;stroke-linecap:butt;stroke-linejoin:miter;stroke-miterlimit:4;stroke-opacity:1;stroke-dasharray:none" inkscape:connector-curvature="0"/>
          <path sodipodi:nodetypes="csss" id="path6020" d="m677.4, 31.4   c0,0 0.7664,8.403 -0.0476,11.9 -1.322,5.495 -3.841,10.28 -6.661,15.17 -1.108,1.996 -4.225,6.283 -4.225,6.283   " style="fill:none;stroke:#000000;stroke-width:2.5;stroke-linecap:butt;stroke-linejoin:miter;stroke-miterlimit:4;stroke-opacity:1;stroke-dasharray:none" inkscape:connector-curvature="0"/>
          <path sodipodi:nodetypes="css" id="path6039" d="m588.5, 102.7   c0,0 -6.317,4.175 -8.627,6.766 -1.708,1.893 -4.33,7.483 -4.33,7.483   " style="fill:none;stroke:#000000;stroke-width:2.5;stroke-linecap:butt;stroke-linejoin:miter;stroke-miterlimit:4;stroke-opacity:1;stroke-dasharray:none" inkscape:connector-curvature="0"/>
          <path sodipodi:nodetypes="cssc" id="path6041" d="m654, 92.41   c0,0 -12.32,3.851 -17.33,7.231 -2.406,1.59 -4.52,4.982 -5.73,7.577 -1.916,3.992 -3.046,11.39 -3.046,11.39   " style="fill:none;stroke:#000000;stroke-width:2.5;stroke-linecap:butt;stroke-linejoin:miter;stroke-miterlimit:4;stroke-opacity:1;stroke-dasharray:none" inkscape:connector-curvature="0"/>
          <path sodipodi:nodetypes="csss" id="path6043" d="m652.5, 111.5   c0,0 7.027,-6.772 9.837,-9.161 3.913,-3.284 11.22,-4.955 14.14,-9.144 1.81,-2.593 2.142,-10.49 2.142,-10.49   " style="fill:none;stroke:#000000;stroke-width:2.5;stroke-linecap:butt;stroke-linejoin:miter;stroke-miterlimit:4;stroke-opacity:1;stroke-dasharray:none" inkscape:connector-curvature="0"/>
          <path sodipodi:nodetypes="csss" id="path6037" d="m587.3, 66.84   c0,0 -0.5384,9.598 -2.154,13.39 -0.8072,1.797 -2.72,5.089 -4.73,7.381 -4.018,4.584 -8.832,8.065 -8.832,8.065   " style="fill:none;stroke:#000000;stroke-width:2.5;stroke-linecap:butt;stroke-linejoin:miter;stroke-miterlimit:4;stroke-opacity:1;stroke-dasharray:none" inkscape:connector-curvature="0"/>
        </g>
      </g>
      <path sodipodi:nodetypes="css" id="path6197" d="m602.4, 116.4   c0,0 2.266,-8.891 4.14,-12.58 1.22,-2.395 5.648,-7.078 5.648,-7.078   " style="fill:none;stroke:#000000;stroke-width:2.5;stroke-linecap:butt;stroke-linejoin:miter;stroke-miterlimit:4;stroke-opacity:1;stroke-dasharray:none" inkscape:connector-curvature="0"/>
    </g>
  </g>
</svg>
