<?xml version="1.0" encoding="UTF-8" standalone="no"?>
<svg
   xmlns:dc="http://purl.org/dc/elements/1.1/"
   xmlns:cc="http://creativecommons.org/ns#"
   xmlns:rdf="http://www.w3.org/1999/02/22-rdf-syntax-ns#"
   xmlns:svg="http://www.w3.org/2000/svg"
   xmlns="http://www.w3.org/2000/svg"
   xmlns:sodipodi="http://sodipodi.sourceforge.net/DTD/sodipodi-0.dtd"
   xmlns:inkscape="http://www.inkscape.org/namespaces/inkscape"
   height="363.4"
   width="389.7"
   version="1.0"
   id="svg2"
   sodipodi:version="0.32"
   inkscape:version="0.48.2 r9819"
   sodipodi:docname="lion-head.svg"
   inkscape:export-filename="/Users/olivier/Desktop/Blason Rouge/Blason_Vide_3D.png"
   inkscape:export-xdpi="144"
   inkscape:export-ydpi="144"
   inkscape:output_extension="org.inkscape.output.svg.inkscape">
  <metadata
     id="metadata49">
    <rdf:RDF>
      <cc:Work
         rdf:about="">
        <dc:format>image/svg+xml</dc:format>
        <dc:type
           rdf:resource="http://purl.org/dc/dcmitype/StillImage" />
        <dc:title>Blason Maison de Bavoz</dc:title>
        <dc:date>26 NOV 2008</dc:date>
        <dc:creator>
          <cc:Agent>
            <dc:title>http://commons.wikimedia.org/wiki/User:Zorlot</dc:title>
          </cc:Agent>
        </dc:creator>
        <cc:license
           rdf:resource="http://www.gnu.org/licenses/lgpl.html" />
        <dc:language>fr</dc:language>
        <dc:subject>
          <rdf:Bag>
            <rdf:li>gabarit modèle blason projet wikipédia</rdf:li>
          </rdf:Bag>
        </dc:subject>
        <dc:description>Maison de Bavoz : De sable au mufle de lion d'argent</dc:description>
        <dc:contributor>
          <cc:Agent>
            <dc:title>Jérôme BLUM</dc:title>
          </cc:Agent>
        </dc:contributor>
      </cc:Work>
    </rdf:RDF>
  </metadata>
  <sodipodi:namedview
     inkscape:window-height="990"
     inkscape:window-width="1400"
     inkscape:pageshadow="2"
     inkscape:pageopacity="0.0"
     guidetolerance="10.0"
     gridtolerance="10.0"
     objecttolerance="10.0"
     borderopacity="1.0"
     bordercolor="#666666"
     pagecolor="#ffffff"
     id="base"
     showgrid="false"
     height="660px"
     inkscape:zoom="0.8676"
     inkscape:cx="81.22"
     inkscape:cy="-35.64"
     inkscape:window-x="-4"
     inkscape:window-y="-4"
     inkscape:current-layer="svg2"
     fit-margin-top="0"
     fit-margin-left="0"
     fit-margin-right="0"
     fit-margin-bottom="0" />
  <defs
     id="defs6" />
  <g
     id="body">
    <path
       style="fill:#ffff00;fill-opacity:1;fill-rule:evenodd;stroke:#000000;stroke-width:5.6291;stroke-linecap:butt;stroke-linejoin:miter;stroke-miterlimit:4;stroke-opacity:1;stroke-dasharray:none"
       d="M 89,94.8 C 100,82.3 67,13.3 67,13.6 c 8,-3.8 55,47.2 54,61.5 -1,19.4 27,-26.6 5,-69.4 5,2.1 29,3.5 26,65.7 C 183,0.7 212,1.6 217,9.9 205,0.1 188,31.6 206,69.2 221,49.3 239,11.8 263,9.8 234,62 250,50.9 256,75.1 c 1,-1.3 6,-10.2 13,-17.2 16,-16.4 42,-34.6 44,-27.1 -3,0.5 -30,64.1 -10,67.7 2,1.2 30,51.6 30,51.6 7,8.3 26,15 28,52 -11,20.8 14,42.9 22,63.7 -22,-10.8 -31,-25.5 -43,-39.4 6,19 -6,43.5 25,56.5 24,19.7 22,39.4 22,59.1 2,-6.3 -33,-44.9 -32,-36.9 9,3.8 15,53.2 5,46.8 8,-8.5 -27,-65.2 -33,-61.5 8,1.1 8,58.7 -1,52.9 -12,-30.6 -45,-75.6 -52,-62 -7,13.6 -13,24.9 -25,30.5 -13,5.6 -34,3.9 -52,3.2 -18,-0.7 -43,-1.6 -56,-7.2 -13,-5.6 -17,-11.6 -24,-24.1 -7,-12.5 -43,63.3 -48,62 11,-21.1 -3,-59 -5,-55.3 12,17.7 -37.8,80.2 -39,68.9 14,-6.5 23,-64 9,-60.3 2,-12.7 -32.1,32.8 -28.4,39.4 4.2,-0.9 -20.1,-15 26.3,-59.7 C 52,258.9 54,226.1 49,222.7 54,241.5 -1.5,279.1 3.4,265.8 12.9,252.4 43,217.1 26.8,195.3 20.5,186.8 48,143.5 55,144 z"
       id="path3373"
       sodipodi:nodetypes="cccccccccscccccccccccczzzzzcccccsccscc"
       inkscape:connector-curvature="0" />
    <path
       style="fill:#ffff00;fill-opacity:1;fill-rule:evenodd;stroke:#000000;stroke-width:5.6291;stroke-linecap:butt;stroke-linejoin:miter;stroke-miterlimit:4;stroke-opacity:1;stroke-dasharray:none"
       d="M 104,108.3 C 55,7.7 -26.1,149.1 63,160 l -3,2.4"
       id="path4145"
       sodipodi:nodetypes="ccc"
       inkscape:connector-curvature="0" />
    <path
       style="fill:#ffff00;fill-rule:evenodd;stroke:#000000;stroke-width:5.6291;stroke-linecap:butt;stroke-linejoin:miter;stroke-miterlimit:4;stroke-opacity:1;stroke-dasharray:none"
       d="m 60,137.8 c -33.2,-7.9 1,-66.2 27,-27 l -5,0"
       id="path4147"
       sodipodi:nodetypes="ccc"
       inkscape:connector-curvature="0" />
    <path
       style="fill:#ffff00;fill-opacity:1;fill-rule:evenodd;stroke:#000000;stroke-width:5.6291;stroke-linecap:butt;stroke-linejoin:miter;stroke-miterlimit:4;stroke-opacity:1;stroke-dasharray:none"
       d="m 286,104.1 c 49,-100.6 130,40.8 41,51.7 l 3,2.5"
       id="path4162"
       sodipodi:nodetypes="ccc"
       inkscape:connector-curvature="0" />
    <path
       style="fill:#ffff00;fill-rule:evenodd;stroke:#000000;stroke-width:5.6291;stroke-linecap:butt;stroke-linejoin:miter;stroke-miterlimit:4;stroke-opacity:1;stroke-dasharray:none"
       d="m 330,133.7 c 33,-7.9 -1,-66.3 -28,-27.1 l 6,0"
       id="path4164"
       sodipodi:nodetypes="ccc"
       inkscape:connector-curvature="0" />
    <path
       style="fill:#ffff00;fill-rule:evenodd;stroke:#000000;stroke-width:5.6291;stroke-linecap:butt;stroke-linejoin:miter;stroke-miterlimit:4;stroke-opacity:1;stroke-dasharray:none"
       d="m 136,304.8 c -32,-24 -23,-45.6 -13,-70.6 -18,-19 -33,-83 -27,-93.1 8,-13.5 23,-31.1 33,-25.1 29,17.4 42,13.9 47,31.9 12,49.7 -29,91.6 -22,114.4 2,4.6 52,21.7 48,17.3 l 31,-18.5 c 0,-46.4 -42,-73.4 -20,-119.3 7,-14.2 23,-9 39,-27.1 21,-4.2 30,18.6 33,32.4 -2,50.9 -17,78.4 -23,83.6 18,21.2 19,50 0,68.9 -12,19.7 -44,12.9 -64,14.7 -21,-1.9 -45,3.9 -62,-9.5 z"
       id="path4166"
       sodipodi:nodetypes="ccssscccscccccc"
       inkscape:connector-curvature="0" />
    <path
       style="fill:#000000;fill-opacity:1;fill-rule:evenodd;stroke:#000000;stroke-width:1.1258px;stroke-linecap:butt;stroke-linejoin:miter;stroke-opacity:1"
       d="m 151,262.8 c 13,-11.8 87,-4.9 84,-1.1 2,1.8 0,36.4 -7,27.1 -14,-17.9 -28,7.6 -20,20.9 2,3.4 -27,4 -24,-0.4 10,-13.9 -12,-43.8 -20,-16.5 -4,10.2 -14,-26.3 -13,-30 z"
       id="path4194"
       sodipodi:nodetypes="zcssssz"
       inkscape:connector-curvature="0" />
    <path
       sodipodi:nodetypes="cccszccccc"
       id="path3232"
       d="m 140,150.9 c -4,-0.7 -7,-4 -8,-4.8 -2,-1.5 -6,-6.3 -7,-7.5 5,0.4 11,1.5 17,3.1 3,0.8 6,4.2 7,4.8 0,0.6 1,2.1 1,2.7 0,0 -6,2.5 -10,1.7 z m 36,10.7 c -18,1 -37,-2.6 -53,-10.5 -8,-3.9 -15,-8.9 -21,-15.2"
       style="fill:#ffff00;fill-opacity:1;fill-rule:evenodd;stroke:#000002;stroke-width:5.5486;stroke-linecap:butt;stroke-linejoin:miter;stroke-miterlimit:4;stroke-opacity:1;stroke-dasharray:none"
       inkscape:connector-curvature="0" />
    <path
       style="fill:#ffff00;fill-opacity:1;fill-rule:evenodd;stroke:#000002;stroke-width:5.5486;stroke-linecap:butt;stroke-linejoin:miter;stroke-miterlimit:4;stroke-opacity:1;stroke-dasharray:none"
       d="m 244,149.9 c 4,-0.8 7,-4 8,-4.9 2,-1.4 6,-6.2 7,-7.4 -5,0.3 -11,1.4 -17,3.1 -3,0.8 -6,4.2 -7,4.8 0,0.5 -1,2 -1,2.6 0,0.1 6,2.5 10,1.8 z m -36,10.6 c 18,1 37,-2.5 53,-10.4 8,-3.9 15,-9 21,-15.3"
       id="path4021"
       sodipodi:nodetypes="cccszccccc"
       inkscape:connector-curvature="0" />
  </g>
</svg>
