<?xml version="1.0" encoding="UTF-8" standalone="no"?>
<!-- Created with Inkscape (http://www.inkscape.org/) -->
<svg xmlns:dc="http://purl.org/dc/elements/1.1/" xmlns:cc="http://creativecommons.org/ns#" xmlns:rdf="http://www.w3.org/1999/02/22-rdf-syntax-ns#" xmlns:svg="http://www.w3.org/2000/svg" xmlns="http://www.w3.org/2000/svg" xmlns:sodipodi="http://sodipodi.sourceforge.net/DTD/sodipodi-0.dtd" xmlns:inkscape="http://www.inkscape.org/namespaces/inkscape" width="500.10342" height="419.83084" id="svg3073" version="1.1" inkscape:version="0.48.4 r9939" sodipodi:docname="stags-head.svg">
  <defs id="defs3075"/>
  <sodipodi:namedview id="base" pagecolor="#ffffff" bordercolor="#666666" borderopacity="1.0" inkscape:pageopacity="0.0" inkscape:pageshadow="2" inkscape:zoom="1.3401589" inkscape:cx="134.77381" inkscape:cy="208.18619" inkscape:document-units="px" inkscape:current-layer="g6729" showgrid="false" fit-margin-top="0" fit-margin-left="0" fit-margin-right="0" fit-margin-bottom="0"/>
  <metadata id="metadata3078">
    <rdf:RDF>
      <cc:Work rdf:about="">
        <dc:format>image/svg+xml</dc:format>
        <dc:type rdf:resource="http://purl.org/dc/dcmitype/StillImage"/>
        <dc:title/>
        <dc:creator>
          <cc:Agent>
            <dc:title>http://commons.wikimedia.org/wiki/User:LeMorvandiau</dc:title>
          </cc:Agent>
        </dc:creator>
      </cc:Work>
    </rdf:RDF>
  </metadata>
  <g inkscape:label="Layer 1" inkscape:groupmode="layer" id="layer1">
    <g inkscape:groupmode="layer" id="layer4" inkscape:label="Meubles">
      <g style="fill:#ffffff;fill-opacity:1;stroke:#000000;stroke-width:1.79652548;stroke-opacity:1;display:inline" id="g6729">
        <g id="g1892" style="fill:#ffffff;fill-opacity:1;stroke:#000000;stroke-width:3.79298139;stroke-opacity:1">
          <path d="m132.3,242.7   c0.6671,-2.253 -3.34,-10.84 19.96,-43.97 -53.8,-55.59 -73.94,-131.8 -32.55,-186.4 0,0 -1.013,-5.873 -3.066,-6.249 -11.89,-2.183 -21.51,24.36 -29.44,27.5 -7.932,3.128 -11.6,2.991 -16.56,0 -4.96,-2.991 -15.86,-18.05 -22.69,-28.76 -0.6644,40.29 29.81,75.95 33.11,123.1 -18.47,5.167 -35.25,-17.47 -52.13,-38.12 -6.808,-12.07 -16.33,-14.47 -26.37,-15 19.72,37.54 36.72,78.15 86.48,81.87   l46.01,61.25   c-35.77,6.568 -77.92,-0.7414 -98.74,-28.12 -9.427,33.3 58.45,54.39 91.26,55.64 7.045,0.003193 4.153,-0.7708 4.742,-2.76   z m19.12,-3.281   c2.107,-0.4803 6.668,-1.6 8.775,-2.102 2.856,3.544 4.831,7.311 1.227,12.5 -7.02,3.727 -8.022,-2.765 -10.43,-6.875 0.5549,-9.562 9.737,-21.32 16.56,-33.75 15.92,-30.11 8.855,-40.71 6.134,-54.99 -2.248,-2.496 -1.573,-5.579 -3.066,-5 -5.489,29.96 -20.46,53.27 -31.43,70.62 -6.274,11.84 -15.8,36.3 9.968,50 14.43,1.369 25.2,0.06411 28.22,-6.875 8.842,-3.226 15.26,-1.527 20.86,1.875   l16.56,-19.37   C197.7,236.7 180.5,224.5 166.5,212.5   " style="fill:#ffff00;fill-opacity:1;fill-rule:evenodd;stroke:#000000;stroke-width:3.79298139000000000;stroke-linecap:butt;stroke-linejoin:miter;stroke-miterlimit:4;stroke-opacity:1;stroke-dasharray:none" id="path9932" sodipodi:nodetypes="cccsszcccccccccccccccccccccc" inkscape:connector-curvature="0"/>
          <path d="m367.8,242.7   c-0.6671,-2.253 3.34,-10.84 -19.96,-43.97 53.8,-55.59 73.94,-131.8 32.55,-186.4 0,0 -3.904,-4.97 3.066,-6.249 6.97,-1.28 21.51,24.36 29.44,27.5 7.932,3.128 11.6,2.991 16.56,0 4.96,-2.991 15.86,-18.05 22.69,-28.76 0.6644,40.29 -29.81,75.95 -33.11,123.1 18.47,5.167 35.25,-17.47 52.13,-38.12 6.808,-12.07 16.33,-14.47 26.37,-15 -19.72,37.54 -36.72,78.15 -86.48,81.87   l-46.01,61.25   c35.77,6.568 77.92,-0.7414 98.74,-28.12 9.427,33.3 -58.45,54.39 -91.26,55.64 -7.045,0.003193 -4.153,-0.7708 -4.742,-2.76   z m-19.12,-3.281   c-2.107,-0.4803 -6.668,-1.6 -8.775,-2.102 -2.856,3.544 -4.831,7.311 -1.227,12.5 7.02,3.727 8.022,-2.765 10.43,-6.875 -0.5549,-9.562 -9.737,-21.32 -16.56,-33.75 -15.92,-30.11 -8.855,-40.71 -6.134,-54.99 2.248,-2.496 1.573,-5.579 3.066,-5 5.489,29.96 20.46,53.27 31.43,70.62 6.274,11.84 15.8,36.3 -9.968,50 -14.43,1.369 -25.2,0.06411 -28.22,-6.875 -8.842,-3.226 -15.26,-1.527 -20.86,1.875   l-16.56,-19.37   c17.08,-8.85 34.32,-21.07 48.29,-33.01   " style="fill:#ffff00;fill-opacity:1;fill-rule:evenodd;stroke:#000000;stroke-width:3.79298139000000000;stroke-linecap:butt;stroke-linejoin:miter;stroke-miterlimit:4;stroke-opacity:1;stroke-dasharray:none" id="path1890" sodipodi:nodetypes="ccczzzcccccccccccccccccccccc" inkscape:connector-curvature="0"/>
        </g>
        <g id="g6709" style="fill:#ffffff;fill-opacity:1;stroke:#000000;stroke-width:1.79652548;stroke-opacity:1">
          <path sodipodi:nodetypes="cssscc" id="path1974" d="m195.6,276.7   c-12.68,-4.133 -19.08,-11.22 -29.59,-14.89 -10.52,-3.673 -19.83,2.922 -26.03,0.1716 -6.193,-2.751 3.276,16.43 13.5,21.47 10.22,5.041 34.84,7.681 41.86,6.316 2.22,-7.011 -0.03123,-11.7 0.2604,-13.07   z " style="fill:#ffff00;fill-opacity:1;fill-rule:evenodd;stroke:#000000;stroke-width:1.79652547999999990;stroke-linecap:butt;stroke-linejoin:miter;stroke-opacity:1" inkscape:connector-curvature="0"/>
          <path sodipodi:nodetypes="cssscc" id="path1976" d="m303.7,278.2   c12.53,-4.573 18.67,-11.88 29.06,-15.92 10.38,-4.037 19.92,2.228 26.02,-0.7368 6.093,-2.965 -2.701,16.54 -12.74,21.93 -10.04,5.394 -35.28,8.82 -42.34,7.7 0.3276,-6.929 0.3464,-11.62 0.00668,-12.98   z " style="fill:#ffff00;fill-opacity:1;fill-rule:evenodd;stroke:#000000;stroke-width:1.79652547999999990;stroke-linecap:butt;stroke-linejoin:miter;stroke-opacity:1;display:inline" inkscape:connector-curvature="0"/>
          <path sodipodi:nodetypes="ccccscccsccccc" id="path2114" style="fill:#ffff00;fill-opacity:1;fill-rule:evenodd;stroke:#000000;stroke-width:1.79652547999999990;stroke-linecap:butt;stroke-linejoin:miter;stroke-miterlimit:4;stroke-opacity:1;stroke-dasharray:none" d="m246.2,239.7   c-12.28,-0.07899 -23.05,5.272 -31.22,8.051 -6.102,1.365 -10.95,6.952 -17.15,17.09 -1.749,21.66 -2.806,36.75 0.7723,47.85 4.035,26.35 12.8,36.97 20.49,52.18 5.795,11.47 5.881,28.96 8.467,41.16 8.033,15.39 14.68,12.76 21.28,9.882 6.543,3.024 13.1,5.803 21.47,-9.404 2.857,-12.14 2.261,-29.82 8.31,-41.16 8.023,-15.04 18.1,-25.26 22.72,-51.52 3.825,-11.02 3.105,-26.13 1.84,-47.82 -5.972,-10.27 -10.69,-15.96 -16.76,-17.47 -8.92,-3.26 -21.04,-8.767 -34.88,-8.764 -0.5345,-0.01503 -4.111,-0.07681 -5.348,-0.08483   z " inkscape:connector-curvature="0"/>
          <path id="path2116" style="fill:#000000;fill-opacity:1;fill-rule:evenodd;stroke:#000000;stroke-width:1.79652548;stroke-linecap:butt;stroke-linejoin:miter;stroke-miterlimit:4;stroke-opacity:1;stroke-dasharray:none" d="m234.7,386.8 3.233,12.84 10.39,9.886 0.2537,5.98 0.345,0.00334 0.3871,-5.973 10.61,-9.651 3.519,-12.77 -14.41,3.757 -14.32,-4.078   z " inkscape:connector-curvature="0"/>
          <path sodipodi:nodetypes="cc" d="m257.8,316.9   c6.382,-26.28 25.23,-28.56 36.5,-33.02   " style="fill:#ffff00;fill-opacity:1;fill-rule:evenodd;stroke:#000000;stroke-width:1.79652547999999990;stroke-linecap:butt;stroke-linejoin:miter;stroke-opacity:1" id="path2118" inkscape:connector-curvature="0"/>
          <path sodipodi:nodetypes="ccccc" id="path2126" style="fill:#ffff00;fill-opacity:1;fill-rule:evenodd;stroke:#000000;stroke-width:1.79652547999999990;stroke-linecap:butt;stroke-linejoin:miter;stroke-opacity:1" d="m219.6,250.6   c10.43,4.171 23.43,41.23 29.15,51.99 4.871,-11.38 17.27,-46.64 29.55,-51.43 -7.912,2.597 -23.74,19.4 -29.27,28.76 -7.178,-7.417 -19.8,-26.11 -29.43,-29.32   z " inkscape:connector-curvature="0"/>
          <path sodipodi:nodetypes="cc" id="path2128" style="fill:#ffffff;fill-opacity:1;fill-rule:evenodd;stroke:#000000;stroke-width:1.79652548;stroke-linecap:butt;stroke-linejoin:miter;stroke-opacity:1" d="m262,381.4   c-5.969,-30.03 -4.139,-56.98 -4.139,-56.98   " inkscape:connector-curvature="0"/>
          <path sodipodi:nodetypes="cc" d="M239.6,316.5   C233.2,290.3 214.4,288 203.1,283.5   " style="fill:#ffff00;fill-opacity:1;fill-rule:evenodd;stroke:#000000;stroke-width:1.79652547999999990;stroke-linecap:butt;stroke-linejoin:miter;stroke-opacity:1;display:inline" id="path1958" inkscape:connector-curvature="0"/>
          <path sodipodi:nodetypes="cc" id="path1960" style="fill:#ffffff;fill-opacity:1;fill-rule:evenodd;stroke:#000000;stroke-width:1.79652548;stroke-linecap:butt;stroke-linejoin:miter;stroke-opacity:1;display:inline" d="m235.4,381.1   c5.969,-30.03 4.139,-56.98 4.139,-56.98   " inkscape:connector-curvature="0"/>
          <path sodipodi:nodetypes="ccccccccc" id="path1980" d="m219.6,248.6 -7.275,-7.26 -0.5708,8.197 -11.83,-3.848 5.258,10.05 -12.65,0.6277 6.978,5.737 -11.62,3.334 11.7,3.968   " style="fill:#ffff00;fill-opacity:1;fill-rule:evenodd;stroke:#000000;stroke-width:1.79652547999999990;stroke-linecap:butt;stroke-linejoin:miter;stroke-opacity:1" inkscape:connector-curvature="0"/>
          <path sodipodi:nodetypes="ccccccccc" id="path1984" d="m282.3,249.4 7.275,-7.26 0.5708,8.197 11.83,-3.848 -5.258,10.05 12.65,0.6277 -6.978,5.737 11.62,3.334 -11.7,3.968   " style="fill:#ffff00;fill-opacity:1;fill-rule:evenodd;stroke:#000000;stroke-width:1.79652547999999990;stroke-linecap:butt;stroke-linejoin:miter;stroke-opacity:1;display:inline" inkscape:connector-curvature="0"/>
          <path sodipodi:nodetypes="ccccccccccccccc" id="path1986" d="m226.9,244.8 -6.908,-3.947 13.32,0.9869 -4.441,-3.454 10.36,0.4934 0,-3.454 9.375,1.974 0.9869,1.974 1.48,-1.974 11.35,-0.9869 -1.974,3.454 10.36,-1.48 -1.48,3.947 11.84,0 -0.9869,4.441   " style="fill:#ffff00;fill-opacity:1;fill-rule:evenodd;stroke:#000000;stroke-width:1.79652547999999990;stroke-linecap:butt;stroke-linejoin:miter;stroke-opacity:1" inkscape:connector-curvature="0"/>
          <g id="g5816" style="fill:#ffffff;fill-opacity:1;stroke:#000000;stroke-width:1.79652548;stroke-opacity:1">
            <path id="path1970" style="fill:#ffffff;fill-opacity:1;fill-rule:evenodd;stroke:#000000;stroke-width:1.79652548;stroke-linecap:butt;stroke-linejoin:miter;stroke-miterlimit:4;stroke-opacity:1;stroke-dasharray:none" d="m228.9,312.7 -3.639,-5.716   c-6.7,-10.39 -12.34,-13.89 -22.09,-14.64 1.248,6.351 -5.221,28.99 20.86,20.55   l4.864,-0.1894   z " sodipodi:nodetypes="ccccc" inkscape:connector-curvature="0"/>
            <path id="path1972" style="fill:#000000;fill-opacity:1;fill-rule:nonzero;stroke:#000000;stroke-width:1.79652548;stroke-linecap:butt;stroke-linejoin:miter;stroke-miterlimit:4;stroke-opacity:1;stroke-dasharray:none;stroke-dashoffset:0;marker:none;visibility:visible;display:inline;overflow:visible" d="m207.9,305.2   c0.9454,4.322 4.388,7.241 7.687,6.517 3.299,-0.7239 5.203,-4.816 4.252,-9.137 -0.9454,-4.322 -4.388,-7.241 -7.687,-6.517 -3.299,0.7239 -5.203,4.816 -4.252,9.137   z " inkscape:connector-curvature="0"/>
          </g>
          <g id="g5820" style="fill:#ffffff;fill-opacity:1;stroke:#000000;stroke-width:1.79652548;stroke-opacity:1">
            <path id="path4899" style="fill:#ffffff;fill-opacity:1;fill-rule:evenodd;stroke:#000000;stroke-width:1.79652548;stroke-linecap:butt;stroke-linejoin:miter;stroke-miterlimit:4;stroke-opacity:1;stroke-dasharray:none" d="m268.8,312.7 3.639,-5.716   c6.7,-10.39 12.34,-13.89 22.09,-14.64 -1.248,6.351 5.221,28.99 -20.86,20.55   l-4.864,-0.1894   z " sodipodi:nodetypes="ccccc" inkscape:connector-curvature="0"/>
            <path id="path4901" style="fill:#000000;fill-opacity:1;fill-rule:nonzero;stroke:#000000;stroke-width:1.79652548;stroke-linecap:butt;stroke-linejoin:miter;stroke-miterlimit:4;stroke-opacity:1;stroke-dasharray:none;stroke-dashoffset:0;marker:none;visibility:visible;display:inline;overflow:visible" d="m289.7,305.2   c-0.9454,4.322 -4.388,7.241 -7.687,6.517 -3.299,-0.7239 -5.203,-4.816 -4.252,-9.137 0.9454,-4.322 4.388,-7.241 7.687,-6.517 3.299,0.7239 5.203,4.816 4.252,9.137   z " inkscape:connector-curvature="0"/>
          </g>
        </g>
      </g>
    </g>
  </g>
</svg>
