<?xml version="1.0" encoding="UTF-8" standalone="no"?>
<!-- Created with Inkscape (http://www.inkscape.org/) -->
<svg xmlns:dc="http://purl.org/dc/elements/1.1/" xmlns:cc="http://creativecommons.org/ns#" xmlns:rdf="http://www.w3.org/1999/02/22-rdf-syntax-ns#" xmlns:svg="http://www.w3.org/2000/svg" xmlns="http://www.w3.org/2000/svg" version="1.1" width="165.02225" height="183.16696" id="svg4673">
  <defs id="defs4675"/>
  <metadata id="metadata4678">
    <rdf:RDF>
      <cc:Work rdf:about="">
        <dc:format>image/svg+xml</dc:format>
        <dc:type rdf:resource="http://purl.org/dc/dcmitype/StillImage"/>
        <dc:title/>
        <dc:creator>
          <cc:Agent>
            <dc:title>http://commons.wikimedia.org/wiki/User:Goran_tek-en</dc:title>
          </cc:Agent>
        </dc:creator>
      </cc:Work>
    </rdf:RDF>
  </metadata>
  <g id="layer7" style="fill:#ffff00;display:inline">
    <path d="m145.5,45.8   c-11.48,0.5915 -15.5,7.57 -21.65,11.67 -7.736,-4.22 -17.51,-6.553 -38.72,-7.468 -21.2,0.9142 -30.92,3.248 -38.66,7.468 -7.033,-4.688 -11.75,-10.3 -20.9,-11.23 -4.454,3.985 -3.715,8.872 -3.012,10.98 0.7033,2.11 -1.179,9.123 4.644,17.45 -1.642,-5.196 -7.49,-4.816 -11.06,-10.39 0.4302,7.313 3.501,6.757 3.874,11.37 -2.304,-1.315 -3.623,-2.086 -8.142,-3.274 1.903,7.177 3.528,5.629 5.682,8.506 -6.981,-0.342 -8.351,2.139 -11.06,1.518 7.165,4.918 12.41,1.01 12.95,3.161 -2.943,1.559 -10.64,-0.589 -16.08,1.953 3.608,2.111 17.92,2.27 14.17,2.035 -3.751,-0.2344 -14.31,3.053 -15.25,5.397 3.751,1.172 5.851,-0.6109 9.601,-0.3765 3.751,0.2344 5.648,0.753 5.648,0.753 -2.813,1.875 -13.85,4.802 -10.1,5.271 3.751,0.4688 13.29,-1.489 14.94,-1.255 -2.856,2.793 -3.922,3.604 -7.841,4.621 -3.225,0.837 -7.231,0.2781 -10.28,2.388 5.284,3.904 11.95,2.341 14.06,1.638 2.11,-0.7033 3.942,0.5582 5.817,1.261 -1.875,1.172 -12.25,7.79 -14.81,9.859 -2.741,2.218 3.994,1.661 6.338,1.192 2.344,-0.4689 9.37,-5.548 10.54,-4.142 1.172,1.407 -0.7473,6.015 -3.326,7.656 -2.718,1.683 -3.264,-0.8337 -11.01,4.447 11.08,2.833 14,-1.347 18.92,-1.56 -0.4688,4.454 -7.194,9.001 -9.538,12.05 -4.663,7.103 -7.953,11.48 3.451,3.138 2.813,-1.406 8.416,-6.77 10.29,-4.895 -3.282,3.985 -7.659,7.729 -8.597,10.54 -2.972,6.687 -3.182,7.677 3.451,1.883 1.875,-2.579 5.85,-7.534 9.601,-8.472 0.0317,2.338 0.5071,3.343 -1.091,5.601 -1.641,3.282 -0.9026,6.865 0.9419,9.864 1.654,-6.317 2.489,-7.754 7.177,-9.629 1.194,-0.4776 0.3598,7.142 -2.385,15.06 -0.7423,2.142 4.127,-6.707 6.087,-6.84 1.042,-0.0705 -1.094,7.012 -1.443,9.789 -0.1904,1.514 5.089,-8.188 5.146,-6.275 0.1623,5.464 2.168,4.524 -1.777,9.888 5.586,-0.8317 5.963,-1.727 8.931,-4.616 1.875,3.985 -3.31,6.654 -1.435,8.998 2.592,-0.7999 4.144,-0.8122 4.869,-3.324 0.5764,3.29 -0.5078,4.729 -0.039,8.011 1.578,-1.671 4.861,-0.992 5.661,-2.836 0.9307,3.663 -0.3839,3.537 -0.5718,6.288 2.546,-2.477 5.033,-2.508 5.594,-3.938 0.7119,1.507 0.9314,1.34 1.697,3.446 0.5194,-1.214 3.011,-3.285 4.242,-4.341 0.3155,1.26 1.772,3.903 2.405,4.809 0.9704,-3.752 4.5,-2.393 5.47,-4.776 0.7951,2.157 2.779,2.252 5.624,3.214 -0.5627,-2.956 -1.484,-2.62 0.2666,-5.086 0.4445,2.018 3.594,0.7136 6.246,1.505 -1.308,-3.39 -1.538,-2.987 -1.274,-5.705 0.7248,1.784 3.359,-0.4211 6.475,0.1229 -0.5479,-4.983 -2.987,-4.773 -1.112,-8.758 2.23,3.519 3.566,1.323 5.441,4.605 -0.2344,-4.454 0.4194,-2.043 0.5817,-7.506 0.0568,-1.912 5.336,7.789 5.146,6.275 -0.3493,-2.778 -2.485,-9.86 -1.443,-9.789 1.96,0.1327 6.829,8.982 6.087,6.84 -2.744,-7.919 -3.579,-15.54 -2.385,-15.06 4.688,1.875 7.406,11.29 11.86,14.81 0.2344,-2.579 -1.12,-8.892 -2.761,-12.17 -1.641,-3.282 -1.07,-3.549 -2.008,-8.472 3.751,0.9377 4.163,3.653 6.038,6.231 3.611,3.154 6.341,3.761 8.943,5.847 -1.318,-7.015 -5.545,-6.095 -6.759,-9.199 -1.08,-2.762 -0.4849,-2.847 -3.767,-6.832 1.875,-1.875 4.618,1.242 7.428,2.655 2.583,1.298 6.756,1.986 11.04,2.004 -4.256,-3.552 -7.468,-3.052 -9.759,-6.542 -2.344,-3.047 -4.099,-3.954 -4.568,-8.408 4.22,0.7033 13.71,7.683 18.64,10.73 -1.096,-5.14 -7.95,-11.93 -10.67,-13.62 -2.579,-1.641 -4.561,-6.249 -3.389,-7.656 1.172,-1.407 6.651,1.013 8.995,1.481 6.195,0.8189 8.541,-1.187 5.155,-2.172 -5.428,-1.58 -9.137,-5.165 -11.01,-6.337 1.875,-0.7033 5.828,0.6577 7.938,1.361 2.11,0.7033 6.932,1.235 11.15,-0.585 -5.848,-0.7097 -9.489,-4.589 -12.68,-5.534 -2.807,-0.8296 -2.859,-2.238 -5.715,-5.032 1.641,-0.2344 11.18,1.724 14.94,1.255 3.751,-0.4688 -7.29,-3.396 -10.1,-5.271 0,0 1.897,-0.5186 5.648,-0.753 3.751,-0.2344 5.913,1.549 9.664,0.3765 -0.9377,-2.344 -11.56,-5.631 -15.31,-5.397 -3.751,0.2344 0.0271,-0.4165 2.371,-1.12 2.344,-0.7033 6.821,1.204 9.016,-3.688 -3.703,-0.2137 -8.274,0.9863 -12.05,0.4871 7.907,-1.219 3.371,-2.393 11.12,-5.872 -5.494,0.4263 -8.615,1.363 -12.16,2.42 3.544,-2.688 5.773,-4.48 7.876,-5.452 -5.042,-1.573 -4.669,1.906 -9.462,1.344 0.9725,-3.343 5.465,-4.906 4.466,-7.45 -1.467,0.7605 -5.91,1.714 -10.27,3.454 6.51,-5.59 7.031,-9.224 8.534,-15.06 0.7895,-3.064 4.206,-7.492 3.953,-12.61 -1.971,-0.2029 -3.757,-0.2727 -5.397,-0.1883   z m-62.82,85.28   c0.3959,3.035 4.186,8.371 12.05,8.974 0.1598,5.508 -2.683,24.97 -5.146,25.23 -2.186,0.2261 -4.84,-0.0311 -6.903,0.0628 -2.003,-0.0904 -4.508,0.1359 -6.652,-0.0628 -2.971,-2.694 -4.044,-18.66 -3.765,-25.41 6.747,-1.163 10.05,-5.97 10.42,-8.785   z " id="path5052" style="color:#000000;fill:#ffff00;fill-opacity:1;stroke:none;stroke-width:0.60000002;marker:none;visibility:visible;display:inline;overflow:visible;enable-background:accumulate"/>
  </g>
  <g id="langued" style="display:inline">
    <path d="m82.67,131.1   c-0.0229,0.1926 -0.079,0.3713 -0.125,0.5625 -0.021,0.08666 -0.0367,0.1608 -0.0625,0.25 -0.0314,0.1063 -0.055,0.2069 -0.0937,0.3125 -0.0177,0.05201 -0.0433,0.1036 -0.0625,0.1562 -1.028,2.818 -4.277,6.516 -10.12,7.5 -0.1359,6.573 0.2507,19.41 2.062,25.5 2.367,0.9612 5.817,1.04 8.375,1.156 2.659,-0.1208 6.303,-0.2083 8.688,-1.281 2.02,-6.235 3.257,-19.36 3.344,-25.19 -6.415,-0.5009 -10.09,-4.148 -11.44,-7.125 -0.0229,-0.04453 -0.0409,-0.08034 -0.0625,-0.125 -0.037,-0.08518 -0.0607,-0.1661 -0.0937,-0.25 -0.0816,-0.191 -0.1602,-0.3704 -0.2188,-0.5625 -0.0123,-0.04045 -0.0199,-0.08502 -0.0313,-0.125 -0.073,-0.2614 -0.1252,-0.5209 -0.1562,-0.7812   z " id="path5074" style="color:#000000;fill:#bc262d;fill-opacity:1;stroke:#bc262d;stroke-width:0.40161943;stroke-miterlimit:4;stroke-opacity:1;stroke-dasharray:none;marker:none;visibility:visible;display:inline;overflow:visible;enable-background:accumulate"/>
    <path d="m82.61,131.3   c-0.1124,0.663 -0.3258,1.405 -0.753,2.196 -0.0835,10.81 0.6903,20.53 0.6903,27.93 -0.008,0.5305 0.0821,2.217 0.251,2.196 0.1418,-0.01807 0.1329,-1.101 0.1255,-1.632 0,-7.734 -0.2345,-19.35 0.3765,-28.93 -0.297,-0.6299 -0.4731,-1.219 -0.5648,-1.757 -0.039,-0.01004 -0.0839,0.004 -0.1255,0   z " id="path5076" style="font-size:medium;font-style:normal;font-variant:normal;font-weight:normal;font-stretch:normal;text-indent:0;text-align:start;text-decoration:none;line-height:normal;letter-spacing:normal;word-spacing:normal;text-transform:none;direction:ltr;block-progression:tb;writing-mode:lr-tb;text-anchor:start;baseline-shift:baseline;color:#000000;fill:#400307;fill-opacity:0.5;stroke:none;stroke-width:1;marker:none;visibility:visible;display:inline;overflow:visible;enable-background:accumulate;font-family:Sans;-inkscape-font-specification:Sans"/>
  </g>
  <g id="layer5" style="display:inline">
    <path d="m145.5,45.8   c-11.48,0.5915 -15.5,7.57 -21.65,11.67 -7.736,-4.22 -17.51,-6.553 -38.72,-7.468 -21.2,0.9142 -30.92,3.248 -38.66,7.468 -7.033,-4.688 -11.75,-10.3 -20.9,-11.23 -4.454,3.985 -3.715,8.872 -3.012,10.98 0.7033,2.11 -1.262,7.793 4.644,17.45 -3.762,-6.651 -7.49,-4.816 -11.06,-10.39 0.4302,7.313 3.501,6.757 3.874,11.37 -2.304,-1.315 -3.623,-2.086 -8.142,-3.274 1.903,7.177 3.528,5.629 5.682,8.506 -6.981,-0.342 -8.351,2.139 -11.06,1.518 7.165,4.918 12.41,1.01 12.95,3.161 -2.943,1.559 -10.64,-0.589 -16.08,1.953 3.608,2.111 17.92,2.27 14.17,2.035 -3.751,-0.2344 -14.31,3.053 -15.25,5.397 3.751,1.172 5.851,-0.6109 9.601,-0.3765 3.751,0.2344 5.648,0.753 5.648,0.753 -2.813,1.875 -13.85,4.802 -10.1,5.271 3.751,0.4688 13.29,-1.489 14.94,-1.255 -2.856,2.793 -3.922,3.604 -7.841,4.621 -3.225,0.837 -7.231,0.2781 -10.28,2.388 5.284,3.904 11.95,2.341 14.06,1.638 2.11,-0.7033 3.942,0.5582 5.817,1.261 -1.875,1.172 -12.25,7.79 -14.81,9.859 -2.741,2.218 3.994,1.661 6.338,1.192 2.344,-0.4689 9.37,-5.548 10.54,-4.142 1.172,1.407 -0.7473,6.015 -3.326,7.656 -2.718,1.683 -3.264,-0.8337 -11.01,4.447 11.08,2.833 14,-1.347 18.92,-1.56 -0.4688,4.454 -7.194,9.001 -9.538,12.05 -4.663,7.103 -7.953,11.48 3.451,3.138 2.813,-1.406 8.416,-6.77 10.29,-4.895 -3.282,3.985 -7.659,7.729 -8.597,10.54 -2.972,6.687 -3.182,7.677 3.451,1.883 1.875,-2.579 5.85,-7.534 9.601,-8.472 -0.3992,0.6686 0.8131,2.688 -0.7138,4.901 -2.083,3.02 -1.28,7.565 0.565,10.56 1.654,-6.317 2.489,-7.754 7.177,-9.629 1.194,-0.4776 0.3598,7.142 -2.385,15.06 -0.7423,2.142 4.127,-6.707 6.087,-6.84 1.042,-0.07048 -1.094,7.012 -1.443,9.789 -0.1904,1.514 5.089,-8.188 5.146,-6.275 0.1623,5.464 2.168,4.524 -1.777,9.888 5.586,-0.8317 5.963,-1.727 8.931,-4.616 1.875,3.985 -3.31,6.654 -1.435,8.998 2.592,-0.7999 4.144,-0.8122 4.869,-3.324 0.5764,3.29 -0.5078,4.729 -0.039,8.011 1.578,-1.671 4.861,-0.992 5.661,-2.836 0.9307,3.663 -0.3839,3.537 -0.5718,6.288 2.546,-2.477 5.033,-2.508 5.594,-3.938 0.7119,1.507 0.9314,1.34 1.697,3.446 0.5194,-1.214 3.011,-3.285 4.242,-4.341 0.3155,1.26 1.772,3.903 2.405,4.809 0.9704,-3.752 4.5,-2.393 5.47,-4.776 0.7951,2.157 2.779,2.252 5.624,3.214 -0.5627,-2.956 -1.484,-2.62 0.2666,-5.086 0.4445,2.018 3.594,0.7136 6.246,1.505 -1.308,-3.39 -1.538,-2.987 -1.274,-5.705 0.7248,1.784 3.359,-0.4211 6.475,0.1229 -0.5479,-4.983 -2.987,-4.773 -1.112,-8.758 2.23,3.519 3.566,1.323 5.441,4.605 -0.2344,-4.454 0.4194,-2.043 0.5817,-7.506 0.0568,-1.912 5.336,7.789 5.146,6.275 -0.3493,-2.778 -2.485,-9.86 -1.443,-9.789 1.96,0.1327 6.829,8.982 6.087,6.84 -2.744,-7.919 -3.579,-15.54 -2.385,-15.06 4.688,1.875 7.406,11.29 11.86,14.81 0.2344,-2.579 -1.12,-8.892 -2.761,-12.17 -1.641,-3.282 -1.07,-3.549 -2.008,-8.472 3.751,0.9377 4.163,3.653 6.038,6.231 3.611,3.154 6.341,3.761 8.943,5.847 -1.318,-7.015 -5.545,-6.095 -6.759,-9.199 -1.08,-2.762 -0.4849,-2.847 -3.767,-6.832 1.875,-1.875 4.618,1.242 7.428,2.655 2.583,1.298 6.756,1.986 11.04,2.004 -4.256,-3.552 -7.468,-3.052 -9.759,-6.542 -2.344,-3.047 -4.099,-3.954 -4.568,-8.408 4.22,0.7033 13.71,7.683 18.64,10.73 -1.096,-5.14 -7.95,-11.93 -10.67,-13.62 -2.579,-1.641 -4.561,-6.249 -3.389,-7.656 1.172,-1.407 6.651,1.013 8.995,1.481 6.195,0.8189 8.541,-1.187 5.155,-2.172 -5.428,-1.58 -9.137,-5.165 -11.01,-6.337 1.875,-0.7033 5.828,0.6577 7.938,1.361 2.11,0.7033 6.932,1.235 11.15,-0.585 -5.848,-0.7097 -9.489,-4.589 -12.68,-5.534 -2.807,-0.8296 -2.859,-2.238 -5.715,-5.032 1.641,-0.2344 11.18,1.724 14.94,1.255 3.751,-0.4688 -7.29,-3.396 -10.1,-5.271 0,0 1.897,-0.5186 5.648,-0.753 3.751,-0.2344 5.913,1.549 9.664,0.3765 -0.9377,-2.344 -11.56,-5.631 -15.31,-5.397 -3.751,0.2344 0.0271,-0.4165 2.371,-1.12 2.344,-0.7033 6.821,1.204 9.016,-3.688 -3.703,-0.2137 -8.274,0.9863 -12.05,0.4871 7.907,-1.219 3.371,-2.393 11.12,-5.872 -5.494,0.4263 -8.615,1.363 -12.16,2.42 3.544,-2.688 5.773,-4.48 7.876,-5.452 -5.042,-1.573 -4.669,1.906 -9.462,1.344 0.9725,-3.343 5.465,-4.906 4.466,-7.45 -1.467,0.7605 -5.91,1.714 -10.27,3.454 6.51,-5.59 7.031,-9.224 8.534,-15.06 0.7895,-3.064 4.206,-7.492 3.953,-12.61 -1.971,-0.2029 -3.757,-0.2727 -5.397,-0.1883   z " id="path5080" style="color:#000000;fill:#ffff00;stroke:#000000;stroke-width:0.5;stroke-linecap:round;stroke-linejoin:round;stroke-miterlimit:4;stroke-opacity:1;stroke-dasharray:none;marker:none;visibility:visible;display:inline;overflow:visible;enable-background:accumulate"/>
    <path d="m58,147.4   c-0.4227,3.729 -2.999,8.317 -8.775,16.82   " id="path5082" style="color:#000000;fill:none;stroke:#4d3f15;stroke-width:0.5;stroke-linecap:round;stroke-linejoin:round;stroke-miterlimit:4;stroke-opacity:1;stroke-dasharray:none;stroke-dashoffset:0;marker:none;visibility:visible;display:inline;overflow:visible;enable-background:accumulate"/>
    <path d="m54.42,145.8   c-0.6382,2.596 -2.289,6.192 -3.976,8.768 -1.687,0.2604 -4.665,4.29 -5.927,6.57   " id="path5084" style="color:#000000;fill:none;stroke:#4d3f15;stroke-width:0.5;stroke-linecap:round;stroke-linejoin:round;stroke-miterlimit:4;stroke-opacity:1;stroke-dasharray:none;stroke-dashoffset:0;marker:none;visibility:visible;display:inline;overflow:visible;enable-background:accumulate"/>
    <path d="m50.51,140.9   c-0.6789,0.7384 -2.238,4.82 -3.863,5.368 -2.051,0.6923 -4.086,1.786 -5.417,3.573 -1.338,1.797 -1.936,4.776 -2.226,5.863   " id="path5086" style="color:#000000;fill:none;stroke:#4d3f15;stroke-width:0.5;stroke-linecap:round;stroke-linejoin:round;stroke-miterlimit:4;stroke-opacity:1;stroke-dasharray:none;stroke-dashoffset:0;marker:none;visibility:visible;display:inline;overflow:visible;enable-background:accumulate"/>
    <path d="m44.38,134   c-0.0576,1.068 -2.907,4.687 -4.829,6.507 -3.323,0.851 -4.541,2.551 -6.494,4.29 -1.557,1.387 -2.388,3.413 -3.735,4.564 -1.939,1.657 -4.07,3.044 -4.582,3.591   " id="path5088" style="color:#000000;fill:none;stroke:#4d3f15;stroke-width:0.5;stroke-linecap:round;stroke-linejoin:round;stroke-miterlimit:4;stroke-opacity:1;stroke-dasharray:none;stroke-dashoffset:0;marker:none;visibility:visible;display:inline;overflow:visible;enable-background:accumulate"/>
    <path d="m40.95,128.6   c-0.9554,0.3475 -1.483,6.057 -6.834,7.477 -4.031,1.069 -6.741,3.576 -9.227,5.195 -3.835,2.496 -6.375,4.486 -7.555,4.678   " id="path5090" style="color:#000000;fill:none;stroke:#4d3f15;stroke-width:0.5;stroke-linecap:round;stroke-linejoin:round;stroke-miterlimit:4;stroke-opacity:1;stroke-dasharray:none;stroke-dashoffset:0;marker:none;visibility:visible;display:inline;overflow:visible;enable-background:accumulate"/>
    <path d="m36.62,117.4   c-0.1987,1.36 -2.859,6.706 -5.564,8.694 -3.19,0.5878 -7.196,1.952 -9.476,2.581 -2.396,0.6611 -7.471,-0.219 -9.194,-0.4951   " id="path5092" style="color:#000000;fill:none;stroke:#4d3f15;stroke-width:0.5;stroke-linecap:round;stroke-linejoin:round;stroke-miterlimit:4;stroke-opacity:1;stroke-dasharray:none;stroke-dashoffset:0;marker:none;visibility:visible;display:inline;overflow:visible;enable-background:accumulate"/>
    <path d="m31.51,109.4   c-0.9313,0.8108 -1.303,3.202 -4.536,5.478 -1.345,0.947 -5.145,1.785 -6.565,2.623 -1.614,0.9522 -2.641,1.909 -4.282,2.378 -1.663,0.4754 -5.402,0.5577 -7.291,0.1804   " id="path5094" style="color:#000000;fill:none;stroke:#4d3f15;stroke-width:0.5;stroke-linecap:round;stroke-linejoin:round;stroke-miterlimit:4;stroke-opacity:1;stroke-dasharray:none;stroke-dashoffset:0;marker:none;visibility:visible;display:inline;overflow:visible;enable-background:accumulate"/>
    <path d="m29.46,103.5   c-0.6174,0.3325 -2.757,4.883 -4.702,5.347 -1.891,0.0337 -4.328,-1.797 -5.136,-1.48 -1.021,0.3994 -1.693,0.4957 -2.76,0.7274 -2.259,0.4908 -4.259,0.2875 -6.26,0.3081 -2.042,0.0211 -5.033,-1.366 -5.914,-1.898   " id="path5096" style="color:#000000;fill:none;stroke:#4d3f15;stroke-width:0.5;stroke-linecap:round;stroke-linejoin:round;stroke-miterlimit:4;stroke-opacity:0.85098039;stroke-dasharray:none;stroke-dashoffset:0;marker:none;visibility:visible;display:inline;overflow:visible;enable-background:accumulate"/>
    <path d="m27.06,94.75   c-0.8388,0.519 -1.688,2.772 -4.037,3.942 -1.438,0.7169 -4.242,0.5361 -5.595,0.7464 -5.602,0.8711 -8.719,0.9906 -10.43,0.879   " id="path5098" style="color:#000000;fill:none;stroke:#4d3f15;stroke-width:0.5;stroke-linecap:round;stroke-linejoin:round;stroke-miterlimit:4;stroke-opacity:0.85098039;stroke-dasharray:none;stroke-dashoffset:0;marker:none;visibility:visible;display:inline;overflow:visible;enable-background:accumulate"/>
    <path d="m25.86,90.55   c-1.116,1.495 -5.513,5.078 -8.102,4.598 -2.21,-0.4104 -5.039,-1.106 -7.2,-0.9237 -1.313,0.111 -1.836,0.5609 -2.993,0.6091 -2.368,0.0988 -4.056,-0.0311 -4.934,-0.1309   " id="path5100" style="color:#000000;fill:none;stroke:#4d3f15;stroke-width:0.5;stroke-linecap:round;stroke-linejoin:round;stroke-miterlimit:4;stroke-opacity:0.85098039;stroke-dasharray:none;stroke-dashoffset:0;marker:none;visibility:visible;display:inline;overflow:visible;enable-background:accumulate"/>
    <path d="m25.16,82.75   c-0.4773,0.5495 -2.371,2.153 -5.567,2.525 -0.0481,-0.5354 -1.406,-1.041 -3.722,-0.7091 -3.292,0.4725 -6.853,-0.8367 -8.623,-1.829   " id="path5102" style="color:#000000;fill:none;stroke:#4d3f15;stroke-width:0.5;stroke-linecap:round;stroke-linejoin:round;stroke-miterlimit:4;stroke-opacity:0.85098039;stroke-dasharray:none;stroke-dashoffset:0;marker:none;visibility:visible;display:inline;overflow:visible;enable-background:accumulate"/>
    <path d="m27.15,74.68   c-2.577,12.92 13.85,59.43 36.71,71.01 -2.279,-4.218 -3.46,-5.647 -5.179,-8.677 -3.037,-5.353 5.816,-14.51 11.11,-15.9   " id="path5104" style="opacity:0.5;color:#000000;fill:none;stroke:#4d4d4d;stroke-width:1.2048583;stroke-linecap:round;stroke-linejoin:round;stroke-miterlimit:4;stroke-opacity:1;stroke-dasharray:none;stroke-dashoffset:0;marker:none;visibility:visible;display:inline;overflow:visible;enable-background:accumulate"/>
    <path d="m150.8,46.24   c-0.311,0.2294 -0.6015,0.4552 -0.8785,0.6275 -2.037,2.816 -16.59,11.2 -18.51,19.27 -0.1328,2.562 0.8973,4.323 2.636,5.585 1.267,0.9197 2.283,1.62 4.079,2.447 0.1042,-0.1042 0.3163,-0.3187 0.4393,-0.4393 -0.0861,-0.0225 -0.1637,-0.0416 -0.251,-0.0628 6.51,-5.59 7.031,-9.224 8.534,-15.06 0.7763,-3.013 4.083,-7.348 3.953,-12.36   z " id="path5106" style="opacity:0.5;color:#000000;fill:#999999;fill-opacity:1;stroke:none;stroke-width:0.60000002;marker:none;visibility:visible;display:inline;overflow:visible;enable-background:accumulate"/>
    <path d="m112.6,71.23   c0.541,5.951 -1.126,10.82 -4.688,12.98 -3.467,2.106 -6.311,-0.1803 -10.82,2.525 1.623,-3.967 0,-9.557 2.705,-12.44 2.705,-2.885 6.672,-2.525 12.8,-3.066   z " id="path5108" style="color:#000000;fill:#cccccc;fill-opacity:1;stroke:none;stroke-width:0.30000001;marker:none;visibility:visible;display:inline;overflow:visible;enable-background:accumulate"/>
    <path d="m109.4,77.03   c0,2.694 -2.184,4.877 -4.877,4.877 -2.694,0 -4.877,-2.184 -4.877,-4.877 0,-2.694 2.184,-4.877 4.877,-4.877 2.694,0 4.877,2.184 4.877,4.877   z " id="path5110" style="color:#000000;fill:#000000;fill-opacity:1;stroke:#666666;stroke-width:0.19964325;stroke-linecap:round;stroke-linejoin:round;stroke-miterlimit:4;stroke-opacity:1;stroke-dashoffset:0;marker:none;visibility:visible;display:inline;overflow:visible;enable-background:accumulate"/>
    <path d="m106.5,75.43   c-0.006295,1.544 -0.9802,2.791 -2.175,2.786 -1.195,-0.004873 -2.159,-1.26 -2.152,-2.804 0.006295,-1.544 0.9802,-2.791 2.175,-2.786 1.195,0.004873 2.159,1.26 2.152,2.804   z " id="path5112" style="color:#000000;fill:#e5e5e5;fill-opacity:1;stroke:#666666;stroke-width:0.39594722;stroke-linecap:round;stroke-linejoin:round;stroke-miterlimit:4;stroke-opacity:1;stroke-dashoffset:0;marker:none;visibility:visible;display:inline;overflow:visible;enable-background:accumulate"/>
    <path d="m112.6,71.23   c0.541,5.951 -1.126,10.82 -4.688,12.98 -3.467,2.106 -6.311,-0.1803 -10.82,2.525 1.623,-3.967 0,-9.557 2.705,-12.44 2.705,-2.885 6.672,-2.525 12.8,-3.066   z " id="path5114" style="color:#000000;fill:none;stroke:#4d3f15;stroke-width:0.60242915;stroke-linecap:round;stroke-linejoin:round;stroke-miterlimit:4;stroke-opacity:1;stroke-dasharray:none;stroke-dashoffset:0;marker:none;visibility:visible;display:inline;overflow:visible;enable-background:accumulate"/>
    <path d="m73.1,110.7   c-4.923,-0.4689 -5.157,8.674 0,11.02 3.818,1.735 7.736,-0.7033 8.439,5.392 -0.006,0.7007 2.769,0.7082 2.765,0 0.7033,-6.095 4.622,-3.656 8.439,-5.392 5.157,-2.344 4.923,-11.49 0,-11.02 -3.043,0.2898 -6.91,1.115 -10.62,1.107 -3.439,-0.1868 -6.71,-0.8861 -9.026,-1.107   z " id="path5116" style="color:#000000;fill:#000000;fill-opacity:1;stroke:url(#radialGradient5376);stroke-width:0.20080972;stroke-linecap:round;stroke-linejoin:round;stroke-miterlimit:4;stroke-opacity:1;stroke-dasharray:none;stroke-dashoffset:0;marker:none;visibility:visible;display:inline;overflow:visible;enable-background:accumulate"/>
    <path d="m116,68.54   c-7.066,-1.255 -12.3,0.4534 -15.01,3.371 -2.529,2.721 -2.963,3.176 -5.48,5.842 -1.339,1.418 -3.935,1.675 -6.601,-0.0193 -2.085,-1.324 -2.747,-1.549 -5.293,-5.136 -0.1647,-0.2278 -0.5005,-0.3118 -0.753,-0.1883 -0.2797,0.1474 -0.3994,0.5366 -0.251,0.8158 0.0201,0.0224 0.0404,0.0434 0.0629,0.0628 2.612,3.68 5.144,6.228 7.593,7.53 2.449,1.302 4.897,1.3 6.84,-0.1255 1.013,-0.7428 1.81,-1.941 2.698,-3.263 0.8885,-1.322 1.863,-2.782 3.138,-4.142 2.55,-2.72 6.545,-4.54 12.99,-3.492 0.1946,0.004 0.3885,-0.0929 0.502,-0.251 0.1325,-0.1513 0.1815,-0.3716 0.1255,-0.5648 -0.0592,-0.1741 -0.2024,-0.3174 -0.3765,-0.3765 -0.0588,-0.0311 -0.1227,-0.0524 -0.1884,-0.0628   z " id="path5118" style="font-size:medium;font-style:normal;font-variant:normal;font-weight:normal;font-stretch:normal;text-indent:0;text-align:start;text-decoration:none;line-height:normal;letter-spacing:normal;word-spacing:normal;text-transform:none;direction:ltr;block-progression:tb;writing-mode:lr-tb;text-anchor:start;baseline-shift:baseline;color:#000000;fill:#1a1a1a;fill-opacity:1;stroke:none;stroke-width:0.2;marker:none;visibility:visible;display:inline;overflow:visible;enable-background:accumulate;font-family:Sans;-inkscape-font-specification:Sans"/>
    <path d="m107,58.26   c-2.697,0.0438 -6.523,0.8776 -9.173,1.634 -5.299,1.512 -10.23,4.622 -13.14,7.62 -0.3775,0.312 -0.1133,1.061 0.3765,1.067 0.1844,0.0189 0.3757,-0.0529 0.502,-0.1883 2.692,-2.773 7.366,-5.441 12.49,-6.903 5.122,-1.462 10.68,-1.714 15.06,0 0.2381,0.0922 0.532,0.012 0.6903,-0.1883 0.1325,-0.1513 1.346,-1.216 1.291,-1.409 -0.0592,-0.1741 -0.2025,-0.3174 -0.3765,-0.3765 -2.371,-0.9273 -5.022,-1.299 -7.719,-1.255   z " id="path5120" style="font-size:medium;font-style:normal;font-variant:normal;font-weight:normal;font-stretch:normal;text-indent:0;text-align:start;text-decoration:none;line-height:normal;letter-spacing:normal;word-spacing:normal;text-transform:none;direction:ltr;block-progression:tb;writing-mode:lr-tb;text-anchor:start;baseline-shift:baseline;opacity:0.5;color:#000000;fill:#666666;fill-opacity:1;stroke:none;stroke-width:0.60000002;marker:none;visibility:visible;display:inline;overflow:visible;enable-background:accumulate;font-family:Sans;-inkscape-font-specification:Sans"/>
    <path d="m129.6,73.15   c-0.4918,13.42 -3.271,27.09 -21,32.25   " id="path5122" style="opacity:0.5;color:#000000;fill:none;stroke:#333333;stroke-width:1.2048583;stroke-linecap:round;stroke-linejoin:round;stroke-miterlimit:4;stroke-opacity:1;stroke-dasharray:none;stroke-dashoffset:0;marker:none;visibility:visible;display:inline;overflow:visible;enable-background:accumulate"/>
    <path d="m86.62,78.06   c-0.1805,3.965 -0.4193,10.16 1.067,15.63 1.472,5.411 4.107,14.03 5.146,17.01 2.069,-0.1598 3.281,1.402 3.608,3.42 -1.225,-7.262 -2.442,-15.58 -2.918,-21.99 -0.3214,-4.33 -0.2938,-6.194 0.1882,-10.35 -1.109,-0.0171 -2.288,-0.3227 -3.451,-0.9413 -1.182,-0.6282 -2.42,-1.565 -3.64,-2.761   z " id="path5124" style="font-size:medium;font-style:normal;font-variant:normal;font-weight:normal;font-stretch:normal;text-indent:0;text-align:start;text-decoration:none;line-height:normal;letter-spacing:normal;word-spacing:normal;text-transform:none;direction:ltr;block-progression:tb;writing-mode:lr-tb;text-anchor:start;baseline-shift:baseline;opacity:0.5;color:#000000;fill:#999999;fill-opacity:1;stroke:none;stroke-width:1.20000005;marker:none;visibility:visible;display:inline;overflow:visible;enable-background:accumulate;font-family:Sans;-inkscape-font-specification:Sans"/>
    <path d="m107.7,147.8   c1.062,2.003 2.586,5.676 3.039,10.15 0.2458,2.427 -1.094,5.3 -0.235,7.863   " id="path5126" style="color:#000000;fill:none;stroke:#4d3f15;stroke-width:0.5;stroke-linecap:round;stroke-linejoin:round;stroke-miterlimit:4;stroke-opacity:1;stroke-dasharray:none;stroke-dashoffset:0;marker:none;visibility:visible;display:inline;overflow:visible;enable-background:accumulate"/>
    <path d="m114.4,140.9   c0.579,0.6297 3.725,5.096 3.534,6.005 -0.401,1.902 -0.0959,4.172 0.2625,6.386 0.7304,4.512 2.517,8.656 2.68,8.886   " id="path5128" style="color:#000000;fill:none;stroke:#4d3f15;stroke-width:0.5;stroke-linecap:round;stroke-linejoin:round;stroke-miterlimit:4;stroke-opacity:1;stroke-dasharray:none;stroke-dashoffset:0;marker:none;visibility:visible;display:inline;overflow:visible;enable-background:accumulate"/>
    <path d="m119.5,135   c2.601,1.475 5.269,3.465 5.85,6.372 0.4266,2.135 0.6343,4.196 1.224,6.228 0.6794,2.344 1.957,4.752 2.525,6.962 0.6037,2.348 0.9058,4.514 1.323,6.751   " id="path5130" style="color:#000000;fill:none;stroke:#4d3f15;stroke-width:0.5;stroke-linecap:round;stroke-linejoin:round;stroke-miterlimit:4;stroke-opacity:1;stroke-dasharray:none;stroke-dashoffset:0;marker:none;visibility:visible;display:inline;overflow:visible;enable-background:accumulate"/>
    <path d="m123,130.4   c0.996,0.3623 2.053,3.741 6.466,6.445 2.308,1.658 3.291,4.866 4.949,7.861 0.9693,1.751 3.024,1.567 3.765,3.184 1.005,2.194 1.676,3.074 2.277,4.51   " id="path5132" style="color:#000000;fill:none;stroke:#4d3f15;stroke-width:0.5;stroke-linecap:round;stroke-linejoin:round;stroke-miterlimit:4;stroke-opacity:1;stroke-dasharray:none;stroke-dashoffset:0;marker:none;visibility:visible;display:inline;overflow:visible;enable-background:accumulate"/>
    <path d="m130.7,117   c0.5949,0.7961 1.588,4.806 2.996,9.228 0.4413,1.387 0.5834,2.911 1.204,4.265 0.6905,1.506 1.627,2.554 2.628,3.731 0.9066,1.065 1.857,2.285 2.904,3.154 2.373,1.97 6.954,2.905 7.612,4.043   " id="path5134" style="color:#000000;fill:none;stroke:#4d3f15;stroke-width:0.5;stroke-linecap:round;stroke-linejoin:round;stroke-miterlimit:4;stroke-opacity:1;stroke-dasharray:none;stroke-dashoffset:0;marker:none;visibility:visible;display:inline;overflow:visible;enable-background:accumulate"/>
    <path d="m133.4,109.4   c0.7979,0.6947 2.539,2.526 4.487,6.264 0.517,0.9921 0.1192,2.787 0.5527,3.953 0.7718,2.076 3.072,4.099 4.731,5.498 1.671,1.41 3.739,2.597 4.918,4.385 2.163,3.283 3.869,6.052 4.485,7.414   " id="path5136" style="color:#000000;fill:none;stroke:#4d3f15;stroke-width:0.5;stroke-linecap:round;stroke-linejoin:round;stroke-miterlimit:4;stroke-opacity:1;stroke-dasharray:none;stroke-dashoffset:0;marker:none;visibility:visible;display:inline;overflow:visible;enable-background:accumulate"/>
    <path d="m135.5,103.5   c1.061,0.5711 3.106,3.306 6.098,5.855 2.122,1.807 4.973,3.315 7.155,4.808 2.055,1.406 4.482,1.702 5.684,2.26   " id="path5138" style="color:#000000;fill:none;stroke:#4d3f15;stroke-width:0.5;stroke-linecap:round;stroke-linejoin:round;stroke-miterlimit:4;stroke-opacity:1;stroke-dasharray:none;stroke-dashoffset:0;marker:none;visibility:visible;display:inline;overflow:visible;enable-background:accumulate"/>
    <path d="m137.9,94.75   c0.8808,0.545 2.528,2.348 4.348,4.629 1.216,1.523 2.913,3.73 4.148,4.562 1.731,1.165 3.653,1.227 4.921,2.24 1.97,1.574 3.806,2.02 5.307,2.998 1.226,0.7989 3.563,0.6223 3.968,0.8067   " id="path5140" style="color:#000000;fill:none;stroke:#4d3f15;stroke-width:0.5;stroke-linecap:round;stroke-linejoin:round;stroke-miterlimit:4;stroke-opacity:1;stroke-dasharray:none;stroke-dashoffset:0;marker:none;visibility:visible;display:inline;overflow:visible;enable-background:accumulate"/>
    <path d="m140.2,81.51   c3.056,0.8202 3.065,1.187 5.122,0.0976 2.368,-1.254 5.163,-4.784 7.81,-5.2   " id="path5142" style="color:#000000;fill:none;stroke:#4d3f15;stroke-width:0.5;stroke-linecap:round;stroke-linejoin:round;stroke-miterlimit:4;stroke-opacity:1;stroke-dasharray:none;stroke-dashoffset:0;marker:none;visibility:visible;display:inline;overflow:visible;enable-background:accumulate"/>
    <path d="m139.8,85.45   c0.4187,0.482 4.072,3.669 6.021,4.375 2.012,0.3874 3.482,-0.0798 4.981,0.3334 2.588,0.7133 5.161,1.548 7.337,2.301 1.967,0.6804 3.463,1.974 4.428,2.35   " id="path5144" style="color:#000000;fill:none;stroke:#4d3f15;stroke-width:0.5;stroke-linecap:round;stroke-linejoin:round;stroke-miterlimit:4;stroke-opacity:1;stroke-dasharray:none;stroke-dashoffset:0;marker:none;visibility:visible;display:inline;overflow:visible;enable-background:accumulate"/>
    <path d="m138.2,73.23   c-0.0729,0.0228 -0.1392,0.0669 -0.1882,0.1255 -0.0231,0.0185 -0.0444,0.0396 -0.0629,0.0627 -0.0361,0.0562 -0.058,0.1216 -0.0629,0.1883 -0.006,0.0415 -0.006,0.084 0,0.1255 0.7211,3.232 0.2126,8.779 -1.381,15.37 -1.593,6.595 -4.403,14.31 -8.04,21.84 -3.796,7.854 -12.69,22.12 -21.19,28.89 2.993,-5.825 1.445,-8.269 -0.4299,-11.75 -1.875,-3.483 -6.525,-6.167 -10.38,-7.474 -0.0416,-0.006 -0.0839,-0.006 -0.1255,0 -0.0416,-0.006 -0.0839,-0.006 -0.1255,0 -0.1161,0.03936 -0.2116,0.1349 -0.251,0.251 -0.006,0.04157 -0.006,0.08394 0,0.1255 -0.002,0.02088 -0.002,0.04177 0,0.06285 -0.006,0.04157 -0.006,0.08394 0,0.1255 0.0181,0.02309 0.0398,0.04418 0.0629,0.06285 0.0181,0.02309 0.0398,0.04418 0.0629,0.06285 0.0378,0.02811 0.0803,0.0494 0.1255,0.06285 3.613,1.225 6.748,4.211 8.534,7.53 1.787,3.32 2.191,6.966 0.6903,9.413 -1.827,2.979 -2.932,4.604 -5.083,8.723 -0.0281,0.03775 -0.0494,0.08032 -0.0629,0.1255 -0.006,0.04157 -0.006,0.08394 0,0.1255 -0.002,0.02088 -0.002,0.04197 0,0.06285 0.0141,0.04498 0.0347,0.08775 0.0629,0.1255 0.0181,0.02309 0.0398,0.04438 0.0629,0.06285 0.0181,0.02309 0.0396,0.04438 0.0628,0.06285 0.0378,0.02811 0.0805,0.0494 0.1255,0.06285 0.0416,0.006 0.0839,0.006 0.1255,0 0.0452,-0.01406 0.0878,-0.03474 0.1255,-0.06285 11.59,-5.873 21.74,-20.96 28.68,-36.27 3.471,-7.655 6.174,-15.37 7.781,-22.03 1.607,-6.654 2.161,-12.25 1.381,-15.75 -0.0141,-0.0451 -0.0347,-0.0878 -0.0629,-0.1255 -0.0181,-0.0231 -0.0398,-0.0442 -0.0629,-0.0627 -0.0181,-0.0231 -0.0398,-0.0442 -0.0628,-0.0627 -0.0739,-0.0476 -0.1635,-0.07 -0.251,-0.0627 -0.0209,-0.002 -0.042,-0.002 -0.0629,0   z " id="path5146" style="font-size:medium;font-style:normal;font-variant:normal;font-weight:normal;font-stretch:normal;text-indent:0;text-align:start;text-decoration:none;line-height:normal;letter-spacing:normal;word-spacing:normal;text-transform:none;direction:ltr;block-progression:tb;writing-mode:lr-tb;text-anchor:start;baseline-shift:baseline;opacity:0.5;color:#000000;fill:#333333;fill-opacity:1;stroke:none;stroke-width:0.40000001;marker:none;visibility:visible;display:inline;overflow:visible;enable-background:accumulate;font-family:Sans;-inkscape-font-specification:Sans"/>
    <path d="m150.2,46.65   c-10.54,3.415 -19.25,10.82 -20.83,14.46 -3.426,-0.9016 -6.21,-0.8008 -4.203,1.886 2.538,3.398 6.277,7.338 8.094,8.017 -0.8181,-1.288 -2.224,-2.934 -1.769,-4.841 1.978,-8.293 17.37,-16.95 18.71,-19.52   z " id="path5148" style="opacity:0.5;color:#000000;fill:#333333;fill-opacity:1;stroke:#332a0e;stroke-width:0.40161943;stroke-linecap:round;stroke-linejoin:round;stroke-miterlimit:4;stroke-opacity:1;stroke-dasharray:none;stroke-dashoffset:0;marker:none;visibility:visible;display:inline;overflow:visible;enable-background:accumulate"/>
    <path d="m84.3,127.1   c0.7033,-6.095 4.622,-3.656 8.439,-5.392 1.398,-0.6353 2.399,-1.77 3.019,-3.077 -4.92,-1.721 -10.17,-0.326 -10.91,0.8231 -0.7387,1.149 -1.504,3.801 -0.5468,7.646   z " id="path5150" style="color:#000000;fill:#333333;fill-opacity:1;stroke:none;stroke-width:0.1;marker:none;visibility:visible;display:inline;overflow:visible;enable-background:accumulate"/>
    <path d="m81.53,127.1   c-0.7033,-6.095 -4.622,-3.656 -8.439,-5.392 -1.398,-0.6353 -2.399,-1.77 -3.019,-3.077 4.92,-1.721 10.17,-0.326 10.91,0.8231 0.7387,1.149 1.504,3.801 0.5468,7.646   z " id="path5152" style="color:#000000;fill:#333333;fill-opacity:1;stroke:none;stroke-width:0.1;marker:none;visibility:visible;display:inline;overflow:visible;enable-background:accumulate"/>
    <path d="m25.72,46.24   c2.363,2.609 3.298,5.715 4.204,8.283 1.097,3.107 5.389,9.331 7.217,10.79 1.767,-0.4357 3.518,-1.595 5.083,-2.949 2.42,-1.975 16.37,-1.817 21.27,-0.5648 4.906,1.252 9.419,3.628 12.11,6.401 0.0978,0.1049 0.234,0.173 0.3765,0.1883 0.1552,0.0173 0.3166,-0.0289 0.4393,-0.1255 0.0833,-0.0652 0.1492,-0.1528 0.1882,-0.251 0.056,-0.1932 0.008,-0.4135 -0.1255,-0.5648 -0.0201,-0.0224 -0.0402,-0.0434 -0.0628,-0.0627 -2.911,-2.998 -7.521,-6.544 -12.61,-7.844 -2.546,-0.6499 -7.364,-1.418 -9.978,-1.506 -1.796,-0.0608 -4.656,-0.2692 -7.091,-0.1255 0.4516,-0.4264 0.8557,-0.7386 1.192,-0.9413 -0.3724,0.1896 -1.143,0.3042 -1.506,0.502 -6.984,-4.656 -11.69,-10.24 -20.71,-11.23   z " id="path5154" style="opacity:0.5;color:#000000;fill:#999999;fill-opacity:1;stroke:none;stroke-width:0.60000002;marker:none;visibility:visible;display:inline;overflow:visible;enable-background:accumulate"/>
    <path d="m46.41,57.45   c-6.984,-4.656 -11.67,-10.22 -20.69,-11.21 2.363,2.609 3.288,5.701 4.194,8.269 1.097,3.107 5.414,9.369 7.242,10.83   " id="path5156" style="color:#000000;fill:none;stroke:#4d3f15;stroke-width:0.60242915;stroke-linecap:round;stroke-linejoin:round;stroke-miterlimit:4;stroke-opacity:1;stroke-dasharray:none;marker:none;visibility:visible;display:inline;overflow:visible;enable-background:accumulate"/>
    <path d="m50.3,70.69   c-0.541,5.951 1.126,10.82 4.688,12.98 3.467,2.106 6.311,-0.1803 10.82,2.525 -1.623,-3.967 0,-9.557 -2.705,-12.44 -2.705,-2.885 -6.672,-2.525 -12.8,-3.066   z " id="path5158" style="color:#000000;fill:#cccccc;fill-opacity:1;stroke:none;stroke-width:0.30000001;marker:none;visibility:visible;display:inline;overflow:visible;enable-background:accumulate"/>
    <path d="m51.86,76.23   c0,2.694 2.184,4.877 4.877,4.877 2.694,0 4.877,-2.184 4.877,-4.877 0,-2.694 -2.184,-4.877 -4.877,-4.877 -2.694,0 -4.877,2.184 -4.877,4.877   z " id="path5160" style="color:#000000;fill:#000000;fill-opacity:1;stroke:#666666;stroke-width:0.19964325;stroke-linecap:round;stroke-linejoin:round;stroke-miterlimit:4;stroke-opacity:1;stroke-dashoffset:0;marker:none;visibility:visible;display:inline;overflow:visible;enable-background:accumulate"/>
    <path d="m54.48,74.34   c0.006497,1.544 1.012,2.791 2.245,2.786 1.234,-0.004873 2.228,-1.26 2.222,-2.804 -0.006497,-1.544 -1.012,-2.791 -2.245,-2.786 -1.234,0.004873 -2.228,1.26 -2.222,2.804   z " id="path5162" style="color:#000000;fill:#e5e5e5;fill-opacity:1;stroke:#666666;stroke-width:0.38972494;stroke-linecap:round;stroke-linejoin:round;stroke-miterlimit:4;stroke-opacity:1;stroke-dashoffset:0;marker:none;visibility:visible;display:inline;overflow:visible;enable-background:accumulate"/>
    <path d="m50.3,70.69   c-0.541,5.951 1.126,10.82 4.688,12.98 3.467,2.106 6.311,-0.1803 10.82,2.525 -1.623,-3.967 0,-9.557 -2.705,-12.44 -2.705,-2.885 -6.672,-2.525 -12.8,-3.066   z " id="path5164" style="color:#000000;fill:none;stroke:#4d3f15;stroke-width:0.60242915;stroke-linecap:round;stroke-linejoin:round;stroke-miterlimit:4;stroke-opacity:1;stroke-dasharray:none;stroke-dashoffset:0;marker:none;visibility:visible;display:inline;overflow:visible;enable-background:accumulate"/>
    <path d="m69.97,113.1   c2.552,-12.12 7.864,-19.29 6.539,-35.49   " id="path5166" style="color:#000000;fill:none;stroke:#8c7326;stroke-width:0.60242915;stroke-linecap:round;stroke-linejoin:round;stroke-miterlimit:4;stroke-opacity:1;stroke-dasharray:none;stroke-dashoffset:0;marker:none;visibility:visible;display:inline;overflow:visible;enable-background:accumulate"/>
    <g id="g5168" style="stroke-opacity:1">
      <path d="m89.08,127.7   c3.752,-2.808 14.38,-12.48 33.77,-13.95   " id="path5170" style="color:#000000;fill:none;stroke:#261f0a;stroke-width:0.30000001;stroke-linecap:round;stroke-linejoin:round;stroke-miterlimit:4;stroke-opacity:1;stroke-dasharray:none;stroke-dashoffset:0;marker:none;visibility:visible;display:inline;overflow:visible;enable-background:accumulate"/>
      <path d="m92.48,131.8   c5.157,-2.911 18.26,-15.02 37.45,-12.49   " id="path5172" style="color:#000000;fill:none;stroke:#261f0a;stroke-width:0.30000001;stroke-linecap:round;stroke-linejoin:round;stroke-miterlimit:4;stroke-opacity:1;stroke-dasharray:none;stroke-dashoffset:0;marker:none;visibility:visible;display:inline;overflow:visible;enable-background:accumulate"/>
      <path d="m95.08,135.5   c8.817,-4.825 23.43,-10.24 32.58,-9.328   " id="path5174" style="color:#000000;fill:none;stroke:#261f0a;stroke-width:0.30000001;stroke-linecap:round;stroke-linejoin:round;stroke-miterlimit:4;stroke-opacity:1;stroke-dasharray:none;stroke-dashoffset:0;marker:none;visibility:visible;display:inline;overflow:visible;enable-background:accumulate"/>
      <path d="m86.48,131 0.4533,-0.1664   " id="path5176" style="color:#000000;fill:none;stroke:#261f0a;stroke-width:0.60000002;stroke-linecap:round;stroke-linejoin:round;stroke-miterlimit:4;stroke-opacity:1;stroke-dasharray:none;stroke-dashoffset:0;marker:none;visibility:visible;display:inline;overflow:visible;enable-background:accumulate"/>
      <path d="m89.08,134.7 0.5025,-0.1664   " id="path5178" style="color:#000000;fill:none;stroke:#261f0a;stroke-width:0.60000002;stroke-linecap:round;stroke-linejoin:round;stroke-miterlimit:4;stroke-opacity:1;stroke-dasharray:none;stroke-dashoffset:0;marker:none;visibility:visible;display:inline;overflow:visible;enable-background:accumulate"/>
      <path d="m92.58,137.5 0.5025,-0.1664   " id="path5180" style="color:#000000;fill:none;stroke:#261f0a;stroke-width:0.60000002;stroke-linecap:round;stroke-linejoin:round;stroke-miterlimit:4;stroke-opacity:1;stroke-dasharray:none;stroke-dashoffset:0;marker:none;visibility:visible;display:inline;overflow:visible;enable-background:accumulate"/>
    </g>
    <g id="g5182" style="stroke-opacity:1">
      <path d="m74.78,127.1   c-3.752,-2.808 -14.38,-12.48 -33.77,-13.95   " id="path5184" style="color:#000000;fill:none;stroke:#261f0a;stroke-width:0.30000001;stroke-linecap:round;stroke-linejoin:round;stroke-miterlimit:4;stroke-opacity:1;stroke-dasharray:none;stroke-dashoffset:0;marker:none;visibility:visible;display:inline;overflow:visible;enable-background:accumulate"/>
      <path d="m71.38,131.1   c-5.157,-2.911 -19.59,-15.02 -38.78,-12.49   " id="path5186" style="color:#000000;fill:none;stroke:#261f0a;stroke-width:0.30000001;stroke-linecap:round;stroke-linejoin:round;stroke-miterlimit:4;stroke-opacity:1;stroke-dasharray:none;stroke-dashoffset:0;marker:none;visibility:visible;display:inline;overflow:visible;enable-background:accumulate"/>
      <path d="m68.73,134.9   c-8.817,-4.825 -23.43,-10.24 -32.58,-9.328   " id="path5188" style="color:#000000;fill:none;stroke:#261f0a;stroke-width:0.30000001;stroke-linecap:round;stroke-linejoin:round;stroke-miterlimit:4;stroke-opacity:1;stroke-dasharray:none;stroke-dashoffset:0;marker:none;visibility:visible;display:inline;overflow:visible;enable-background:accumulate"/>
      <path d="m77.28,130.3 -0.4533,-0.1664   " id="path5190" style="color:#000000;fill:none;stroke:#261f0a;stroke-width:0.60000002;stroke-linecap:round;stroke-linejoin:round;stroke-miterlimit:4;stroke-opacity:1;stroke-dasharray:none;stroke-dashoffset:0;marker:none;visibility:visible;display:inline;overflow:visible;enable-background:accumulate"/>
      <path d="m74.78,134.1 -0.5025,-0.1664   " id="path5192" style="color:#000000;fill:none;stroke:#261f0a;stroke-width:0.60000002;stroke-linecap:round;stroke-linejoin:round;stroke-miterlimit:4;stroke-opacity:1;stroke-dasharray:none;stroke-dashoffset:0;marker:none;visibility:visible;display:inline;overflow:visible;enable-background:accumulate"/>
      <path d="m71.28,136.8 -0.5025,-0.1664   " id="path5194" style="color:#000000;fill:none;stroke:#261f0a;stroke-width:0.60000002;stroke-linecap:round;stroke-linejoin:round;stroke-miterlimit:4;stroke-opacity:1;stroke-dasharray:none;stroke-dashoffset:0;marker:none;visibility:visible;display:inline;overflow:visible;enable-background:accumulate"/>
    </g>
    <path d="m46.92,68.22   c7.13,-1.511 12.3,0.7733 15.01,3.691 2.529,2.721 2.963,3.176 5.48,5.842 1.339,1.418 3.935,1.675 6.601,-0.0193 2.085,-1.324 2.747,-1.549 5.293,-5.136 0.1647,-0.2278 0.5005,-0.3118 0.753,-0.1883 0.2797,0.1474 0.3994,0.5366 0.251,0.8158 -0.0201,0.0224 -0.0404,0.0434 -0.0629,0.0628 -2.612,3.68 -5.144,6.228 -7.593,7.53 -2.449,1.302 -4.897,1.3 -6.84,-0.1255 -1.013,-0.7428 -1.81,-1.941 -2.698,-3.263 -0.8885,-1.322 -1.863,-2.782 -3.138,-4.142 -2.55,-2.72 -6.225,-4.796 -12.99,-3.812 -0.1946,0.004 -0.3885,-0.0929 -0.502,-0.251 -0.1325,-0.1513 -0.1815,-0.3716 -0.1255,-0.5648 0.0592,-0.1741 0.2024,-0.3174 0.3765,-0.3765 0.0588,-0.0311 0.1227,-0.0524 0.1884,-0.0628   z " id="path5196" style="font-size:medium;font-style:normal;font-variant:normal;font-weight:normal;font-stretch:normal;text-indent:0;text-align:start;text-decoration:none;line-height:normal;letter-spacing:normal;word-spacing:normal;text-transform:none;direction:ltr;block-progression:tb;writing-mode:lr-tb;text-anchor:start;baseline-shift:baseline;color:#000000;fill:#1a1a1a;fill-opacity:1;stroke:none;stroke-width:0.2;marker:none;visibility:visible;display:inline;overflow:visible;enable-background:accumulate;font-family:Sans;-inkscape-font-specification:Sans"/>
    <path d="m57.57,141.4   c4.384,6.797 10.56,21.71 10.97,25.71   " id="path5198" style="opacity:0.5;color:#000000;fill:none;stroke:#333333;stroke-width:1;stroke-linecap:round;stroke-linejoin:round;stroke-miterlimit:4;stroke-opacity:1;stroke-dasharray:none;stroke-dashoffset:0;marker:none;visibility:visible;display:inline;overflow:visible;enable-background:accumulate"/>
    <path d="m68.55,167.1   c0.7535,7.23 27.16,6.909 28.24,0.6681 0.4997,-2.912 7.547,-21.14 9.536,-24.35   " id="path5200" style="opacity:0.5;color:#000000;fill:none;stroke:#333333;stroke-width:1;stroke-linecap:round;stroke-linejoin:round;stroke-miterlimit:4;stroke-opacity:1;stroke-dasharray:none;stroke-dashoffset:0;marker:none;visibility:visible;display:inline;overflow:visible;enable-background:accumulate"/>
    <path d="m115.4,72.15   c-0.1535,3.126 0.3122,7.615 -4.575,12.42   " id="path5202" style="color:#000000;fill:none;stroke:#967b29;stroke-width:0.60000002;stroke-linecap:round;stroke-linejoin:round;stroke-miterlimit:4;stroke-opacity:1;stroke-dasharray:none;stroke-dashoffset:0;marker:none;visibility:visible;display:inline;overflow:visible;enable-background:accumulate"/>
    <path d="m47.08,71.02   c-0.3079,2.819 -0.3275,11.18 9.804,15.53   " id="path5204" style="color:#000000;fill:none;stroke:#967b29;stroke-width:0.60000002;stroke-linecap:round;stroke-linejoin:round;stroke-miterlimit:4;stroke-opacity:1;stroke-dasharray:none;stroke-dashoffset:0;marker:none;visibility:visible;display:inline;overflow:visible;enable-background:accumulate"/>
    <path d="m36.2,87.03   c4.491,16.21 5.471,21.09 23.2,26.25   " id="path5206" style="opacity:0.5;color:#000000;fill:none;stroke:#333333;stroke-width:1.2048583;stroke-linecap:round;stroke-linejoin:round;stroke-miterlimit:4;stroke-opacity:1;stroke-dasharray:none;stroke-dashoffset:0;marker:none;visibility:visible;display:inline;overflow:visible;enable-background:accumulate"/>
    <path d="m26.53,74.3   c-2.28,-4.575 -8.174,-5.275 -10.14,-9.372   " id="path5208" style="color:#000000;fill:none;stroke:#4d3f15;stroke-width:0.5;stroke-linecap:round;stroke-linejoin:round;stroke-miterlimit:4;stroke-opacity:0.85098039;stroke-dasharray:none;stroke-dashoffset:0;marker:none;visibility:visible;display:inline;overflow:visible;enable-background:accumulate"/>
  </g>
  <g id="layer8" style="display:inline">
    <path d="m60.33,138.5   c0.4085,0.608 0.8007,1.23 1.188,1.844 0.3944,0.6262 0.7844,1.278 1.156,1.906 0.7438,1.257 1.44,2.51 2.094,3.75 1.307,2.48 2.429,4.884 3.375,7.094 0.4733,1.104 0.8981,2.139 1.281,3.125 0.3871,0.996 0.7358,1.909 1.031,2.75 0.586,1.668 0.9933,2.987 1.219,3.844 0.4487,1.705 2.191,2.617 4.312,3.094 -2.971,-2.694 -4.028,-19.27 -3.75,-26.03 -0.0747,0.0127 -0.1432,0.0194 -0.2188,0.0313 -0.3316,0.0519 -0.683,0.0908 -1.031,0.125 -0.4266,0.0411 -0.861,0.082 -1.312,0.0937 -0.2233,0.007 -0.4581,0 -0.6875,0 -0.2261,-0.002 -0.4555,-0.0217 -0.6875,-0.0313 -0.4663,-0.0192 -0.9469,-0.0419 -1.438,-0.0937 -0.0399,-0.004 -0.0849,0.004 -0.125,0 -0.3898,-0.0433 -0.7823,-0.0911 -1.188,-0.1562 -0.3389,-0.0533 -0.6815,-0.1494 -1.031,-0.2188 -0.256,-0.0514 -0.5195,-0.0959 -0.7812,-0.1562 -0.2316,-0.0529 -0.4826,-0.0962 -0.7188,-0.1562 -0.1423,-0.0366 -0.2936,-0.0858 -0.4375,-0.125 -0.2986,-0.0807 -0.6005,-0.1575 -0.9062,-0.25 -0.4396,-0.1335 -0.8892,-0.2792 -1.344,-0.4375   z m44.66,0.0313   c-0.4497,0.1561 -0.909,0.275 -1.344,0.4062 -0.0306,0.009 -0.0632,0.0221 -0.0937,0.0313 -0.4189,0.1258 -0.8446,0.2396 -1.25,0.3438 -0.1899,0.048 -0.3756,0.0816 -0.5625,0.125 -0.2408,0.0569 -0.4829,0.1069 -0.7188,0.1562 -0.0826,0.0169 -0.168,0.0465 -0.25,0.0625 -0.0843,0.0168 -0.1663,0.0154 -0.25,0.0313 -0.8159,0.1547 -1.587,0.2741 -2.344,0.3438 -0.4143,0.0382 -0.8221,0.0479 -1.219,0.0625 -0.2032,0.007 -0.3951,0.0303 -0.5938,0.0313 -0.1903,0.002 -0.3764,0.004 -0.5625,0 -0.3786,-0.007 -0.7637,-0.0343 -1.125,-0.0625 0.1582,5.452 -2.617,25.11 -5.062,25.75 1.99,-0.488 3.623,-1.359 4.062,-2.969 0.002,-0.008 -0.002,-0.0236 0,-0.0313 0.1127,-0.4283 0.2659,-0.9457 0.4688,-1.594 0.2028,-0.6482 0.4571,-1.416 0.75,-2.25 1.319,-3.753 3.543,-9.208 6.688,-14.84 0.3493,-0.6263 0.7219,-1.247 1.094,-1.875 0.7323,-1.237 1.493,-2.498 2.312,-3.719   z " id="path5210" style="color:#000000;fill:#1a1a1a;fill-opacity:1;stroke:none;stroke-width:0.60242915;marker:none;visibility:visible;display:inline;overflow:visible;enable-background:accumulate"/>
    <path d="m94.06,140   c-0.006,0.3633 -0.0733,5.542 1.13,8.698 0.5913,-1.212 2.186,-5.705 2.401,-8.572 -0.9498,0.0255 -2.682,-0.0289 -3.53,-0.1255   z " id="path5212" style="color:#000000;fill:#d9d9d9;fill-opacity:1;stroke:#808080;stroke-width:0.40161943;stroke-linecap:round;stroke-linejoin:round;stroke-miterlimit:4;stroke-opacity:1;stroke-dasharray:none;stroke-dashoffset:0;marker:none;visibility:visible;display:inline;overflow:visible;enable-background:accumulate"/>
    <path d="m71.65,140   c-0.8212,0.1106 -2.356,0.002 -3.275,-0.002 0.2137,3.025 1.435,6.631 1.958,7.758 1.014,-2.511 1.265,-5.791 1.318,-7.755   z " id="path5214" style="color:#000000;fill:#d9d9d9;fill-opacity:1;stroke:#808080;stroke-width:0.40161943;stroke-linecap:round;stroke-linejoin:round;stroke-miterlimit:4;stroke-opacity:1;stroke-dasharray:none;stroke-dashoffset:0;marker:none;visibility:visible;display:inline;overflow:visible;enable-background:accumulate"/>
    <path d="m92.05,158.2   c-0.4782,1.105 -0.7886,3.755 -0.9388,6.804 1.149,-0.3094 2.054,-0.8365 2.447,-1.82 -0.2032,-2.239 -0.7362,-3.206 -1.509,-4.984   z " id="path5216" style="color:#000000;fill:#d9d9d9;fill-opacity:1;stroke:#808080;stroke-width:0.40161943;stroke-linecap:round;stroke-linejoin:round;stroke-miterlimit:4;stroke-opacity:1;stroke-dasharray:none;stroke-dashoffset:0;marker:none;visibility:visible;display:inline;overflow:visible;enable-background:accumulate"/>
    <path d="m73.03,158.2   c-0.4469,0.8492 -0.8969,1.955 -1.317,4.733 0.3196,1.006 1.134,1.599 2.196,1.945 0.0275,-2.216 -0.0781,-4.366 -0.8798,-6.679   z " id="path5218" style="color:#000000;fill:#d9d9d9;fill-opacity:1;stroke:#808080;stroke-width:0.40161943;stroke-linecap:round;stroke-linejoin:round;stroke-miterlimit:4;stroke-opacity:1;stroke-dasharray:none;stroke-dashoffset:0;marker:none;visibility:visible;display:inline;overflow:visible;enable-background:accumulate"/>
    <path d="m93.66,162.8   c0.9016,-3.426 4.688,-14.43 11.36,-24.34 -14.97,5.229 -21.82,-3.246 -22.36,-7.393 -0.541,4.147 -7.393,12.62 -22.36,7.393 6.672,9.918 10.46,20.92 11.36,24.34 0.9016,3.426 7.006,3.523 10.97,3.703 3.967,-0.1803 10.12,-0.2769 11.03,-3.703   z " id="path5220" style="color:#000000;fill:none;stroke:#261f0a;stroke-width:0.60242915;stroke-linecap:round;stroke-linejoin:round;stroke-miterlimit:4;stroke-opacity:1;stroke-dasharray:none;stroke-dashoffset:0;marker:none;visibility:visible;display:inline;overflow:visible;enable-background:accumulate"/>
    <path d="m93.66,162.8   c0.9016,-3.426 4.688,-14.43 11.36,-24.34 -14.97,5.229 -21.82,-3.246 -22.36,-7.393 -0.541,4.147 -7.393,12.62 -22.36,7.393 6.672,9.918 10.46,20.92 11.36,24.34 0.9016,3.426 7.006,3.523 10.97,3.703 3.967,-0.1803 10.12,-0.2769 11.03,-3.703   z " id="path5222" style="color:#000000;fill:none;stroke:#261f0a;stroke-width:0.60242915;stroke-linecap:round;stroke-linejoin:round;stroke-miterlimit:4;stroke-opacity:1;stroke-dasharray:none;stroke-dashoffset:0;marker:none;visibility:visible;display:inline;overflow:visible;enable-background:accumulate"/>
  </g>
  <g id="crowned" style="fill:#00ff00;display:inline"/>
  <g id="g4320" style="display:inline">
    <path d="m89.08,6.295   c0,2.096 -1.699,3.795 -3.795,3.795 -2.096,0 -3.795,-1.699 -3.795,-3.795 0,-2.096 1.699,-3.795 3.795,-3.795 2.096,0 3.795,1.699 3.795,3.795   z " id="path5340" style="color:#000000;fill:#c9e0e0;fill-opacity:1;stroke:#666666;stroke-width:0.22994421;stroke-linecap:round;stroke-linejoin:round;stroke-miterlimit:4;stroke-opacity:1;stroke-dashoffset:0;marker:none;visibility:visible;display:inline;overflow:visible;enable-background:accumulate"/>
    <g id="g3292">
      <path d="m39.71,12.83   c-0.2572,1.846 -1.854,3.294 -3.771,3.294 -0.3316,0 -0.8032,-0.0855 -1.11,-0.1654 -0.224,0.6711 -0.1798,1.513 -0.1569,2.131 -0.1007,-0.6626 -0.1952,-1.542 -0.0699,-2.204 -0.4545,-0.1712 -0.8411,-0.4424 -1.193,-0.7638 -0.01,-0.009 -0.0383,0.009 -0.0477,0 -0.4763,6.024 1.228,11.63 4.173,16.77 0.3589,-0.6169 0.9637,-0.8568 1.62,-1.067 1.709,-0.5476 4.68,0.4796 6.189,3.253 0.1523,-4.129 1.293,-8.09 0.0955,-11.55 -1.359,-3.928 -3.722,-6.88 -5.728,-9.69   z " id="path5224" style="color:#000000;fill:#00ff00;fill-opacity:1;stroke:#4d4318;stroke-width:0.52687746;stroke-linecap:round;stroke-linejoin:round;stroke-miterlimit:4;stroke-opacity:1;stroke-dasharray:none;stroke-dashoffset:0;marker:none;visibility:visible;display:inline;overflow:visible;enable-background:accumulate"/>
      <path d="m52.98,14.51   c-6.633,0.7075 -10.85,8 -10.79,16.37 1.187,0.5646 2.292,1.644 3.103,3.103 2.563,-2.985 6.307,-7.474 7.495,-8.736 2.088,-2.218 3.299,-3.155 4.01,-6.874 -2.685,0.2683 -4.496,0.6183 -6.492,2.148 1.645,-1.62 1.895,-2.313 2.673,-6.015   z " id="path5226" style="color:#000000;fill:#00ff00;fill-opacity:1;stroke:#4d4318;stroke-width:0.52687746;stroke-linecap:round;stroke-linejoin:round;stroke-miterlimit:4;stroke-opacity:1;stroke-dasharray:none;stroke-dashoffset:0;marker:none;visibility:visible;display:inline;overflow:visible;enable-background:accumulate"/>
      <path d="m58.75,21.24   c-1.77,-0.0118 -4.168,0.3046 -6.062,1.48 -3.603,2.235 -6.297,4.637 -8.927,8.879 0.111,0.2059 0.192,0.4343 0.2864,0.6683 0.6406,0.6708 1.194,1.473 1.623,2.435 0.4367,0.9803 0.6511,1.972 0.716,2.912 2.441,-1.264 4.837,-2.626 6.11,-3.294 2.721,-1.428 4.623,-1.512 8.592,-6.731 -2.28,-1.06 -3.155,-1.086 -6.922,0.5251 5.951,-2.716 5.671,-4.72 6.826,-6.635 -0.3374,-0.1171 -1.182,-0.2316 -2.244,-0.2387   z " id="path5228" style="color:#000000;fill:#00ff00;fill-opacity:1;stroke:#4d4318;stroke-width:0.52687746;stroke-linecap:round;stroke-linejoin:round;stroke-miterlimit:4;stroke-opacity:1;stroke-dasharray:none;stroke-dashoffset:0;marker:none;visibility:visible;display:inline;overflow:visible;enable-background:accumulate"/>
      <path d="m56.37,31.5   c-1.43,0.0343 -3.036,0.2946 -4.869,0.9547 -2.816,1.014 -4.164,2.296 -5.346,3.58 0.7373,2.744 0.0194,5.368 -1.862,6.206 -0.2594,0.1156 -0.5118,0.2375 -0.7882,0.2775 1.698,1.858 5.421,2.003 6.946,2.014 2.439,0.0173 10.34,-3.589 11.71,-6.618 -2.038,-0.4777 -2.754,-1.606 -8.03,-0.1604 5.158,-1.503 7.324,-3.474 8.998,-5.394 -1.285,-0.3263 -4.371,-0.9164 -6.754,-0.8592   z " id="path5230" style="color:#000000;fill:#00ff00;fill-opacity:1;stroke:#4d4318;stroke-width:0.52687746;stroke-linecap:round;stroke-linejoin:round;stroke-miterlimit:4;stroke-opacity:1;stroke-dasharray:none;stroke-dashoffset:0;marker:none;visibility:visible;display:inline;overflow:visible;enable-background:accumulate"/>
      <path d="m131.4,13.06   c-2.03,1.928 -4.5,4.962 -6.015,9.07 -1.153,3.128 0.2361,8.04 0.3819,12.12 1.509,-2.773 4.173,-4.295 6.206,-3.389 0.6298,0.2806 1.239,0.597 1.598,1.214 2.945,-5.132 4.655,-10.75 4.178,-16.78 -0.0107,0.004 -0.0365,-0.004 -0.0478,0 -0.3746,0.3418 -0.8477,0.5933 -1.337,0.7638 0.0254,0.3917 -0.0701,1.657 -0.2608,2.346 0.1363,-0.5806 0.2667,-1.825 -0.0107,-2.225 -0.2753,0.0635 -0.6754,0.1176 -0.97,0.1176 -1.899,0 -3.445,-1.425 -3.723,-3.246   z " id="path5232" style="color:#000000;fill:#00ff00;fill-opacity:1;stroke:#4d4318;stroke-width:0.52687746;stroke-linecap:round;stroke-linejoin:round;stroke-miterlimit:4;stroke-opacity:1;stroke-dasharray:none;stroke-dashoffset:0;marker:none;visibility:visible;display:inline;overflow:visible;enable-background:accumulate"/>
      <path d="m118.1,14.69   c6.633,0.7075 10.85,8 10.79,16.37 -1.187,0.5646 -2.292,1.644 -3.103,3.103 -2.563,-2.985 -6.307,-7.474 -7.495,-8.736 -2.088,-2.218 -3.299,-3.155 -4.01,-6.874 2.685,0.2683 4.496,0.6183 6.492,2.148 -1.645,-1.62 -1.895,-2.313 -2.673,-6.015   z " id="path5234" style="color:#000000;fill:#00ff00;fill-opacity:1;stroke:#4d4318;stroke-width:0.52687746;stroke-linecap:round;stroke-linejoin:round;stroke-miterlimit:4;stroke-opacity:1;stroke-dasharray:none;stroke-dashoffset:0;marker:none;visibility:visible;display:inline;overflow:visible;enable-background:accumulate"/>
      <path d="m112.3,21.42   c1.77,-0.0118 4.168,0.3046 6.062,1.48 3.603,2.235 6.297,4.637 8.927,8.879 -0.1109,0.2059 -0.192,0.4343 -0.2864,0.6683 -0.6406,0.6708 -1.194,1.473 -1.623,2.435 -0.4367,0.9803 -0.6511,1.972 -0.716,2.912 -2.441,-1.264 -4.837,-2.626 -6.11,-3.294 -2.721,-1.428 -4.623,-1.512 -8.592,-6.731 2.28,-1.06 3.155,-1.086 6.922,0.5251 -5.951,-2.716 -5.671,-4.72 -6.826,-6.635 0.3374,-0.1171 1.182,-0.2316 2.244,-0.2387   z " id="path5236" style="color:#000000;fill:#00ff00;fill-opacity:1;stroke:#4d4318;stroke-width:0.52687746;stroke-linecap:round;stroke-linejoin:round;stroke-miterlimit:4;stroke-opacity:1;stroke-dasharray:none;stroke-dashoffset:0;marker:none;visibility:visible;display:inline;overflow:visible;enable-background:accumulate"/>
      <path d="m114.2,32   c-2.269,-0.0851 -4.222,0.1918 -6.322,0.4945 1.674,1.921 3.52,3.935 8.678,5.438 -5.276,-1.446 -6.171,-0.5727 -8.209,-0.095 1.368,3.029 9.493,6.891 11.93,6.873 1.552,-0.011 5.412,-0.1974 7.065,-2.148 -0.1899,-0.0435 -0.3918,-0.0626 -0.5728,-0.1432 -1.795,-0.7995 -2.533,-3.22 -1.957,-5.824 -1.321,-1.256 -2.031,-2.044 -4.933,-3.489 -1.707,-0.8499 -4.289,-1.055 -5.681,-1.107   z " id="path5238" style="color:#000000;fill:#00ff00;fill-opacity:1;stroke:#4d4318;stroke-width:0.52687746;stroke-linecap:round;stroke-linejoin:round;stroke-miterlimit:4;stroke-opacity:1;stroke-dasharray:none;stroke-dashoffset:0;marker:none;visibility:visible;display:inline;overflow:visible;enable-background:accumulate"/>
      <path d="m89.06,6.674   c-0.1638,1.84 -1.638,3.296 -3.485,3.437 -0.0823,0.8884 -0.0955,2.135 -0.0955,4.058 0,-1.981 -0.0285,-3.173 -0.1432,-4.01 -0.0161,0 -0.0316,0 -0.0477,0 -1.797,0 -3.283,-1.282 -3.676,-2.96 -1.568,2.241 -2.464,4.227 -2.291,6.731 0.1323,1.917 2.019,8.795 3.055,12.6 0.1923,-0.2557 0.399,-0.4659 0.6206,-0.6683 0.1943,-0.1812 0.4073,-0.344 0.6206,-0.4774 0.0309,-0.019 0.0642,-0.0297 0.0955,-0.0477 0.0313,-0.0184 0.0638,-0.0304 0.0955,-0.0477 0.4677,-0.2516 0.9522,-0.3819 1.48,-0.3819 0.2813,0 0.546,0.0234 0.8115,0.0955 0.0156,0.004 0.0323,-0.005 0.0477,0 0.2169,0.0621 0.417,0.1794 0.6206,0.2864 0.0316,0.017 0.0643,0.0297 0.0955,0.0477 0.2455,0.1388 0.4948,0.3249 0.716,0.5251 0.1893,0.1729 0.3569,0.3606 0.5251,0.5728 0.0292,0.0367 0.067,0.0576 0.0955,0.0955 2.87,-4.461 6.521,-12.41 0.8592,-19.86   z " id="path5240" style="color:#000000;fill:#00ff00;fill-opacity:1;stroke:#4d4318;stroke-width:0.52687746;stroke-linecap:round;stroke-linejoin:round;stroke-miterlimit:4;stroke-opacity:1;stroke-dasharray:none;stroke-dashoffset:0;marker:none;visibility:visible;display:inline;overflow:visible;enable-background:accumulate"/>
      <path d="m71.87,7.772   c1.267,4.752 1.199,4.223 4.535,9.118 -2.81,-3.89 -4.66,-4.903 -9.07,-5.251 0.8676,3.58 0.8893,5.693 3.437,7.829 1.643,1.378 7.471,7.052 10.41,9.69 0.3932,-1.68 1.281,-3.015 2.387,-3.723 -1.169,-6.328 -3.446,-16.97 -11.7,-17.66   z " id="path5242" style="color:#000000;fill:#00ff00;fill-opacity:1;stroke:#4d4318;stroke-width:0.52687746;stroke-linecap:round;stroke-linejoin:round;stroke-miterlimit:4;stroke-opacity:1;stroke-dasharray:none;stroke-dashoffset:0;marker:none;visibility:visible;display:inline;overflow:visible;enable-background:accumulate"/>
      <path d="m66.29,16.46   c-0.9512,0.015 -1.902,0.1652 -2.912,0.4774 3.15,3.63 3.48,4.348 8.02,6.683 -4.44,-1.929 -4.941,-1.936 -8.02,-1.002 1.582,4.31 3.903,4.51 6.779,5.824 1.725,0.7881 7.583,3.412 11.07,4.917 -0.0835,-0.3381 -0.1477,-0.6881 -0.1909,-1.05 -0.051,-0.3593 -0.0955,-0.7217 -0.0955,-1.098 0,-0.4045 0.0457,-0.81 0.0955,-1.193 0.004,-0.0309 -0.005,-0.0647 0,-0.0955 0.0511,-0.3643 0.1466,-0.7117 0.2387,-1.05 0.0729,-0.2683 0.1423,-0.5149 0.2387,-0.7638 0.0536,-0.1363 0.131,-0.2521 0.1909,-0.3819 0.0362,-0.0794 0.0569,-0.1618 0.0955,-0.2387 0.0906,-0.1787 0.1845,-0.3613 0.2864,-0.5251 -3.064,-4.473 -8.929,-10.61 -15.8,-10.5   z " id="path5244" style="color:#000000;fill:#00ff00;fill-opacity:1;stroke:#4d4318;stroke-width:0.52687746;stroke-linecap:round;stroke-linejoin:round;stroke-miterlimit:4;stroke-opacity:1;stroke-dasharray:none;stroke-dashoffset:0;marker:none;visibility:visible;display:inline;overflow:visible;enable-background:accumulate"/>
      <path d="m70.49,27.87   c-8.107,0.1021 -9.113,2.516 -10.36,3.467 2.748,2.429 3.452,2.147 7.589,1.831 -3.639,0.5067 -4.049,0.851 -6.779,2.53 2.681,2.333 7.143,4.743 10.31,4.726 2.281,-0.0124 12.61,-0.103 14.08,-2.864 -0.0161,0 -0.0315,0 -0.0477,0 -2.395,0 -4.344,-2.855 -4.344,-6.349 0,-0.0804 -0.002,-0.159 0,-0.2387 -3.428,-1.743 -7.067,-2.958 -10.45,-3.103   z " id="path5246" style="color:#000000;fill:#00ff00;fill-opacity:1;stroke:#4d4318;stroke-width:0.52687746;stroke-linecap:round;stroke-linejoin:round;stroke-miterlimit:4;stroke-opacity:1;stroke-dasharray:none;stroke-dashoffset:0;marker:none;visibility:visible;display:inline;overflow:visible;enable-background:accumulate"/>
      <path d="m98.7,7.772   c-8.232,0.6926 -10.57,11.28 -11.74,17.61 1.122,0.6919 2.03,2.037 2.435,3.723 2.95,-2.652 8.77,-8.271 10.41,-9.643 2.548,-2.135 2.474,-4.248 3.342,-7.829 -4.41,0.3477 -6.212,1.361 -9.022,5.251 3.336,-4.894 3.315,-4.366 4.583,-9.118   z " id="path5248" style="color:#000000;fill:#00ff00;fill-opacity:1;stroke:#4d4318;stroke-width:0.52687746;stroke-linecap:round;stroke-linejoin:round;stroke-miterlimit:4;stroke-opacity:1;stroke-dasharray:none;stroke-dashoffset:0;marker:none;visibility:visible;display:inline;overflow:visible;enable-background:accumulate"/>
      <path d="m104.3,16.41   c-0.3184,-0.008 -0.6444,0.0234 -0.9547,0.0477 -6.339,0.4964 -12.22,5.772 -15.23,9.977 0.9195,1.16 1.528,2.861 1.528,4.774 0,0.7692 -0.114,1.514 -0.2864,2.196 3.491,-1.508 9.303,-4.177 11.03,-4.965 2.875,-1.313 5.245,-1.513 6.826,-5.824 -3.078,-0.9333 -3.579,-0.9263 -8.02,1.002 4.54,-2.335 4.87,-3.053 8.02,-6.683 -1.009,-0.3122 -1.957,-0.5021 -2.912,-0.5251   z " id="path5250" style="color:#000000;fill:#00ff00;fill-opacity:1;stroke:#4d4318;stroke-width:0.52687746;stroke-linecap:round;stroke-linejoin:round;stroke-miterlimit:4;stroke-opacity:1;stroke-dasharray:none;stroke-dashoffset:0;marker:none;visibility:visible;display:inline;overflow:visible;enable-background:accumulate"/>
      <path d="m101.2,27.68   c-4.129,-0.1074 -8.155,1.238 -11.65,2.96 0.0118,0.1897 0.0477,0.3786 0.0477,0.5728 0,3.25 -1.704,5.895 -3.867,6.253 -0.0344,0.009 -0.0569,0.0383 -0.0955,0.0477 -0.1292,0.0169 -0.2497,0.0477 -0.3819,0.0477 -0.0324,0 -0.0633,0 -0.0955,0 1.455,2.771 11.85,2.852 14.13,2.864 3.167,0.0173 7.153,-2.011 9.834,-4.344 -2.73,-2.568 -2.49,-2.041 -6.015,-3.246 3.795,0.7602 4.342,0.5373 7.256,-1.193 -1.774,-1.544 -4.754,-3.847 -9.165,-3.962   z " id="path5252" style="color:#000000;fill:#00ff00;fill-opacity:1;stroke:#4d4318;stroke-width:0.52687746;stroke-linecap:round;stroke-linejoin:round;stroke-miterlimit:4;stroke-opacity:1;stroke-dasharray:none;stroke-dashoffset:0;marker:none;visibility:visible;display:inline;overflow:visible;enable-background:accumulate"/>
      <path d="m44.8,47.23   c-0.8312,2.027 -0.4036,5.386 1.225,7.247 2.55,-1.152 19.72,-2.256 37.16,-2.503 17.44,-0.2468 39.93,1.899 41.41,2.146 1.88,-1.204 2.421,-5.14 1.482,-6.936 -8.144,-1.974 -26.85,-6.562 -39.02,-6.644 -12.17,-0.0823 -37.89,4.716 -42.25,6.691   z " id="path5254" style="color:#000000;fill:#00ff00;fill-opacity:1;stroke:none;stroke-width:0.60000002;marker:none;visibility:visible;display:inline;overflow:visible;enable-background:accumulate"/>
      <path d="m47.52,53.44   c-2.874,1.009 -1.81,4.716 0.5695,4.148 9.324,-2.228 20.77,-3.425 37.38,-3.425 16.61,0 28.06,1.197 37.38,3.425 2.379,0.5685 3.444,-3.139 0.5695,-4.148 -4.555,-1.598 -22.05,-3.795 -37.95,-3.795 -15.9,0 -33.4,2.197 -37.95,3.795   z " id="path5256" style="color:#000000;fill:#00ff00;fill-opacity:1;stroke:#4d4318;stroke-width:0.70250332;stroke-linecap:round;stroke-linejoin:round;stroke-miterlimit:4;stroke-opacity:1;stroke-dasharray:none;stroke-dashoffset:0;marker:none;visibility:visible;display:inline;overflow:visible;enable-background:accumulate"/>
      <path d="m122.7,50.2   c-0.3112,1.434 0.4014,2.807 1.592,3.065 1.19,0.2582 2.407,-0.6953 2.719,-2.13 0.3112,-1.434 -0.4014,-2.807 -1.592,-3.065 -1.19,-0.2582 -2.407,0.6953 -2.718,2.13   z " id="path5258" style="color:#000000;fill:#00ff00;fill-opacity:1;stroke:#4d4318;stroke-width:0.25243276;stroke-linecap:round;stroke-linejoin:round;stroke-miterlimit:4;stroke-opacity:1;stroke-dashoffset:0;marker:none;visibility:visible;display:inline;overflow:visible;enable-background:accumulate"/>
      <path d="m106.8,47.8   c-0.07324,1.466 0.7445,2.698 1.827,2.752 1.082,0.05406 2.019,-1.09 2.092,-2.556 0.07324,-1.466 -0.7445,-2.698 -1.827,-2.752 -1.082,-0.05406 -2.019,1.09 -2.092,2.556   z " id="path5260" style="color:#000000;fill:#00ff00;fill-opacity:1;stroke:#4d4318;stroke-width:0.26764938;stroke-linecap:round;stroke-linejoin:round;stroke-miterlimit:4;stroke-opacity:1;stroke-dashoffset:0;marker:none;visibility:visible;display:inline;overflow:visible;enable-background:accumulate"/>
      <path d="m102.3,47.5   c0,1.468 0.9632,2.658 2.151,2.658 1.188,0 2.151,-1.19 2.151,-2.658 0,-1.468 -0.9632,-2.658 -2.151,-2.658 -1.188,0 -2.151,1.19 -2.151,2.658   z " id="path5262" style="color:#000000;fill:#00ff00;fill-opacity:1;stroke:#4d4318;stroke-width:0.25556871;stroke-linecap:round;stroke-linejoin:round;stroke-miterlimit:4;stroke-opacity:1;stroke-dashoffset:0;marker:none;visibility:visible;display:inline;overflow:visible;enable-background:accumulate"/>
      <path d="m110.7,48.2   c-0.1315,1.462 0.6365,2.726 1.716,2.823 1.079,0.09709 2.06,-1.009 2.192,-2.471 0.1315,-1.462 -0.6365,-2.726 -1.716,-2.823 -1.079,-0.09709 -2.06,1.009 -2.192,2.471   z " id="path5264" style="color:#000000;fill:#00ff00;fill-opacity:1;stroke:#4d4318;stroke-width:0.26764938;stroke-linecap:round;stroke-linejoin:round;stroke-miterlimit:4;stroke-opacity:1;stroke-dashoffset:0;marker:none;visibility:visible;display:inline;overflow:visible;enable-background:accumulate"/>
      <path d="m114.8,48.6   c-0.1891,1.456 0.5285,2.749 1.603,2.888 1.074,0.1396 2.099,-0.9272 2.288,-2.383 0.1891,-1.456 -0.5285,-2.749 -1.603,-2.888 -1.074,-0.1396 -2.099,0.9272 -2.288,2.383   z " id="path5266" style="color:#000000;fill:#00ff00;fill-opacity:1;stroke:#4d4318;stroke-width:0.26764938;stroke-linecap:round;stroke-linejoin:round;stroke-miterlimit:4;stroke-opacity:1;stroke-dashoffset:0;marker:none;visibility:visible;display:inline;overflow:visible;enable-background:accumulate"/>
      <path d="m118.8,49.5   c-0.174,1.457 0.557,2.743 1.633,2.871 1.076,0.1284 2.089,-0.949 2.263,-2.406 0.174,-1.457 -0.557,-2.743 -1.633,-2.871 -1.076,-0.1284 -2.089,0.949 -2.263,2.406   z " id="path5268" style="color:#000000;fill:#00ff00;fill-opacity:1;stroke:#4d4318;stroke-width:0.26764938;stroke-linecap:round;stroke-linejoin:round;stroke-miterlimit:4;stroke-opacity:1;stroke-dashoffset:0;marker:none;visibility:visible;display:inline;overflow:visible;enable-background:accumulate"/>
      <path d="m88.08,46.5   c0,1.468 -1.19,2.658 -2.658,2.658 -1.468,0 -2.658,-1.19 -2.658,-2.658 0,-1.468 1.19,-2.658 2.658,-2.658 1.468,0 2.658,1.19 2.658,2.658   z " id="path5270" style="color:#000000;fill:#00ff00;fill-opacity:1;stroke:#4d4318;stroke-width:0.22994421;stroke-linecap:round;stroke-linejoin:round;stroke-miterlimit:4;stroke-opacity:1;stroke-dashoffset:0;marker:none;visibility:visible;display:inline;overflow:visible;enable-background:accumulate"/>
      <path d="m48.09,50.3   c0.2551,1.445 -0.4265,2.774 -1.523,2.967 -1.096,0.1934 -2.191,-0.8215 -2.446,-2.267 -0.2551,-1.445 0.4265,-2.774 1.523,-2.967 1.096,-0.1934 2.191,0.8215 2.446,2.267   z " id="path5272" style="color:#000000;fill:#00ff00;fill-opacity:1;stroke:#4d4318;stroke-width:0.26406917;stroke-linecap:round;stroke-linejoin:round;stroke-miterlimit:4;stroke-opacity:1;stroke-dashoffset:0;marker:none;visibility:visible;display:inline;overflow:visible;enable-background:accumulate"/>
      <path d="m64.21,47.9   c0,1.468 -0.8782,2.658 -1.962,2.658 -1.083,0 -1.962,-1.19 -1.962,-2.658 0,-1.468 0.8782,-2.658 1.962,-2.658 1.083,0 1.962,1.19 1.962,2.658   z " id="path5274" style="color:#000000;fill:#00ff00;fill-opacity:1;stroke:#4d4318;stroke-width:0.26764938;stroke-linecap:round;stroke-linejoin:round;stroke-miterlimit:4;stroke-opacity:1;stroke-dashoffset:0;marker:none;visibility:visible;display:inline;overflow:visible;enable-background:accumulate"/>
      <path d="m68.7,47.5   c0,1.468 -0.9632,2.658 -2.151,2.658 -1.188,0 -2.151,-1.19 -2.151,-2.658 0,-1.468 0.9632,-2.658 2.151,-2.658 1.188,0 2.151,1.19 2.151,2.658   z " id="path5276" style="color:#000000;fill:#00ff00;fill-opacity:1;stroke:#4d4318;stroke-width:0.25556871;stroke-linecap:round;stroke-linejoin:round;stroke-miterlimit:4;stroke-opacity:1;stroke-dashoffset:0;marker:none;visibility:visible;display:inline;overflow:visible;enable-background:accumulate"/>
      <path d="m77.78,46.8   c0,1.468 -1.048,2.658 -2.341,2.658 -1.293,0 -2.341,-1.19 -2.341,-2.658 0,-1.468 1.048,-2.658 2.341,-2.658 1.293,0 2.341,1.19 2.341,2.658   z " id="path5278" style="color:#000000;fill:#00ff00;fill-opacity:1;stroke:#4d4318;stroke-width:0.24498881;stroke-linecap:round;stroke-linejoin:round;stroke-miterlimit:4;stroke-opacity:1;stroke-dashoffset:0;marker:none;visibility:visible;display:inline;overflow:visible;enable-background:accumulate"/>
      <path d="m82.78,46.6   c0,1.468 -1.105,2.658 -2.468,2.658 -1.363,0 -2.468,-1.19 -2.468,-2.658 0,-1.468 1.105,-2.658 2.468,-2.658 1.363,0 2.468,1.19 2.468,2.658   z " id="path5280" style="color:#000000;fill:#00ff00;fill-opacity:1;stroke:#4d4318;stroke-width:0.23862438;stroke-linecap:round;stroke-linejoin:round;stroke-miterlimit:4;stroke-opacity:1;stroke-dashoffset:0;marker:none;visibility:visible;display:inline;overflow:visible;enable-background:accumulate"/>
      <path d="m60.22,48.3   c0.06385,1.466 -0.7618,2.693 -1.844,2.74 -1.082,0.04713 -2.011,-1.103 -2.075,-2.57 -0.06385,-1.466 0.7618,-2.693 1.844,-2.74 1.082,-0.04713 2.011,1.103 2.075,2.57   z " id="path5282" style="color:#000000;fill:#00ff00;fill-opacity:1;stroke:#4d4318;stroke-width:0.26764938;stroke-linecap:round;stroke-linejoin:round;stroke-miterlimit:4;stroke-opacity:1;stroke-dashoffset:0;marker:none;visibility:visible;display:inline;overflow:visible;enable-background:accumulate"/>
      <path d="m56.17,48.7   c0.08811,1.465 -0.7171,2.706 -1.799,2.771 -1.081,0.06503 -2.029,-1.07 -2.118,-2.535 -0.08811,-1.465 0.7171,-2.706 1.799,-2.771 1.081,-0.06503 2.029,1.07 2.118,2.535   z " id="path5284" style="color:#000000;fill:#00ff00;fill-opacity:1;stroke:#4d4318;stroke-width:0.26764938;stroke-linecap:round;stroke-linejoin:round;stroke-miterlimit:4;stroke-opacity:1;stroke-dashoffset:0;marker:none;visibility:visible;display:inline;overflow:visible;enable-background:accumulate"/>
      <path d="m72.98,47.1   c0,1.468 -0.9632,2.658 -2.151,2.658 -1.188,0 -2.151,-1.19 -2.151,-2.658 0,-1.468 0.9632,-2.658 2.151,-2.658 1.188,0 2.151,1.19 2.151,2.658   z " id="path5286" style="color:#000000;fill:#00ff00;fill-opacity:1;stroke:#4d4318;stroke-width:0.25556871;stroke-linecap:round;stroke-linejoin:round;stroke-miterlimit:4;stroke-opacity:1;stroke-dashoffset:0;marker:none;visibility:visible;display:inline;overflow:visible;enable-background:accumulate"/>
      <path d="m52.18,49.6   c0.09998,1.464 -0.6952,2.711 -1.776,2.785 -1.081,0.0738 -2.038,-1.053 -2.138,-2.518 -0.09998,-1.464 0.6952,-2.711 1.776,-2.785 1.081,-0.0738 2.038,1.053 2.138,2.518   z " id="path5288" style="color:#000000;fill:#00ff00;fill-opacity:1;stroke:#4d4318;stroke-width:0.26764938;stroke-linecap:round;stroke-linejoin:round;stroke-miterlimit:4;stroke-opacity:1;stroke-dashoffset:0;marker:none;visibility:visible;display:inline;overflow:visible;enable-background:accumulate"/>
      <path d="m93.08,46.8   c0,1.468 1.048,2.658 2.341,2.658 1.293,0 2.341,-1.19 2.341,-2.658 0,-1.468 -1.048,-2.658 -2.341,-2.658 -1.293,0 -2.341,1.19 -2.341,2.658   z " id="path5290" style="color:#000000;fill:#00ff00;fill-opacity:1;stroke:#4d4318;stroke-width:0.24498881;stroke-linecap:round;stroke-linejoin:round;stroke-miterlimit:4;stroke-opacity:1;stroke-dashoffset:0;marker:none;visibility:visible;display:inline;overflow:visible;enable-background:accumulate"/>
      <path d="m88.08,46.6   c0,1.468 1.105,2.658 2.468,2.658 1.363,0 2.468,-1.19 2.468,-2.658 0,-1.468 -1.105,-2.658 -2.468,-2.658 -1.363,0 -2.468,1.19 -2.468,2.658   z " id="path5292" style="color:#000000;fill:#00ff00;fill-opacity:1;stroke:#4d4318;stroke-width:0.23862438;stroke-linecap:round;stroke-linejoin:round;stroke-miterlimit:4;stroke-opacity:1;stroke-dashoffset:0;marker:none;visibility:visible;display:inline;overflow:visible;enable-background:accumulate"/>
      <path d="m97.98,47.1   c0,1.468 0.9632,2.658 2.151,2.658 1.188,0 2.151,-1.19 2.151,-2.658 0,-1.468 -0.9632,-2.658 -2.151,-2.658 -1.188,0 -2.151,1.19 -2.151,2.658   z " id="path5294" style="color:#000000;fill:#00ff00;fill-opacity:1;stroke:#4d4318;stroke-width:0.25556871;stroke-linecap:round;stroke-linejoin:round;stroke-miterlimit:4;stroke-opacity:1;stroke-dashoffset:0;marker:none;visibility:visible;display:inline;overflow:visible;enable-background:accumulate"/>
      <path d="m45.75,43.32   c-2.874,1.009 -1.81,4.716 0.5695,4.148 9.324,-2.228 23.43,-4.121 39.15,-4.121 15.72,0 29.83,1.893 39.15,4.121 2.379,0.5685 3.444,-3.139 0.5695,-4.148 -4.555,-1.598 -24.95,-4.491 -39.72,-4.491 -14.77,0 -35.17,2.893 -39.72,4.491   z " id="path5296" style="color:#000000;fill:#00ff00;fill-opacity:1;stroke:#4d4318;stroke-width:0.70250332;stroke-linecap:round;stroke-linejoin:round;stroke-miterlimit:4;stroke-opacity:1;stroke-dasharray:none;stroke-dashoffset:0;marker:none;visibility:visible;display:inline;overflow:visible;enable-background:accumulate"/>
      <path d="m39.75,12.3   c0,2.096 -1.699,3.795 -3.795,3.795 -2.096,0 -3.795,-1.699 -3.795,-3.795 0,-2.096 1.699,-3.795 3.795,-3.795 2.096,0 3.795,1.699 3.795,3.795   z " id="path5312" style="color:#000000;fill:#c9e0e0;fill-opacity:1;stroke:#666666;stroke-width:0.22994421;stroke-linecap:round;stroke-linejoin:round;stroke-miterlimit:4;stroke-opacity:1;stroke-dashoffset:0;marker:none;visibility:visible;display:inline;overflow:visible;enable-background:accumulate"/>
      <path d="m45.47,34.4   c1.817,2.984 1.631,6.413 -0.4149,7.658 -2.046,1.246 -5.178,-0.163 -6.994,-3.147 -1.817,-2.984 -1.631,-6.413 0.4149,-7.658 2.046,-1.246 5.178,0.163 6.994,3.147   z " id="path5314" style="color:#000000;fill:#cae0e0;fill-opacity:1;stroke:none;stroke-width:0.14491376;marker:none;visibility:visible;display:inline;overflow:visible;enable-background:accumulate"/>
      <path d="m45.47,34.4   c1.817,2.984 1.631,6.413 -0.4149,7.658 -2.046,1.246 -5.178,-0.163 -6.994,-3.147 -1.817,-2.984 -1.631,-6.413 0.4149,-7.658 2.046,-1.246 5.178,0.163 6.994,3.147   z " id="path5316" style="color:#000000;fill:#ffffff;fill-opacity:1;stroke:none;stroke-width:0.14491376;marker:none;visibility:visible;display:inline;overflow:visible;enable-background:accumulate"/>
      <path d="m39.75,12.3   c0,2.096 -1.699,3.795 -3.795,3.795 -2.096,0 -3.795,-1.699 -3.795,-3.795 0,-2.096 1.699,-3.795 3.795,-3.795 2.096,0 3.795,1.699 3.795,3.795   z " id="path5318" style="color:#000000;fill:#ffffff;fill-opacity:1;stroke:none;stroke-width:0.2;marker:none;visibility:visible;display:inline;overflow:visible;enable-background:accumulate"/>
      <path d="m35.93,8.203   c-2.263,0 -4.105,1.842 -4.105,4.105 0,2.263 1.842,4.153 4.105,4.153 2.263,0 4.153,-1.89 4.153,-4.153 0,-2.263 -1.89,-4.105 -4.153,-4.105   z m0,0.7638   c1.848,0 3.342,1.494 3.342,3.342 0,1.848 -1.494,3.389 -3.342,3.389 -1.848,0 -3.342,-1.541 -3.342,-3.389 0,-1.848 1.494,-3.342 3.342,-3.342   z " id="path5320" style="color:#000000;fill:#595959;fill-opacity:1;stroke:#404040;stroke-width:0.39841902;stroke-linecap:round;stroke-linejoin:round;stroke-miterlimit:4;stroke-opacity:1;stroke-dashoffset:0;marker:none;visibility:visible;display:inline;overflow:visible;enable-background:accumulate"/>
      <path d="m45.47,34.4   c1.817,2.984 1.631,6.413 -0.4149,7.658 -2.046,1.246 -5.178,-0.163 -6.994,-3.147 -1.817,-2.984 -1.631,-6.413 0.4149,-7.658 2.046,-1.246 5.178,0.163 6.994,3.147   z " id="path5322" style="color:#000000;fill:none;stroke:#666666;stroke-width:0.1666104;stroke-linecap:round;stroke-linejoin:round;stroke-miterlimit:4;stroke-opacity:1;stroke-dashoffset:0;marker:none;visibility:visible;display:inline;overflow:visible;enable-background:accumulate"/>
      <path d="m39.38,30.35   c-1.082,0.2901 -1.937,1.201 -1.701,1.628 2.651,-1.043 4.9,0.3381 6.544,3.175 1.645,2.836 1.125,5.978 -0.6955,7.143 0.4497,0.4142 1.819,-0.0113 2.661,-1.09 1.26,-1.615 1.021,-4.704 -0.4728,-7.401 -1.287,-2.323 -4.097,-4.056 -6.336,-3.455   z " id="path5324" style="color:#000000;fill:#595959;fill-opacity:1;stroke:#404040;stroke-width:0.35125163;stroke-linecap:round;stroke-linejoin:round;stroke-miterlimit:4;stroke-opacity:1;stroke-dashoffset:0;marker:none;visibility:visible;display:inline;overflow:visible;enable-background:accumulate"/>
      <path d="m131.4,12.5   c0,2.096 1.699,3.795 3.795,3.795 2.096,0 3.795,-1.699 3.795,-3.795 0,-2.096 -1.699,-3.795 -3.795,-3.795 -2.096,0 -3.795,1.699 -3.795,3.795   z " id="path5326" style="color:#000000;fill:#c9e0e0;fill-opacity:1;stroke:#666666;stroke-width:0.22994421;stroke-linecap:round;stroke-linejoin:round;stroke-miterlimit:4;stroke-opacity:1;stroke-dashoffset:0;marker:none;visibility:visible;display:inline;overflow:visible;enable-background:accumulate"/>
      <path d="m125.6,34.5   c-1.817,2.984 -1.631,6.413 0.4149,7.658 2.046,1.246 5.178,-0.163 6.994,-3.147 1.817,-2.984 1.631,-6.413 -0.4149,-7.658 -2.046,-1.246 -5.178,0.163 -6.994,3.147   z " id="path5328" style="color:#000000;fill:#cae0e0;fill-opacity:1;stroke:none;stroke-width:0.14491376;marker:none;visibility:visible;display:inline;overflow:visible;enable-background:accumulate"/>
      <path d="m125.6,34.5   c-1.817,2.984 -1.631,6.413 0.4149,7.658 2.046,1.246 5.178,-0.163 6.994,-3.147 1.817,-2.984 1.631,-6.413 -0.4149,-7.658 -2.046,-1.246 -5.178,0.163 -6.994,3.147   z " id="path5330" style="color:#000000;fill:url(#radialGradient5394);fill-opacity:1;stroke:none;stroke-width:0.14491376;marker:none;visibility:visible;display:inline;overflow:visible;enable-background:accumulate"/>
      <path d="m125.6,34.5   c-1.817,2.984 -1.631,6.413 0.4149,7.658 2.046,1.246 5.178,-0.163 6.994,-3.147 1.817,-2.984 1.631,-6.413 -0.4149,-7.658 -2.046,-1.246 -5.178,0.163 -6.994,3.147   z " id="path5332" style="color:#000000;fill:#ffffff;stroke:#666666;stroke-width:0.1666104;stroke-linecap:round;stroke-linejoin:round;stroke-miterlimit:4;stroke-opacity:1;stroke-dashoffset:0;marker:none;visibility:visible;display:inline;overflow:visible;enable-background:accumulate"/>
      <path d="m131.7,30.54   c1.082,0.2901 1.937,1.201 1.701,1.628 -2.651,-1.043 -4.9,0.3381 -6.544,3.175 -1.645,2.836 -1.125,5.978 0.6955,7.143 -0.4497,0.4142 -1.819,-0.0113 -2.661,-1.09 -1.26,-1.615 -1.021,-4.704 0.4728,-7.401 1.287,-2.323 4.097,-4.056 6.336,-3.455   z " id="path5334" style="color:#000000;fill:#595959;fill-opacity:1;stroke:#404040;stroke-width:0.35125163;stroke-linecap:round;stroke-linejoin:round;stroke-miterlimit:4;stroke-opacity:1;stroke-dashoffset:0;marker:none;visibility:visible;display:inline;overflow:visible;enable-background:accumulate"/>
      <path d="m138.9,12.5   c0,2.096 -1.699,3.795 -3.795,3.795 -2.096,0 -3.795,-1.699 -3.795,-3.795 0,-2.096 1.699,-3.795 3.795,-3.795 2.096,0 3.795,1.699 3.795,3.795   z " id="path5336" style="color:#000000;fill:#ffffff;fill-opacity:1;stroke:none;stroke-width:0.2;marker:none;visibility:visible;display:inline;overflow:visible;enable-background:accumulate"/>
      <path d="m135.1,8.387   c2.263,0 4.105,1.842 4.105,4.105 0,2.263 -1.842,4.153 -4.105,4.153 -2.263,0 -4.153,-1.89 -4.153,-4.153 0,-2.263 1.89,-4.105 4.153,-4.105   z m0,0.7638   c-1.848,0 -3.342,1.494 -3.342,3.342 0,1.848 1.494,3.389 3.342,3.389 1.848,0 3.342,-1.541 3.342,-3.389 0,-1.848 -1.494,-3.342 -3.342,-3.342   z " id="path5338" style="color:#000000;fill:#595959;fill-opacity:1;stroke:#404040;stroke-width:0.39841902;stroke-linecap:round;stroke-linejoin:round;stroke-miterlimit:4;stroke-opacity:1;stroke-dashoffset:0;marker:none;visibility:visible;display:inline;overflow:visible;enable-background:accumulate"/>
      <path d="m89.58,31.2   c0,3.493 -1.942,6.325 -4.337,6.325 -2.395,0 -4.337,-2.832 -4.337,-6.325 0,-3.493 1.942,-6.325 4.337,-6.325 2.395,0 4.337,2.832 4.337,6.325   z " id="path5342" style="color:#000000;fill:#c9e0e0;fill-opacity:1;stroke:#666666;stroke-width:0.1666104;stroke-linecap:round;stroke-linejoin:round;stroke-miterlimit:4;stroke-opacity:1;stroke-dashoffset:0;marker:none;visibility:visible;display:inline;overflow:visible;enable-background:accumulate"/>
      <path d="m89.58,31.2   c0,3.493 -1.942,6.325 -4.337,6.325 -2.395,0 -4.337,-2.832 -4.337,-6.325 0,-3.493 1.942,-6.325 4.337,-6.325 2.395,0 4.337,2.832 4.337,6.325   z " id="path5344" style="color:#000000;fill:#ffffff;fill-opacity:1;stroke:none;stroke-width:0.14491376;marker:none;visibility:visible;display:inline;overflow:visible;enable-background:accumulate"/>
      <path d="m85.29,24.38   c-2.636,0 -4.774,3.064 -4.774,6.826 0,3.762 2.138,6.826 4.774,6.826 2.636,0 4.774,-3.064 4.774,-6.826 0,-3.762 -2.138,-6.826 -4.774,-6.826   z m0,1.289   c2.044,0 3.723,2.474 3.723,5.537 0,3.063 -1.68,5.537 -3.723,5.537 -2.044,0 -3.676,-2.474 -3.676,-5.537 0,-3.063 1.632,-5.537 3.676,-5.537   z " id="path5346" style="color:#000000;fill:#595959;fill-opacity:1;stroke:#404040;stroke-width:0.35125163;stroke-linecap:round;stroke-linejoin:round;stroke-miterlimit:4;stroke-opacity:1;stroke-dasharray:none;stroke-dashoffset:0;marker:none;visibility:visible;display:inline;overflow:visible;enable-background:accumulate"/>
      <path d="m89.08,6.295   c0,2.096 -1.699,3.795 -3.795,3.795 -2.096,0 -3.795,-1.699 -3.795,-3.795 0,-2.096 1.699,-3.795 3.795,-3.795 2.096,0 3.795,1.699 3.795,3.795   z " id="path5348" style="color:#000000;fill:#ffffff;fill-opacity:1;stroke:none;stroke-width:0.2;marker:none;visibility:visible;display:inline;overflow:visible;enable-background:accumulate"/>
    </g>
    <path d="m85.3,2.199   c2.263,0 4.105,1.842 4.105,4.105 0,2.263 -1.842,4.153 -4.105,4.153 -2.263,0 -4.153,-1.89 -4.153,-4.153 0,-2.263 1.89,-4.105 4.153,-4.105   z m0,0.7638   c-1.848,0 -3.342,1.494 -3.342,3.342 0,1.848 1.494,3.389 3.342,3.389 1.848,0 3.342,-1.541 3.342,-3.389 0,-1.848 -1.494,-3.342 -3.342,-3.342   z " id="path5350" style="color:#000000;fill:#595959;fill-opacity:1;stroke:#404040;stroke-width:0.39841902;stroke-linecap:round;stroke-linejoin:round;stroke-miterlimit:4;stroke-opacity:1;stroke-dashoffset:0;marker:none;visibility:visible;display:inline;overflow:visible;enable-background:accumulate"/>
  </g>
</svg>
