<?xml version="1.0" encoding="UTF-8" standalone="no"?>
<!-- Creator: CorelDRAW -->

<svg
   xmlns:dc="http://purl.org/dc/elements/1.1/"
   xmlns:cc="http://creativecommons.org/ns#"
   xmlns:rdf="http://www.w3.org/1999/02/22-rdf-syntax-ns#"
   xmlns:svg="http://www.w3.org/2000/svg"
   xmlns="http://www.w3.org/2000/svg"
   xmlns:sodipodi="http://sodipodi.sourceforge.net/DTD/sodipodi-0.dtd"
   xmlns:inkscape="http://www.inkscape.org/namespaces/inkscape"
   xml:space="preserve"
   width="424.97278"
   height="134.8651"
   shape-rendering="geometricPrecision"
   text-rendering="geometricPrecision"
   image-rendering="optimizeQuality"
   clip-rule="evenodd"
   viewBox="0 0 424.97278 134.8651"
   version="1.0"
   id="svg2"
   inkscape:version="0.48.2 r9819"
   sodipodi:docname="squirrel-courant.svg"
   style="fill-rule:evenodd"><metadata
   id="metadata495"><rdf:RDF><cc:Work
       rdf:about=""><dc:format>image/svg+xml</dc:format><dc:type
         rdf:resource="http://purl.org/dc/dcmitype/StillImage" /><dc:title></dc:title><dc:creator><cc:Agent><dc:title>http://commons.wikimedia.org/wiki/User:Care</dc:title></cc:Agent></dc:creator></cc:Work></rdf:RDF></metadata><defs
   id="defs493">
  
  
  
  
  
  
  
  
  
  
  
  
  
  
  
  
  
  
  
  
  
  
  
  
  
  
  
  
  
  
  
  
  
  
  
  
  
  
  
  
  
  
  
  
  
  
  
  
  
  
  
  
  
  
  
  
  
  
  
  
  
  
  
  
  
  
  
  
  
  
  
  
  
  
  
  
  
  
  
  
  
  
  
  
  
  
  
  
  
  
  
  
  
  
  
  
  
  
  
  
  
  
  
  
  
  
  
  
  
  
  
  
  
  
  
  
  
  
  
  
  
  
  
  
  
  
  
  
  
  
  
  
  
  
  
  
  
  
  
  
  
  
  
  
  
  
  
  
  
  
  
  
  
  
  
  
  
  
  
  
  
  
  
  
  
  
  
  
  
  
  
  
  
  
  
  
  
  
  
  
  
  
  
  
  
  
  
  
  
  
  
  
  
  
  
  
  
  
  
  
  
  
  
  
  
  
  
  
  
  
  
  
  
  
  
  
  
  
  
  
  
  
  
  
  
  
  
  
  
  
  
  
  
  
  
  
  
  
  
  
  
  
  
  
 </defs><sodipodi:namedview
   pagecolor="#ffffff"
   bordercolor="#666666"
   borderopacity="1"
   objecttolerance="10"
   gridtolerance="10"
   guidetolerance="10"
   inkscape:pageopacity="0"
   inkscape:pageshadow="2"
   inkscape:window-width="1574"
   inkscape:window-height="1028"
   id="namedview491"
   showgrid="false"
   fit-margin-top="0"
   fit-margin-left="0"
   fit-margin-right="0"
   fit-margin-bottom="0"
   inkscape:zoom="1.1793442"
   inkscape:cx="246.32534"
   inkscape:cy="-149.71324"
   inkscape:window-x="98"
   inkscape:window-y="-8"
   inkscape:window-maximized="1"
   inkscape:current-layer="svg2" />
 <g
   id="body"
   inkscape:label="#g3715"><path
     sodipodi:nodetypes="ccccccccccccccccccccccccccccsscccccccccccccccccccccccccccccccccccscssccccccccccssscccccccccccccccccsccccccc"
     d="m 29.157841,48.644138 c -1.92076,-10.7892 -1.64665,-29.0123 0.823465,-35.3608 0.74863,0.355748 1.7966,2.50753 2.84485,3.31257 0.770174,-2.07751 1.09162,-4.60403 2.31109,-6.23254 0.348095,1.63389 -0.401386,3.26466 1.69852,4.8977 1.09049,-3.26835 0.235559,-8.9314097 2.07468,-11.9003997 1.75578,2.39131 1.71553,6.8779897 2.57329,10.3169997 1.15285,-3.36161 1.85698,-6.2742097 5.25515,-9.6358197 -1.99956,6.1928497 -2.05313,12.6852997 -3.75307,19.0280997 0.932599,-2.01005 1.41619,-4.16977 2.7978,-6.03014 0.972567,7.45796 -2.99367,16.4126 -0.224788,21.0271 2.41285,-5.5063 2.880283,-16.7 4.545073,-18.7639 l 2.1532,1.5001 c 0.74523,-4.43679 -0.30558,-12.9146997 2.23597,-16.0043997 1.19509,1.73055 0.74409,4.20945 1.7898,6.0899597 1.14917,-3.4795297 3.04696,-10.99979968 6.59112,-10.88729968 0.80163,1.99785998 -3.63515,8.33612998 -3.43191,12.27969968 2.03244,-1.61632 3.16715,-6.0763497 5.64888,-6.1956897 0.10431,2.68583 -5.17918,10.1613997 -4.17657,13.4460997 1.14066,-3.3738 3.07956,-6.34848 5.8167,-8.92404 -0.3515,3.41745 -1.2515,6.56051 -2.40038,9.57884 l 2.46189,2.53502 2.25099,-1.61632 -4.65421,24.3471 c 24.3028,8.31033 30.1023,1.80454 34.8738,5.62592 -1.63106,1.42951 -5.20781,2.11096 -13.873,2.94208 7.38142,2.13421 18.205199,-1.86803 20.797199,-0.332221 -0.059,2.7275 -10.744199,3.9583 -10.952499,6.83547 30.980099,-1.19424 59.116799,-26.187 90.096999,-27.3804 28.3913,-1.09389 27.5998,12.1161 60.7592,19.5194 16.1206,3.59915 35.2817,-0.539717 60.5914,-0.289701 l -3.132,2.92564 c 11.0067,-1.11657 21.5025,-3.51099 31.7118,-6.6223 -1.21124,3.86561 -7.63711,6.63392 -16.4324,8.90363 22.2483,-2.41994 29.2303,-13.2214 32.6206,-11.7496 0.29565,3.27912 -4.49717,7.45626 -11.6847,12.5314 8.81972,-3.50646 16.7791,-10.7425 23.205,-24.6266 1.88221,5.97884 0.20948,11.7213 -3.89481,17.3018 9.93005,-8.41635 14.7682,-18.212 5.52955,-31.8192 8.23663,3.05858 10.9843,8.58785 11.2374,15.2402 3.03874,-5.76652 1.68718,-12.1317 -4.05468,-19.095 6.75837,0.437103 12.1813,4.34353 12.1317,17.096 2.66372,-3.31087 3.08268,-9.091 0.20919,-19.7351 6.88819,-0.560126 10.7456,9.10715 7.00725,22.7166 3.57931,-3.24822 5.4377,-10.3691 4.22788,-24.3933 10.6313,8.93991 7.77289,20.2258 0.0351,32.3612 4.73556,-2.38139 9.48331,-8.65474 14.6188,-20.6144 3.65896,10.148 0.11537,19.4233 -9.39572,27.9757 6.78615,-3.86703 12.5992,-10.1659 16.9909,-20.0191 3.24709,11.2107 -1.12677,22.0972 -16.6377,32.5103 8.36051,-2.53786 16.4336,-6.83518 23.997,-14.1625 -3.18841,16.4925 -14.885,24.2022 -30.4484,27.9201 9.44306,-0.142866 18.3869,-2.40662 26.2338,-9.33563 -1.33739,12.6045 -14.6991,17.584402 -32.4094,19.806502 7.57134,1.56926 16.2774,1.19282 26.6428,-2.02677 -2.24277,7.59912 -16.4903,10.3966 -40.684,9.21572 9.1783,4.07509 19.7286,4.30753 30.9033,2.79468 -12.6003,8.459722 -29.5407,10.590002 -51.7187,5.081392 l 11.4622,5.3144 c -15.6178,-2.27254 -30.9419,-7.47752 -46.1594,-13.743202 l 9.47679,8.057482 -41.9961,-19.300502 14.2447,11.126 c -19.2926,-10.2302 -38.5044,-20.135102 -56.9943,-27.155902 0.93884,8.93793 5.83966,9.54171 7.77005,11.9761 2.32696,2.934992 -1.05874,4.527502 7.06734,6.038932 6.60983,1.22939 6.99109,-2.3366 8.27859,-2.27651 3.79162,0.1766 5.19336,5.66051 10.9874,10.0035 4.07707,3.05603 7.44152,3.30151 11.1798,5.27358 3.11556,1.64353 3.8897,6.458182 6.72407,8.259882 2.83465,1.80199 7.73093,0.59216 10.1112,2.16057 -1.17751,3.33496 -4.22646,5.42211 -11.3919,4.76589 0.82375,2.22917 5.70671,2.20592 7.92851,4.23581 -0.73927,3.96454 -5.47002,3.93818 -14.1911,-0.0791 3.33695,3.39449 6.07522,3.49654 9.11311,5.24495 -0.34611,3.52658 -9.07371,5.70643 -16.7533,-4.23695 0.59386,5.92895 7.47383,7.06848 8.96571,10.154 -3.8486,6.42246 -9.35575,2.89162 -15.9973,-7.4486 -1.6903,10.368 6.34791,9.0618 7.05232,13.593 -6.94375,1.50775 -11.6107,-2.22378 -13.2233,-4.74066 -4.97594,-7.76608 4.73726,-14.1565 -8.68904,-24.7578 -15.7779,-12.458002 -28.4556,6.44174 -49.612,-5.779852 -20.8038,-12.0178 -23.4434,-25.702899 -48.0603,-12.7556 l -0.19445,-8.790809 c -25.2561,12.290999 -47.5237,22.668101 -62.395699,22.979901 -5.93207,15.1084 -21.2284,13.8628 -44.6505,12.6196 -5.386683,-0.28601 -12.882903,7.24111 -16.699203,0.63695 -6.53783,4.11109 -0.204095,6.72548 -0.305858,10.0885 -3.69043,-0.65651 -6.68268,-2.76038 -8.37582,-7.80747 -2.69405,2.26545 0.299339,5.12986 0.449008,7.69493 -4.39484,-0.62958 -6.59424,-3.85342 -6.59792,-9.67097 -4.73726,4.05638 -0.793701,5.71805 -1.19027,8.57736 -4.97367,-0.80249 -6.39298,-5.87084 -5.37959,-13.8569 -9.5485102,5.55024 -3.03194,6.70989 -3.79899,11.7116 -6.2328202,-7.88117 -6.3788102,-12.9186 0.160724,-16.0098 l -0.425481,-3.15666 c -3.0106802,0.51845 -5.4226802,2.03471 -7.2354402,4.54933 -0.730205,2.02564 0.03628,3.4526 0.05443,5.17918 -6.22914,-5.19449 -5.97232,-10.713 3.76413,-16.704902 7.2150302,-10.2064 12.3571002,-3.77065 25.1864002,-3.23547 5.02073,0.20948 12.4158,0.71319 19.1778,-3.43219 l -9.50712,-8.558654 c -7.66318,1.01821 -14.0298,-0.07172 -18.4992,-4.24177 -2.1532,-0.31011 -5.2047,-0.819496 -6.15997,-4.37159 -2.0194,-2.2938 -1.46891,-3.66463 0.903685,-6.35698 1.81673,-7.31055 5.08082,-13.561 10.0913,-15.6824 z"
     id="path9"
     inkscape:connector-curvature="0"
     style="fill:#ffff00" /><path
     sodipodi:nodetypes="cccccccccccccccccccccccccccccccccccccccccccccccccccccccccccccccccccccccccccccccccccccscccccccccccccccccccccccccccccccccccccccccccccccccccccccccccccccccccccccccccccccccc"
     d="m 85.390341,54.020038 c 8.66523,-0.831119 12.242,-1.51257 13.873,-2.94208 -4.51049,-3.61219 -9.93969,2.00325 -31.0499,-4.39144 0.97965,3.86759 8.20404,5.86262 17.1768,7.33352 m 15.376799,3.02939 c 2.70482,-1.00828 5.39093,-1.99786 5.42041,-3.36161 -2.268,-1.34362 -10.838599,1.55225 -17.890899,0.867685 0.11594,1.27984 11.0078,1.66224 12.470499,2.49392 z m -5.532099,3.47386 c 30.980099,-1.19424 59.116799,-26.187 90.096999,-27.3804 -29.2842,3.43928 -72.3376,33.37 -90.096999,27.3804 z m 209.791999,-6.60444 1.65572,-1.5463 c -13.6434,-0.134646 -25.5005,1.00573 -36.0573,1.52192 l 34.4016,0.02438 z m 27.6588,-1.92217 c 1.31017,-1.01197 2.19827,-2.11295 2.57669,-3.32079 -8.13544,2.47918 -16.4531,4.5034 -25.0659,5.78835 l 22.4892,-2.46756 z m 18.0743,-3.53906 c 0.52016,-0.932032 0.76422,-1.80794 0.69052,-2.62772 -3.39024,-1.47175 -10.3723,9.32967 -32.6206,11.7496 10.643,-0.721134 21.2862,-3.61247 31.93,-9.12189 z m 12.9801,-9.73276 c 0.008,-1.64551 -0.2401,-3.3086 -0.76932,-4.99011 -6.42586,13.8841 -14.3853,21.1201 -23.205,24.6266 7.99144,-1.99984 15.9829,-6.44769 23.9743,-19.6365 z m 0.86542,-19.5075 c 9.23868,13.6072 4.40051,23.4028 -5.52955,31.8192 8.90589,-4.56917 15.808,-10.9922 8.68706,-30.3863 m 7.65865,-4.6406 c -1.14605,-0.361134 -2.36636,-0.565229 -3.63345,-0.64715 5.74186,6.96331 7.09342,13.3285 4.05468,19.095 4.24942,-1.95902 4.1091,-8.10822 -0.42123,-18.4479 z m 14.1378,-1.00687 c -1.42101,-1.63077 -3.27799,-2.45424 -5.43033,-2.27934 2.87348,10.6441 2.45452,16.4242 -0.2092,19.7351 3.18898,-2.45112 5.24325,-7.82107 5.63953,-17.4558 z m 8.05352,-1.81871 c -0.66983,-0.726237 -1.41817,-1.43915 -2.24873,-2.13732 1.20983,14.0241 -0.64857,21.1451 -4.22788,24.3933 4.9527,-3.6275 7.11156,-11.0461 6.4766,-22.2559 z m 13.1315,11.9718 c -0.19843,-0.782363 -0.44051,-1.56983 -0.72624,-2.36239 -5.13553,11.9597 -9.88328,18.233 -14.6188,20.6144 6.17471,-0.571465 11.1648,-7.30404 15.3451,-18.252 z m 7.72243,9.78265 c -0.16073,-1.39096 -0.44788,-2.78731 -0.85351,-4.18847 -4.39172,9.85323 -10.2047,16.1521 -16.9909,20.0191 3.25276,5.27698 9.79994,-2.34539 17.8444,-15.8307 z m 5.38838,18.5701 c 0.44447,-1.39578 0.81864,-2.86469 1.11742,-4.41071 -7.56341,7.32728 -15.6365,11.6246 -23.997,14.1625 8.66665,-1.05817 17.212,-3.98211 22.8796,-9.75175 z m -147.262,38.2592 c -4.94192,-4.18167 -6.3961,-9.01163 -9.95075,-9.17717 z m 29.0517,16.520302 c -1.68066,4.76164 -7.02227,5.16558 -11.3919,4.76589 l -3.72189,-3.88403 c 5.88558,4.15843 10.8238,3.34063 15.1138,-0.88186 z m -3.46337,9.00171 c -0.73928,3.96454 -5.47002,3.93818 -14.1911,-0.0791 l -2.69773,-3.85002 c 7.6252,4.90167 13.2548,6.211 16.8888,3.9291 z m -5.07799,5.16586 c -0.34611,3.52658 -9.07371,5.70643 -16.7533,-4.23695 6.07125,3.84747 11.8803,6.38306 16.7533,4.23695 z m -7.78763,5.91704 c -3.8486,6.42246 -9.35575,2.89162 -15.9973,-7.4486 6.55484,5.97572 12.2363,9.45638 15.9973,7.4486 z m -8.94501,6.14438 c -6.94375,1.50775 -11.6107,-2.22378 -13.2233,-4.74066 -4.97594,-7.76608 4.73726,-14.1565 -8.68904,-24.7578 -1.2325,-0.97313 -2.4463,-1.7555 -3.64677,-2.37572 25.1328,8.52917 -0.3223,19.9023 25.5592,31.8742 z m -115.737,-49.923802 c -1.22145,0.55332 -1.45417,-0.61398 -2.80035,0.0938 l 0.10488,-8.491473 1.82239,-1.44964 0.87307,9.847283 z m -97.841199,-61.8721 2.25099,-1.61632 -3.64932,19.0896 1.39833,-17.4733 z m -5.87821,-3.18983 c 1.14066,-3.3738 3.07956,-6.34848 5.8167,-8.92404 -0.1097,1.06781 -0.27355,2.10898 -0.48133,3.12803 l -5.91052,9.37474 z m -1.47232,-7.25046 c 2.03244,-1.61632 3.16715,-6.0763497 5.64888,-6.1956897 0.0196,0.503433 -0.15081,1.17553 -0.43285,1.95647 l -5.66589,6.9862697 0.44985,-2.74706 z m -3.15921,-1.39238 c 1.14917,-3.4795297 3.04696,-10.99979968 6.59112,-10.88729968 0.2503,0.624189 -0.0108,1.67243998 -0.48189,2.93924998 l -6.09392,10.1417997 -0.0153,-2.19373 z m -4.02577,9.91446 c 0.74523,-4.43679 -0.30558,-12.9146997 2.23597,-16.0043997 0.44816,0.648851 0.66472,1.40343 0.81553,2.19147 l -1.5548,14.1743997 -1.49669,-0.361418 z m -6.698272,17.2639 c 2.41285,-5.5063 2.880282,-16.7 4.545072,-18.7639 l 0.78378,0.546236 -4.916702,22.1193 -0.412158,-3.90161 z m -0.997796,-4.79367 c 0.06916,-4.73953 1.92161,-10.8731 1.22258,-16.2335 -0.604347,0.813827 -1.0372,1.68491 -1.41052,2.57584 l 0.187937,13.6576 z m -1.57521,-10.2033 c 1.69994,-6.34281 1.75351,-12.8353 3.75307,-19.0280997 -1.06186,1.05024 -1.86095,2.0571 -2.49251,3.04725 l -1.26057,15.9808997 z m -6.15005,-7.80889 c 1.09049,-3.26835 0.235559,-8.9314097 2.07468,-11.9003997 0.438803,0.597827 0.765922,1.32661 1.02217,2.13704 l -2.64246,12.2243997 z m -1.50633,-2.44857 c -0.118488,-0.815811 -0.01814,-1.63219 -0.192189,-2.44914 -1.21947,1.6285 -1.54091,4.15503 -2.31109,6.23254 l 0.871937,10.1064 z m -4.39569,1.46296 c -0.348945,-0.472536 -0.671811,-0.858898 -0.952441,-0.992126 -2.47011,6.34848 -2.74422,24.5716 -0.823465,35.3608 -5.01052,2.12145 -8.27462,8.37185 -10.0913,15.6824 l 0.113669,3.38514 c 0.617386,-0.723402 1.67754,0.410173 1.85216,-0.523843 2.67109,-14.2855 9.5383,-12.2386 12.9651,-16.8378 -3.86901,1.02472 -3.99118,-15.1211 -3.06369,-36.0746 z m 15.6064,76.0842 c -4.94504,1.38076 -9.78067,1.07858 -13.3889,0.92806 -12.8293,-0.5349 -17.9714,-6.97096 -25.1864002,3.23547 -2.12967,1.31046 -3.80608,2.59852 -5.06013,3.86561 l 7.4449202,-1.64126 c -0.234709,-4.62955 4.48781,-6.01115 14.2963,-5.70359 6.68268,3.63317 15.1495,2.41342 23.5701,1.66252 l -1.67584,-2.3468 z"
     id="path13"
     inkscape:connector-curvature="0"
     style="fill:#ffffff" /><path
     sodipodi:nodetypes="ccc"
     d="m 13.941741,104.82934 c -4.0416402,3.11811 -4.7897002,7.05941 -4.0410702,11.3749 -1.9715,-5.01421 -1.57238,-9.15506 4.0410702,-11.3749 z"
     id="path15"
     inkscape:connector-curvature="0"
     style="fill:#000000;stroke:#000000;stroke-width:0.21600001" /><path
     sodipodi:nodetypes="ccc"
     d="m 21.874241,108.57134 c -4.04164,3.11811 -4.49036,5.71238 -3.74173,10.0278 -1.9715,-5.01421 -1.87172,-7.80804 3.74173,-10.0278 z"
     id="path17"
     inkscape:connector-curvature="0"
     style="fill:#000000;stroke:#000000;stroke-width:0.21600001" /><path
     sodipodi:nodetypes="ccc"
     d="m 27.711341,109.91834 c -2.84428,2.2201 -3.14334,4.6647 -2.39471,8.98016 -1.9715,-5.01421 -1.87172,-7.05969 2.39471,-8.98016 z"
     id="path19"
     inkscape:connector-curvature="0"
     style="fill:#000000;stroke:#000000;stroke-width:0.21600001" /><path
     sodipodi:nodetypes="ccc"
     d="m 34.596141,109.31934 c -2.84428,2.2201 -3.14334,4.6647 -2.39471,8.98016 -1.9715,-5.01421 -1.87172,-7.05969 2.39471,-8.98016 z"
     id="path21"
     inkscape:connector-curvature="0"
     style="fill:#000000;stroke:#000000;stroke-width:0.21600001" /><path
     sodipodi:nodetypes="ccc"
     d="m 8.4039408,98.094338 c -5.54145,1.82041 -7.48544998,3.916062 -6.28611,8.381482 -1.97149998,-5.01421 -0.225354,-7.957702 6.28611,-8.381482 z"
     id="path23"
     inkscape:connector-curvature="0"
     style="fill:#000000;stroke:#000000;stroke-width:0.21600001" /><path
     sodipodi:nodetypes="cccccccccccscccsccccccc"
     d="m 36.392141,111.86434 c 9.44674,3.50136 10.565,-1.64353 16.2403,-1.6081 15.0783,0.0944 39.4631,5.35947 43.6275,-14.107202 12.820299,4.315752 41.765399,-13.4541 69.147199,-22.0014 l -6.43578,8.38148 1.64636,0.74835 c 2.34482,-1.49669 3.79162,-2.993393 6.13644,-3.592063 l 3.2743,0.826867 c 18.2529,-6.79125 25.0841,11.451096 45.1868,18.973396 12.1399,4.542522 25.8718,-4.60573 35.9524,-0.0439 -8.23182,-10.427 -31.4306,14.168702 -57.922,-17.3616 19.4718,1.54205 23.8448,9.00737 35.911,11.1124 13.6755,2.38592 17.8455,-4.12441 33.3349,5.78268 17.6998,11.320402 3.38202,20.270602 8.13317,25.461402 0.0312,-4.45266 2.63877,-10.0684 2.14469,-14.9241 -1.10835,-10.889002 -19.2453,-19.256302 -31.735,-18.380702 -31.5726,2.21329 -29.1458,-19.190603 -51.4253,-23.755803 -9.40678,-1.92728 -22.7809,-0.168945 -43.5093,6.32268 l 10.3272,0.748347 c -24.4117,11.894696 -47.4718,21.986896 -61.065099,19.456996 -2.89417,16.816502 -22.1343,15.923602 -40.2497,14.113102 -6.30397,-0.63014 -4.49292,2.58208 -18.72,3.84718 z"
     id="path25"
     inkscape:connector-curvature="0"
     style="fill:#000000" /><path
     sodipodi:nodetypes="ccccccccc"
     d="m 47.018641,40.920838 c 2.29493,1.04769 4.29052,2.69405 5.98677,4.49008 2.64416,-0.997796 5.18854,-7.73292 6.28611,-13.6199 l -3.91351,4.72762 c 0.25002,-4.69673 1.84734,-9.84246 0.75061,-14.0905 l -1.8788,5.9777 0.27752,-6.0018 -2.56961,-0.191906 c -0.94706,9.12983 -3.14249,12.2729 -4.93909,18.708706 z"
     id="path27"
     inkscape:connector-curvature="0"
     style="fill:#000000;stroke:#000000;stroke-width:0.21600001" /><path
     sodipodi:nodetypes="ccccccccccccc"
     d="m 32.650441,42.716838 8.68082,0.449008 -0.05102,-7.32558 -1.15058,-0.312945 0.774426,-3.32221 -1.82863,-0.121606 1.20813,-6.72832 -2.49364,4.20775 -3.01833,-0.10715 -0.878457,6.94375 -1.84139,-3.26154 c -0.194457,1.39691 -0.389197,2.79383 -0.583937,4.19046 z"
     id="path29"
     inkscape:connector-curvature="0"
     style="fill:#000000;stroke:#000000;stroke-width:0.21600001" /><path
     sodipodi:nodetypes="ccc"
     d="m 189.35434,76.542138 c -6.78501,-0.299339 -13.57,0.199559 -20.355,1.49669 6.43578,-4.69077 13.1207,-6.38703 20.355,-1.49669 z"
     id="path31"
     inkscape:connector-curvature="0"
     style="fill:#ffff00" /><path
     sodipodi:nodetypes="cccccc"
     d="m 41.331241,75.644138 c -1.59307,1.10013 -12.7619,1.73339 -18.1372,-4.42744 -1.4692,0.568063 -6.95736,-0.295087 -5.66022,-3.80438 1.54375,2.16113 4.93257,2.17361 7.3338,0.898016 -2.27254,4.44047 4.76249,6.88479 16.4636,7.3338 z"
     id="path33"
     inkscape:connector-curvature="0"
     style="fill:#000000;stroke:#000000;stroke-width:0.21600001" /><path
     sodipodi:nodetypes="cccc"
     d="m 34.296741,53.343338 c 3.84151,-0.02183 5.51792,5.09811 2.87093,7.35052 -3.7715,3.2091 -5.96722,-2.28983 -8.85771,-3.45912 5.3881,1.09758 7.38369,-0.199559 5.98678,-3.8914 z"
     id="path35"
     inkscape:connector-curvature="0"
     style="fill:#000000" /><path
     sodipodi:nodetypes="cccccccccccccc"
     d="m 11.696741,103.63234 c 1.75862,-8.082152 6.36605,-9.072002 12.46,-9.578842 0.897166,-0.0746 7.99711,1.86265 15.2535,2.69263 2.75925,0.3155 22.911,-0.47339 26.0178,-6.58403 -1.84592,0.59868 -3.69184,0.9978 -5.53777,1.19735 l 3.59206,-4.04107 c -2.49449,1.77137 -4.98898,2.91884 -7.48347,2.69405 2.19515,-1.49669 3.79162,-3.14306 5.23843,-5.3881 -1.54658,0.74835 -2.9435,2.09537 -4.63975,2.24504 l -0.89802,-1.64636 c -2.41965,1.8961 -5.41333,3.44268 -8.231816,4.93909 l 5.687436,0.59868 C 43.825755,104.18118 12.045945,80.633175 11.696745,103.63238 z"
     id="path37"
     inkscape:connector-curvature="0"
     style="fill:#000000" /><path
     sodipodi:nodetypes="ccc"
     d="m 33.249141,71.603038 c -2.29493,-2.29493 -4.78942,-3.99118 -7.48347,-5.08876 3.39251,0.648567 5.43799,2.34482 7.48347,5.08876 z"
     id="path39"
     inkscape:connector-curvature="0"
     style="fill:#000000;stroke:#000000;stroke-width:0.21600001" /><path
     sodipodi:nodetypes="ccc"
     d="m 35.643841,66.514238 c -2.49449,-0.299339 -5.58766,-1.39691 -8.08215,-4.49008 2.39471,1.84592 5.03887,2.9435 8.08215,4.49008 z"
     id="path41"
     inkscape:connector-curvature="0"
     style="fill:#000000;stroke:#000000;stroke-width:0.21600001" /><path
     sodipodi:nodetypes="ccc"
     d="m 90.422341,96.298338 c -7.10958,4.926622 -14.6928,7.246782 -22.6001,7.782812 8.34492,0.65225 16.2527,-0.44306 22.6001,-7.782812 z"
     id="path43"
     inkscape:connector-curvature="0"
     style="fill:#000000;stroke:#000000;stroke-width:0.21600001" /><path
     sodipodi:nodetypes="ccc"
     d="m 94.015341,90.461338 c -6.66057,4.77695 -10.2027,8.44413 -17.3616,9.2795 9.84161,-0.39543 13.1097,-4.03512 17.3616,-9.2795 z"
     id="path45"
     inkscape:connector-curvature="0"
     style="fill:#000000;stroke:#000000;stroke-width:0.21600001" /><path
     sodipodi:nodetypes="ccc"
     d="m 114.66934,87.917338 c -5.78722,0.33732 -11.5744,0.51137 -17.361599,0.44901 5.575179,1.1228 11.387099,0.82318 17.361599,-0.44901 z"
     id="path47"
     inkscape:connector-curvature="0"
     style="fill:#000000" /><path
     sodipodi:nodetypes="ccc"
     d="m 126.34334,84.025338 c -5.78722,0.33732 -11.5744,0.51137 -17.3616,0.44901 5.57518,1.1228 11.3871,0.82318 17.3616,-0.44901 z"
     id="path49"
     inkscape:connector-curvature="0"
     style="fill:#000000" /><path
     sodipodi:nodetypes="ccc"
     d="m 136.37134,77.290438 c -7.58325,4.07906 -11.8738,4.40277 -19.008,3.59206 6.62287,2.86951 15.2785,0.225354 19.008,-3.59206 z"
     id="path51"
     inkscape:connector-curvature="0"
     style="fill:#000000" /><path
     sodipodi:nodetypes="ccc"
     d="m 231.41134,59.479838 c -4.68964,-1.19735 -9.17972,-3.19295 -13.4702,-5.08876 4.68964,1.29713 9.17972,2.99339 13.4702,5.08876 z"
     id="path53"
     inkscape:connector-curvature="0"
     style="fill:#000000" /><path
     sodipodi:nodetypes="ccc"
     d="m 230.51334,60.976538 c -4.49008,-0.947906 -8.98016,-3.04356 -13.4702,-5.08876 4.68964,1.32208 9.17915,2.96816 13.4702,5.08876 z"
     id="path55"
     inkscape:connector-curvature="0"
     style="fill:#000000" /><path
     sodipodi:nodetypes="ccc"
     d="m 235.60234,68.010938 c -4.24092,-1.42214 -11.6745,-5.61317 -16.314,-7.3338 4.51786,0.782646 11.7953,3.80665 16.314,7.3338 z"
     id="path57"
     inkscape:connector-curvature="0"
     style="fill:#000000" /><path
     sodipodi:nodetypes="ccc"
     d="m 237.69734,73.997738 c -4.24092,-1.42214 -7.03474,-3.81714 -11.6742,-5.53777 4.51786,0.782646 7.1555,2.01062 11.6742,5.53777 z"
     id="path59"
     inkscape:connector-curvature="0"
     style="fill:#000000" /><path
     sodipodi:nodetypes="ccccccc"
     d="m 283.34634,83.427338 c -14.0119,-7.51408 -28.0245,-14.5908 -42.0361,-20.1079 l 2.18495,3.46422 c 0.013,7.68359 6.92278,10.0315 8.4206,13.3509 -9.72851,-4.3903 -6.28611,-10.1276 -16.6133,-21.2531 16.3888,6.31106 32.453,14.2435 48.0439,24.5458 z"
     id="path61"
     inkscape:connector-curvature="0"
     style="fill:#000000;stroke:#000000;stroke-width:0.21600001" /><polygon
     transform="translate(-3.6746592,1.5783383)"
     points="333.824,96.4605 367.2,112.774 333.525,94.2154 "
     id="polygon63"
     style="fill:#000000;stroke:#ffffff;stroke-width:0.21600001" /><path
     sodipodi:nodetypes="ccccc"
     d="m 342.76534,101.08834 c -10.8147,-4.452102 -21.0183,-9.166682 -29.0359,-14.817302 l -0.59868,1.34702 c 8.95437,5.41333 19.0823,9.65367 29.6345,13.470202 z"
     id="path65"
     inkscape:connector-curvature="0"
     style="fill:#000000" /><path
     sodipodi:nodetypes="ccc"
     d="m 393.65334,100.78834 c -21.5306,1.99786 -40.0907,1.44964 -50.4386,-6.136442 9.28234,8.715122 27.1862,9.793992 50.4386,6.136442 z"
     id="path67"
     inkscape:connector-curvature="0"
     style="fill:#000000" /><path
     sodipodi:nodetypes="ccc"
     d="m 265.68534,66.663938 -6.73512,-3.8914 c 2.04548,1.69625 4.29052,2.99339 6.73512,3.8914 z"
     id="path69"
     inkscape:connector-curvature="0"
     style="fill:#000000" /><path
     sodipodi:nodetypes="ccc"
     d="m 278.25834,71.004338 c -2.91855,-2.44488 -5.46293,-4.3407 -10.7762,-5.98677 3.41745,2.17021 7.10901,4.36536 10.7762,5.98677 z"
     id="path71"
     inkscape:connector-curvature="0"
     style="fill:#000000" /><path
     sodipodi:nodetypes="ccc"
     d="m 289.18334,75.344738 c -2.91855,-2.44488 -12.0484,-9.57912 -17.3616,-11.2252 3.41745,2.17021 13.6945,9.60378 17.3616,11.2252 z"
     id="path73"
     inkscape:connector-curvature="0"
     style="fill:#000000" /><path
     sodipodi:nodetypes="ccc"
     d="m 419.54534,71.453338 c -8.13204,5.33821 -17.661,8.48126 -28.5868,9.42917 10.1276,1.24724 25.9427,-3.69184 28.5868,-9.42917 z"
     id="path75"
     inkscape:connector-curvature="0"
     style="fill:#ffffff" /><path
     sodipodi:nodetypes="ccc"
     d="m 299.36134,77.889138 c -2.91855,-2.44488 -5.46293,-4.3407 -10.7762,-5.98677 3.41745,2.17021 7.10901,4.36536 10.7762,5.98677 z"
     id="path77"
     inkscape:connector-curvature="0"
     style="fill:#000000" /><path
     sodipodi:nodetypes="ccc"
     d="m 322.26034,86.121338 c -2.91855,-2.44488 -17.1371,-9.57912 -22.4504,-11.2252 3.41745,2.17021 18.7832,9.60378 22.4504,11.2252 z"
     id="path79"
     inkscape:connector-curvature="0"
     style="fill:#000000" /><path
     sodipodi:nodetypes="ccc"
     d="m 330.94134,86.270338 c -2.91855,-2.44488 -18.0352,-9.72879 -23.3484,-11.3749 3.41745,2.17021 19.6812,9.75345 23.3484,11.3749 z"
     id="path81"
     inkscape:connector-curvature="0"
     style="fill:#000000" /><path
     sodipodi:nodetypes="ccc"
     d="m 340.07134,85.372338 c -2.91855,-2.44488 -9.95301,-3.59235 -15.2663,-5.23843 3.41745,2.17021 11.5991,3.61701 15.2663,5.23843 z"
     id="path83"
     inkscape:connector-curvature="0"
     style="fill:#000000" /><path
     sodipodi:nodetypes="ccc"
     d="m 353.99034,79.834838 c -5.76227,-0.79852 -10.851,0.149386 -16.1643,-1.49669 3.41745,2.17021 11.0004,2.12032 16.1643,1.49669 z"
     id="path85"
     inkscape:connector-curvature="0"
     style="fill:#000000" /><path
     sodipodi:nodetypes="ccc"
     d="m 361.92334,89.713338 c -5.76227,-0.79852 -10.851,0.14939 -16.1643,-1.49669 3.41745,2.17021 11.0004,2.12032 16.1643,1.49669 z"
     id="path87"
     inkscape:connector-curvature="0"
     style="fill:#000000" /><path
     sodipodi:nodetypes="ccc"
     d="m 404.12934,89.413338 c -11.1379,3.71736 -21.9892,4.5652 -32.3286,0.29934 9.65339,5.51424 20.679,4.16665 32.3286,-0.29934 z"
     id="path89"
     inkscape:connector-curvature="0"
     style="fill:#000000" /><path
     sodipodi:nodetypes="ccccc"
     d="m 418.94734,70.555338 c -11.2878,11.1385 -22.1389,14.8547 -32.6279,12.4226 20.6045,-1.19735 23.8473,-7.63314 33.5259,-14.3683 l -0.89802,1.9457 z"
     id="path91"
     inkscape:connector-curvature="0"
     style="fill:#000000" /><path
     sodipodi:nodetypes="ccc"
     d="m 392.60534,72.501038 c 19.7654,1.47232 27.3422,-13.3741 27.8385,-19.906 -5.76482,12.4909 -13.5899,18.4896 -27.8385,19.906 z"
     id="path93"
     inkscape:connector-curvature="0"
     style="fill:#000000" /><path
     sodipodi:nodetypes="ccccc"
     d="m 416.70234,38.825438 c -3.69184,8.08215 -10.5766,14.7674 -20.6544,20.0557 l 2.39471,2.09537 c 9.8847,-6.47944 16.7567,-13.6758 18.2597,-22.1511 z"
     id="path95"
     inkscape:connector-curvature="0"
     style="fill:#000000" /><path
     sodipodi:nodetypes="ccccc"
     d="m 409.66734,27.001538 c -2.78788,8.44413 -3.79814,16.1025 -14.9669,20.9537 l 3.4424,0.898016 c 10.3085,-5.84306 10.3955,-12.8146 11.5245,-21.8517 z"
     id="path97"
     inkscape:connector-curvature="0"
     style="fill:#000000" /><path
     sodipodi:nodetypes="ccc"
     d="m 378.68634,82.229338 c -4.3903,2.64416 -9.52895,2.74394 -14.0689,1.19735 5.1137,0.87307 9.75345,0.32428 14.0689,-1.19735 z"
     id="path99"
     inkscape:connector-curvature="0"
     style="fill:#000000" /><path
     sodipodi:nodetypes="ccc"
     d="m 386.16934,74.297138 c -4.3903,2.64416 -11.1753,3.94129 -15.7153,2.39471 5.1137,0.873071 11.3998,-0.873071 15.7153,-2.39471 z"
     id="path101"
     inkscape:connector-curvature="0"
     style="fill:#000000" /><path
     sodipodi:nodetypes="ccc"
     d="m 383.92434,65.466638 c -4.3903,2.64416 -11.1753,3.94129 -15.7153,2.39471 5.1137,0.873071 11.3998,-0.873071 15.7153,-2.39471 z"
     id="path103"
     inkscape:connector-curvature="0"
     style="fill:#000000" /><path
     sodipodi:nodetypes="ccc"
     d="m 372.25034,57.534138 c -3.74173,2.89361 -7.68303,5.18854 -11.8239,6.88479 5.33821,1.09758 9.2795,-1.19735 11.8239,-6.88479 z"
     id="path105"
     inkscape:connector-curvature="0"
     style="fill:#ffffff" /><path
     sodipodi:nodetypes="ccc"
     d="m 352.34434,65.616238 -8.38148,1.64636 c 3.19295,0.449008 5.98677,-0.09978 8.38148,-1.64636 z"
     id="path107"
     inkscape:connector-curvature="0"
     style="fill:#ffffff" /><path
     sodipodi:nodetypes="ccc"
     d="m 349.79934,68.460038 -7.18413,2.69405 c 2.59427,0.299339 4.98898,-0.598677 7.18413,-2.69405 z"
     id="path109"
     inkscape:connector-curvature="0"
     style="fill:#ffffff" /><path
     sodipodi:nodetypes="ccc"
     d="m 30.405341,119.49734 -0.748347,-7.03446 c -0.548788,2.54438 -0.299339,4.8892 0.748347,7.03446 z"
     id="path111"
     inkscape:connector-curvature="0"
     style="fill:#ffffff" /><path
     sodipodi:nodetypes="ccc"
     d="m 23.819941,119.94634 -0.748347,-7.03446 c -0.548788,2.54438 -0.299339,4.8892 0.748347,7.03446 z"
     id="path113"
     inkscape:connector-curvature="0"
     style="fill:#ffffff" /><path
     sodipodi:nodetypes="ccc"
     d="m 16.935141,117.25234 c -0.623906,-2.49449 -0.623906,-5.23843 0.748347,-8.53115 -1.9457,2.34482 -3.19295,6.18633 -0.748347,8.53115 z"
     id="path115"
     inkscape:connector-curvature="0"
     style="fill:#ffffff" /><path
     sodipodi:nodetypes="ccc"
     d="m 8.2543408,114.40834 -0.149669,-6.58545 c -0.773575,2.7686 -1.07291,4.61452 0.149669,6.58545 z"
     id="path117"
     inkscape:connector-curvature="0"
     style="fill:#ffffff" /><path
     sodipodi:nodetypes="ccc"
     d="m 3.4649408,110.21734 -2.24504,-4.93909 c -0.149669,1.19735 0.898016,3.4424 2.24504,4.93909 z"
     id="path119"
     inkscape:connector-curvature="0"
     style="fill:#ffffff" /><path
     sodipodi:nodetypes="cccscc"
     d="m 67.822341,94.951338 c -2.47465,8.144512 -23.5905,7.110152 -29.7241,7.520892 -3.00756,0.20154 -13.7599,-6.410842 -17.8707,1.01027 1.69087,-7.904412 13.4946,-1.77307 17.8175,-1.92529 9.65311,-0.33987 27.8949,0.0238 29.7774,-6.605862 z"
     id="path121"
     inkscape:connector-curvature="0"
     style="fill:#ffffff" /><path
     sodipodi:nodetypes="ccc"
     d="m 286.04034,129.43634 c -3.39251,-2.80517 -6.78501,-6.77112 -9.2795,-11.0273 1.36573,6.34082 3.89027,8.83503 9.2795,11.0273 z"
     id="path123"
     inkscape:connector-curvature="0"
     style="fill:#000000" /><path
     sodipodi:nodetypes="ccc"
     d="m 292.02734,120.54534 c -3.39251,-2.89361 -7.38369,-4.8892 -9.87818,-9.2795 1.36573,6.54066 4.48895,7.0183 9.87818,9.2795 z"
     id="path125"
     inkscape:connector-curvature="0"
     style="fill:#000000" /><path
     sodipodi:nodetypes="ccc"
     d="m 297.41534,114.25834 c -3.69184,-2.29493 -7.38369,-2.19515 -9.87818,-6.58545 1.36573,6.54066 5.08762,5.82095 9.87818,6.58545 z"
     id="path127"
     inkscape:connector-curvature="0"
     style="fill:#000000" /></g>
</svg>