<?xml version="1.0" encoding="UTF-8" standalone="no"?>
<!-- Created with Inkscape (http://www.inkscape.org/) -->

<svg
   xmlns:dc="http://purl.org/dc/elements/1.1/"
   xmlns:cc="http://creativecommons.org/ns#"
   xmlns:rdf="http://www.w3.org/1999/02/22-rdf-syntax-ns#"
   xmlns:svg="http://www.w3.org/2000/svg"
   xmlns="http://www.w3.org/2000/svg"
   xmlns:sodipodi="http://sodipodi.sourceforge.net/DTD/sodipodi-0.dtd"
   xmlns:inkscape="http://www.inkscape.org/namespaces/inkscape"
   width="307.24664"
   height="370.09494"
   id="svg3308"
   version="1.1"
   inkscape:version="0.48.2 r9819"
   sodipodi:docname="New document 2">
  <defs
     id="defs3310" />
  <sodipodi:namedview
     id="base"
     pagecolor="#ffffff"
     bordercolor="#666666"
     borderopacity="1.0"
     inkscape:pageopacity="0.0"
     inkscape:pageshadow="2"
     inkscape:zoom="0.35"
     inkscape:cx="369.87655"
     inkscape:cy="-151.6427"
     inkscape:document-units="px"
     inkscape:current-layer="svg3308"
     showgrid="false"
     fit-margin-top="0"
     fit-margin-left="0"
     fit-margin-right="0"
     fit-margin-bottom="0"
     inkscape:window-width="1574"
     inkscape:window-height="1028"
     inkscape:window-x="98"
     inkscape:window-y="-8"
     inkscape:window-maximized="1" />
  <metadata
     id="metadata3313">
    <rdf:RDF>
      <cc:Work
         rdf:about="">
        <dc:format>image/svg+xml</dc:format>
        <dc:type
           rdf:resource="http://purl.org/dc/dcmitype/StillImage" />
        <dc:title></dc:title>
        <dc:creator>
          <cc:Agent>
            <dc:title>http://commons.wikimedia.org/wiki/User:LeMorvandiau</dc:title>
          </cc:Agent>
        </dc:creator>
      </cc:Work>
    </rdf:RDF>
  </metadata>
  <g
     id="body"
     inkscape:label="#g3353"
     transform="translate(-5.1234507,-10.624529)">
    <path
       inkscape:connector-curvature="0"
       style="fill:#e20909;fill-opacity:1;fill-rule:nonzero;stroke:#e20909;stroke-width:1;stroke-linecap:round;stroke-linejoin:round;stroke-miterlimit:4;stroke-opacity:1;stroke-dasharray:none;stroke-dashoffset:8.75681145;marker:none;visibility:visible;display:inline;overflow:visible;enable-background:accumulate"
       d="m 143.62852,11.124529 c 0,0 1.48886,21.58852 -11.16648,43.92148 -12.65534,22.33295 -18.6108,33.49943 -14.14421,44.6659 4.4666,11.166481 16.3775,20.844091 14.14421,34.988301 -13.71654,31.38585 1.23613,39.14167 4.46659,66.99886 -4.28242,21.26501 -7.31583,42.82403 0,64.02114 -19.84439,-24.93996 -6.43082,-37.62045 -9.67761,-58.81012 -17.76722,-43.2953 -17.08416,-52.2016 -15.63307,-72.95431 0.74443,-13.39978 1.84237,-27.81492 1.84237,-27.81492 0,0 -12.26442,21.85946 -11.51999,36.7481 5.30192,20.0577 -4.16894,40.71991 0.74444,60.29897 11.74376,33.27704 -10.78935,48.36791 17.86636,95.28727 0,0 -17.86636,-5.95545 -23.82182,-22.33295 -5.95545,-16.3775 -2.23329,-30.5217 -4.46659,-50.62136 C 78.01062,171.27754 91.971,171.13828 84.8184,154.05544 76.33432,134.6414 77.37409,136.18907 77.37409,122.7893 c 0,-13.39977 -3.68475,-22.12266 -3.68475,-22.12266 0,0 -8.22616,22.86709 -8.22616,34.778 0.11052,25.53078 8.99712,28.07179 7.44431,75.93204 7.6703,18.91885 -12.40556,30.67203 -12.65534,48.38807 -2.30007,20.32521 0.78634,21.37297 16.3775,33.49943 -17.0962,5.32228 -24.77398,-15.39171 -26.05511,-29.03284 0.74443,-8.18875 5.21102,-27.54397 2.2333,-35.73272 -5.17772,-12.84732 -10.36745,-25.51792 -10.42205,-39.45489 2.9099,-14.21793 2.41512,-35.39556 1.91248,-28.70508 -0.45529,6.06024 -7.79144,7.64632 -11.59009,21.26076 -2.2333,10.42205 -5.21103,25.31068 -1.48887,33.49943 9.85783,16.1365 7.38163,27.76469 3.72216,50.62137 -3.12307,17.52832 9.41067,34.59873 23.07739,44.6659 7.44432,4.46659 12.65534,8.18875 12.65534,8.18875 -5.19777,9.29048 -16.11944,1.99771 -20.84409,-2.97772 -12.65534,-14.14421 -14.88864,-11.91091 -20.09966,-22.33296 -5.21102,-10.42204 -6.08318,-18.6637 -6.08318,-18.6637 0,0 -5.82773,12.70825 -2.10557,19.40813 3.3077,9.45915 9.47071,16.1706 16.3775,23.07739 -9.49048,4.05004 -16.77746,-5.71248 -23.82182,-10.42205 -8.6209602,-8.89189 -8.3126002,-13.98294 -8.3126002,-13.98294 0,0 -1.36501,14.72738 3.84601,21.42726 C 30.60637,336.76263 50.9143,336.6012 78.86295,326.76361 c -6.44178,12.87989 -18.61194,12.56945 -30.5217,16.3775 -4.4666,1.48887 -16.12205,-0.6167 -16.12205,-0.6167 0,0 8.67773,5.82772 18.35534,8.06102 16.15689,5.18042 31.69664,2.25146 45.41034,-7.44432 9.67761,-7.44432 12.65534,-14.88863 12.65534,-14.88863 -2.3517,11.37415 -5.74049,25.25051 5.21102,32.755 7.44432,3.72215 12.70825,2.66936 12.70825,2.66936 0,0 -7.49722,-7.13596 -8.24166,-12.34698 -1.3324,-9.50335 6.21357,-17.80782 14.88864,-20.84409 0,0 -0.74443,13.39977 1.48886,16.3775 2.2333,2.97773 8.18875,10.42205 16.3775,13.39977 8.18875,2.97773 11.05624,2.26314 17.43029,6.51926 6.88051,4.59431 7.354,13.43718 7.354,13.43718 17.7203,-10.14823 -3.52975,-29.14191 -10.64008,-38.56723 0,0 6.69988,3.72216 11.16647,7.44432 4.4666,3.72216 8.93319,10.42204 16.3775,11.91091 7.44432,1.48886 10.42205,2.97772 19.35523,2.97772 6.51255,0.17267 14.43589,-1.07343 17.86636,-7.44432 0,0 -8.18875,1.48887 -16.3775,-2.23329 -8.18875,-3.72216 -10.42204,-1.48886 -16.37749,-9.67761 -7.18188,-7.60341 -8.18875,-15.45851 -8.18875,-25.31069 0,0 15.63306,6.69989 22.33295,12.65535 6.69989,5.95545 7.44432,12.65534 16.3775,15.63306 15.61234,5.17274 25.57344,-9.23689 40.94375,1.48887 8.93318,7.44431 13.27204,13.49009 13.27204,13.49009 1.36884,-14.26727 -3.29881,-20.74638 -6.57216,-24.65657 -11.59465,-13.01092 -29.52251,-3.87595 -43.17704,-8.93318 0,0 10.42204,-3.72216 17.86636,-3.72216 19.45941,3.43148 22.01318,-0.48573 37.96602,-8.18875 9.61507,-3.86693 15.01333,-8.04045 22.59068,-18.79918 0,0 -10.67977,10.61043 -18.12408,9.866 -12.12253,-2.00986 -24.15964,-4.18665 -36.47716,-4.46659 8.18047,-6.74255 19.2232,-1.35346 28.28841,-4.46659 6.69988,-2.97773 3.72215,0 10.42204,-7.44432 6.69989,-7.44432 6.64004,-2.5427 11.16648,-10.42205 5.02492,-8.74707 5.95545,-15.26085 5.95545,-15.26085 0,0 -2.23329,5.76935 -9.67761,7.0721 -8.36077,1.46313 -9.67761,6.69989 -17.12193,8.18875 -18.03487,0.16194 -24.26628,1.99834 -38.71046,12.65534 6.24974,-33.89727 9.40216,-29.03573 20.09966,-40.19931 2.97773,-6.69989 4.6527,-16.74972 4.6527,-16.74972 0,0 -6.14156,10.79426 -15.07474,13.77199 -15.79608,2.72601 -17.1358,19.09169 -23.82182,30.5217 -3.06256,8.47561 -10.63683,11.18942 -17.12193,16.3775 12.45417,-17.87404 -3.27691,-38.66461 5.21102,-57.32125 9.80581,-13.16716 18.40864,-32.03463 12.65534,-48.38806 -8.00349,-14.2687 -0.89881,-30.57665 -8.93318,-44.66591 -16.13042,-15.1305 -6.82117,-29.72713 -13.39977,-50.621361 -3.72216,-11.16648 -0.74443,-20.84409 -0.74443,-26.79955 0,-5.95545 -0.74444,-10.42204 -0.74444,-10.42204 0,0 -10.42204,17.86636 -11.9109,29.03284 1.31454,21.257561 -3.323,46.127021 5.21102,66.254431 10.12233,14.67875 8.71959,35.63083 1.48886,51.36579 -10.08517,14.13112 -13.96978,29.06119 -14.1442,46.15477 -11.70316,-3.58259 -3.62977,-26.3603 -3.72216,-35.73272 -0.27142,-19.3393 -14.57566,-33.93474 -18.6108,-52.11023 -5.99804,-18.68481 3.72768,-37.93936 -0.74443,-56.57682 -8.91756,-15.593761 -16.75759,-30.682501 -14.1442,-49.132501 4.82388,-20.06097 1.7669,-30.45333 -8.93318,-47.64363 z"
       id="path3062"
       sodipodi:nodetypes="csscccccccccsccsccccccccsccccccsccccccccccccccccsssccssccsccscccccccccccsscscccccccccccscccccccccc" />
    <path
       inkscape:connector-curvature="0"
       style="fill:#e20909;fill-opacity:1;fill-rule:nonzero;stroke:#e20909;stroke-width:1;stroke-linecap:round;stroke-linejoin:round;stroke-miterlimit:4;stroke-opacity:1;stroke-dasharray:none;stroke-dashoffset:8.75681145;marker:none;visibility:visible;display:inline;overflow:visible;enable-background:accumulate"
       d="m 53.22521,145.76862 c 0,0 -1.90624,20.19772 -3.02289,23.91988 -1.11664,3.72216 -1.86107,13.39978 -0.74443,18.6108 1.11665,5.21102 0.72554,13.67073 5.21103,19.72744 5.23747,7.0721 6.41798,18.50952 6.41798,18.50952 0,0 3.64699,-14.05926 1.39855,-20.3706 -2.10557,-5.9103 -3.82023,-13.79844 -4.19244,-19.00946 -0.37222,-5.21102 5.92633,-12.30861 2.33136,-19.32878 -2.86871,-5.60194 -7.18112,-16.68585 -7.39916,-22.0588 z"
       id="path3064"
       sodipodi:nodetypes="cssscsssc" />
    <path
       inkscape:connector-curvature="0"
       style="fill:#e20909;fill-opacity:1;fill-rule:nonzero;stroke:#e20909;stroke-width:1;stroke-linecap:round;stroke-linejoin:round;stroke-miterlimit:4;stroke-opacity:1;stroke-dasharray:none;stroke-dashoffset:8.75681145;marker:none;visibility:visible;display:inline;overflow:visible;enable-background:accumulate"
       d="m 173.1955,64.594569 c 0,0 -7.26823,22.58198 0.95472,35.489561 5.71322,12.06624 -0.4368,25.41545 1.86108,37.96602 1.06916,13.23567 9.26289,23.95936 12.28312,36.47716 2.2333,10.42204 2.97773,18.98301 2.97773,18.98301 6.8521,-14.09378 5.81123,-23.66484 4.44014,-30.46558 -5.67245,-13.77098 -6.47238,-19.96674 -5.18457,-36.53328 -1.99995,-30.030331 -4.83857,-35.585431 -10.92199,-41.722381 -6.71787,-4.91956 -6.83765,-20.02354 -6.41023,-20.19451 z"
       id="path3066"
       sodipodi:nodetypes="ccccccccc" />
    <path
       inkscape:connector-curvature="0"
       style="fill:#e20909;fill-opacity:1;fill-rule:nonzero;stroke:#e20909;stroke-width:1;stroke-linecap:round;stroke-linejoin:round;stroke-miterlimit:4;stroke-opacity:1;stroke-dasharray:none;stroke-dashoffset:8.75681145;marker:none;visibility:visible;display:inline;overflow:visible;enable-background:accumulate"
       d="m 251.57113,170.80515 c 0,0 -5.95546,19.35523 -6.32767,21.58852 -4.13111,7.57427 -2.96216,16.21112 -5.58324,24.19404 0,16.74971 -5.21102,14.88863 -7.81654,18.23858 -2.60551,3.34994 -5.21102,9.30539 -5.58323,14.1442 -0.37222,4.83881 2.23329,23.82182 2.23329,23.82182 5.41895,-6.00254 7.2872,-15.0843 11.16648,-22.33296 4.46659,-7.81653 7.81653,-11.53869 11.16647,-18.98301 3.34995,-7.44432 10e-6,-13.58588 -0.37221,-21.40242 -0.37221,-7.81653 4.46659,-11.35258 3.72216,-20.28576 -0.74443,-8.93318 -2.2333,-18.98301 -2.60551,-18.98301 z"
       id="path3068"
       sodipodi:nodetypes="cccssccsssc" />
    <path
       inkscape:connector-curvature="0"
       style="fill:#e20909;fill-opacity:1;fill-rule:nonzero;stroke:#e20909;stroke-width:1;stroke-linecap:round;stroke-linejoin:round;stroke-miterlimit:4;stroke-opacity:1;stroke-dasharray:none;stroke-dashoffset:8.75681145;marker:none;visibility:visible;display:inline;overflow:visible;enable-background:accumulate"
       d="m 101.42944,35.385629 c 0,0 -9.16672,20.77702 -10.28337,24.12697 -1.11664,3.34994 1.4405,9.36925 -1.16501,19.41908 -2.60551,10.04983 -6.99729,19.52036 -5.13621,23.986951 1.86108,4.46659 -1.27857,15.18604 -1.27857,23.747 0,8.56097 0.87991,13.61782 3.85763,19.57327 2.97773,5.95546 7.75268,13.8436 7.75268,13.8436 0,0 -0.30836,-9.00479 -0.30836,-16.07689 0,-7.07211 -0.37221,-8.18875 2.60551,-18.23858 2.97773,-10.04983 5.21103,-14.14421 5.58324,-21.96074 0.37222,-7.816541 1.48887,-16.377501 -0.37221,-21.960741 -1.86108,-5.58324 -2.12919,-13.27972 -4.83881,-20.84409 -3.17706,-8.86932 3.9557,-25.61583 3.58348,-25.61583 z"
       id="path3070"
       sodipodi:nodetypes="cssssscsssssc" />
  </g>
</svg>
